<svg width="150" height="150" viewBox="0 0 150 150" fill="none" xmlns="http://www.w3.org/2000/svg">
<path d="M108.559 25.5387C108.559 25.5387 109.136 22.419 108.697 20.1403L104.531 20.5433C104.531 20.5433 104.531 25.683 105.709 26.4293C106.886 27.1756 108.866 25.3297 108.866 25.3297" fill="white"/>
<path d="M106.35 26.8622C106.099 26.8692 105.85 26.7994 105.623 26.6582C104.389 25.8671 104.34 21.0856 104.34 20.5433C104.339 20.479 104.357 20.4166 104.39 20.3693C104.422 20.322 104.468 20.2934 104.516 20.2895L108.686 19.8865C108.732 19.8804 108.777 19.8968 108.814 19.9327C108.851 19.9686 108.876 20.0213 108.885 20.0806C109.226 21.8518 108.975 24.061 108.829 25.0809C108.872 25.0708 108.917 25.0803 108.955 25.108C108.994 25.1357 109.025 25.1799 109.042 25.2335C109.059 25.287 109.062 25.3468 109.051 25.4031C109.04 25.4594 109.014 25.509 108.979 25.5436C108.908 25.6083 107.531 26.8622 106.35 26.8622ZM104.726 20.7672C104.753 22.2996 104.974 25.6581 105.791 26.1805C106.541 26.6781 107.768 25.887 108.379 25.4193C108.443 25.0361 108.87 22.434 108.548 20.399L104.726 20.7672Z" fill="#231F20"/>
<path d="M96.975 56.2474C95.475 58.9938 90.0562 73.9203 89.6925 74.6169C89.19 75.5821 87.5962 75.8707 86.94 76.5225C86.16 77.2987 85.62 78.8411 85.2375 80.0053C85.0769 80.4133 84.9969 80.8687 85.005 81.3288C85.0099 81.5624 85.0735 81.7871 85.1855 81.9673C85.2976 82.1476 85.4518 82.2731 85.6237 82.3239C85.7828 82.32 85.9397 82.2739 86.0852 82.1885C86.2308 82.103 86.362 81.9799 86.4712 81.8264L88.02 80.1148C88.1737 80.5825 87.9825 81.1099 87.8325 81.5676C87.6825 82.0254 87.5925 82.6523 87.8775 82.9857C87.9856 83.1015 88.115 83.177 88.2525 83.2046C89.1337 83.4434 90.0375 82.7817 90.6075 81.8662C91.1775 80.9507 91.9275 80.5128 92.2425 79.3784C92.6175 78.0749 94.29 75.9254 94.7737 74.6865C95.1112 73.8258 93.8962 73.2387 94.35 72.4625L97.35 67.3527L101.167 60.8199" fill="white"/>
<path d="M88.6088 83.4583C88.4829 83.458 88.3573 83.4413 88.2338 83.4086C88.0615 83.3732 87.8996 83.277 87.765 83.13C87.4688 82.7767 87.4313 82.1349 87.6713 81.4184L87.6975 81.3288C87.7892 81.085 87.8548 80.8255 87.8925 80.5576L86.595 81.9657C86.4679 82.1459 86.3139 82.2889 86.1428 82.3857C85.9717 82.4825 85.7873 82.5309 85.6013 82.5279C85.3887 82.4714 85.1962 82.3231 85.0537 82.1062C84.9113 81.8893 84.8269 81.616 84.8138 81.3288C84.7995 80.8258 84.8849 80.3266 85.0613 79.881C85.3763 78.9306 85.9613 77.1594 86.8238 76.3036C87.1895 75.9972 87.5842 75.7563 87.9975 75.5871C88.6238 75.2836 89.2688 74.9652 89.535 74.4577C89.64 74.2537 90.3075 72.4675 91.08 70.4375C92.955 65.462 95.7713 57.9988 96.8213 56.0832C96.8345 56.0506 96.8529 56.0223 96.8751 55.9999C96.8974 55.9776 96.9229 55.9618 96.9501 55.9537C96.9773 55.9456 97.0055 55.9454 97.0328 55.9529C97.0601 55.9605 97.0859 55.9758 97.1083 55.9977C97.1308 56.0196 97.1495 56.0477 97.1631 56.0799C97.1767 56.1122 97.1849 56.148 97.1872 56.1849C97.1895 56.2218 97.1858 56.2588 97.1764 56.2937C97.1669 56.3285 97.152 56.3602 97.1325 56.3867C96.105 58.2475 93.1763 66.0242 91.425 70.6664C90.4725 73.1939 89.97 74.5273 89.8538 74.7512C89.52 75.3931 88.8113 75.7463 88.1288 76.0697C87.7522 76.2245 87.3918 76.4418 87.0563 76.7165C86.2725 77.4927 85.7138 79.2043 85.4138 80.085C85.2652 80.4514 85.1915 80.8631 85.2 81.2791C85.2046 81.4498 85.2505 81.6141 85.3308 81.7476C85.4112 81.8811 85.5218 81.9767 85.6463 82.0204C85.9145 81.9953 86.1654 81.8351 86.3475 81.5726L87.8963 79.866C87.919 79.8395 87.9462 79.8207 87.9756 79.8112C88.005 79.8016 88.0357 79.8017 88.065 79.8113C88.0943 79.8204 88.1216 79.8387 88.1444 79.8647C88.1672 79.8906 88.185 79.9235 88.1963 79.9606C88.2535 80.222 88.269 80.4964 88.2419 80.7662C88.2148 81.036 88.1456 81.2954 88.0388 81.5278L88.0125 81.6174C87.9488 81.8065 87.765 82.4583 88.0125 82.7419C88.0963 82.8283 88.196 82.8833 88.3013 82.9011C88.7138 82.9637 89.1314 82.8807 89.512 82.6606C89.8926 82.4404 90.2226 82.0909 90.4688 81.6473C90.6803 81.3182 90.9137 81.0151 91.1663 80.7417C91.5603 80.3569 91.8718 79.8424 92.07 79.2491C92.2875 78.4828 92.9063 77.4828 93.5025 76.5175C93.9206 75.8989 94.297 75.233 94.6275 74.5273C94.725 74.2786 94.6275 74.0696 94.3988 73.6765C94.17 73.2835 93.8963 72.8207 94.2188 72.2685L101.025 60.6258C101.041 60.5986 101.06 60.5758 101.082 60.5586C101.104 60.5414 101.129 60.5301 101.154 60.5255C101.18 60.5209 101.205 60.523 101.23 60.5316C101.255 60.5403 101.278 60.5554 101.299 60.5761C101.339 60.619 101.365 60.6809 101.371 60.7486C101.377 60.8164 101.363 60.8847 101.333 60.9393L94.5 72.6018C94.38 72.8058 94.4325 72.9601 94.68 73.383C94.9275 73.8059 95.1675 74.2139 94.9425 74.7861C94.6047 75.5234 94.2182 76.2193 93.7875 76.8658C93.2474 77.6427 92.7872 78.511 92.4188 79.4481C92.1975 80.1189 91.8486 80.7018 91.4063 81.1398C91.1716 81.3919 90.9522 81.6681 90.75 81.9657C90.4954 82.4046 90.1721 82.7653 89.8025 83.0229C89.4329 83.2806 89.0257 83.4291 88.6088 83.4583Z" fill="#231F20"/>
<path d="M94.59 42.2563C94.59 42.2563 95.6062 54.7398 94.725 57.6206C93.7425 60.8447 89.5425 72.9153 89.5425 72.9153L94.2037 76.7663C94.2037 76.7663 98.6625 67.5368 99.1237 63.7405C99.585 59.9442 94.59 42.2563 94.59 42.2563Z" fill="#68E1FD"/>
<path d="M69.3375 85.9162C69.3375 85.9162 57.9825 85.5928 53.4413 87.4089L56.6625 97.9718C56.6625 97.9718 69.1875 92.8222 69.3375 85.9162Z" fill="#231F20"/>
<path d="M56.6625 98.2256C56.6252 98.2275 56.5883 98.2135 56.5573 98.1858C56.5263 98.1581 56.5027 98.118 56.49 98.0713L53.2688 87.5084C53.2586 87.4761 53.2533 87.4414 53.2533 87.4064C53.2533 87.3713 53.2586 87.3367 53.2688 87.3044C53.2805 87.2734 53.2968 87.246 53.3168 87.2237C53.3368 87.2015 53.36 87.1849 53.385 87.175C57.885 85.3639 68.8763 85.6525 69.3375 85.6824C69.3624 85.6816 69.3872 85.6877 69.4103 85.7004C69.4333 85.713 69.4541 85.7318 69.4714 85.7557C69.4887 85.7795 69.502 85.8079 69.5106 85.8389C69.5192 85.87 69.5228 85.9031 69.5213 85.9361C69.4575 88.9214 67.2713 91.8719 63.0263 94.7726C60.993 96.1397 58.8829 97.2958 56.715 98.2306C56.6974 98.2331 56.6796 98.2314 56.6625 98.2256ZM53.6925 87.578L56.7713 97.6733C58.2188 97.0414 68.7263 92.2649 69.1463 86.16C67.6425 86.1252 57.9413 85.9958 53.6925 87.578Z" fill="#231F20"/>
<path d="M20.0438 95.5985C20.0438 95.5985 23.4188 93.1108 29.3213 92.4142L30.4463 100.773L20.0438 95.5985Z" fill="#231F20"/>
<path d="M30.4651 101.022C30.4429 101.029 30.4198 101.029 30.3976 101.022L19.9801 95.8324C19.9461 95.8163 19.9164 95.7875 19.8944 95.7496C19.8725 95.7116 19.8593 95.6661 19.8563 95.6184C19.8546 95.5713 19.8628 95.5244 19.88 95.4831C19.8972 95.4418 19.9228 95.4077 19.9538 95.3846C19.9876 95.3597 23.4188 92.872 29.3026 92.1654C29.3493 92.1606 29.3957 92.1787 29.4331 92.2163C29.4704 92.2539 29.496 92.3084 29.5051 92.3694L30.6301 100.728C30.6348 100.771 30.6314 100.815 30.6203 100.856C30.6091 100.897 30.5906 100.933 30.5663 100.962C30.538 100.995 30.5026 101.016 30.4651 101.022ZM20.5163 95.5488L30.2213 100.375L29.1676 92.6729C24.5738 93.265 21.5326 94.9318 20.5163 95.5687V95.5488Z" fill="#231F20"/>
<path d="M67.5825 98.9421L67.3238 115.152C67.3115 115.918 67.099 116.654 66.7228 117.235C66.3466 117.816 65.83 118.205 65.2613 118.337L58.1363 119.993C57.6308 120.112 57.1101 120.021 56.6454 119.731C56.1808 119.442 55.7951 118.968 55.5413 118.376L52.275 110.824L54.15 109.669L56.9288 116.297C57.0839 116.67 57.3228 116.971 57.6124 117.156C57.902 117.342 58.228 117.403 58.545 117.331L63.9938 116.088C64.3465 116.008 64.6676 115.769 64.9022 115.411C65.1367 115.052 65.2703 114.597 65.28 114.122L65.5463 101.365L67.5825 98.9421Z" fill="#231F20"/>
<path d="M57.6938 120.277C57.2212 120.277 56.7569 120.111 56.348 119.797C55.9391 119.482 55.6001 119.03 55.3651 118.486L52.1251 110.938C52.1119 110.908 52.1035 110.875 52.1002 110.841C52.097 110.807 52.0991 110.772 52.1063 110.739C52.1239 110.673 52.1603 110.62 52.2076 110.59L54.1013 109.435C54.1443 109.408 54.1935 109.404 54.2387 109.424C54.284 109.443 54.322 109.485 54.3451 109.54L57.1013 116.187C57.239 116.515 57.4499 116.779 57.705 116.942C57.9601 117.105 58.247 117.159 58.5263 117.098L63.9751 115.854C64.284 115.781 64.5646 115.569 64.7695 115.253C64.9744 114.938 65.0911 114.538 65.1001 114.122L65.3626 101.37C65.3629 101.336 65.3684 101.303 65.3787 101.272C65.389 101.242 65.4039 101.214 65.4226 101.191L67.4551 98.7579C67.4815 98.7242 67.5152 98.7022 67.5515 98.695C67.5878 98.6879 67.6249 98.696 67.6576 98.7181C67.691 98.7372 67.7193 98.7693 67.7387 98.8102C67.7581 98.851 67.7678 98.8987 67.7663 98.947L67.5001 115.157C67.4851 115.98 67.2558 116.771 66.8511 117.395C66.4464 118.019 65.8912 118.438 65.2801 118.58L58.1551 120.237C58.0026 120.27 57.8482 120.283 57.6938 120.277ZM52.5376 110.928L55.6876 118.252C55.9244 118.798 56.2821 119.234 56.7121 119.501C57.1421 119.768 57.6236 119.853 58.0913 119.745L65.2163 118.088C65.7426 117.965 66.2204 117.603 66.5685 117.066C66.9165 116.528 67.1132 115.846 67.1251 115.137L67.3726 99.5043L65.7226 101.494L65.4563 114.142C65.4448 114.674 65.2952 115.183 65.0327 115.585C64.7703 115.987 64.4112 116.256 64.0163 116.346L58.5676 117.59C58.2118 117.671 57.8459 117.602 57.5208 117.394C57.1956 117.187 56.9271 116.85 56.7526 116.431L54.0788 109.988L52.5376 110.928Z" fill="#231F20"/>
<path d="M33 129.019L90.1838 80.473C90.3969 80.2505 90.5348 79.9248 90.5671 79.5676C90.5995 79.2103 90.5236 78.8506 90.3563 78.5674C90.2735 78.4276 90.1709 78.3107 90.0541 78.2235C89.9373 78.1363 89.8088 78.0805 89.6757 78.0592C89.5427 78.038 89.4078 78.0517 89.2788 78.0996C89.1498 78.1475 89.0291 78.2287 88.9238 78.3385L31.725 126.884C31.5119 127.107 31.374 127.433 31.3417 127.79C31.3093 128.147 31.3851 128.507 31.5525 128.79C31.6357 128.932 31.7393 129.051 31.8573 129.14C31.9754 129.228 32.1055 129.285 32.2402 129.306C32.3749 129.327 32.5114 129.313 32.6418 129.264C32.7723 129.214 32.894 129.131 33 129.019Z" fill="white"/>
<path d="M32.3588 129.561C32.1058 129.563 31.8588 129.46 31.6523 129.266C31.4458 129.072 31.2903 128.797 31.2076 128.48C31.1249 128.162 31.1191 127.819 31.191 127.497C31.263 127.175 31.4091 126.891 31.6088 126.685L88.8226 78.1047C88.9489 77.974 89.0934 77.8776 89.2477 77.821C89.4021 77.7644 89.5634 77.7487 89.7224 77.7748C89.8814 77.8009 90.0349 77.8683 90.1742 77.9732C90.3135 78.078 90.436 78.2182 90.5344 78.3858C90.6329 78.5534 90.7056 78.7451 90.7482 78.9499C90.7909 79.1548 90.8027 79.3688 90.783 79.5797C90.7634 79.7906 90.7126 79.9943 90.6336 80.1791C90.5546 80.364 90.4489 80.5264 90.3226 80.6571L33.0976 129.233C32.8856 129.448 32.6257 129.563 32.3588 129.561ZM89.5501 78.3136C89.3651 78.3135 89.1855 78.3959 89.0401 78.5475L31.8301 127.103C31.6616 127.285 31.554 127.547 31.5308 127.833C31.5076 128.119 31.5707 128.406 31.7063 128.631C31.8428 128.858 32.0414 129.005 32.2591 129.04C32.4767 129.074 32.6958 128.993 32.8688 128.815L90.0638 80.2541C90.2314 80.0711 90.3386 79.8085 90.3624 79.5223C90.3862 79.236 90.3248 78.9487 90.1913 78.7216C90.0535 78.494 89.8546 78.346 89.6363 78.3087L89.5501 78.3136Z" fill="#231F20"/>
<path d="M75.6301 99.5938L75.3751 115.799C75.3622 116.565 75.1496 117.301 74.7736 117.883C74.3975 118.464 73.8812 118.855 73.3126 118.988L66.1876 120.645C65.6818 120.762 65.1611 120.669 64.6967 120.379C64.2322 120.088 63.8467 119.615 63.5926 119.023L60.3413 111.465L62.2163 110.306L64.9726 116.953C65.1274 117.329 65.3669 117.63 65.6574 117.816C65.9479 118.001 66.2749 118.062 66.5926 117.988L72.0413 116.749C72.3968 116.668 72.7199 116.425 72.9547 116.062C73.1895 115.698 73.3214 115.238 73.3276 114.759L73.5938 102.007L75.6301 99.5938Z" fill="white"/>
<path d="M65.7451 120.954C65.2709 120.954 64.8052 120.788 64.395 120.472C63.9847 120.157 63.6445 119.703 63.4088 119.157L60.1576 111.595C60.1436 111.564 60.1347 111.53 60.1315 111.495C60.1283 111.459 60.1308 111.423 60.139 111.389C60.1472 111.355 60.1608 111.324 60.1789 111.298C60.197 111.271 60.2191 111.251 60.2438 111.236L62.1188 110.077C62.1635 110.051 62.2138 110.048 62.2601 110.068C62.3065 110.089 62.3456 110.131 62.3701 110.187L65.1301 116.834C65.2647 117.162 65.4735 117.426 65.7272 117.588C65.9808 117.751 66.2664 117.804 66.5438 117.739L72.0001 116.501C72.3081 116.429 72.5881 116.218 72.793 115.905C72.9979 115.591 73.1151 115.194 73.1251 114.779L73.3913 102.022C73.3916 101.987 73.3974 101.953 73.4084 101.921C73.4194 101.889 73.4353 101.861 73.4551 101.838L75.4876 99.4048C75.5155 99.3711 75.5503 99.349 75.5876 99.341C75.6248 99.3331 75.663 99.3397 75.6976 99.36C75.7309 99.3825 75.7589 99.4167 75.7787 99.4587C75.7986 99.5008 75.8094 99.5492 75.8101 99.5988L75.5663 115.799C75.5524 116.625 75.3232 117.419 74.9177 118.046C74.5123 118.672 73.9557 119.093 73.3426 119.237L66.2176 120.894C66.0617 120.932 65.9036 120.952 65.7451 120.954ZM60.5963 111.585L63.7463 118.904C63.9808 119.449 64.3365 119.885 64.7646 120.152C65.1928 120.419 65.6727 120.505 66.1388 120.396L73.2638 118.74C73.7878 118.616 74.2633 118.255 74.6099 117.719C74.9564 117.183 75.1525 116.505 75.1651 115.799L75.4126 100.186L73.7738 102.146L73.5113 114.794C73.4991 115.328 73.3484 115.84 73.0847 116.243C72.821 116.646 72.4604 116.917 72.0638 117.008L66.6151 118.247C66.2578 118.328 65.8905 118.259 65.5639 118.05C65.2374 117.842 64.9678 117.504 64.7926 117.083L62.1226 110.644L60.5963 111.585Z" fill="#231F20"/>
<path d="M27.6112 93.5586H27.6937C28.2037 91.9465 28.77 89.7424 29.8162 88.5831C30.6112 87.7074 32.01 87.6527 32.5387 88.8368C32.8372 87.9314 33.271 87.1156 33.8137 86.4387C34.3912 85.8167 35.2462 85.5431 35.8837 86.0506C35.5087 85.7421 37.3837 83.7469 37.5862 83.6275C38.3753 83.2163 39.2363 83.111 40.0687 83.324C39.9262 81.2442 43.4025 79.2142 44.6212 78.5525C46.725 77.4181 50.3887 76.831 51.5287 80.08C52.17 79.5078 52.8412 78.7913 53.64 78.6122C54.4387 78.4331 55.41 78.9854 55.5825 80.0501C56.9737 79.5526 57.1125 80.1546 57.7987 81.2841C58.1737 81.896 59.3212 81.6423 59.8912 81.9806C60.2867 82.2093 60.6256 82.5813 60.869 83.0539C61.1124 83.5265 61.2505 84.0805 61.2675 84.6525C61.9264 84.4026 62.6244 84.3971 63.2855 84.6366C63.9466 84.8761 64.5456 85.3513 65.0175 86.0108C66.9712 88.6677 66.8062 92.8222 65.6287 95.8772C64.095 99.8576 61.3912 103.48 58.5487 105.853C55.08 108.744 51.075 110.331 47.0362 111.236C42.855 112.167 38.49 112.376 34.4362 110.739C31.7588 109.679 29.339 107.702 27.42 105.007C26.475 103.644 25.485 102.455 24.5812 101.166C24.196 100.592 23.936 99.8891 23.829 99.1335C23.7219 98.3779 23.772 97.5979 23.9737 96.8772C24.5212 94.9318 26.0625 93.7178 27.6112 93.5586Z" fill="white"/>
<path d="M41.0512 112.192C38.7871 112.225 36.532 111.807 34.3612 110.953C31.6515 109.885 29.2035 107.883 27.2662 105.151C26.775 104.445 26.2687 103.778 25.7662 103.161C25.2637 102.544 24.8512 101.957 24.4125 101.335C24.003 100.727 23.7266 99.982 23.6129 99.1806C23.4992 98.3791 23.5527 97.5517 23.7675 96.7876C24.3187 94.9119 25.8375 93.5337 27.5512 93.3396C27.6075 93.1605 27.6675 92.9714 27.7237 92.7824C28.2037 91.2201 28.7475 89.4488 29.685 88.4139C29.9444 88.1337 30.2456 87.9295 30.5687 87.8146C30.8919 87.6997 31.2297 87.6767 31.56 87.7472C31.9183 87.8213 32.2488 88.0484 32.5012 88.394C32.7861 87.5885 33.1889 86.8663 33.6862 86.2695C33.9577 85.9603 34.2826 85.7449 34.6319 85.6424C34.9813 85.54 35.3443 85.5537 35.6887 85.6823C35.9812 84.8763 37.38 83.4931 37.5 83.4235C38.2503 83.0114 39.0728 82.8873 39.8737 83.0652C40.0162 81.075 42.825 79.2689 44.5424 78.3435C46.7062 77.1792 50.3025 76.627 51.5925 79.7366L51.6975 79.6371C52.2538 79.0365 52.9049 78.6097 53.6025 78.3883C54.4237 78.2042 55.4137 78.7167 55.7062 79.7715C56.8537 79.4083 57.1799 79.861 57.7237 80.7666C57.7912 80.876 57.8587 81.0004 57.9375 81.1248C58.11 81.4084 58.5675 81.4631 59.0062 81.5129C59.3309 81.529 59.652 81.6095 59.9587 81.7517C60.3497 81.9788 60.6903 82.3348 60.9483 82.786C61.2063 83.2371 61.3729 83.7683 61.4325 84.329C62.093 84.1418 62.7786 84.1805 63.4248 84.4417C64.071 84.7028 64.6564 85.1777 65.1262 85.8217C67.1887 88.6278 66.9375 92.9416 65.7712 95.9717C64.3087 99.768 61.6462 103.534 58.6237 106.047C55.5 108.654 51.7087 110.425 47.04 111.465C45.0623 111.927 43.0592 112.17 41.0512 112.192ZM31.2 88.18C30.7401 88.1802 30.2941 88.3891 29.9362 88.7721C29.07 89.7274 28.545 91.439 28.0837 92.9416C28.0087 93.1854 27.9375 93.4391 27.8662 93.6481C27.8519 93.6913 27.829 93.7286 27.7999 93.7558C27.7708 93.7829 27.7367 93.7991 27.7012 93.8023H27.6262C26.04 93.9665 24.6262 95.2253 24.1274 96.9369C23.9384 97.6145 23.8919 98.3476 23.993 99.0576C24.0941 99.7676 24.3389 100.428 24.7012 100.967C25.1325 101.579 25.575 102.161 26.04 102.778C26.505 103.395 27.045 104.097 27.54 104.808C29.432 107.479 31.8249 109.434 34.4737 110.475C37.9875 111.913 42.0825 112.077 46.9875 110.973C51.6037 109.943 55.35 108.191 58.4325 105.619C61.3912 103.131 64.0125 99.4595 65.445 95.7428C66.5475 92.8719 66.7987 88.7771 64.8637 86.165C64.4187 85.5414 63.8536 85.0912 63.2297 84.8632C62.6057 84.6352 61.9466 84.638 61.3237 84.8713C61.2954 84.8829 61.2655 84.8858 61.2363 84.8797C61.2071 84.8737 61.1792 84.8589 61.155 84.8365C61.132 84.8118 61.1134 84.7808 61.1004 84.7455C61.0875 84.7103 61.0805 84.6717 61.08 84.6325C61.0617 84.1089 60.9333 83.6025 60.7093 83.1707C60.4853 82.7389 60.1746 82.399 59.8125 82.1896C59.5438 82.0696 59.2633 82.0026 58.9799 81.9905C58.4625 81.9308 57.9262 81.8612 57.6562 81.4184C57.5737 81.289 57.5025 81.1646 57.435 81.0502C56.9325 80.1944 56.745 79.871 55.6312 80.274C55.5814 80.2889 55.5291 80.2782 55.485 80.2441C55.4632 80.2267 55.4443 80.2036 55.4295 80.1763C55.4147 80.1489 55.4042 80.1178 55.3987 80.0849C55.2487 79.1545 54.3712 78.6818 53.6699 78.8361C53.0297 79.0544 52.4324 79.4532 51.9187 80.0053L51.6337 80.269C51.6113 80.2886 51.5859 80.3014 51.5593 80.3066C51.5328 80.3117 51.5057 80.3091 51.4799 80.2989C51.4536 80.29 51.4291 80.2732 51.4083 80.25C51.3875 80.2267 51.371 80.1975 51.36 80.1645C50.79 78.5425 48.4762 76.7215 44.6925 78.7664C41.8275 80.3088 40.1662 82.0005 40.2562 83.2792C40.2583 83.3165 40.2543 83.3541 40.2446 83.3892C40.2349 83.4244 40.2197 83.4564 40.2 83.4832C40.1794 83.5082 40.155 83.5269 40.1285 83.5381C40.1019 83.5493 40.0738 83.5526 40.0462 83.5479C39.2482 83.3427 38.4227 83.4411 37.665 83.8315C37.425 83.9907 36.1312 85.4385 36.0225 85.8664C36.0518 85.9109 36.0682 85.9678 36.0688 86.0269C36.0693 86.086 36.054 86.1434 36.0256 86.1889C35.9972 86.2344 35.9575 86.265 35.9136 86.2752C35.8698 86.2854 35.8246 86.2745 35.7862 86.2446C35.1862 85.747 34.4062 86.1003 33.9337 86.6128C33.4114 87.2692 32.9932 88.0575 32.7037 88.9313C32.689 88.9715 32.6661 89.0054 32.6376 89.0291C32.6091 89.0529 32.5761 89.0655 32.5425 89.0657C32.5091 89.0658 32.4762 89.0549 32.4468 89.0341C32.4173 89.0132 32.3922 88.9831 32.3737 88.9463C32.2795 88.744 32.1526 88.5721 32.0021 88.443C31.8516 88.3139 31.6814 88.2309 31.5037 88.1999C31.4031 88.1808 31.3014 88.1741 31.2 88.18Z" fill="#D1D3D4"/>
<path d="M65.4487 106.495C65.4487 106.495 68.8237 94.4243 68.3475 89.21C68.3475 89.21 63.57 96.8175 46.7025 100.221C32.0175 103.206 20.985 96.8175 20.985 96.8175C20.985 96.8175 32.685 116.844 41.8537 121.964L65.4487 106.495Z" fill="white"/>
<path d="M41.8538 122.217C41.8291 122.225 41.8035 122.225 41.7788 122.217C32.6701 117.132 20.9476 97.1957 20.8313 96.9917C20.8065 96.9464 20.7935 96.8917 20.7941 96.8358C20.7947 96.7799 20.809 96.7257 20.8347 96.6814C20.8605 96.6372 20.8964 96.6052 20.937 96.5902C20.9776 96.5753 21.0208 96.5782 21.0601 96.5986C21.1726 96.6633 32.2201 102.908 46.6726 99.9869C63.2513 96.6434 68.1526 89.1403 68.2013 89.0408C68.2258 89.0029 68.2581 88.9753 68.2942 88.9612C68.3303 88.9471 68.3687 88.9471 68.4048 88.9613C68.4408 88.9755 68.473 89.0033 68.4975 89.0412C68.5219 89.0792 68.5376 89.1257 68.5426 89.1752C69.0338 94.3895 65.7676 106.092 65.6288 106.589C65.6099 106.65 65.5753 106.699 65.5313 106.729L41.9363 122.197C41.9102 122.212 41.8821 122.218 41.8538 122.217ZM21.5813 97.3897C23.8013 101.052 33.8438 117.127 41.8313 121.665L65.2763 106.296C65.5801 105.191 68.3813 94.8522 68.1788 89.7871C66.8963 91.4589 61.3763 97.4992 46.7138 100.46C34.2038 103.007 24.2101 98.6983 21.5813 97.3897Z" fill="#231F20"/>
<path d="M33.2813 135.343C36.4459 135.343 39.0113 131.939 39.0113 127.74C39.0113 123.541 36.4459 120.138 33.2813 120.138C30.1167 120.138 27.5513 123.541 27.5513 127.74C27.5513 131.939 30.1167 135.343 33.2813 135.343Z" fill="#231F20"/>
<path d="M33.2813 135.592C32.1109 135.592 30.9668 135.131 29.9937 134.268C29.0206 133.406 28.2621 132.179 27.8142 130.745C27.3663 129.31 27.2491 127.731 27.4775 126.208C27.7058 124.685 28.2694 123.286 29.097 122.188C29.9245 121.09 30.9789 120.343 32.1268 120.04C33.2747 119.737 34.4645 119.892 35.5458 120.487C36.6271 121.081 37.5513 122.087 38.2015 123.378C38.8517 124.669 39.1988 126.187 39.1988 127.74C39.1968 129.822 38.5727 131.817 37.4634 133.289C36.3541 134.761 34.8501 135.589 33.2813 135.592ZM33.2813 120.386C32.1851 120.386 31.1135 120.818 30.202 121.626C29.2906 122.434 28.5802 123.582 28.1607 124.926C27.7412 126.27 27.6314 127.748 27.8453 129.175C28.0591 130.601 28.587 131.912 29.3621 132.94C30.1373 133.969 31.1248 134.669 32.2 134.953C33.2751 135.236 34.3895 135.091 35.4023 134.534C36.4151 133.978 37.2807 133.035 37.8897 131.826C38.4987 130.616 38.8238 129.195 38.8238 127.74C38.8218 125.791 38.2372 123.922 37.1982 122.543C36.1592 121.165 34.7506 120.389 33.2813 120.386Z" fill="#231F20"/>
<path d="M33.2812 132.716C35.3523 132.716 37.0312 130.488 37.0312 127.74C37.0312 124.992 35.3523 122.765 33.2812 122.765C31.2102 122.765 29.5312 124.992 29.5312 127.74C29.5312 130.488 31.2102 132.716 33.2812 132.716Z" fill="white"/>
<path d="M33.2812 132.969C32.5017 132.969 31.7397 132.663 31.0916 132.088C30.4434 131.514 29.9383 130.697 29.64 129.741C29.3417 128.786 29.2636 127.734 29.4157 126.72C29.5678 125.706 29.9431 124.774 30.4943 124.043C31.0455 123.311 31.7478 122.813 32.5123 122.611C33.2768 122.41 34.0693 122.513 34.7895 122.909C35.5096 123.305 36.1252 123.975 36.5582 124.835C36.9913 125.695 37.2225 126.706 37.2225 127.74C37.2215 129.127 36.8059 130.456 36.067 131.436C35.3281 132.417 34.3262 132.968 33.2812 132.969ZM33.2812 123.018C32.5783 123.018 31.8911 123.295 31.3066 123.813C30.722 124.331 30.2664 125.067 29.9972 125.929C29.728 126.791 29.6574 127.739 29.7943 128.654C29.9311 129.568 30.2693 130.409 30.7661 131.069C31.2629 131.729 31.896 132.178 32.5854 132.361C33.2747 132.543 33.9894 132.451 34.6391 132.094C35.2887 131.738 35.8442 131.134 36.2353 130.359C36.6263 129.584 36.8355 128.673 36.8362 127.74C36.8352 126.49 36.4604 125.291 35.7939 124.406C35.1274 123.522 34.2238 123.025 33.2812 123.023V123.018Z" fill="#231F20"/>
<path d="M115.084 67.4174L114.75 97.7678L124.331 112.918L122.25 119.182C122.25 119.182 107.355 107.793 104.824 103.107C102.292 98.4196 101.914 87.1203 101.914 87.1203L93.5775 98.2206L90.375 119.645L84 119.182C84 119.182 84.81 104.171 84.81 97.6086C84.81 91.046 97.41 68.4722 97.41 68.4722L115.084 67.4174Z" fill="#231F20"/>
<path d="M90.375 119.894L84 119.431C83.9509 119.426 83.9052 119.395 83.8725 119.347C83.8557 119.323 83.8428 119.294 83.8344 119.264C83.826 119.233 83.8224 119.2 83.8238 119.167C83.8238 119.018 84.6338 104.092 84.6338 97.6086C84.6338 91.036 96.7538 69.2483 97.2713 68.3229C97.2874 68.2937 97.3082 68.2696 97.3322 68.2524C97.3562 68.2352 97.3828 68.2253 97.41 68.2234L115.069 67.1686C115.094 67.1661 115.12 67.1711 115.144 67.1831C115.168 67.1951 115.19 67.2139 115.208 67.2382C115.226 67.2623 115.24 67.2911 115.25 67.3227C115.259 67.3543 115.264 67.3882 115.264 67.4223L114.93 97.6733L124.466 112.749C124.49 112.783 124.506 112.826 124.511 112.872C124.516 112.918 124.511 112.966 124.496 113.008L122.419 119.282C122.409 119.314 122.394 119.343 122.375 119.367C122.355 119.39 122.332 119.407 122.306 119.416C122.283 119.43 122.257 119.437 122.231 119.437C122.205 119.437 122.18 119.43 122.156 119.416C121.545 118.949 107.201 107.973 104.67 103.271C102.42 99.1162 101.861 90.0708 101.749 87.7074L93.75 98.34L90.5588 119.695C90.5508 119.751 90.528 119.803 90.4943 119.839C90.4607 119.875 90.4184 119.895 90.375 119.894ZM84.2138 118.949L90.2138 119.386L93.3863 98.1709C93.3925 98.1223 93.4095 98.0773 93.435 98.0415L101.779 86.9412C101.805 86.9073 101.838 86.8841 101.874 86.8744C101.91 86.8647 101.947 86.8689 101.981 86.8865C102.015 86.9039 102.043 86.9339 102.064 86.9728C102.085 87.0117 102.096 87.0578 102.098 87.1054C102.098 87.2148 102.503 98.3798 104.974 102.957C107.306 107.271 120.461 117.511 122.164 118.824L124.114 112.943L114.608 97.9171C114.579 97.871 114.563 97.8129 114.563 97.7529L114.896 67.6711L97.5263 68.711C96.6375 70.3131 85.0163 91.4042 85.0163 97.6037C85.0163 103.644 84.3225 116.953 84.2175 118.949H84.2138Z" fill="#231F20"/>
<path d="M114.645 35.4399C109.601 32.0665 96.6262 31.146 94.725 36.2807C93.225 40.3606 97.7887 61.8597 97.7887 61.8597L113.839 66.258C113.839 66.258 117.161 37.1216 114.645 35.4399Z" fill="#68E1FD"/>
<path d="M95.79 72.4426L97.335 51.3564L115.526 52.9536L115.05 70.4225L95.79 72.4426Z" fill="#231F20"/>
<path d="M95.79 72.6914C95.7654 72.6918 95.741 72.6853 95.7184 72.6725C95.6958 72.6596 95.6755 72.6406 95.6587 72.6167C95.6393 72.5909 95.6245 72.5596 95.6154 72.5251C95.6063 72.4907 95.6032 72.454 95.6062 72.4177L97.1475 51.3316C97.1494 51.2995 97.156 51.2683 97.167 51.2397C97.1781 51.211 97.1933 51.1856 97.2117 51.1648C97.2302 51.144 97.2516 51.1282 97.2747 51.1184C97.2978 51.1086 97.3221 51.105 97.3462 51.1077L115.537 52.7048C115.586 52.7087 115.631 52.7372 115.664 52.7846C115.697 52.8319 115.715 52.8942 115.714 52.9586L115.237 70.4325C115.235 70.4931 115.216 70.5505 115.185 70.5943C115.153 70.6381 115.111 70.6655 115.065 70.6713L95.805 72.6914H95.79ZM97.5 51.6152L96 72.1689L114.87 70.1787L115.335 53.1675L97.5 51.6152Z" fill="#231F20"/>
<path d="M102.885 32.0814L103.23 36.5594C103.23 36.5594 104.029 38.9526 106.121 37.7535C106.722 37.4087 107.239 36.8494 107.614 36.1378C107.99 35.4263 108.209 34.5904 108.248 33.7234L107.58 25.668C107.58 25.668 105.814 24.8919 105.686 20.1204C105.686 20.1204 103.586 20.1204 100.271 20.3244C100.271 20.3244 99.8137 27.7428 100.369 29.9271C100.924 32.1113 102.885 32.0814 102.885 32.0814Z" fill="white"/>
<path d="M105.019 38.3655C104.607 38.3515 104.206 38.1877 103.859 37.892C103.513 37.5963 103.234 37.1801 103.054 36.6887C103.052 36.6622 103.052 36.6356 103.054 36.6091L102.724 32.3302C102.202 32.2804 100.687 31.962 100.2 30.0365C99.6412 27.8274 100.072 20.6378 100.091 20.3293C100.096 20.2668 100.117 20.2086 100.152 20.1655C100.186 20.1225 100.231 20.0976 100.279 20.0955C103.56 19.9064 105.679 19.8915 105.701 19.8915C105.752 19.8914 105.8 19.9173 105.837 19.9637C105.873 20.0101 105.894 20.0734 105.896 20.1403C106.016 24.6779 107.64 25.4441 107.659 25.4491C107.694 25.4656 107.725 25.4949 107.748 25.5336C107.771 25.5723 107.786 25.6189 107.79 25.668L108.442 33.7034C108.403 34.6257 108.172 35.5154 107.775 36.2741C107.378 37.0328 106.83 37.631 106.192 38.0023C105.824 38.2274 105.424 38.351 105.019 38.3655ZM103.421 36.5096C103.526 36.7932 104.269 38.5545 106.046 37.5395C106.614 37.2163 107.103 36.6895 107.458 36.018C107.814 35.3466 108.021 34.5571 108.056 33.7383L107.4 25.867C106.987 25.5984 105.66 24.4291 105.502 20.394C104.929 20.394 103.08 20.4388 100.451 20.588C100.38 21.8419 100.076 27.9617 100.552 29.8624C101.029 31.763 102.802 31.8227 102.881 31.8177C102.93 31.8184 102.977 31.8424 103.014 31.8854C103.05 31.9283 103.074 31.9874 103.08 32.0516L103.421 36.5096Z" fill="#231F20"/>
<path d="M106.931 25.8372C106.954 25.4231 107.078 25.0301 107.284 24.7177C107.794 23.9465 108.863 23.4091 109.346 24.4888C110.119 26.2153 108.731 28.4393 107.325 27.9716" fill="white"/>
<path d="M107.711 28.2901C107.566 28.2898 107.421 28.2647 107.28 28.2154C107.255 28.2078 107.232 28.1938 107.211 28.1741C107.191 28.1544 107.173 28.1295 107.16 28.1008C107.147 28.0721 107.138 28.0402 107.134 28.0069C107.13 27.9736 107.131 27.9396 107.138 27.907C107.144 27.874 107.155 27.8429 107.17 27.8155C107.185 27.7881 107.204 27.765 107.226 27.7475C107.248 27.7299 107.272 27.7183 107.298 27.7132C107.323 27.7081 107.349 27.7097 107.374 27.7179C107.686 27.8039 108.01 27.7657 108.305 27.6081C108.601 27.4506 108.855 27.1806 109.035 26.8322C109.226 26.5276 109.343 26.1528 109.369 25.758C109.395 25.3633 109.329 24.9673 109.181 24.6231C109.127 24.4856 109.048 24.3682 108.951 24.2813C108.854 24.1945 108.743 24.1409 108.626 24.1256C108.398 24.1292 108.173 24.1977 107.967 24.3264C107.761 24.4552 107.578 24.6412 107.43 24.8719C107.251 25.1428 107.143 25.4831 107.123 25.8421C107.121 25.8759 107.115 25.909 107.103 25.9394C107.092 25.9698 107.077 25.9969 107.057 26.0192C107.038 26.0414 107.016 26.0584 106.992 26.069C106.967 26.0796 106.942 26.0837 106.916 26.081C106.865 26.0758 106.818 26.0443 106.784 25.9931C106.75 25.9419 106.733 25.8751 106.736 25.8073C106.764 25.3366 106.904 24.89 107.138 24.5336C107.325 24.2398 107.559 24.0052 107.823 23.8468C108.087 23.6885 108.374 23.6103 108.664 23.6181C108.839 23.6403 109.006 23.7196 109.152 23.849C109.298 23.9784 109.418 24.1537 109.5 24.3594C109.685 24.7918 109.768 25.2879 109.739 25.7837C109.71 26.2794 109.569 26.7521 109.335 27.1407C109.15 27.4855 108.906 27.7686 108.625 27.968C108.343 28.1674 108.03 28.2776 107.711 28.2901Z" fill="#231F20"/>
<path d="M103.05 34.2358C103.773 33.9753 104.419 33.4286 104.902 32.6685C105.103 32.3848 105.244 32.0355 105.31 31.6561C105.376 31.2767 105.365 30.8809 105.277 30.5092C104.987 30.9884 104.621 31.3775 104.205 31.6492C103.789 31.9208 103.333 32.0683 102.87 32.0814L103.05 34.2358Z" fill="#231F20"/>
<path d="M103.05 34.4846C103.01 34.4854 102.972 34.4678 102.941 34.4348C102.92 34.4145 102.903 34.3885 102.89 34.3585C102.877 34.3285 102.869 34.2951 102.866 34.2607L102.701 32.1063C102.699 32.0712 102.702 32.0357 102.71 32.0022C102.719 31.9688 102.732 31.9381 102.75 31.9122C102.768 31.8863 102.79 31.8658 102.815 31.8521C102.839 31.8384 102.866 31.8318 102.893 31.8327H102.96C103.383 31.8004 103.796 31.6509 104.172 31.3938C104.549 31.1367 104.881 30.7777 105.146 30.34C105.166 30.3048 105.192 30.2774 105.223 30.2608C105.253 30.2441 105.286 30.2388 105.319 30.2455C105.352 30.2521 105.384 30.2703 105.41 30.2983C105.436 30.3262 105.457 30.363 105.469 30.4047C105.567 30.82 105.579 31.2628 105.504 31.6866C105.429 32.1104 105.269 32.4994 105.041 32.8128C104.532 33.6141 103.85 34.189 103.088 34.4597L103.05 34.4846ZM103.091 32.3252L103.215 33.9174C103.812 33.6258 104.345 33.1399 104.764 32.5043C104.903 32.3106 105.011 32.0817 105.082 31.8312C105.153 31.5807 105.185 31.3138 105.176 31.0465C104.621 31.7948 103.88 32.2493 103.091 32.3252Z" fill="#231F20"/>
<path d="M102.304 28.3797C102.126 28.3933 101.951 28.3228 101.809 28.1807C101.456 27.7926 101.917 26.2601 102.364 25.0511C102.386 24.9917 102.424 24.9463 102.471 24.9248C102.519 24.9034 102.57 24.9076 102.615 24.9366C102.66 24.9657 102.694 25.0171 102.71 25.0796C102.726 25.1421 102.723 25.2106 102.701 25.27C102.281 26.4094 101.981 27.5985 102.06 27.8174C102.202 27.9717 102.656 27.8174 102.911 27.708C102.934 27.695 102.958 27.6883 102.983 27.688C103.007 27.6878 103.032 27.6941 103.055 27.7067C103.077 27.7192 103.098 27.7377 103.115 27.761C103.132 27.7843 103.146 27.8119 103.155 27.8423C103.174 27.9031 103.173 27.9711 103.154 28.0317C103.136 28.0922 103.099 28.1404 103.054 28.1657C102.815 28.2935 102.561 28.3659 102.304 28.3797Z" fill="#231F20"/>
<path d="M100.871 25.0212C100.987 25.0212 101.081 24.6982 101.081 24.2998C101.081 23.9013 100.987 23.5783 100.871 23.5783C100.755 23.5783 100.661 23.9013 100.661 24.2998C100.661 24.6982 100.755 25.0212 100.871 25.0212Z" fill="#231F20"/>
<path d="M104.171 25.0212C104.287 25.0212 104.381 24.6982 104.381 24.2998C104.381 23.9013 104.287 23.5783 104.171 23.5783C104.055 23.5783 103.961 23.9013 103.961 24.2998C103.961 24.6982 104.055 25.0212 104.171 25.0212Z" fill="#231F20"/>
<path d="M103.02 30.0912C102.581 30.0937 102.149 29.9482 101.764 29.6683C101.743 29.651 101.725 29.6284 101.71 29.6017C101.696 29.5751 101.686 29.545 101.68 29.5131C101.675 29.4812 101.674 29.4482 101.678 29.4159C101.682 29.3837 101.691 29.3527 101.704 29.325C101.717 29.2972 101.734 29.2731 101.754 29.2541C101.774 29.2351 101.797 29.2215 101.821 29.2141C101.845 29.2067 101.87 29.2056 101.894 29.211C101.918 29.2164 101.942 29.2281 101.962 29.2454C102.349 29.524 102.79 29.6426 103.227 29.5858C103.665 29.5291 104.08 29.2996 104.419 28.9269C104.438 28.9067 104.461 28.8919 104.485 28.8834C104.508 28.8749 104.533 28.8729 104.558 28.8776C104.583 28.8822 104.606 28.8934 104.627 28.9104C104.648 28.9275 104.667 28.95 104.681 28.9767C104.711 29.0289 104.725 29.0948 104.719 29.1601C104.712 29.2254 104.687 29.2847 104.647 29.325C104.186 29.8166 103.612 30.0866 103.02 30.0912Z" fill="#231F20"/>
<path d="M33.6337 129.044L121.054 71.2087C121.291 71.0337 121.466 70.741 121.54 70.3949C121.615 70.0488 121.583 69.6776 121.451 69.3628C121.319 69.0492 121.098 68.8179 120.837 68.7191C120.577 68.6203 120.297 68.6621 120.06 68.8354L32.625 126.675C32.391 126.855 32.2201 127.149 32.1498 127.496C32.0795 127.842 32.1155 128.211 32.25 128.521C32.3818 128.833 32.6013 129.064 32.8606 129.161C33.1199 129.259 33.3978 129.217 33.6337 129.044Z" fill="white"/>
<path d="M33.1388 129.472C32.8697 129.472 32.6081 129.354 32.3951 129.135C32.1822 128.917 32.0298 128.611 31.962 128.266C31.8942 127.92 31.9148 127.555 32.0206 127.226C32.1263 126.898 32.3112 126.625 32.5463 126.452L119.974 68.6065C120.256 68.4031 120.587 68.3554 120.895 68.4737C121.203 68.592 121.464 68.8668 121.62 69.2384C121.698 69.4233 121.748 69.6267 121.766 69.8371C121.785 70.0475 121.772 70.2606 121.728 70.4644C121.685 70.6682 121.611 70.8585 121.512 71.0247C121.413 71.1908 121.291 71.3294 121.151 71.4326L33.7238 129.273C33.5446 129.403 33.3433 129.472 33.1388 129.472ZM120.559 68.925C120.418 68.9239 120.28 68.972 120.158 69.0643L32.7263 126.904C32.5385 127.05 32.4015 127.288 32.3447 127.566C32.2879 127.845 32.3159 128.142 32.4227 128.393C32.5295 128.645 32.7065 128.83 32.9155 128.91C33.1246 128.99 33.3489 128.958 33.54 128.82L120.968 70.9749C121.105 70.8664 121.217 70.707 121.287 70.5162C121.358 70.3253 121.385 70.1112 121.366 69.9001C121.346 69.689 121.281 69.49 121.178 69.3274C121.074 69.1648 120.937 69.0457 120.784 68.9847C120.711 68.95 120.636 68.9299 120.559 68.925Z" fill="#231F20"/>
<path d="M117.562 64.3176L109.312 77.0798C109.312 77.0798 109.924 80.8412 109.357 81.1995C108.791 81.5577 105.87 82.8215 105.42 81.8264C105.146 81.129 105.042 80.3368 105.12 79.5576L104.37 79.4829C104.37 79.4829 104.081 77.8808 104.666 76.9305C105.251 75.9802 113.179 61.8995 113.179 61.8995" fill="white"/>
<path d="M106.256 82.4632C105.791 82.4632 105.416 82.3289 105.255 81.9657C104.984 81.3021 104.863 80.5489 104.906 79.7964L104.344 79.7466C104.303 79.7417 104.264 79.7199 104.233 79.6842C104.202 79.6484 104.181 79.6006 104.171 79.5476C104.171 79.4779 103.864 77.8112 104.509 76.7713C105.086 75.8359 112.935 61.8946 113.014 61.7503C113.046 61.702 113.091 61.6717 113.14 61.6652C113.188 61.6588 113.237 61.6767 113.276 61.7154C113.315 61.7541 113.342 61.8108 113.351 61.8744C113.36 61.938 113.351 62.0037 113.325 62.0587C112.999 62.6359 105.39 76.1493 104.805 77.0997C104.396 77.7614 104.471 78.8261 104.52 79.2491L105.131 79.3038C105.158 79.306 105.184 79.3156 105.208 79.3319C105.232 79.3481 105.253 79.3708 105.27 79.3983C105.286 79.4263 105.299 79.4582 105.306 79.4924C105.313 79.5265 105.315 79.5622 105.311 79.5974C105.238 80.3179 105.333 81.0511 105.585 81.697C105.911 82.4185 108.518 81.4433 109.275 80.9706C109.496 80.8313 109.425 78.9804 109.121 77.1395C109.116 77.1012 109.116 77.0617 109.123 77.0239C109.13 76.986 109.144 76.9507 109.163 76.9205L117.413 64.1584C117.429 64.1329 117.449 64.112 117.472 64.0968C117.494 64.0817 117.519 64.0726 117.544 64.07C117.569 64.0675 117.595 64.0716 117.619 64.082C117.643 64.0925 117.665 64.1092 117.684 64.131C117.704 64.1529 117.719 64.1796 117.731 64.2096C117.742 64.2396 117.749 64.2722 117.751 64.3057C117.753 64.3392 117.75 64.3729 117.742 64.4048C117.734 64.4367 117.722 64.4663 117.705 64.4918L109.515 77.1544C109.714 78.4082 110.051 81.0502 109.436 81.4333C109.185 81.5875 107.434 82.4632 106.256 82.4632Z" fill="#231F20"/>
<path d="M38.055 101.927C44.3759 101.924 50.6565 100.591 56.6625 97.9768C65.4937 94.1307 70.7137 88.9015 70.9312 88.6826C71.0724 88.5458 71.1916 88.373 71.2818 88.1744C71.3719 87.9757 71.4313 87.7551 71.4563 87.5256C71.4814 87.296 71.4716 87.0622 71.4276 86.8377C71.3836 86.6133 71.3063 86.4027 71.2001 86.2185C71.094 86.0342 70.9612 85.88 70.8095 85.7647C70.6578 85.6495 70.4902 85.5756 70.3167 85.5475C70.1432 85.5193 69.9672 85.5374 69.7991 85.6008C69.6309 85.6641 69.474 85.7713 69.3375 85.9162C69.2437 86.0107 64.1475 91.0758 55.74 94.7129C44.5864 99.5355 32.5843 99.6866 21.3637 95.1457C21.0301 95.0138 20.6705 95.0631 20.3643 95.2828C20.058 95.5026 19.8301 95.8747 19.7306 96.3175C19.6311 96.7602 19.6683 97.2372 19.8339 97.6435C19.9996 98.0499 20.2801 98.3523 20.6137 98.4843C26.269 100.759 32.1455 101.919 38.055 101.927Z" fill="white"/>
<path d="M38.055 102.181C32.1242 102.171 26.2266 101.007 20.55 98.7281C20.2631 98.617 20.0078 98.3946 19.8168 98.0896C19.6259 97.7846 19.5079 97.4109 19.4781 97.0163C19.4482 96.6218 19.5079 96.2244 19.6495 95.8752C19.791 95.5259 20.008 95.2408 20.2725 95.0562C20.618 94.812 21.0217 94.7567 21.3975 94.902C32.5819 99.4237 44.5438 99.2726 55.6613 94.4691C63.99 90.8619 68.9963 85.9163 69.2025 85.7073C69.3595 85.5471 69.5389 85.4298 69.7303 85.362C69.9216 85.2943 70.1212 85.2775 70.3175 85.3127C70.5138 85.3478 70.7029 85.4342 70.8739 85.5669C71.0449 85.6995 71.1944 85.8757 71.3138 86.0854C71.4345 86.2938 71.5229 86.5317 71.574 86.7857C71.625 87.0396 71.6377 87.3044 71.6112 87.5648C71.5847 87.8252 71.5196 88.0761 71.4196 88.303C71.3196 88.5299 71.1868 88.7282 71.0288 88.8866C70.8113 89.1105 65.58 94.3597 56.7038 98.2206C50.6856 100.847 44.3904 102.184 38.055 102.181ZM21 95.3299C20.737 95.3428 20.4858 95.4776 20.29 95.7108C20.0941 95.9441 19.9661 96.261 19.9282 96.6065C19.8903 96.9521 19.9449 97.3043 20.0825 97.6019C20.2201 97.8995 20.432 98.1238 20.6813 98.2356C26.3213 100.501 32.181 101.658 38.0738 101.669C44.3746 101.672 50.6355 100.343 56.6213 97.7331C65.4338 93.892 70.6163 88.6976 70.8338 88.4786C70.952 88.3597 71.0508 88.2102 71.1243 88.0391C71.1977 87.8681 71.2443 87.6791 71.2613 87.4835C71.2997 87.0932 71.2204 86.6986 71.0406 86.3855C70.8608 86.0724 70.5951 85.8662 70.3013 85.8118C70.1559 85.7843 70.0079 85.7961 69.8661 85.8466C69.7243 85.897 69.5917 85.9851 69.4763 86.1053C69.2625 86.3143 64.2075 91.3097 55.8225 94.9418C44.6287 99.7806 32.584 99.9334 21.3225 95.3796C21.2175 95.3418 21.1088 95.325 21 95.3299Z" fill="#231F20"/>
<path d="M30.2551 93.1307C30.2365 93.1354 30.2174 93.1354 30.1988 93.1307C30.1518 93.1112 30.1124 93.0679 30.0892 93.0101C30.0661 92.9524 30.061 92.8849 30.0751 92.8222C30.3301 91.7674 30.6338 90.6778 31.3013 89.9762C32.2426 88.9811 33.5288 89.1204 34.7626 89.3493L36.4838 89.6678C36.5333 89.6776 36.5779 89.7128 36.6081 89.7659C36.6382 89.8189 36.6515 89.8855 36.6451 89.9514C36.6368 90.0161 36.6098 90.0741 36.57 90.1131C36.5301 90.1521 36.4804 90.169 36.4313 90.1603L34.7101 89.8419C33.5551 89.6329 32.3588 89.4936 31.5338 90.3693C30.9488 90.9813 30.6713 91.9913 30.4351 92.9715C30.4207 93.019 30.3958 93.0597 30.3637 93.0881C30.3315 93.1165 30.2937 93.1314 30.2551 93.1307Z" fill="#D1D3D4"/>
<path d="M55.0725 88.0109C55.0465 88.0105 55.0209 88.0033 54.997 87.9896C54.9732 87.976 54.9517 87.9561 54.9337 87.9313C53.945 86.5401 52.6422 85.613 51.2218 85.2899C49.8013 84.9668 48.3402 85.2652 47.0587 86.1401C47.015 86.1718 46.9635 86.1791 46.9157 86.1604C46.8679 86.1417 46.8276 86.0986 46.8037 86.0406C46.7798 85.9825 46.7743 85.9143 46.7884 85.8508C46.8025 85.7874 46.835 85.7339 46.8787 85.7022C48.2326 84.7809 49.7752 84.4671 51.275 84.808C52.7748 85.1489 54.1507 86.1261 55.1962 87.5929C55.2211 87.6285 55.2376 87.673 55.2436 87.7209C55.2497 87.7688 55.2451 87.818 55.2303 87.8624C55.2156 87.9068 55.1914 87.9446 55.1606 87.9709C55.1299 87.9973 55.0941 88.0112 55.0575 88.0109H55.0725Z" fill="#D1D3D4"/>
<path d="M41.625 93.0561C41.595 93.0555 41.5656 93.0458 41.5389 93.0277C41.5123 93.0095 41.4891 92.9835 41.4712 92.9516C41.4428 92.8978 41.4311 92.8314 41.4388 92.7664C41.4465 92.7014 41.4729 92.6429 41.5125 92.6033C42.701 91.4482 44.1272 90.8024 45.6 90.7524C45.6249 90.7503 45.6498 90.7552 45.6732 90.7665C45.6967 90.7779 45.718 90.7956 45.736 90.8186C45.754 90.8415 45.7682 90.8691 45.7777 90.8997C45.7872 90.9303 45.7918 90.9631 45.7913 90.9962C45.7923 91.0291 45.7883 91.0618 45.7795 91.0926C45.7707 91.1233 45.7573 91.1514 45.7402 91.1751C45.723 91.1988 45.7024 91.2176 45.6796 91.2305C45.6568 91.2434 45.6323 91.25 45.6075 91.25C44.2117 91.2992 42.8604 91.9119 41.7338 93.0063C41.702 93.0368 41.6642 93.0541 41.625 93.0561Z" fill="#D1D3D4"/>
<path d="M62.58 88.6577C62.298 88.0716 61.8647 87.6418 61.3612 87.4487C60.5705 87.0456 59.7412 86.791 58.8975 86.6924" fill="white"/>
<path d="M62.58 88.9314C62.5458 88.9316 62.5122 88.9191 62.4831 88.8954C62.4539 88.8716 62.4304 88.8376 62.415 88.797C62.1499 88.2675 61.7509 87.8811 61.29 87.7074C60.5159 87.3038 59.703 87.0458 58.875 86.9412C58.8253 86.9352 58.7794 86.9033 58.7474 86.8525C58.7154 86.8016 58.6999 86.736 58.7044 86.67C58.7088 86.604 58.7329 86.5431 58.7712 86.5007C58.8096 86.4582 58.859 86.4377 58.9087 86.4436C59.7692 86.5471 60.6148 86.8083 61.4212 87.2198C61.9701 87.4304 62.4405 87.9038 62.7412 88.5483C62.7635 88.607 62.7673 88.6751 62.7518 88.7375C62.7364 88.8 62.7029 88.8518 62.6587 88.8816C62.636 88.9065 62.6089 88.9236 62.58 88.9314Z" fill="#D1D3D4"/>
<path d="M114.645 35.4399C114.645 35.4399 123.551 51.9734 123.645 55.0533C123.739 58.1331 111.821 74.2437 111.821 74.2437L107.07 69.3429C107.07 69.3429 115.515 55.511 115.358 54.1477C115.2 52.7844 109.826 43.1569 109.826 43.1569C109.826 43.1569 110.25 36.8479 114.645 35.4399Z" fill="#68E1FD"/>
<path d="M99.1237 53.0232C99.1237 53.0232 97.8937 41.1666 99.375 33.0168L101.445 32.7481C101.445 32.7481 100.5 41.1119 101.396 53.9337L99.1237 53.0232Z" fill="#231F20"/>
<path d="M101.404 54.1825C101.386 54.1872 101.369 54.1872 101.351 54.1825L99.0675 53.272C99.0337 53.2586 99.0035 53.2328 98.9803 53.1976C98.9571 53.1624 98.9418 53.1192 98.9363 53.073C98.9363 52.9536 97.7213 41.092 99.2025 32.972C99.2124 32.9225 99.2336 32.8783 99.2631 32.8454C99.2926 32.8124 99.3291 32.7924 99.3675 32.7879L101.434 32.5193C101.462 32.5151 101.491 32.5197 101.517 32.5326C101.544 32.5456 101.568 32.5665 101.588 32.5939C101.606 32.6221 101.621 32.6553 101.629 32.6914C101.637 32.7274 101.64 32.7654 101.636 32.8029C101.636 32.8874 100.706 41.2612 101.591 53.9238C101.594 53.9641 101.59 54.0048 101.578 54.0421C101.566 54.0795 101.548 54.1123 101.524 54.1378C101.489 54.1716 101.447 54.1875 101.404 54.1825ZM99.2925 52.8292L101.194 53.5905C100.444 42.4503 101.081 34.6488 101.235 33.0268L99.5363 33.2457C98.2088 40.7587 99.1575 51.4112 99.2925 52.8292Z" fill="#231F20"/>
<path d="M109.688 33.3402C108.274 40.5436 107.565 47.9581 107.576 55.4015L109.849 55.1229C109.849 55.1229 109.688 44.3709 112.125 34.3005L109.688 33.3402Z" fill="#231F20"/>
<path d="M107.576 55.6503C107.553 55.651 107.531 55.6456 107.509 55.6345C107.488 55.6234 107.469 55.6068 107.452 55.5857C107.432 55.5631 107.416 55.5348 107.405 55.503C107.394 55.4712 107.389 55.4366 107.389 55.4016C107.383 47.9357 108.093 40.4992 109.5 33.2706C109.515 33.2081 109.547 33.1551 109.59 33.1213C109.636 33.0993 109.686 33.0993 109.732 33.1213L112.166 34.0816C112.19 34.0913 112.213 34.1072 112.232 34.1286C112.251 34.15 112.267 34.1763 112.279 34.206C112.289 34.2358 112.294 34.268 112.294 34.3005C112.294 34.3331 112.289 34.3653 112.279 34.395C109.882 44.3112 110.01 55.0284 110.029 55.1379C110.029 55.2003 110.012 55.2607 109.981 55.3075C109.95 55.3543 109.907 55.3843 109.86 55.3916L107.587 55.6702L107.576 55.6503ZM109.826 33.6487C108.479 40.6709 107.788 47.8867 107.771 55.1329L109.669 54.899C109.669 53.292 109.732 43.5848 111.892 34.4697L109.826 33.6487Z" fill="#231F20"/>
<path d="M109.144 22.4986C109.144 22.6429 100.939 22.7474 98.6438 22.7723C98.5695 22.7674 98.497 22.7406 98.4316 22.6938C98.3662 22.647 98.3094 22.5813 98.2656 22.5017C98.2217 22.422 98.1918 22.3304 98.1781 22.2334C98.1644 22.1365 98.1672 22.0367 98.1863 21.9414C98.2089 21.803 98.266 21.6787 98.3483 21.5884C98.4306 21.4982 98.5333 21.4473 98.64 21.4438H99.8963C99.8963 21.4438 99.5625 15.8862 103.856 15.1399C108.15 14.3935 109.125 19.3243 109.144 22.4986Z" fill="white"/>
<path d="M98.6251 23.031C98.5285 23.0298 98.4333 23.0001 98.3464 22.9442C98.2595 22.8883 98.1831 22.8075 98.1226 22.7076C98.0535 22.594 98.005 22.4609 97.981 22.3186C97.9569 22.1762 97.9579 22.0284 97.9838 21.8866C98.0123 21.6875 98.0916 21.5076 98.2084 21.3771C98.3252 21.2465 98.4724 21.1735 98.6251 21.1701H99.6826C99.6826 20.0059 99.9526 15.5379 103.808 14.8662C105.33 14.6025 106.571 15.0105 107.505 16.0852C109.11 17.9261 109.316 21.1801 109.328 22.4986C109.328 22.5673 109.307 22.6334 109.271 22.6827C109.189 22.7971 109.103 22.9116 98.6213 23.031H98.6251ZM98.6251 21.6826C98.5607 21.6879 98.4995 21.7216 98.4512 21.7784C98.4029 21.8353 98.3704 21.9119 98.3588 21.9961C98.3478 22.0634 98.3482 22.133 98.3599 22.2001C98.3715 22.2672 98.3942 22.3301 98.4263 22.3842C98.4494 22.4253 98.4794 22.4589 98.5138 22.4822C98.5483 22.5055 98.5864 22.5179 98.6251 22.5185C104.306 22.4538 108.154 22.3643 108.941 22.2847C108.908 20.9263 108.66 18.0853 107.258 16.4733C106.41 15.5031 105.27 15.1299 103.883 15.3787C99.8251 16.0802 100.076 21.19 100.091 21.404C100.093 21.4394 100.089 21.4749 100.08 21.5083C100.071 21.5417 100.057 21.5724 100.039 21.5984C100.02 21.6244 99.9983 21.6453 99.9739 21.6598C99.9495 21.6742 99.9231 21.682 99.8963 21.6826H98.6251Z" fill="#231F20"/>
<path d="M101.516 21.4239C101.516 21.4239 101.37 18.165 102.266 16.0852C102.863 14.6771 104.516 14.3438 104.918 14.9408C105.169 15.314 104.078 15.9907 103.759 17.6724C103.613 18.9137 103.538 20.1677 103.534 21.4239" fill="white"/>
<path d="M101.516 21.6826C101.467 21.6827 101.419 21.6573 101.384 21.6119C101.348 21.5664 101.327 21.5044 101.325 21.4388C101.325 21.3045 101.186 18.0804 102.075 15.9658C102.283 15.5361 102.562 15.1745 102.891 14.9083C103.219 14.642 103.589 14.4779 103.972 14.4284C104.159 14.3754 104.351 14.3796 104.536 14.4409C104.721 14.5021 104.892 14.6187 105.037 14.7816C105.266 15.115 105.037 15.4732 104.771 15.8514C104.373 16.3783 104.081 17.0304 103.924 17.747C103.781 18.9687 103.708 20.2027 103.702 21.4388C103.704 21.473 103.699 21.5071 103.69 21.5388C103.68 21.5706 103.666 21.5994 103.648 21.6233C103.629 21.6473 103.607 21.6658 103.583 21.6777C103.559 21.6897 103.533 21.6947 103.507 21.6926C103.456 21.6913 103.408 21.6635 103.372 21.6151C103.336 21.5667 103.316 21.5016 103.316 21.4339C103.319 20.1557 103.397 18.8798 103.549 17.6177C103.721 16.8229 104.042 16.0989 104.482 15.513C104.575 15.3846 104.658 15.2447 104.73 15.0951C104.514 14.9271 104.259 14.8721 104.014 14.9409C103.691 14.9792 103.38 15.1142 103.102 15.3357C102.825 15.5572 102.589 15.8594 102.412 16.2196C101.561 18.2098 101.692 21.3891 101.692 21.4189C101.696 21.4868 101.678 21.5535 101.645 21.6047C101.611 21.6559 101.564 21.6875 101.512 21.6926L101.516 21.6826Z" fill="#231F20"/>
<path d="M108.799 21.6727H99.8812C99.8315 21.6727 99.7838 21.6465 99.7486 21.5999C99.7135 21.5532 99.6937 21.4899 99.6937 21.4239C99.6937 21.358 99.7135 21.2947 99.7486 21.248C99.7838 21.2014 99.8315 21.1752 99.8812 21.1752H108.799C108.848 21.1752 108.896 21.2014 108.931 21.248C108.966 21.2947 108.986 21.358 108.986 21.4239C108.986 21.4899 108.966 21.5532 108.931 21.5999C108.896 21.6465 108.848 21.6727 108.799 21.6727Z" fill="#231F20"/>
<path d="M97.3313 51.6152C97.2877 51.6141 97.2457 51.5932 97.2123 51.5561C97.1789 51.519 97.156 51.4679 97.1475 51.4112C97.0988 51.048 95.9663 42.4553 96.525 38.0769C96.5342 38.0121 96.562 37.9545 96.6026 37.9164C96.6432 37.8783 96.6934 37.8627 96.7425 37.8729C96.7914 37.8851 96.8348 37.922 96.8635 37.9759C96.8922 38.0297 96.9039 38.0963 96.8963 38.1615C96.345 42.4553 97.5075 51.2321 97.5188 51.3217C97.5231 51.354 97.5225 51.3872 97.5171 51.4193C97.5117 51.4513 97.5015 51.4816 97.4872 51.5085C97.4729 51.5353 97.4548 51.5581 97.4338 51.5756C97.4128 51.593 97.3894 51.6048 97.365 51.6102L97.3313 51.6152Z" fill="#231F20"/>
<path d="M115.369 54.3965C115.337 54.3974 115.306 54.3873 115.278 54.3672C115.251 54.3471 115.228 54.3178 115.211 54.2821L111.427 46.4905C111.401 46.435 111.392 46.3677 111.402 46.3034C111.413 46.239 111.442 46.1829 111.484 46.1472C111.504 46.1282 111.527 46.115 111.552 46.1085C111.576 46.1019 111.601 46.1022 111.625 46.1092C111.65 46.1162 111.673 46.1298 111.693 46.1492C111.713 46.1686 111.73 46.1933 111.742 46.2218L115.526 54.0134C115.553 54.0689 115.562 54.1361 115.552 54.2005C115.541 54.2648 115.512 54.321 115.47 54.3567C115.44 54.3819 115.405 54.3956 115.369 54.3965Z" fill="#231F20"/>
<path d="M104.25 68.8652C104.085 68.8652 103.916 68.8652 103.751 68.8354C102.401 68.6755 101.151 67.8218 100.268 66.4563C99.3853 65.0908 98.9397 63.3217 99.0262 61.5264L99.315 55.1677C99.3155 55.1331 99.3219 55.099 99.3336 55.0681C99.3452 55.0371 99.3619 55.0099 99.3825 54.9886C99.4023 54.9673 99.4251 54.9515 99.4496 54.9421C99.474 54.9327 99.4997 54.9299 99.525 54.9338L109.5 56.521C109.547 56.5273 109.591 56.5579 109.622 56.6061C109.653 56.6544 109.668 56.7167 109.665 56.7798L109.459 62.2876C109.391 64.0605 108.812 65.731 107.843 66.9548C106.874 68.1786 105.588 68.8624 104.25 68.8652ZM99.675 55.4613L99.405 61.5662C99.37 62.4087 99.4605 63.2522 99.6712 64.0483C99.8819 64.8445 100.209 65.5778 100.633 66.2064C101.057 66.8349 101.571 67.3465 102.144 67.7118C102.717 68.0771 103.339 68.2889 103.974 68.3353C104.609 68.3817 105.245 68.2617 105.845 67.9821C106.445 67.7026 106.998 67.2689 107.472 66.706C107.945 66.143 108.331 65.4617 108.606 64.7011C108.882 63.9404 109.041 63.1152 109.076 62.2727L109.275 56.9987L99.675 55.4613Z" fill="white"/>
<path d="M92.0137 111.948L83.625 110.147L83.2762 126.302C83.2762 126.302 78.1612 128.506 78.2062 129.73C78.27 131.532 89.9325 130.79 89.9325 130.79L92.0137 111.948Z" fill="white"/>
<path d="M84.9412 131.223H84.1012C78.075 131.138 78.0375 130.183 78.0262 129.775C78.0262 129.447 78.345 128.213 83.0962 126.143L83.445 110.167C83.4457 110.13 83.4524 110.094 83.4647 110.062C83.477 110.029 83.4946 110 83.5162 109.978C83.5378 109.955 83.5625 109.939 83.5889 109.929C83.6153 109.92 83.6429 109.918 83.67 109.923L92.0437 111.724C92.0686 111.729 92.0925 111.74 92.1141 111.757C92.1357 111.775 92.1545 111.797 92.1695 111.824C92.1845 111.851 92.1953 111.881 92.2014 111.914C92.2075 111.946 92.2087 111.98 92.205 112.013L90.135 130.855C90.1288 130.914 90.107 130.969 90.0733 131.009C90.0397 131.049 89.9964 131.072 89.9512 131.074C89.925 131.049 87.5362 131.223 84.9412 131.223ZM83.8162 110.47L83.4712 126.332C83.4704 126.385 83.4573 126.436 83.4339 126.479C83.4104 126.522 83.3776 126.554 83.34 126.571C80.9475 127.601 78.3825 129.108 78.405 129.745C78.405 129.835 78.5925 130.626 84.0975 130.706C86.5987 130.735 89.1187 130.606 89.7675 130.566L91.7887 112.182L83.8162 110.47Z" fill="#231F20"/>
<path d="M119.426 104.032L113.906 113.341L122.775 122.516C122.775 122.516 121.125 127.77 121.579 128.487C122.032 129.203 129.214 119.66 129.214 119.66L119.426 104.032Z" fill="white"/>
<path d="M121.65 128.765C121.572 128.762 121.497 128.717 121.444 128.641C120.979 127.924 122.018 124.312 122.55 122.6L113.798 113.545C113.777 113.524 113.76 113.498 113.748 113.468C113.736 113.438 113.728 113.405 113.726 113.371C113.72 113.304 113.733 113.236 113.764 113.182L119.273 103.858C119.29 103.827 119.313 103.803 119.339 103.786C119.365 103.768 119.394 103.759 119.423 103.758C119.48 103.764 119.533 103.798 119.573 103.853L129.375 119.481C129.408 119.528 129.426 119.591 129.426 119.655C129.426 119.719 129.408 119.781 129.375 119.829C127.77 121.929 122.546 128.765 121.65 128.765ZM114.176 113.311L122.895 122.332C122.927 122.367 122.951 122.415 122.961 122.468C122.972 122.522 122.97 122.579 122.955 122.63C122.13 125.257 121.579 127.74 121.703 128.253C122.363 128.004 125.828 123.775 128.955 119.645L119.43 104.455L114.176 113.311Z" fill="#231F20"/>
<path d="M90.8362 115.695H90.8062L84 114.361C83.9512 114.35 83.9075 114.314 83.8781 114.261C83.8487 114.209 83.836 114.143 83.8425 114.078C83.8457 114.045 83.8537 114.014 83.8661 113.986C83.8784 113.958 83.8948 113.934 83.9144 113.914C83.934 113.895 83.9562 113.881 83.98 113.873C84.0037 113.865 84.0283 113.864 84.0525 113.869L90.87 115.197C90.9197 115.202 90.966 115.232 90.9987 115.282C91.0314 115.332 91.0478 115.397 91.0444 115.463C91.0409 115.529 91.0178 115.591 90.9802 115.634C90.9425 115.677 90.8935 115.699 90.8437 115.695H90.8362Z" fill="#D1D3D4"/>
<path d="M90.5738 117.655H90.5513L84.1426 116.52C84.0928 116.511 84.0479 116.476 84.0177 116.423C83.9874 116.37 83.9744 116.303 83.9813 116.237C83.9883 116.171 84.0147 116.111 84.0548 116.071C84.0949 116.031 84.1453 116.014 84.1951 116.023L90.6001 117.157C90.6498 117.162 90.6961 117.193 90.7288 117.243C90.7615 117.292 90.7779 117.358 90.7744 117.424C90.771 117.49 90.7479 117.551 90.7102 117.594C90.6726 117.638 90.6235 117.66 90.5738 117.655Z" fill="#D1D3D4"/>
<path d="M117.289 115.028C117.247 115.025 117.206 115.006 117.172 114.973C117.134 114.932 117.109 114.872 117.103 114.807C117.098 114.742 117.112 114.676 117.142 114.625L121.05 108.042C121.063 108.011 121.082 107.985 121.103 107.964C121.125 107.943 121.15 107.929 121.177 107.922C121.203 107.916 121.23 107.916 121.256 107.925C121.282 107.933 121.307 107.949 121.328 107.971C121.349 107.993 121.366 108.02 121.379 108.052C121.391 108.083 121.398 108.118 121.4 108.154C121.401 108.189 121.397 108.225 121.387 108.258C121.377 108.291 121.362 108.321 121.342 108.346L117.439 114.933C117.42 114.962 117.397 114.986 117.372 115.002C117.346 115.019 117.317 115.027 117.289 115.028Z" fill="#D1D3D4"/>
<path d="M118.56 115.695C118.516 115.694 118.473 115.673 118.44 115.635C118.402 115.591 118.379 115.53 118.375 115.464C118.37 115.398 118.386 115.333 118.418 115.282L121.999 109.624C122.032 109.582 122.076 109.558 122.122 109.556C122.168 109.555 122.213 109.576 122.248 109.615C122.284 109.654 122.307 109.709 122.313 109.77C122.32 109.83 122.309 109.892 122.284 109.943L118.703 115.605C118.685 115.632 118.663 115.654 118.638 115.669C118.614 115.685 118.587 115.693 118.56 115.695Z" fill="#D1D3D4"/>
</svg>
