<svg width="150" height="150" viewBox="0 0 150 150" fill="none" xmlns="http://www.w3.org/2000/svg">
<path d="M117.48 81.2244H37.0238V87.1154H117.48V81.2244Z" fill="white"/>
<path d="M117.476 87.3641H37.0238C36.9741 87.3641 36.9264 87.3379 36.8912 87.2913C36.8561 87.2446 36.8363 87.1813 36.8363 87.1153V81.2244C36.8363 81.1584 36.8561 81.0951 36.8912 81.0485C36.9264 81.0018 36.9741 80.9756 37.0238 80.9756H117.476C117.526 80.9756 117.574 81.0018 117.609 81.0485C117.644 81.0951 117.664 81.1584 117.664 81.2244V87.1153C117.664 87.1813 117.644 87.2446 117.609 87.2913C117.574 87.3379 117.526 87.3641 117.476 87.3641ZM37.2263 86.8666H117.289V81.4682H37.2113L37.2263 86.8666Z" fill="#D1D3D4"/>
<path d="M115.181 87.1154H39.3225V123.924H115.181V87.1154Z" fill="white"/>
<path d="M115.178 124.173H39.3225C39.2728 124.173 39.2251 124.147 39.1899 124.1C39.1548 124.053 39.135 123.99 39.135 123.924V87.1053C39.135 87.0394 39.1548 86.9761 39.1899 86.9294C39.2251 86.8828 39.2728 86.8566 39.3225 86.8566H115.178C115.227 86.8566 115.275 86.8828 115.31 86.9294C115.345 86.9761 115.365 87.0394 115.365 87.1053V123.924C115.365 123.99 115.345 124.053 115.31 124.1C115.275 124.147 115.227 124.173 115.178 124.173ZM39.51 123.675H114.99V87.3541H39.51V123.675Z" fill="#D1D3D4"/>
<path d="M66 120.277H43.5C43.4506 120.276 43.4034 120.249 43.3685 120.203C43.3335 120.156 43.3135 120.094 43.3125 120.028V91.0161C43.3125 90.9501 43.3323 90.8868 43.3674 90.8402C43.4026 90.7935 43.4503 90.7673 43.5 90.7673H66C66.0497 90.7673 66.0974 90.7935 66.1326 90.8402C66.1677 90.8868 66.1875 90.9501 66.1875 91.0161V120.028C66.1875 120.094 66.1677 120.157 66.1326 120.204C66.0974 120.251 66.0497 120.277 66 120.277ZM43.6987 119.779H65.8237V91.2649H43.6987V119.779Z" fill="#D1D3D4"/>
<path d="M88.5 120.277H66C65.9506 120.276 65.9034 120.249 65.8685 120.203C65.8335 120.156 65.8135 120.094 65.8125 120.028V91.0161C65.8125 90.9501 65.8323 90.8868 65.8674 90.8402C65.9026 90.7935 65.9503 90.7673 66 90.7673H88.5C88.5497 90.7673 88.5974 90.7935 88.6326 90.8402C88.6677 90.8868 88.6875 90.9501 88.6875 91.0161V120.028C88.6865 120.094 88.6665 120.156 88.6315 120.203C88.5966 120.249 88.5494 120.276 88.5 120.277ZM66.195 119.779H88.32V91.2649H66.195V119.779Z" fill="#D1D3D4"/>
<path d="M111 120.277H88.5C88.4503 120.277 88.4026 120.251 88.3674 120.204C88.3323 120.157 88.3125 120.094 88.3125 120.028V91.0161C88.3125 90.9501 88.3323 90.8868 88.3674 90.8402C88.4026 90.7935 88.4503 90.7673 88.5 90.7673H111C111.05 90.7673 111.097 90.7935 111.133 90.8402C111.168 90.8868 111.188 90.9501 111.188 91.0161V120.028C111.187 120.094 111.166 120.156 111.132 120.203C111.097 120.249 111.049 120.276 111 120.277ZM88.6987 119.779H110.824V91.2649H88.6987V119.779Z" fill="#D1D3D4"/>
<path d="M68.6888 26.4094C68.592 26.2453 68.4694 26.1112 68.3295 26.0167C68.1895 25.9221 68.0357 25.8694 67.8788 25.8621C67.7406 25.8627 67.6074 25.9299 67.5038 26.0511C67.3906 26.2262 67.3212 26.4435 67.305 26.6731C67.2198 27.29 67.2326 27.9238 67.3425 28.5339C67.4586 29.1458 67.7219 29.6908 68.0925 30.0863C68.5013 30.5042 69.06 30.5838 69.27 29.8425C69.4219 29.2549 69.448 28.6229 69.3454 28.0168C69.2428 27.4108 69.0155 26.8543 68.6888 26.4094Z" fill="white"/>
<path d="M68.6963 30.6535C68.4287 30.6403 68.1718 30.511 67.965 30.2853C67.563 29.854 67.2785 29.2598 67.155 28.5936C67.0368 27.9514 67.0227 27.2832 67.1138 26.6333C67.135 26.3508 67.223 26.0844 67.365 25.872C67.5045 25.7038 67.6866 25.6115 67.875 25.6133C68.0588 25.6222 68.239 25.6827 68.4038 25.7908C68.5686 25.8989 68.7143 26.052 68.8313 26.2402C69.1769 26.7224 69.4157 27.3215 69.5215 27.9718C69.6274 28.6222 69.5961 29.2987 69.4313 29.9271C69.3928 30.0884 69.3252 30.2348 69.2343 30.3536C69.1435 30.4723 69.0322 30.5599 68.91 30.6087C68.8407 30.6365 68.7687 30.6515 68.6963 30.6535ZM67.8938 26.1109C67.7999 26.1112 67.7088 26.1532 67.635 26.2303C67.552 26.3737 67.5036 26.5472 67.4963 26.7278C67.4122 27.3097 67.4237 27.9087 67.53 28.4842C67.6325 29.0432 67.8695 29.5428 68.205 29.9072C68.2876 30.0056 68.3855 30.0786 68.4919 30.1208C68.5982 30.1629 68.7103 30.1732 68.82 30.151C68.8852 30.1202 68.944 30.0695 68.9915 30.0029C69.0391 29.9364 69.0741 29.8558 69.0938 29.7678C69.2321 29.2227 69.2552 28.6377 69.1607 28.0764C69.0662 27.515 68.8576 26.9987 68.5575 26.5835C68.4792 26.4458 68.3793 26.3322 68.2647 26.2506C68.1501 26.169 68.0236 26.1213 67.8938 26.1109Z" fill="#231F20"/>
<path d="M90.7876 124.596C90.8626 124.894 93.1801 129.8 93.1801 129.8C93.1801 129.8 95.6551 130.716 97.4663 128.531L95.4601 122.232L90.7876 124.596Z" fill="white"/>
<path d="M94.4325 130.228C93.9938 130.234 93.5563 130.164 93.1313 130.019C93.0862 130.004 93.0473 129.967 93.0225 129.914C92.475 128.755 90.6863 124.939 90.6075 124.65C90.5929 124.59 90.5964 124.524 90.6174 124.466C90.6383 124.409 90.675 124.364 90.72 124.342L95.3925 121.979C95.4384 121.957 95.4887 121.959 95.5333 121.985C95.5779 122.011 95.6134 122.058 95.6325 122.118L97.6388 128.417C97.6548 128.464 97.6591 128.516 97.651 128.566C97.6429 128.616 97.6228 128.662 97.5938 128.695C96.7225 129.715 95.594 130.262 94.4325 130.228ZM93.3075 129.566C93.6825 129.681 95.7113 130.173 97.2488 128.447L95.3738 122.531L91.05 124.755C91.38 125.491 92.5313 127.954 93.3 129.586L93.3075 129.566Z" fill="#231F20"/>
<path d="M70.5001 129.656L64.5789 135.567C64.6464 137.855 68.3289 137.144 71.7301 135.965C75.1314 134.785 75.7876 133.825 75.7876 133.825L75.6489 129.9L70.5001 129.656Z" fill="#231F20"/>
<path d="M66.75 137.318C65.88 137.318 65.255 137.129 64.875 136.751C64.7339 136.617 64.6186 136.441 64.5385 136.237C64.4584 136.033 64.4156 135.807 64.4138 135.577C64.4114 135.537 64.4167 135.498 64.4292 135.462C64.4417 135.426 64.4609 135.396 64.485 135.373L70.4063 129.457C70.4226 129.438 70.4417 129.424 70.4623 129.415C70.483 129.407 70.5047 129.404 70.5263 129.407L75.675 129.651C75.7221 129.653 75.7669 129.679 75.8002 129.723C75.8336 129.768 75.8532 129.827 75.855 129.89L75.9937 133.81C75.9949 133.876 75.9775 133.94 75.945 133.989C75.915 134.034 75.195 135.029 71.7975 136.208C70.1542 136.843 68.4598 137.216 66.75 137.318ZM64.7663 135.701C64.7805 135.833 64.8147 135.961 64.8669 136.075C64.9191 136.19 64.9882 136.289 65.07 136.368C65.88 137.159 68.2238 136.94 71.6775 135.741C74.4488 134.78 75.3713 133.96 75.5888 133.751L75.465 130.173L70.5525 129.939L64.7663 135.701Z" fill="#231F20"/>
<path d="M75.3751 123.173L75.6601 129.9C75.6601 129.9 72.6863 131.765 70.5113 129.656L69.4388 121.77L75.3751 123.173Z" fill="white"/>
<path d="M72.9901 130.915C72.058 130.943 71.1439 130.571 70.3839 129.855C70.3639 129.836 70.347 129.813 70.3341 129.785C70.3212 129.758 70.3126 129.727 70.3089 129.696L69.2551 121.804C69.2498 121.765 69.2518 121.724 69.2608 121.686C69.2699 121.648 69.2858 121.613 69.3071 121.585C69.3285 121.556 69.3547 121.535 69.3835 121.523C69.4123 121.511 69.4429 121.509 69.4726 121.516L75.3751 122.929C75.4166 122.938 75.4545 122.966 75.4825 123.007C75.5105 123.049 75.5268 123.102 75.5289 123.158L75.8139 129.885C75.8161 129.934 75.8074 129.983 75.7887 130.025C75.77 130.068 75.7422 130.102 75.7089 130.123C74.8511 130.624 73.9269 130.893 72.9901 130.915ZM70.6651 129.511C72.4801 131.198 74.8989 130.039 75.4464 129.74L75.1764 123.382L69.6714 122.068L70.6651 129.511Z" fill="#231F20"/>
<path d="M65.9325 74.9602L82.575 70.1389L96.75 124.436C95.8787 125.403 94.8337 126.054 93.7166 126.326C92.5994 126.598 91.4483 126.482 90.375 125.989L75.645 89.2846L76.3463 126.417C73.3463 128.407 69.4425 126.332 69.4425 126.332C66.6263 115.336 64.2225 74.9502 64.2225 74.9502" fill="#231F20"/>
<path d="M73.2676 127.526C71.9304 127.507 70.6058 127.18 69.3526 126.561C69.3276 126.548 69.3049 126.528 69.2862 126.502C69.2674 126.476 69.253 126.445 69.2438 126.412C66.4538 115.51 64.0426 75.3731 64.0163 74.9701C64.0124 74.9041 64.0283 74.8388 64.0607 74.7884C64.093 74.738 64.1391 74.7067 64.1888 74.7014C64.2386 74.6962 64.2878 74.7173 64.3258 74.7602C64.3638 74.8032 64.3874 74.8643 64.3913 74.9303C64.4176 75.3333 66.8101 115.142 69.5738 126.143C70.1288 126.412 73.4813 127.904 76.1401 126.262L75.4426 89.2896C75.442 89.2343 75.4553 89.1802 75.4804 89.1361C75.5056 89.0919 75.5411 89.0602 75.5813 89.0458C75.6223 89.0314 75.6658 89.0359 75.7046 89.0585C75.7434 89.0811 75.7753 89.1204 75.7951 89.1702L90.4913 125.79C91.5113 126.237 92.5993 126.34 93.6567 126.089C94.7142 125.838 95.7078 125.241 96.5476 124.352L82.4513 70.4275L65.9738 75.204C65.9492 75.2112 65.9238 75.2118 65.899 75.206C65.8741 75.2001 65.8504 75.1878 65.8292 75.1698C65.8079 75.1518 65.7896 75.1284 65.7752 75.101C65.7607 75.0735 65.7505 75.0426 65.7451 75.0099C65.7397 74.9773 65.7392 74.9435 65.7436 74.9106C65.748 74.8776 65.7573 74.8462 65.7708 74.818C65.7844 74.7898 65.8021 74.7654 65.8227 74.7463C65.8434 74.7272 65.8667 74.7136 65.8913 74.7064L82.5338 69.8802C82.5784 69.868 82.6249 69.8774 82.6647 69.9066C82.7046 69.9358 82.7353 69.9829 82.7513 70.0394L96.9376 124.357C96.9501 124.404 96.9513 124.455 96.9413 124.503C96.9312 124.551 96.9103 124.594 96.8813 124.626C95.9777 125.621 94.8959 126.29 93.7405 126.569C92.5851 126.848 91.395 126.727 90.2851 126.218C90.2458 126.195 90.2129 126.157 90.1913 126.108L75.8326 90.3245L76.5001 126.412C76.5012 126.459 76.4923 126.505 76.4744 126.546C76.4565 126.586 76.4303 126.619 76.3988 126.641C75.4192 127.247 74.3485 127.55 73.2676 127.526Z" fill="#231F20"/>
<path d="M93.1801 129.8C93.1801 129.8 93.8363 133.397 94.0988 133.781C94.3613 134.164 103.305 136.537 103.759 135.144C104.213 133.751 97.4663 128.511 97.4663 128.511C97.4663 128.511 95.0663 130.228 93.1801 129.8Z" fill="#231F20"/>
<path d="M102.428 135.84C99.8625 135.84 94.2788 134.452 93.96 133.96C93.6413 133.467 93.1088 130.477 93 129.86C92.9923 129.82 92.9923 129.778 93.0002 129.738C93.0081 129.698 93.0235 129.661 93.045 129.631C93.0655 129.601 93.0914 129.578 93.1203 129.565C93.1491 129.552 93.18 129.549 93.21 129.556C95.01 129.949 97.3575 128.332 97.38 128.312C97.4077 128.293 97.4386 128.283 97.47 128.283C97.5014 128.283 97.5323 128.293 97.56 128.312C99.1763 129.566 104.415 133.785 103.935 135.253C103.849 135.522 103.613 135.686 103.185 135.776C102.934 135.821 102.681 135.842 102.428 135.84ZM93.4275 130.094C93.735 131.731 94.1063 133.427 94.2413 133.636C94.6538 133.98 101.798 135.86 103.38 135.218C103.461 135.199 103.535 135.145 103.59 135.064C103.774 134.492 101.486 131.95 97.4625 128.815C97.0163 129.109 95.1038 130.293 93.4275 130.094Z" fill="#231F20"/>
<path d="M77.9513 28.6931C78.2974 27.3726 78.3674 25.9524 78.1538 24.5833C77.7788 22.5285 75.6713 20.3343 74.1751 20.4786C72.6788 20.6228 68.7338 23.0459 68.5501 23.7873C68.3663 24.5286 68.0326 30.3002 68.8763 31.0316C69.7201 31.763 77.3963 31.1062 77.9513 28.6931Z" fill="white"/>
<path d="M70.6463 31.554C69.7201 31.554 69.0151 31.4495 68.7713 31.2406C67.7626 30.3649 68.2088 24.3545 68.3663 23.7126C68.5876 22.8121 72.6451 20.3741 74.1563 20.2298C75.7501 20.0756 77.9063 22.3245 78.3301 24.5236C78.5559 25.9383 78.4845 27.4081 78.1238 28.7727C77.9738 29.4096 77.4226 29.9569 76.4776 30.4146C74.8838 31.1809 72.3751 31.554 70.6463 31.554ZM74.3176 20.7174H74.1863C72.6863 20.8567 68.8988 23.2748 68.7263 23.8569C68.5716 25.0279 68.5013 26.2158 68.5163 27.4045C68.5163 30.1957 68.8726 30.7231 68.9813 30.8176C69.5251 31.2853 73.9576 31.0863 76.3538 29.937C77.1713 29.5439 77.6626 29.0812 77.7713 28.6085C78.1036 27.3288 78.171 25.9542 77.9663 24.6281C77.6251 22.7573 75.7088 20.7174 74.3176 20.7174Z" fill="#231F20"/>
<path d="M69.51 19.9264C69.51 19.9264 68.625 21.0807 67.1362 19.9264C65.6475 18.7721 65.9512 16.4833 66.3862 15.6673C66.8212 14.8514 68.115 13.2692 69.3112 13.6772C69.8818 13.8164 70.4275 14.0965 70.92 14.5031C70.92 14.5031 71.9025 13.702 74.1075 13.6473C76.3125 13.5926 77.0175 15.1051 77.0175 15.1051C77.0175 15.1051 78.7725 14.1697 79.8675 15.5081C80.3356 16.0437 80.6317 16.7965 80.6952 17.6124C80.7586 18.4282 80.5846 19.2454 80.2087 19.8965C79.5225 20.9662 76.7362 20.6926 76.7362 20.6926L69.51 19.9264Z" fill="white"/>
<path d="M77.535 20.9463C77.1225 20.9463 76.8038 20.9165 76.7138 20.9115L69.5888 20.1801C69.3375 20.4438 68.43 21.205 67.0575 20.1204C66.7727 19.9028 66.5254 19.6084 66.3316 19.2561C66.1379 18.9039 66.0019 18.5017 65.9325 18.0754C65.7881 17.1954 65.9021 16.2755 66.2513 15.5031C66.7088 14.6324 68.07 12.9756 69.375 13.4035C69.9262 13.5593 70.4569 13.8226 70.95 14.1846C71.265 13.9756 72.2775 13.4134 74.1225 13.3686C75.9675 13.3239 76.8413 14.3637 77.1038 14.7767C77.5538 14.5777 79.0163 14.0752 80.0138 15.2742C80.5169 15.8528 80.8355 16.6634 80.9051 17.5419C80.9747 18.4204 80.7902 19.3012 80.3888 20.0059C79.8413 20.807 78.45 20.9463 77.535 20.9463ZM69.51 19.6776L76.725 20.4139C77.475 20.4886 79.53 20.5035 80.04 19.7074C80.3811 19.1033 80.5371 18.3503 80.4766 17.5997C80.4161 16.8492 80.1435 16.157 79.7138 15.6623C78.7163 14.4433 77.0888 15.2941 77.0625 15.3041C77.0217 15.3268 76.9762 15.3292 76.9341 15.311C76.8921 15.2927 76.8565 15.2549 76.8338 15.2046C76.8075 15.1499 76.14 13.8115 74.085 13.8662C71.955 13.9209 71.0025 14.6772 70.9913 14.6871C70.9599 14.716 70.9226 14.7315 70.8844 14.7315C70.8462 14.7315 70.8089 14.716 70.7775 14.6871C70.3033 14.3097 69.7829 14.0453 69.24 13.906C68.115 13.5378 66.9075 15.0603 66.5175 15.8066C66.2261 16.4631 66.131 17.2409 66.2513 17.9859C66.3107 18.3484 66.4277 18.69 66.5945 18.9877C66.7614 19.2855 66.9742 19.5325 67.2188 19.7124C68.58 20.7672 69.375 19.7721 69.375 19.7721C69.3913 19.7447 69.4117 19.7221 69.4349 19.7058C69.4582 19.6895 69.4838 19.6799 69.51 19.6776Z" fill="#231F20"/>
<path d="M70.9875 34.385L70.305 39.2013C70.305 39.2013 71.475 42.2264 73.8675 41.3955C76.26 40.5646 76.6313 38.1167 76.6313 38.1117L76.7925 32.9521L76.89 29.7777C76.9368 29.4498 76.9469 29.1145 76.92 28.7826C76.8375 28.4543 76.545 28.2204 76.395 27.9517C76.1703 27.5543 75.9744 27.1295 75.81 26.683C75.4616 25.7991 75.2091 24.8544 75.06 23.8768C74.1495 23.9669 73.2454 23.613 72.5175 22.8817C72.255 23.4887 73.065 24.0709 73.0125 24.7624C72.1388 24.5784 71.0138 24.2002 70.3875 23.3544C70.08 23.3096 68.8875 26.1456 68.7263 27.2701C68.4903 28.7328 68.4598 30.2408 68.6363 31.7182C69 34.201 70.9875 34.385 70.9875 34.385Z" fill="white"/>
<path d="M73.0576 41.7887C71.1188 41.7887 70.1476 39.3457 70.1401 39.3009C70.1272 39.2492 70.1272 39.1934 70.1401 39.1417L70.7851 34.5792C70.2376 34.4548 68.7713 33.9125 68.4901 31.778C68.3096 30.2693 68.3401 28.7294 68.5801 27.2354C68.768 26.3656 69.0363 25.53 69.3788 24.7476C70.0951 23.051 70.3426 23.0908 70.4438 23.1007C70.4883 23.1087 70.5294 23.1368 70.5601 23.1803C70.9801 23.7625 71.7376 24.1754 72.8101 24.4541C72.7502 24.2969 72.6799 24.147 72.6001 24.0063C72.4126 23.653 72.1801 23.2201 72.3788 22.7574C72.3921 22.7258 72.4104 22.6984 72.4324 22.6769C72.4544 22.6554 72.4796 22.6405 72.5063 22.633C72.5325 22.6276 72.5593 22.6292 72.5851 22.6378C72.6109 22.6463 72.6351 22.6616 72.6563 22.6828C73.3507 23.3684 74.2081 23.6988 75.0713 23.6132C75.1177 23.6071 75.1641 23.624 75.2015 23.6608C75.2389 23.6976 75.2647 23.7516 75.2738 23.8122C75.4153 24.7671 75.6591 25.6903 75.9976 26.5537C76.1585 26.9848 76.348 27.3961 76.5638 27.7827C76.6215 27.8733 76.6841 27.9581 76.7513 28.0364C76.9116 28.2116 77.0398 28.4328 77.1263 28.6832C77.1694 28.9489 77.1694 29.2236 77.1263 29.4892C77.1263 29.5888 77.1076 29.6833 77.1076 29.753L76.8488 38.0869C76.8488 38.1217 76.4738 40.7239 73.9463 41.5996C73.6576 41.7144 73.3588 41.778 73.0576 41.7887ZM70.5001 39.1765C70.6951 39.6243 71.7826 41.8782 73.8226 41.1667C76.0726 40.3856 76.4476 38.1018 76.4476 38.0819L76.7026 29.7828C76.7057 29.6795 76.7132 29.5765 76.7251 29.4743C76.7545 29.2845 76.7609 29.0896 76.7438 28.8972C76.6785 28.723 76.585 28.5701 76.4701 28.4494C76.3905 28.3542 76.3165 28.251 76.2488 28.1409C76.0169 27.73 75.8136 27.292 75.6413 26.8323C75.3123 25.9909 75.0678 25.096 74.9138 24.1705C74.1348 24.2063 73.3652 23.9363 72.7013 23.3943C72.7542 23.5245 72.8143 23.6492 72.8813 23.7674C73.0834 24.0596 73.1969 24.4406 73.2001 24.8372C73.198 24.8705 73.1906 24.9028 73.1783 24.932C73.166 24.9612 73.1491 24.9865 73.1288 25.0063C73.109 25.0275 73.0861 25.0429 73.0616 25.0514C73.037 25.06 73.0114 25.0616 72.9863 25.0561C71.7751 24.7974 70.8976 24.3446 70.3613 23.7028C69.7188 24.7982 69.2309 26.0388 68.9213 27.3647C68.6903 28.7981 68.661 30.2758 68.8351 31.7232C69.1313 33.9672 70.9763 34.1513 70.9951 34.1513C71.0212 34.1542 71.0466 34.1641 71.0698 34.1803C71.093 34.1965 71.1135 34.2188 71.1301 34.2458C71.1464 34.2736 71.1579 34.3059 71.1638 34.3403C71.1696 34.3747 71.1696 34.4104 71.1638 34.4448L70.5001 39.1765Z" fill="#231F20"/>
<path d="M70.6313 36.9177C71.0472 37.0127 71.4742 36.9717 71.8754 36.7983C72.2767 36.6249 72.64 36.3243 72.9338 35.9226C73.9726 34.5443 73.8713 33.4348 73.8713 33.4348C73.0393 34.2362 72.0066 34.5819 70.9876 34.4001L70.6313 36.9177Z" fill="#231F20"/>
<path d="M71.07 37.2212C70.9074 37.2263 70.7449 37.2045 70.5863 37.1565C70.54 37.1422 70.4997 37.1047 70.4738 37.0518C70.448 36.9989 70.4385 36.9348 70.4475 36.8729L70.8038 34.3404C70.8146 34.277 70.843 34.2214 70.8833 34.1845C70.9236 34.1477 70.9728 34.1323 71.0213 34.1414C71.9883 34.309 72.9672 33.9816 73.7588 33.2259C73.7845 33.1977 73.8155 33.1793 73.8485 33.1727C73.8814 33.166 73.9151 33.1715 73.946 33.1883C73.9768 33.2052 74.0036 33.2329 74.0235 33.2684C74.0433 33.304 74.0556 33.346 74.0588 33.3901C74.0588 33.4398 74.1563 34.6588 73.065 36.1116C72.8052 36.4639 72.4948 36.7436 72.1521 36.9342C71.8095 37.1247 71.4416 37.2223 71.07 37.2212ZM70.8488 36.7236C71.2069 36.7671 71.5679 36.7039 71.9052 36.5386C72.2426 36.3733 72.5479 36.1102 72.7988 35.7683C73.2058 35.2702 73.4994 34.6307 73.6463 33.9224C72.8938 34.5279 72.0131 34.7916 71.1375 34.6737L70.8488 36.7236Z" fill="#231F20"/>
<path d="M72.8213 26.4741C72.8213 26.4741 71.5313 28.9619 71.8238 29.3798C72.1163 29.7977 72.9488 29.5539 72.9488 29.5539" fill="white"/>
<path d="M72.4351 29.8823C72.2992 29.898 72.1623 29.8761 72.0332 29.8178C71.9041 29.7596 71.7855 29.6663 71.6851 29.5439C71.3588 29.0464 72.0601 27.5537 72.6676 26.3298C72.6962 26.2768 72.7394 26.2409 72.7877 26.2298C72.8361 26.2186 72.8859 26.2331 72.9263 26.2701C72.9468 26.2881 72.9643 26.3113 72.9779 26.3384C72.9914 26.3656 73.0007 26.3961 73.0053 26.4281C73.0098 26.4601 73.0095 26.4929 73.0043 26.5248C72.9991 26.5566 72.9892 26.5867 72.9751 26.6134C72.3713 27.7677 71.9026 28.9867 71.9701 29.2305C72.1313 29.4643 72.6751 29.3847 72.9151 29.3101C72.9633 29.2951 73.014 29.3061 73.0562 29.3406C73.0983 29.3751 73.1285 29.4303 73.1401 29.4942C73.1462 29.5255 73.1476 29.5582 73.1441 29.5903C73.1406 29.6224 73.1324 29.6532 73.1198 29.681C73.1072 29.7088 73.0906 29.733 73.0709 29.7522C73.0512 29.7714 73.0288 29.7851 73.0051 29.7927C72.818 29.8492 72.6269 29.8792 72.4351 29.8823Z" fill="#231F20"/>
<path d="M74.369 26.9132C74.5405 26.8975 74.666 26.6248 74.6493 26.304C74.6327 25.9833 74.4802 25.736 74.3087 25.7517C74.1372 25.7673 74.0117 26.04 74.0283 26.3608C74.045 26.6815 74.1975 26.9288 74.369 26.9132Z" fill="#231F20"/>
<path d="M71.6945 26.3834C71.7498 26.0704 71.6589 25.7744 71.4915 25.7224C71.3242 25.6704 71.1437 25.8819 71.0884 26.1949C71.0331 26.508 71.124 26.8039 71.2913 26.8559C71.4587 26.908 71.6392 26.6964 71.6945 26.3834Z" fill="#231F20"/>
<path d="M72.1762 33.2606C72.0058 33.2697 71.8358 33.2299 71.6779 33.1441C71.52 33.0582 71.3779 32.9283 71.2612 32.7631C70.7025 31.8774 70.9237 30.4097 70.935 30.345C70.9437 30.2893 70.9669 30.2394 71.0005 30.2039C71.034 30.1685 71.0759 30.1497 71.1187 30.1509C73.9912 30.2554 74.0062 30.2803 74.0775 30.3947C74.0942 30.4215 74.1065 30.4525 74.1136 30.486C74.1207 30.5194 74.1225 30.5544 74.1187 30.5888C74.054 31.1726 73.887 31.7281 73.6312 32.2108C73.4719 32.5131 73.2628 32.7633 73.0199 32.9426C72.7769 33.1219 72.5064 33.2255 72.2287 33.2457L72.1762 33.2606ZM71.2762 30.6584C71.1938 31.2761 71.2902 31.9123 71.5462 32.4397C71.6332 32.5545 71.738 32.6428 71.8532 32.6987C71.9685 32.7545 72.0915 32.7765 72.2137 32.7631C72.4364 32.7465 72.6534 32.6632 72.8483 32.5192C73.0431 32.3753 73.2108 32.1746 73.3387 31.9322C73.5219 31.5854 73.6495 31.1926 73.7137 30.7778C73.2675 30.743 72.1087 30.6883 71.2762 30.6584Z" fill="#231F20"/>
<path d="M73.5001 32.0815C72.8626 33.2308 71.8051 33.2059 71.4226 32.6089C71.5045 32.3696 71.6264 32.1583 71.7791 31.991C71.9318 31.8238 72.1113 31.7049 72.3039 31.6436C72.7289 31.5998 73.1521 31.7547 73.5001 32.0815Z" fill="#231F20"/>
<path d="M72.1763 33.2606C72.0059 33.2684 71.8362 33.228 71.6785 33.1423C71.5208 33.0565 71.3785 32.9273 71.2613 32.7631C71.2376 32.7234 71.2232 32.6754 71.2199 32.625C71.2165 32.5746 71.2244 32.524 71.2425 32.4795C71.3346 32.2044 71.4749 31.9625 71.6516 31.7738C71.8284 31.5852 72.0365 31.4552 72.2588 31.3948C72.7316 31.349 73.2014 31.5251 73.5863 31.8924C73.6276 31.9314 73.6559 31.9903 73.665 32.0566C73.6699 32.0894 73.6695 32.1233 73.6637 32.156C73.6578 32.1886 73.6468 32.2192 73.6313 32.2456C73.4715 32.5474 73.2624 32.7973 73.0195 32.9765C72.7766 33.1557 72.5063 33.2597 72.2288 33.2805L72.1763 33.2606ZM71.6438 32.5641C71.8131 32.7087 72.0127 32.7784 72.2138 32.7631C72.5908 32.7369 72.9449 32.5154 73.2 32.1461C72.9296 31.9406 72.6177 31.8519 72.3075 31.8924C72.1675 31.9362 72.0361 32.0186 71.9217 32.1344C71.8073 32.2501 71.7126 32.3965 71.6438 32.5641Z" fill="#231F20"/>
<path d="M76.1251 28.6135C76.0838 27.5686 76.8751 26.1258 77.7413 26.7626C77.8909 26.8899 78.0195 27.056 78.1194 27.2509C78.2193 27.4459 78.2884 27.6657 78.3226 27.897C78.7388 30.0564 77.4751 30.8226 76.6201 31.3799" fill="white"/>
<path d="M76.6276 31.5889C76.5921 31.591 76.557 31.5795 76.5263 31.5556C76.4957 31.5318 76.471 31.4967 76.4551 31.4546C76.4434 31.427 76.4361 31.3965 76.4336 31.3651C76.4311 31.3336 76.4334 31.3018 76.4404 31.2716C76.4474 31.2414 76.459 31.2133 76.4744 31.1892C76.4898 31.1651 76.5088 31.1453 76.5301 31.1312C77.4226 30.5739 78.5026 29.8973 78.1276 27.9568C78.1019 27.7555 78.0454 27.5634 77.9616 27.3922C77.8777 27.2211 77.7683 27.0745 77.6401 26.9617C77.529 26.8747 77.4014 26.8317 77.2725 26.8379C77.1436 26.844 77.0187 26.8991 76.9126 26.9966C76.7221 27.1765 76.567 27.4147 76.4606 27.6909C76.3542 27.9672 76.2996 28.2735 76.3013 28.5837C76.3029 28.6162 76.2995 28.6487 76.2914 28.6793C76.2833 28.71 76.2707 28.7382 76.2543 28.7623C76.2378 28.7864 76.218 28.8059 76.1958 28.8197C76.1736 28.8335 76.1496 28.8412 76.1251 28.8425C76.1004 28.846 76.0755 28.8425 76.0519 28.8323C76.0283 28.8222 76.0066 28.8055 75.9882 28.7834C75.9697 28.7613 75.9551 28.7344 75.9451 28.7042C75.935 28.6741 75.9299 28.6415 75.9301 28.6086C75.9238 28.2099 75.9921 27.8153 76.1289 27.4602C76.2657 27.1051 76.4666 26.8005 76.7138 26.5736C76.8757 26.4294 77.0648 26.3482 77.2597 26.3394C77.4546 26.3306 77.6474 26.3945 77.8163 26.5239C77.9897 26.6654 78.1391 26.8529 78.2553 27.0747C78.3714 27.2964 78.4518 27.5476 78.4913 27.8125C78.9413 30.156 77.5463 31.0267 76.7138 31.5441C76.6887 31.5692 76.6589 31.5847 76.6276 31.5889Z" fill="#231F20"/>
<path d="M68.97 18.8715C68.97 18.8715 68.52 22.7972 68.55 23.7873C69.6853 22.8858 70.9773 22.3904 72.3 22.3494C74.3588 22.3494 77.3025 23.9764 78.1575 24.5834L77.55 18.4735C77.55 18.4735 76.1288 17.4336 73.05 17.8416C69.9713 18.2496 68.97 18.8715 68.97 18.8715Z" fill="white"/>
<path d="M78.1538 24.8321C78.1225 24.8317 78.0916 24.8215 78.0638 24.8023C77.2763 24.24 74.3138 22.613 72.2963 22.5981H72.2701C70.9935 22.6454 69.7475 23.1268 68.6513 23.9962C68.6235 24.0199 68.5915 24.0335 68.5586 24.0355C68.5256 24.0375 68.4928 24.0279 68.4635 24.0077C68.4342 23.9876 68.4094 23.9574 68.3917 23.9205C68.374 23.8835 68.3639 23.841 68.3626 23.7972C68.3326 22.8021 68.7676 18.9959 68.7863 18.8217C68.791 18.7813 68.8031 18.743 68.8213 18.7101C68.8396 18.6772 68.8636 18.6506 68.8913 18.6327C68.9326 18.6078 69.9488 17.9858 73.0163 17.5779C76.0838 17.1699 77.5763 18.2097 77.6251 18.2794C77.6507 18.2991 77.6724 18.3265 77.6887 18.3593C77.705 18.3921 77.7153 18.4295 77.7188 18.4685L78.3301 24.5734C78.3341 24.6194 78.3285 24.666 78.3139 24.7081C78.2994 24.7502 78.2764 24.7862 78.2476 24.8122C78.2183 24.8301 78.1859 24.837 78.1538 24.8321ZM72.2701 22.1006H72.3001C74.2051 22.1006 76.8001 23.444 77.9251 24.1505L77.3776 18.6376C77.0363 18.4386 75.6413 17.747 73.0688 18.0903C70.5638 18.4237 69.4501 18.8964 69.1463 19.0506C69.0751 19.6676 68.8013 22.1603 68.7488 23.3494C69.83 22.5641 71.0378 22.1357 72.2701 22.1006Z" fill="#231F20"/>
<path d="M68.9325 16.7371C68.9325 16.7371 69.3262 19.4487 70.89 19.5034C72.4537 19.5582 74.265 18.1053 74.265 18.1053C74.265 18.1053 77.5312 20.1502 78.9337 17.7769" fill="white"/>
<path d="M70.9764 19.7721H70.8751C69.1801 19.7124 68.7564 16.9261 68.7376 16.7868C68.7329 16.7542 68.7331 16.7206 68.7382 16.688C68.7433 16.6555 68.7532 16.6246 68.7673 16.5971C68.7814 16.5696 68.7995 16.546 68.8204 16.5278C68.8414 16.5096 68.8649 16.497 68.8895 16.4908C68.9141 16.4846 68.9394 16.4849 68.9639 16.4916C68.9885 16.4984 69.0118 16.5115 69.0325 16.5302C69.0532 16.5489 69.071 16.5729 69.0847 16.6007C69.0984 16.6285 69.1079 16.6596 69.1126 16.6923C69.1126 16.6923 69.4876 19.2099 70.8901 19.2547C72.3901 19.3144 74.1564 17.9063 74.1751 17.8964C74.2021 17.8768 74.2324 17.8665 74.2632 17.8665C74.294 17.8665 74.3243 17.8768 74.3514 17.8964C74.3814 17.8964 77.4976 19.8268 78.7914 17.6376C78.8057 17.6089 78.8244 17.5845 78.8463 17.5659C78.8681 17.5473 78.8927 17.535 78.9183 17.5296C78.944 17.5242 78.9702 17.526 78.9953 17.5348C79.0204 17.5436 79.0439 17.5592 79.0642 17.5806C79.0845 17.602 79.1012 17.6288 79.1134 17.6593C79.1255 17.6898 79.1327 17.7233 79.1345 17.7576C79.1364 17.792 79.1328 17.8265 79.1241 17.8589C79.1154 17.8914 79.1017 17.9211 79.0839 17.9461C77.7264 20.2448 74.8389 18.7273 74.2801 18.4039C73.9051 18.6725 72.3751 19.7721 70.9764 19.7721Z" fill="#231F20"/>
<path d="M77.5088 35.7484L74.1338 36.4151L72.8138 38.2809L72.2513 36.3653L69.8813 35.3702L69.6375 38.261L65.055 41.8235C65.055 41.8235 62.64 68.9001 63.555 76.841C63.555 76.841 79.8 77.6271 84.8363 73.7661C84.8363 73.7661 81.6413 53.7597 82.1063 50.0231C82.4026 47.372 82.563 44.6974 82.5863 42.0175L77.7788 38.3157L77.5088 35.7484Z" fill="#68E1FD"/>
<path d="M54 39.6741C54 39.6741 55.875 36.1913 56.025 35.4499C56.175 34.7086 56.115 31.7581 55.935 31.6536C55.7242 31.66 55.5177 31.7344 55.3334 31.8706C55.1491 32.0067 54.9927 32.2003 54.8775 32.4348C54.755 33.0258 54.6833 33.6334 54.6638 34.2458C54.2654 34.2169 53.8706 34.36 53.5388 34.6538C53.5388 34.6538 53.0625 32.9025 53.0363 32.7283C53.01 32.5542 53.8913 31.161 53.8913 31.161C54.0652 31.3353 54.2657 31.4572 54.4788 31.5182C54.6918 31.5792 54.9124 31.5779 55.125 31.5143C55.7475 31.2456 55.8225 31.0167 55.5413 30.4893C55.26 29.9619 53.0475 29.3798 53.0475 29.3798L51.5738 31.3202C51.5738 31.3202 51.3525 28.4991 51.5738 27.8921C51.795 27.2851 52.2263 25.7129 51.9975 25.2153C51.7688 24.7178 51.2775 24.9267 51.0188 25.4342C50.76 25.9417 50.1075 27.6533 50.0813 28.1658C50.055 28.6783 50.0813 31.2406 50.0813 31.2406C50.0813 31.2406 49.3313 29.0365 49.3988 28.5987C49.4663 28.1608 50.2838 26.0811 49.95 25.6134C49.6163 25.1457 48.165 27.6434 48.0338 28.5987C47.9025 29.554 48.8175 32.2855 48.8175 32.2855C48.8175 32.2855 47.5613 30.8575 47.5613 30.5839C47.5613 30.3102 47.6475 28.0215 47.445 27.713C47.2425 27.4045 46.725 27.4593 46.6425 28.5887C46.56 29.7181 46.5788 31.3949 46.8338 32.0715C47.0888 32.7482 49.185 37.4899 49.2863 38.0023C49.3875 38.5148 49.0913 41.2115 49.0913 41.2115L53.5163 41.4752L54 39.6741Z" fill="white"/>
<path d="M53.5125 41.7189L49.0875 41.4552C49.0615 41.4535 49.036 41.4446 49.0127 41.429C48.9894 41.4135 48.9688 41.3917 48.9522 41.365C48.9356 41.3383 48.9234 41.3073 48.9164 41.274C48.9093 41.2407 48.9076 41.2059 48.9112 41.1716C49.0442 40.1429 49.1095 39.1007 49.1062 38.057C49.05 37.7634 48.1163 35.5692 47.4975 34.1462C47.0888 33.1909 46.7662 32.4346 46.6687 32.156C46.38 31.3798 46.3837 29.5638 46.4587 28.5339C46.5225 27.6383 46.8337 27.3796 47.0062 27.3049C47.1079 27.2599 47.2173 27.2557 47.3207 27.2929C47.4241 27.3301 47.5169 27.407 47.5875 27.5139C47.7225 27.7179 47.805 28.2751 47.7562 30.3449C47.7562 30.4445 47.7562 30.5141 47.7562 30.5489C47.9344 30.8352 48.1301 31.1014 48.3413 31.345C48.0788 30.4345 47.7675 29.1658 47.8537 28.5189C47.9775 27.6283 49.1325 25.5336 49.7287 25.2898C49.7932 25.2586 49.8631 25.2533 49.9298 25.2745C49.9965 25.2958 50.057 25.3426 50.1037 25.4093C50.4075 25.8471 50.1262 26.8721 49.7587 28.0662C49.6837 28.31 49.6125 28.5388 49.5937 28.6334C49.6484 29.1035 49.7532 29.5608 49.905 29.9917C49.905 29.2503 49.905 28.3995 49.905 28.1209C49.935 27.5388 50.6175 25.7774 50.8725 25.2699C50.9528 25.0973 51.0625 24.952 51.1927 24.8457C51.3229 24.7395 51.4701 24.6751 51.6225 24.658C51.7268 24.6593 51.8291 24.6967 51.9192 24.7665C52.0093 24.8363 52.0841 24.9361 52.1362 25.056C52.4587 25.7476 51.855 27.6333 51.7237 27.9766C51.5925 28.3199 51.63 29.6832 51.6938 30.738L52.8862 29.1707C52.908 29.1436 52.9343 29.1236 52.963 29.1124C52.9916 29.1011 53.0219 29.099 53.0512 29.106C53.5912 29.2404 55.365 29.733 55.6762 30.3201C55.7475 30.4264 55.7994 30.553 55.8281 30.6902C55.8567 30.8273 55.8612 30.9713 55.8413 31.1112C55.8151 31.215 55.767 31.3066 55.7025 31.3749C55.7935 31.3461 55.889 31.3548 55.9763 31.3997C56.3738 31.6236 56.2575 35.0717 56.1712 35.4846C56.0137 36.2409 54.3862 39.2859 54.135 39.7586L53.67 41.5249C53.6614 41.5744 53.6418 41.6194 53.6137 41.654C53.5857 41.6886 53.5504 41.7112 53.5125 41.7189ZM49.2975 40.9676L53.3813 41.2114L53.8088 39.5844C53.8132 39.5627 53.8208 39.5424 53.8313 39.5247C54.5813 38.1415 55.7063 35.8976 55.83 35.3752C55.9426 34.2182 55.9338 33.0461 55.8037 31.8923C55.4971 31.981 55.2245 32.2122 55.035 32.5441C54.9177 33.1055 54.851 33.6834 54.8362 34.2656C54.8332 34.3326 54.8103 34.3952 54.7725 34.4398C54.7548 34.4625 54.7335 34.4796 54.7101 34.4899C54.6867 34.5003 54.6619 34.5035 54.6375 34.4995C54.2883 34.4815 53.9435 34.6085 53.6513 34.8627C53.6269 34.885 53.5993 34.9001 53.5701 34.907C53.541 34.9138 53.5111 34.9123 53.4825 34.9025C53.4543 34.8912 53.4285 34.8713 53.407 34.8446C53.3856 34.8178 53.369 34.7849 53.3587 34.7483C53.2462 34.3353 52.875 32.9621 52.8487 32.7879C52.8225 32.6138 52.8075 32.4993 53.745 31.0117C53.7762 30.9642 53.8196 30.9339 53.8667 30.9265C53.9138 30.9192 53.9613 30.9353 54 30.9719C54.1507 31.1212 54.3235 31.2264 54.5071 31.2804C54.6907 31.3345 54.8809 31.3361 55.065 31.2853C55.44 31.1261 55.4962 31.0266 55.5037 30.9918C55.5112 30.9569 55.5037 30.8972 55.3837 30.6385C55.2638 30.3798 54.1087 29.922 53.1075 29.6434L51.7012 31.4893C51.6763 31.5227 51.6448 31.546 51.6103 31.5566C51.5757 31.5671 51.5397 31.5645 51.5063 31.549C51.4731 31.5328 51.444 31.5046 51.4221 31.4677C51.4003 31.4309 51.3866 31.3866 51.3825 31.34C51.345 30.8425 51.1687 28.4095 51.4162 27.7726C51.6937 27.0512 51.9975 25.673 51.8437 25.3446C51.8244 25.295 51.7954 25.2532 51.7598 25.2235C51.7242 25.1937 51.6833 25.1771 51.6413 25.1754C51.5472 25.1913 51.457 25.2348 51.3772 25.3028C51.2974 25.3708 51.23 25.4616 51.18 25.5685C50.7938 26.3811 50.49 27.2577 50.2763 28.1756C50.2463 28.6732 50.2763 31.2057 50.2763 31.2306C50.2758 31.2883 50.2607 31.3442 50.2335 31.3892C50.2063 31.4343 50.1686 31.466 50.1262 31.4794C50.0845 31.4913 50.041 31.484 50.0028 31.4587C49.9646 31.4334 49.9341 31.3915 49.9162 31.34C49.68 30.6534 49.1325 29.0065 49.2187 28.5388C49.2682 28.32 49.3284 28.1056 49.3987 27.897C49.545 27.4293 49.9837 26.0063 49.815 25.7625C49.545 25.7625 48.3412 27.7527 48.2212 28.6284C48.12 29.3548 48.7425 31.4296 48.9937 32.1709C49.0119 32.223 49.0159 32.2819 49.0051 32.3374C48.9943 32.393 48.9694 32.4419 48.9345 32.4759C48.8997 32.5099 48.857 32.5268 48.8138 32.5238C48.7706 32.5208 48.7295 32.4981 48.6975 32.4595C47.3775 30.9669 47.3775 30.6733 47.3775 30.5688C47.3775 30.4644 47.3775 30.4544 47.3775 30.3499C47.4225 28.4145 47.3475 27.9567 47.2987 27.8622C47.2767 27.8294 47.2478 27.8062 47.2157 27.7956C47.1836 27.7849 47.1498 27.7873 47.1187 27.8025C46.9687 27.8672 46.86 28.1657 46.83 28.6035C46.7437 29.7777 46.7775 31.355 47.0025 31.962C47.0925 32.2058 47.43 32.9919 47.82 33.9024C48.7425 36.0568 49.3988 37.6042 49.4663 37.9375C49.5488 38.3953 49.38 40.2014 49.2975 40.9676ZM53.2275 32.7083C53.2725 32.9123 53.4525 33.589 53.6325 34.2607C53.8946 34.0898 54.1807 33.9932 54.4725 33.9771C54.4937 33.4134 54.5667 32.8554 54.69 32.3152C54.7752 32.0923 54.9049 31.9047 55.065 31.7729C54.6747 31.855 54.2751 31.7472 53.94 31.4694C53.6809 31.8597 53.4428 32.2737 53.2275 32.7083Z" fill="#231F20"/>
<path d="M50.7863 34.0417C51.1361 34.4572 51.4114 34.9714 51.5918 35.5466C51.7722 36.1217 51.8532 36.7432 51.8288 37.3654C52.1846 36.2576 52.7779 35.3129 53.535 34.6488" fill="white"/>
<path d="M51.8288 37.6141H51.7837C51.7401 37.6001 51.7018 37.5657 51.6756 37.5174C51.6495 37.469 51.6373 37.4097 51.6413 37.3504C51.6599 36.7691 51.5823 36.1893 51.4139 35.652C51.2454 35.1148 50.9902 34.633 50.6662 34.2408C50.6443 34.2214 50.6256 34.196 50.6115 34.1664C50.5974 34.1368 50.5882 34.1035 50.5844 34.0688C50.5807 34.0341 50.5825 33.9988 50.5898 33.9651C50.597 33.9314 50.6096 33.9001 50.6266 33.8733C50.6436 33.8465 50.6647 33.8248 50.6885 33.8095C50.7123 33.7943 50.7382 33.7859 50.7646 33.7849C50.791 33.7839 50.8173 33.7903 50.8417 33.8037C50.8661 33.8171 50.8881 33.8372 50.9062 33.8626C51.4694 34.532 51.8503 35.4292 51.99 36.415C52.3579 35.6184 52.8533 34.939 53.4412 34.4249C53.484 34.3926 53.5345 34.3838 53.5821 34.4005C53.6296 34.4172 53.6703 34.458 53.6954 34.5141C53.7204 34.5702 53.7279 34.6371 53.7161 34.7005C53.7044 34.7638 53.6743 34.8185 53.6325 34.8527C52.9106 35.4906 52.3439 36.3929 52.0012 37.45C51.9888 37.4976 51.9656 37.539 51.9347 37.5684C51.9038 37.5979 51.8668 37.6138 51.8288 37.6141Z" fill="#231F20"/>
<path d="M48.4725 32.589C48.4725 32.589 50.025 31.4048 50.9775 31.3451L48.4725 32.589Z" fill="white"/>
<path d="M48.4726 32.8377C48.4317 32.8371 48.392 32.8188 48.3596 32.7856C48.3273 32.7523 48.304 32.7059 48.2934 32.6535C48.2828 32.6011 48.2854 32.5455 48.3008 32.4952C48.3162 32.4449 48.3436 32.4027 48.3788 32.375C48.4463 32.3252 49.9801 31.1609 50.9663 31.0963C50.9909 31.0946 51.0156 31.0994 51.0388 31.1104C51.062 31.1214 51.0834 31.1384 51.1017 31.1603C51.1199 31.1823 51.1348 31.2088 51.1453 31.2383C51.1559 31.2679 51.162 31.2999 51.1632 31.3326C51.1644 31.3653 51.1608 31.3979 51.1525 31.4287C51.1442 31.4596 51.1315 31.4879 51.1149 31.5121C51.0984 31.5364 51.0784 31.5561 51.0561 31.5701C51.0338 31.5841 51.0097 31.5922 50.9851 31.5938C50.0888 31.6535 48.5813 32.7979 48.5663 32.8128C48.537 32.8309 48.5049 32.8394 48.4726 32.8377Z" fill="#231F20"/>
<path d="M93.9038 36.7186C94.0342 36.0398 94.0735 35.3358 94.02 34.6389C93.9075 33.6985 94.0613 31.7083 93.87 30.9919C93.6788 30.2754 91.6575 28.2056 91.8 27.8075C91.9377 27.5682 92.1304 27.3949 92.349 27.3141C92.5677 27.2333 92.8002 27.2493 93.0113 27.3597C93.4463 27.6234 95.115 29.8923 95.115 29.8923L99.375 26.6781L102.701 26.3895C102.701 26.3895 99.8025 31.4645 99.4875 32.3104C99.1725 33.1562 98.6513 35.0966 98.0925 35.5793C97.8068 35.8341 97.5013 36.0476 97.1813 36.2161L96.6413 37.7685L93.9038 36.7186Z" fill="white"/>
<path d="M96.6413 38.0173H96.5889L93.8514 36.9624C93.8043 36.9439 93.7644 36.902 93.74 36.8455C93.7156 36.789 93.7084 36.7222 93.7201 36.6589C93.846 36.0096 93.8841 35.3358 93.8326 34.6687C93.7883 34.1169 93.7733 33.5616 93.7876 33.0069C93.8153 32.3575 93.7838 31.7059 93.6939 31.0665C93.3984 30.5138 93.0519 30.0124 92.6626 29.5738C91.8001 28.4643 91.5076 28.0464 91.6314 27.708C91.7896 27.4075 92.0204 27.1875 92.2856 27.0844C92.5508 26.9813 92.8346 27.0012 93.0901 27.1408C93.4951 27.3846 94.7551 29.0564 95.1489 29.5838L99.2739 26.4642C99.2982 26.4468 99.325 26.4366 99.3526 26.4343L102.683 26.1457C102.718 26.1428 102.754 26.1536 102.785 26.1767C102.817 26.1998 102.842 26.2344 102.859 26.2763C102.876 26.3181 102.884 26.3656 102.881 26.413C102.878 26.4604 102.865 26.5058 102.844 26.5438C101.846 28.2951 99.8926 31.773 99.6489 32.4248C99.5776 32.6188 99.4951 32.8676 99.4051 33.1413C99.0751 34.1364 98.6551 35.3802 98.1863 35.7932C97.9093 36.0338 97.6169 36.2419 97.3126 36.4151L96.8026 37.8779C96.7884 37.919 96.7657 37.9539 96.7372 37.9786C96.7086 38.0032 96.6754 38.0167 96.6413 38.0173ZM94.1251 36.5246L96.5401 37.45L97.0126 36.0917C97.0227 36.0611 97.0376 36.0337 97.0564 36.0114C97.0752 35.9891 97.0973 35.9724 97.1213 35.9624C97.4269 35.7998 97.7185 35.5947 97.9914 35.3504C98.3664 35.022 98.7939 33.7533 99.0676 32.9174C99.1614 32.6338 99.2476 32.38 99.3189 32.181C99.5889 31.4645 101.595 27.9071 102.319 26.6532L99.4389 26.902L95.2201 30.0863C95.1845 30.1132 95.1432 30.1239 95.1025 30.1167C95.0619 30.1095 95.0242 30.0849 94.9951 30.0465C94.3576 29.1808 93.2401 27.7429 92.9439 27.5588C92.7824 27.4809 92.6075 27.4663 92.44 27.5165C92.2724 27.5668 92.1193 27.6799 91.9989 27.8424C92.2713 28.3441 92.5816 28.8076 92.9251 29.2256C93.5364 30.0117 93.9451 30.554 94.0501 30.9222C94.161 31.6151 94.2001 32.3249 94.1664 33.0318C94.1528 33.5598 94.1666 34.0885 94.2076 34.614C94.2617 35.2591 94.2338 35.9117 94.1251 36.5445V36.5246Z" fill="#231F20"/>
<path d="M96.8551 29.5688C97.8073 29.7214 98.7295 30.1095 99.5739 30.7132L96.8551 29.5688Z" fill="white"/>
<path d="M99.5738 30.962C99.5379 30.9619 99.5028 30.9481 99.4726 30.9222C98.6562 30.343 97.7663 29.9685 96.8476 29.8177C96.7978 29.8104 96.7523 29.7772 96.721 29.7254C96.6897 29.6737 96.6752 29.6075 96.6807 29.5415C96.6862 29.4755 96.7112 29.4151 96.7502 29.3736C96.7892 29.3321 96.8391 29.3128 96.8888 29.3201C97.8691 29.4748 98.8184 29.875 99.6863 30.4993C99.7073 30.5166 99.7255 30.5392 99.7398 30.5658C99.7542 30.5924 99.7645 30.6225 99.77 30.6544C99.7756 30.6863 99.7764 30.7194 99.7723 30.7517C99.7682 30.7839 99.7594 30.8149 99.7463 30.8426C99.728 30.8808 99.7024 30.9119 99.6721 30.9329C99.6418 30.9539 99.6079 30.9639 99.5738 30.962Z" fill="#231F20"/>
<path d="M97.6388 30.0017C97.6001 30.0014 97.5624 29.9852 97.5309 29.9553C97.4993 29.9254 97.4756 29.8833 97.4628 29.8347C97.4501 29.7862 97.449 29.7336 97.4597 29.6842C97.4704 29.6348 97.4923 29.591 97.5226 29.5589L100.328 26.5238C100.346 26.4992 100.368 26.48 100.393 26.4674C100.417 26.4549 100.443 26.4493 100.47 26.451C100.496 26.4527 100.521 26.4617 100.545 26.4773C100.568 26.493 100.589 26.515 100.605 26.5419C100.622 26.5688 100.634 26.6001 100.641 26.6336C100.648 26.6672 100.65 26.7023 100.646 26.7367C100.642 26.7711 100.632 26.804 100.618 26.8333C100.604 26.8627 100.586 26.8877 100.564 26.9069L97.7588 29.9469C97.7243 29.9818 97.6822 30.001 97.6388 30.0017Z" fill="#231F20"/>
<path d="M98.8088 30.4645C98.7581 30.4643 98.7096 30.4374 98.6738 30.3898C98.6392 30.3425 98.6199 30.2791 98.6199 30.2132C98.6199 30.1473 98.6392 30.0839 98.6738 30.0366L101.404 26.4443C101.439 26.3974 101.487 26.3711 101.537 26.3711C101.587 26.3711 101.635 26.3974 101.67 26.4443C101.705 26.4911 101.725 26.5546 101.725 26.6209C101.725 26.6871 101.705 26.7507 101.67 26.7975L98.9401 30.3898C98.9054 30.4367 98.8583 30.4635 98.8088 30.4645Z" fill="#231F20"/>
<path d="M95.1151 29.8922C95.1151 29.8922 96.5739 32.1212 96.2701 33.8726L95.1151 29.8922Z" fill="white"/>
<path d="M96.2701 34.1413H96.2288C96.1807 34.126 96.139 34.086 96.113 34.03C96.0871 33.9741 96.0788 33.9068 96.0901 33.8428C96.3676 32.2158 94.9876 30.0813 94.9651 30.0614C94.9305 30.0141 94.9111 29.9508 94.9111 29.8848C94.9111 29.8189 94.9305 29.7555 94.9651 29.7082C94.9822 29.685 95.0026 29.6666 95.0251 29.654C95.0477 29.6415 95.0719 29.635 95.0963 29.635C95.1208 29.635 95.145 29.6415 95.1675 29.654C95.19 29.6666 95.2105 29.685 95.2276 29.7082C95.2913 29.8027 96.7276 32.0566 96.4238 33.9274C96.4194 33.9805 96.402 34.0302 96.3742 34.0688C96.3464 34.1075 96.3098 34.1329 96.2701 34.1413Z" fill="#231F20"/>
<path d="M86.52 24.2799C86.52 24.2799 88.4813 25.2352 88.5713 27.3647L106.725 27.4891C106.83 25.3596 108.799 24.4292 108.799 24.4292L86.52 24.2799Z" fill="white"/>
<path d="M106.721 27.7329L88.5713 27.6085C88.5235 27.6086 88.4774 27.5845 88.4426 27.541C88.4077 27.4975 88.3867 27.438 88.3838 27.3746C88.3013 25.4392 86.4713 24.5137 86.4526 24.5088C86.4117 24.4877 86.3777 24.4483 86.3565 24.3974C86.3352 24.3465 86.3281 24.2873 86.3363 24.2301C86.3435 24.1726 86.366 24.1204 86.3997 24.0829C86.4334 24.0455 86.4761 24.0254 86.5201 24.0261L108.799 24.1754C108.843 24.1746 108.886 24.1948 108.919 24.2322C108.953 24.2696 108.975 24.3219 108.983 24.3794C108.991 24.4372 108.983 24.4968 108.961 24.5478C108.939 24.5988 108.904 24.6379 108.863 24.658C108.844 24.658 107.01 25.5636 106.909 27.499C106.906 27.5624 106.885 27.6219 106.85 27.6654C106.815 27.7088 106.769 27.733 106.721 27.7329ZM88.7401 27.1109L106.556 27.2304C106.642 26.6904 106.816 26.1817 107.065 25.74C107.315 25.2983 107.634 24.9341 108 24.673L87.3001 24.5336C87.6678 24.7982 87.9873 25.1666 88.2361 25.6127C88.4849 26.0589 88.6569 26.572 88.7401 27.1159V27.1109Z" fill="#231F20"/>
<path d="M65.0438 41.8184L54.3751 50.0379L54.4126 40.2611L48.4126 40.5149C48.4126 40.5149 45.5701 55.6752 47.2876 59.4764C49.0051 63.2777 61.3688 58.0336 66.0376 52.7794L65.0438 41.8184Z" fill="#68E1FD"/>
<path d="M82.5862 42.0125L89.3362 45.9929L93.4988 35.0966L98.3325 36.634C98.3325 36.634 95.49 55.5956 92.0325 55.3468C88.575 55.098 76.0312 49.9534 76.0312 49.9534L82.5862 42.0125Z" fill="#68E1FD"/>
<path d="M65.9326 75.209C65.8835 75.209 65.8363 75.1835 65.8013 75.1379C65.7662 75.0923 65.746 75.0303 65.7451 74.9652C65.6888 67.1387 66.8251 45.7988 66.8363 45.5799C66.8383 45.5403 66.8475 45.5019 66.8632 45.4681C66.8789 45.4343 66.9005 45.4061 66.9263 45.3859L72.5963 41.0025V38.2759C72.5991 38.2108 72.6204 38.1494 72.6559 38.1042C72.6914 38.059 72.7384 38.0333 72.7876 38.0321C72.812 38.0321 72.8362 38.0386 72.8588 38.0511C72.8813 38.0637 72.9017 38.0821 72.9188 38.1053C72.936 38.1284 72.9494 38.1559 72.9584 38.1861C72.9674 38.2162 72.9718 38.2484 72.9713 38.2809V41.1517C72.9708 41.1944 72.9619 41.2362 72.9455 41.2728C72.929 41.3095 72.9056 41.3398 72.8776 41.3607L67.2038 45.7491C67.1063 47.5651 66.0788 67.4771 66.1201 74.9602C66.1201 75.0253 66.1008 75.0879 66.0665 75.1344C66.0321 75.1809 65.9854 75.2077 65.9363 75.209H65.9326Z" fill="#231F20"/>
<path d="M69.7351 47.8885C70.1141 47.8885 70.4213 47.4809 70.4213 46.978C70.4213 46.4752 70.1141 46.0675 69.7351 46.0675C69.3561 46.0675 69.0488 46.4752 69.0488 46.978C69.0488 47.4809 69.3561 47.8885 69.7351 47.8885Z" fill="#231F20"/>
<path d="M75.195 47.9234C75.574 47.9234 75.8813 47.5158 75.8813 47.0129C75.8813 46.5101 75.574 46.1024 75.195 46.1024C74.816 46.1024 74.5088 46.5101 74.5088 47.0129C74.5088 47.5158 74.816 47.9234 75.195 47.9234Z" fill="#231F20"/>
<path d="M96.2926 39.3457C96.6716 39.3457 96.9788 38.938 96.9788 38.4352C96.9788 37.9323 96.6716 37.5247 96.2926 37.5247C95.9136 37.5247 95.6063 37.9323 95.6063 38.4352C95.6063 38.938 95.9136 39.3457 96.2926 39.3457Z" fill="#231F20"/>
<path d="M69.1163 59.7153C69.4953 59.7153 69.8026 59.3077 69.8026 58.8048C69.8026 58.3019 69.4953 57.8943 69.1163 57.8943C68.7373 57.8943 68.4301 58.3019 68.4301 58.8048C68.4301 59.3077 68.7373 59.7153 69.1163 59.7153Z" fill="#231F20"/>
<path d="M52.815 43.2215C53.194 43.2215 53.5013 42.8139 53.5013 42.311C53.5013 41.8082 53.194 41.4005 52.815 41.4005C52.436 41.4005 52.1288 41.8082 52.1288 42.311C52.1288 42.8139 52.436 43.2215 52.815 43.2215Z" fill="#231F20"/>
<path d="M73.6764 59.7452C74.0554 59.7452 74.3626 59.3376 74.3626 58.8347C74.3626 58.3318 74.0554 57.9242 73.6764 57.9242C73.2974 57.9242 72.9901 58.3318 72.9901 58.8347C72.9901 59.3376 73.2974 59.7452 73.6764 59.7452Z" fill="#231F20"/>
<path d="M68.3888 70.9549C68.7678 70.9549 69.075 70.5473 69.075 70.0444C69.075 69.5416 68.7678 69.1339 68.3888 69.1339C68.0098 69.1339 67.7025 69.5416 67.7025 70.0444C67.7025 70.5473 68.0098 70.9549 68.3888 70.9549Z" fill="#231F20"/>
<path d="M73.7363 70.9897C74.1153 70.9897 74.4226 70.5821 74.4226 70.0792C74.4226 69.5764 74.1153 69.1687 73.7363 69.1687C73.3573 69.1687 73.05 69.5764 73.05 70.0792C73.05 70.5821 73.3573 70.9897 73.7363 70.9897Z" fill="#231F20"/>
<path d="M63.375 69.7061C63.3266 69.7062 63.28 69.6813 63.245 69.6368C63.2101 69.5923 63.1895 69.5315 63.1875 69.4673C63 62.2926 64.5975 46.1422 64.6125 46.0029C64.6191 45.9376 64.6449 45.8784 64.6842 45.8383C64.7236 45.7982 64.7733 45.7805 64.8225 45.7889C64.8471 45.7926 64.8709 45.8028 64.8924 45.8189C64.9139 45.835 64.9328 45.8567 64.9478 45.8827C64.9629 45.9088 64.9738 45.9385 64.98 45.9703C64.9862 46.002 64.9875 46.0351 64.9838 46.0676C64.9838 46.2268 63.3825 62.3175 63.5513 69.4524C63.5523 69.485 63.5484 69.5177 63.5399 69.5484C63.5314 69.579 63.5184 69.6072 63.5017 69.6312C63.485 69.6553 63.4649 69.6747 63.4425 69.6884C63.4201 69.7021 63.3959 69.7098 63.3713 69.7111L63.375 69.7061Z" fill="#231F20"/>
<path d="M92.0213 55.5956C89.7713 55.5956 78.6563 51.262 78.1838 51.0779C78.1341 51.0587 78.0921 51.0142 78.0672 50.954C78.0422 50.8938 78.0363 50.8229 78.0507 50.757C78.0651 50.691 78.0987 50.6353 78.1441 50.6022C78.1894 50.569 78.2428 50.5612 78.2926 50.5803C78.4051 50.6251 89.8201 55.0583 92.0213 55.0583C92.071 55.0583 92.1187 55.0845 92.1539 55.1311C92.1891 55.1778 92.2088 55.2411 92.2088 55.307C92.2088 55.373 92.1891 55.4363 92.1539 55.4829C92.1187 55.5296 92.071 55.5558 92.0213 55.5558V55.5956Z" fill="#231F20"/>
<path d="M48.2626 44.6496C48.2128 44.6496 48.1652 44.6234 48.13 44.5767C48.0948 44.5301 48.0751 44.4668 48.0751 44.4008C48.0751 44.3348 48.0948 44.2716 48.13 44.2249C48.1652 44.1783 48.2128 44.152 48.2626 44.152L53.7563 43.8635C53.8058 43.8621 53.8538 43.8862 53.8901 43.9307C53.9265 43.9752 53.9484 44.0367 53.9513 44.1023C53.9515 44.1676 53.933 44.2306 53.8996 44.2785C53.8662 44.3265 53.8204 44.356 53.7713 44.361L48.2701 44.6496H48.2626Z" fill="#231F20"/>
<path d="M87.9413 50.0281C87.914 50.0349 87.886 50.0349 87.8588 50.0281C87.8366 50.0138 87.8167 49.9938 87.8005 49.9691C87.7842 49.9445 87.7719 49.9158 87.7642 49.8846C87.7565 49.8535 87.7536 49.8207 87.7557 49.788C87.7577 49.7554 87.7648 49.7237 87.7763 49.6947L92.5388 37.0321C92.5496 37.0027 92.5647 36.9764 92.5832 36.9547C92.6017 36.9331 92.6232 36.9165 92.6465 36.9058C92.6699 36.8952 92.6946 36.8908 92.7192 36.8928C92.7438 36.8948 92.7679 36.9033 92.79 36.9177C92.8122 36.932 92.832 36.9521 92.8483 36.9766C92.8647 37.0011 92.8772 37.0297 92.8852 37.0606C92.8932 37.0916 92.8965 37.1243 92.895 37.157C92.8935 37.1897 92.8871 37.2216 92.8763 37.251L88.125 49.8888C88.109 49.9343 88.0827 49.9721 88.0498 49.997C88.0169 50.022 87.979 50.0328 87.9413 50.0281Z" fill="#231F20"/>
<path d="M96.9676 41.2612H96.9188L92.6513 39.7387C92.6016 39.7216 92.559 39.6789 92.533 39.6201C92.507 39.5613 92.4997 39.4913 92.5126 39.4253C92.5255 39.3593 92.5577 39.3028 92.602 39.2683C92.6463 39.2338 92.6991 39.224 92.7488 39.2412L97.0163 40.7637C97.0661 40.7723 97.1112 40.8067 97.1418 40.8594C97.1724 40.9121 97.1859 40.9788 97.1795 41.0448C97.173 41.1108 97.147 41.1706 97.1073 41.2112C97.0676 41.2518 97.0173 41.2698 96.9676 41.2612Z" fill="#231F20"/>
<path d="M97.8788 15.5777C98.4298 15.5777 98.8764 14.9852 98.8764 14.2543C98.8764 13.5233 98.4298 12.9308 97.8788 12.9308C97.3279 12.9308 96.8813 13.5233 96.8813 14.2543C96.8813 14.9852 97.3279 15.5777 97.8788 15.5777Z" fill="white"/>
<path d="M97.8751 15.8265C97.5608 15.8229 97.2603 15.6549 97.0389 15.3588C96.8751 15.1387 96.7639 14.8594 96.7191 14.5558C96.6744 14.2523 96.6982 13.9379 96.7875 13.6522C96.8767 13.3665 97.0275 13.122 97.221 12.9494C97.4144 12.7769 97.642 12.6838 97.8751 12.682C98.1887 12.6846 98.4888 12.8521 98.7095 13.1478C98.9302 13.4434 99.0536 13.8431 99.0526 14.2592C99.0534 14.4657 99.023 14.6703 98.9631 14.8609C98.9032 15.0515 98.815 15.2242 98.7039 15.3688C98.4835 15.6597 98.1859 15.824 97.8751 15.8265ZM97.8751 13.1796C97.6612 13.1809 97.4563 13.2938 97.3048 13.494C97.1532 13.6942 97.0671 13.9655 97.0651 14.2493C97.0636 14.4617 97.1099 14.6698 97.1979 14.8472C97.2859 15.0246 97.4117 15.1632 97.5594 15.2454C97.707 15.3276 97.8697 15.3496 98.0267 15.3087C98.1838 15.2677 98.3282 15.1657 98.4414 15.0155C98.5927 14.8141 98.6777 14.5412 98.6777 14.2567C98.6777 13.9723 98.5927 13.6994 98.4414 13.498C98.3669 13.3975 98.2782 13.3176 98.1804 13.263C98.0826 13.2083 97.9775 13.18 97.8714 13.1796H97.8751Z" fill="#231F20"/>
<path d="M107.599 24.4739C106.763 18.777 102.75 14.4433 97.9276 14.4135C93.1051 14.3836 89.0589 18.6576 88.1776 24.3645L107.599 24.4739Z" fill="white"/>
<path d="M107.599 24.7476L88.1776 24.6182C88.1496 24.6175 88.1221 24.6086 88.097 24.5922C88.0719 24.5758 88.0498 24.5524 88.0323 24.5234C88.0147 24.4945 88.0022 24.4608 87.9956 24.4247C87.9889 24.3887 87.9883 24.3511 87.9938 24.3147C88.9051 18.4386 93.0563 14.1896 97.8713 14.1896H97.9276C102.769 14.2194 106.928 18.5382 107.783 24.449C107.788 24.4854 107.787 24.5228 107.781 24.5588C107.774 24.5948 107.762 24.6286 107.745 24.658C107.727 24.6856 107.704 24.7079 107.679 24.7233C107.654 24.7387 107.627 24.747 107.599 24.7476ZM88.4101 24.1207L107.37 24.25C106.44 18.7173 102.495 14.717 97.9238 14.6871H97.8751C93.3151 14.6622 89.3776 18.6028 88.4101 24.0958V24.1207Z" fill="#231F20"/>
<path d="M108.806 23.7315L86.5238 23.5819L86.5192 24.776L108.801 24.9256L108.806 23.7315Z" fill="white"/>
<path d="M108.799 25.1754L86.5164 25.0261C86.4669 25.0249 86.4198 24.9982 86.3848 24.9519C86.3499 24.9055 86.3298 24.8429 86.3289 24.7774V23.5832C86.3298 23.5177 86.3499 23.4551 86.3848 23.4087C86.4198 23.3624 86.4669 23.3357 86.5164 23.3345L108.799 23.4837C108.823 23.4833 108.848 23.4898 108.87 23.5026C108.893 23.5155 108.913 23.5345 108.93 23.5584C108.964 23.6051 108.983 23.6676 108.983 23.7325V24.9266C108.983 24.9918 108.963 25.0543 108.929 25.1008C108.895 25.1473 108.848 25.1741 108.799 25.1754ZM86.7039 24.5286L108.611 24.6779V23.9813L86.7039 23.832V24.5286Z" fill="#231F20"/>
<path d="M91.3677 72.6399L97.5953 74.0582L97.7438 72.9107L91.5161 71.4924L91.3677 72.6399Z" fill="white"/>
<path d="M97.5976 74.3035H97.5638L91.3388 72.8855C91.2889 72.8733 91.2445 72.8358 91.2151 72.781C91.2009 72.7546 91.191 72.7247 91.1858 72.693C91.1807 72.6614 91.1804 72.6287 91.1851 72.5969L91.3313 71.4525C91.3405 71.3877 91.3683 71.3301 91.4089 71.292C91.4495 71.2539 91.4997 71.2383 91.5488 71.2485L97.7776 72.6665C97.802 72.6718 97.8253 72.6838 97.846 72.7018C97.8666 72.7198 97.8842 72.7434 97.8976 72.771C97.9124 72.797 97.923 72.8268 97.9288 72.8584C97.9346 72.8901 97.9355 72.923 97.9313 72.9551L97.7813 74.0995C97.7735 74.1566 97.7508 74.2082 97.7172 74.2455C97.6837 74.2828 97.6413 74.3033 97.5976 74.3035ZM91.5976 72.4327L97.4551 73.7661L97.5413 73.1094L91.6801 71.7759L91.5976 72.4327Z" fill="#D1D3D4"/>
<path d="M88.3159 72.4071L93.0504 73.4854C93.4627 73.5793 93.8544 73.2119 93.9251 72.6648L93.934 72.5962C94.0048 72.0491 93.7279 71.5295 93.3156 71.4356L88.5811 70.3573C88.1688 70.2634 87.7771 70.6308 87.7064 71.1778L87.6975 71.2465C87.6267 71.7936 87.9036 72.3132 88.3159 72.4071Z" fill="white"/>
<path d="M93.18 73.7462H93.0188L88.2863 72.6666C88.0395 72.6094 87.8198 72.4251 87.6751 72.1539C87.5304 71.8826 87.4724 71.5465 87.5138 71.2187V71.149C87.5578 70.8223 87.6969 70.5316 87.9011 70.3398C88.1053 70.1481 88.3581 70.0706 88.605 70.1241L93.3413 71.2038C93.588 71.2609 93.8077 71.4453 93.9524 71.7165C94.0971 71.9877 94.1551 72.3239 94.1138 72.6516V72.7213C94.0726 73.0098 93.9568 73.2702 93.7863 73.4574C93.6158 73.6445 93.4013 73.7467 93.18 73.7462ZM88.455 70.5868C88.3202 70.5877 88.19 70.6515 88.0872 70.7671C87.9843 70.8826 87.9154 71.0425 87.8925 71.2187V71.2834C87.8792 71.3815 87.8806 71.4821 87.8967 71.5794C87.9128 71.6767 87.9432 71.7689 87.9863 71.8506C88.0758 72.0148 88.2106 72.1256 88.3613 72.1591L93.0938 73.2388C93.2428 73.272 93.3958 73.2259 93.5194 73.1104C93.643 72.9948 93.7272 72.8193 93.7538 72.6218V72.5521C93.7672 72.454 93.7658 72.3534 93.7496 72.256C93.7334 72.1586 93.7028 72.0665 93.6595 71.985C93.6163 71.9035 93.5612 71.8343 93.4975 71.7813C93.4339 71.7283 93.3629 71.6927 93.2888 71.6764L88.5525 70.6017C88.5206 70.5915 88.4878 70.5865 88.455 70.5868Z" fill="#D1D3D4"/>
<path d="M95.025 81.2244H112.309C112.779 81.2244 113.16 80.7187 113.16 80.0949V79.07C113.16 78.4462 112.779 77.9405 112.309 77.9405H95.025C94.5549 77.9405 94.1738 78.4462 94.1738 79.07V80.0949C94.1738 80.7187 94.5549 81.2244 95.025 81.2244Z" fill="white"/>
<path d="M112.309 81.4681H95.0251C94.7496 81.4681 94.4854 81.3229 94.2906 81.0645C94.0958 80.806 93.9863 80.4555 93.9863 80.0899V79.065C93.9863 78.6995 94.0958 78.3489 94.2906 78.0904C94.4854 77.832 94.7496 77.6868 95.0251 77.6868H112.309C112.584 77.6868 112.849 77.832 113.043 78.0904C113.238 78.3489 113.348 78.6995 113.348 79.065V80.0899C113.348 80.4555 113.238 80.806 113.043 81.0645C112.849 81.3229 112.584 81.4681 112.309 81.4681ZM95.0251 78.1843C94.9379 78.1843 94.8516 78.2071 94.7711 78.2514C94.6905 78.2956 94.6174 78.3605 94.5557 78.4423C94.4941 78.524 94.4452 78.6211 94.4119 78.728C94.3785 78.8348 94.3613 78.9493 94.3613 79.065V80.0899C94.3613 80.2056 94.3785 80.3201 94.4119 80.4269C94.4452 80.5338 94.4941 80.6309 94.5557 80.7127C94.6174 80.7944 94.6905 80.8593 94.7711 80.9036C94.8516 80.9478 94.9379 80.9706 95.0251 80.9706H112.309C112.396 80.9706 112.482 80.9478 112.563 80.9036C112.643 80.8593 112.717 80.7944 112.778 80.7127C112.84 80.6309 112.889 80.5338 112.922 80.4269C112.955 80.3201 112.973 80.2056 112.973 80.0899V79.065C112.973 78.8314 112.903 78.6074 112.778 78.4423C112.654 78.2771 112.485 78.1843 112.309 78.1843H95.0251Z" fill="#D1D3D4"/>
<path d="M109.616 77.9206L108.323 75.4777H107.546L108.323 77.9206H109.616Z" fill="white"/>
<path d="M109.616 78.1694H108.323C108.286 78.1692 108.249 78.1544 108.219 78.1269C108.188 78.0995 108.164 78.0606 108.15 78.0152L107.374 75.5772C107.359 75.5404 107.351 75.4994 107.351 75.4578C107.351 75.4161 107.359 75.3751 107.374 75.3384C107.391 75.3042 107.415 75.2764 107.442 75.2573C107.47 75.2382 107.5 75.2284 107.531 75.2289H108.308C108.338 75.2291 108.367 75.2386 108.394 75.2568C108.421 75.2749 108.444 75.3012 108.461 75.3334L109.755 77.7763C109.773 77.8155 109.782 77.8602 109.782 77.9057C109.782 77.9512 109.773 77.9959 109.755 78.0351C109.742 78.0705 109.722 78.1012 109.698 78.1246C109.674 78.1479 109.646 78.1633 109.616 78.1694ZM108.446 77.6719H109.253L108.225 75.7264H107.828L108.446 77.6719Z" fill="#D1D3D4"/>
<path d="M97.5188 77.9405L98.5838 75.9304H99.2251L98.5838 77.9405H97.5188Z" fill="white"/>
<path d="M98.5837 78.1893H97.5187C97.4846 78.1889 97.4512 78.1762 97.4222 78.1526C97.3931 78.1289 97.3694 78.0951 97.3537 78.055C97.3362 78.0158 97.327 77.9711 97.327 77.9256C97.327 77.8801 97.3362 77.8354 97.3537 77.7962L98.4187 75.806C98.4364 75.7738 98.4595 75.7476 98.4862 75.7294C98.5129 75.7113 98.5425 75.7017 98.5725 75.7016H99.21C99.241 75.7011 99.2717 75.7108 99.2991 75.7299C99.3266 75.749 99.3501 75.7769 99.3675 75.811C99.3843 75.8453 99.3948 75.8843 99.3981 75.9249C99.4013 75.9656 99.3973 76.0067 99.3862 76.0449L98.745 78.0351C98.7317 78.0782 98.7096 78.1156 98.681 78.1429C98.6525 78.1701 98.6188 78.1862 98.5837 78.1893ZM97.8787 77.6918H98.46L98.94 76.1991H98.6812L97.8787 77.6918Z" fill="#D1D3D4"/>
<path d="M103.178 77.9406H103.954V75.9304H103.178V77.9406Z" fill="white"/>
<path d="M103.954 78.1893H103.181C103.132 78.1893 103.084 78.1631 103.049 78.1164C103.014 78.0698 102.994 78.0065 102.994 77.9405V75.9503C102.994 75.8843 103.014 75.8211 103.049 75.7744C103.084 75.7277 103.132 75.7015 103.181 75.7015H103.954C104.004 75.7015 104.051 75.7277 104.086 75.7744C104.122 75.8211 104.141 75.8843 104.141 75.9503V77.9405C104.141 78.0065 104.122 78.0698 104.086 78.1164C104.051 78.1631 104.004 78.1893 103.954 78.1893ZM103.369 77.6917H103.766V76.1991H103.369V77.6917Z" fill="#D1D3D4"/>
<path d="M109.635 75.9304H97.53C97.37 75.9304 97.2115 75.8886 97.0636 75.8073C96.9157 75.7261 96.7814 75.607 96.6682 75.4568C96.555 75.3066 96.4653 75.1284 96.404 74.9322C96.3428 74.736 96.3112 74.5257 96.3112 74.3134V71.5619H110.839V74.3134C110.839 74.5257 110.807 74.736 110.746 74.9322C110.685 75.1284 110.595 75.3066 110.482 75.4568C110.369 75.607 110.234 75.7261 110.086 75.8073C109.939 75.8886 109.78 75.9304 109.62 75.9304H109.635Z" fill="white"/>
<path d="M109.62 76.1792H97.5C97.127 76.1792 96.7694 75.9827 96.5056 75.6327C96.2419 75.2828 96.0938 74.8083 96.0938 74.3134V71.557C96.0938 71.491 96.1135 71.4277 96.1487 71.3811C96.1838 71.3344 96.2315 71.3082 96.2812 71.3082H110.824C110.873 71.3082 110.921 71.3344 110.956 71.3811C110.991 71.4277 111.011 71.491 111.011 71.557V74.3134C111.011 74.8048 110.865 75.2764 110.605 75.6258C110.344 75.9751 109.99 76.174 109.62 76.1792ZM96.495 71.8058V74.2935C96.495 74.6564 96.6036 75.0044 96.797 75.261C96.9904 75.5176 97.2527 75.6618 97.5263 75.6618H109.631C109.905 75.6618 110.167 75.5176 110.36 75.261C110.554 75.0044 110.663 74.6564 110.663 74.2935V71.8058H96.495Z" fill="#D1D3D4"/>
<path d="M43.5488 70.134H58.2338V78.8909C58.2338 79.5098 58.0485 80.1033 57.7187 80.5409C57.3889 80.9786 56.9415 81.2244 56.4751 81.2244H45.3076C44.8411 81.2244 44.3938 80.9786 44.064 80.5409C43.7341 80.1033 43.5488 79.5098 43.5488 78.8909V70.134Z" fill="white"/>
<path d="M56.4751 81.4682H45.3076C44.7917 81.4668 44.2972 81.1944 43.9325 80.7104C43.5677 80.2264 43.3623 79.5703 43.3613 78.8859V70.129C43.3613 70.063 43.3811 69.9998 43.4162 69.9531C43.4514 69.9065 43.4991 69.8802 43.5488 69.8802H58.2338C58.2836 69.8802 58.3312 69.9065 58.3664 69.9531C58.4016 69.9998 58.4213 70.063 58.4213 70.129V78.8859C58.4213 79.5707 58.2163 80.2276 57.8513 80.7118C57.4863 81.1961 56.9913 81.4682 56.4751 81.4682ZM43.7251 70.3778V78.8859C43.7261 79.4384 43.8919 79.9679 44.1864 80.3586C44.4808 80.7492 44.8799 80.9693 45.2963 80.9706H56.4751C56.8918 80.9706 57.2915 80.751 57.5861 80.36C57.8808 79.969 58.0463 79.4388 58.0463 78.8859V70.3778H43.7251Z" fill="#D1D3D4"/>
<path d="M50.8913 66.278C46.3913 66.278 43.5488 68.0044 43.5488 70.134H58.2338C58.2338 68.0044 55.3876 66.278 50.8913 66.278Z" fill="white"/>
<path d="M58.2338 70.3827H43.5488C43.4991 70.3827 43.4514 70.3565 43.4162 70.3099C43.3811 70.2632 43.3613 70.1999 43.3613 70.134C43.3613 67.7159 46.4588 66.0292 50.8913 66.0292C55.3238 66.0292 58.4213 67.7159 58.4213 70.134C58.4213 70.1999 58.4016 70.2632 58.3664 70.3099C58.3312 70.3565 58.2836 70.3827 58.2338 70.3827ZM43.7513 69.8852H58.0313C57.8176 68.1786 55.3726 66.5267 50.9063 66.5267C46.4401 66.5267 43.9688 68.1786 43.7513 69.8852Z" fill="#D1D3D4"/>
<path d="M42.3338 70.9698H43.5488V71.8356H42.3338C42.2473 71.8356 42.1643 71.79 42.1031 71.7088C42.0419 71.6276 42.0076 71.5175 42.0076 71.4027C42.0076 71.2879 42.0419 71.1778 42.1031 71.0966C42.1643 71.0155 42.2473 70.9698 42.3338 70.9698Z" fill="white"/>
<path d="M43.5488 72.0844H42.3338C42.1976 72.0844 42.0669 72.0125 41.9705 71.8847C41.8742 71.7569 41.8201 71.5835 41.8201 71.4027C41.8201 71.2219 41.8742 71.0486 41.9705 70.9207C42.0669 70.7929 42.1976 70.7211 42.3338 70.7211H43.5488C43.5985 70.7211 43.6462 70.7473 43.6814 70.7939C43.7166 70.8406 43.7363 70.9039 43.7363 70.9698V71.8356C43.7363 71.9016 43.7166 71.9648 43.6814 72.0115C43.6462 72.0582 43.5985 72.0844 43.5488 72.0844ZM42.3338 71.2186C42.3153 71.218 42.2968 71.2222 42.2796 71.2312C42.2623 71.2401 42.2466 71.2536 42.2333 71.2708C42.22 71.2879 42.2094 71.3084 42.2022 71.3311C42.195 71.3538 42.1913 71.3781 42.1913 71.4027C42.1923 71.452 42.2077 71.4988 42.2344 71.5332C42.261 71.5676 42.2967 71.5868 42.3338 71.5868H43.3613V71.2186H42.3338Z" fill="#D1D3D4"/>
<path d="M58.2338 70.9698H59.4488C59.5353 70.9698 59.6183 71.0155 59.6795 71.0966C59.7406 71.1778 59.775 71.2879 59.775 71.4027C59.775 71.5175 59.7406 71.6276 59.6795 71.7088C59.6183 71.79 59.5353 71.8356 59.4488 71.8356H58.2338V70.9698Z" fill="white"/>
<path d="M59.4525 72.0844H58.2338C58.184 72.0844 58.1363 72.0582 58.1012 72.0115C58.066 71.9648 58.0463 71.9016 58.0463 71.8356V70.9698C58.0463 70.9039 58.066 70.8406 58.1012 70.7939C58.1363 70.7473 58.184 70.7211 58.2338 70.7211H59.4525C59.5888 70.7211 59.7194 70.7929 59.8158 70.9207C59.9121 71.0486 59.9663 71.2219 59.9663 71.4027C59.9663 71.5835 59.9121 71.7569 59.8158 71.8847C59.7194 72.0125 59.5888 72.0844 59.4525 72.0844ZM58.4213 71.5868H59.4525C59.4893 71.5868 59.5246 71.5674 59.5506 71.5329C59.5767 71.4984 59.5913 71.4515 59.5913 71.4027C59.5918 71.3784 59.5885 71.3541 59.5818 71.3315C59.575 71.3088 59.5648 71.2882 59.5518 71.271C59.5388 71.2538 59.5233 71.2402 59.5062 71.2312C59.4892 71.2222 59.4709 71.2179 59.4525 71.2186H58.4213V71.5868Z" fill="#D1D3D4"/>
<path d="M52.9275 67.492H48.8588C48.809 67.492 48.7613 67.4658 48.7262 67.4191C48.691 67.3725 48.6713 67.3092 48.6713 67.2432V66.4024C48.6723 65.8235 48.846 65.2687 49.1545 64.8593C49.4631 64.45 49.8812 64.2195 50.3175 64.2181H51.4688C51.9051 64.2195 52.3232 64.45 52.6318 64.8593C52.9403 65.2687 53.114 65.8235 53.115 66.4024V67.2432C53.115 67.3092 53.0953 67.3725 53.0601 67.4191C53.0249 67.4658 52.9772 67.492 52.9275 67.492ZM49.0463 66.9945H52.74V66.4024C52.74 65.955 52.6061 65.526 52.3677 65.2097C52.1293 64.8934 51.8059 64.7157 51.4688 64.7157H50.3175C49.9804 64.7157 49.657 64.8934 49.4186 65.2097C49.1802 65.526 49.0463 65.955 49.0463 66.4024V66.9945Z" fill="#D1D3D4"/>
</svg>
