<svg width="150" height="150" viewBox="0 0 150 150" fill="none" xmlns="http://www.w3.org/2000/svg">
<path d="M104.104 108.336C102.386 107.579 97.6725 103.102 93.1088 98.7729C89.13 94.9965 85.0163 91.0907 83.145 89.9066C79.995 87.9164 78.27 88.1253 77.7188 88.2796L83.5838 94.7477L83.3438 95.1308L78.75 90.1006C79.4325 91.842 80.505 95.101 79.875 96.9568C79.7462 97.3203 79.5487 97.6333 79.3015 97.8652C79.0544 98.0972 78.7662 98.2402 78.465 98.2803C78.2279 98.3586 77.9792 98.3509 77.745 98.2581C77.5109 98.1654 77.2998 97.9909 77.1338 97.7529C76.5638 96.9021 76.5113 95.1955 76.6388 93.5337C76.1025 95.2602 75.3713 96.9469 74.4863 97.3101C74.2388 97.4013 73.9771 97.3998 73.7303 97.3059C73.4834 97.2119 73.2609 97.0291 73.0875 96.7777C72.3375 95.8871 72.0488 94.9119 72.18 93.877C72.5888 90.7076 77.01 88.1204 77.3663 87.9064C77.4413 87.8666 79.2413 86.9113 83.2875 89.4787C85.1888 90.6778 89.1338 94.4243 93.3075 98.3898C97.8488 102.699 102.54 107.152 104.205 107.883L104.104 108.336ZM77.4375 90.424C77.1 92.2898 76.5525 96.1309 77.415 97.4146C77.5391 97.5899 77.6968 97.7168 77.8713 97.7817C78.0458 97.8466 78.2304 97.847 78.405 97.7828C78.6443 97.7555 78.874 97.6456 79.0714 97.4641C79.2687 97.2825 79.4269 97.0356 79.53 96.7479C80.3288 94.4193 77.9663 89.2299 77.9438 89.1801L77.5688 88.3443H77.5313C77.4863 88.3443 72.9338 90.9713 72.555 93.9317C72.4425 94.8024 72.7013 95.6035 73.3463 96.3846C73.4721 96.576 73.6355 96.7172 73.8182 96.7928C74.0009 96.8683 74.1958 96.8751 74.3813 96.8125C75.555 96.315 76.5638 92.668 77.055 90.3742C77.1675 89.7274 77.265 89.2896 77.28 89.2249L77.655 89.3493C77.625 89.4289 77.5613 89.8419 77.4375 90.424Z" fill="#24285B"/>
<path d="M57.15 125.208C57.15 125.208 57.765 126.929 58.9913 126.909C60.2175 126.889 60.6525 128.402 59.5913 128.979C58.53 129.556 55.5675 128.029 55.5675 128.029L55.4513 125.043L57.15 125.208Z" fill="#68E1FD"/>
<path d="M44.58 125.208C44.58 125.208 43.965 126.929 42.7387 126.909C41.5125 126.889 41.0775 128.402 42.1425 128.979C43.2075 129.556 46.1662 128.029 46.1662 128.029L46.2825 125.043L44.58 125.208Z" fill="#68E1FD"/>
<path opacity="0.39" d="M75.4726 134.586C103.919 134.586 126.979 131.929 126.979 128.651C126.979 125.372 103.919 122.715 75.4726 122.715C47.0264 122.715 23.9663 125.372 23.9663 128.651C23.9663 131.929 47.0264 134.586 75.4726 134.586Z" fill="#E6E6E6"/>
<path d="M50.9137 37.7385C50.9137 37.7385 62.5387 39.669 62.1412 60.7153C61.7437 81.7617 76.1812 85.946 76.1812 85.946L74.6512 90.7872C74.6512 90.7872 63.6412 88.3592 57.3224 74.1293C51.0037 59.8994 50.9137 37.7385 50.9137 37.7385Z" fill="#68E1FD"/>
<path opacity="0.44" d="M50.9137 37.7385C50.9137 37.7385 62.5387 39.669 62.1412 60.7153C61.7437 81.7617 76.1812 85.946 76.1812 85.946L74.6512 90.7872C74.6512 90.7872 63.6412 88.3592 57.3224 74.1293C51.0037 59.8994 50.9137 37.7385 50.9137 37.7385Z" fill="white"/>
<path d="M48.1162 26.6084L45.9487 37.3555L50.4975 38.5197L50.25 30.2306L48.1162 26.6084Z" fill="#F4A28C"/>
<path opacity="0.31" d="M50.3625 32.0416C49.8049 31.7707 49.3188 31.29 48.9638 30.6584C48.9638 30.6584 48.87 32.6934 50.3888 34.9224L50.3625 32.0416Z" fill="#CE8172"/>
<path d="M45.6075 37.2261L51.375 37.8679C51.375 37.8679 62.7675 42.311 62.31 56.521C61.8525 70.731 60.81 88.1353 60.81 88.1353L45.4875 90.7972C45.4875 90.7972 19.995 44.7938 45.6075 37.2261Z" fill="#68E1FD"/>
<path opacity="0.08" d="M42.4987 45.2665C42.4987 45.2665 48.6037 49.8788 48.2212 58.5162C47.8387 67.1537 46.2937 76.9604 53.0137 75.9603C59.7337 74.9602 61.6387 72.1292 61.6387 72.1292L60.7875 88.1353L45.465 90.7972L44.085 88.1353C44.085 88.1353 31.125 57.2922 42.4987 45.2665Z" fill="black"/>
<path d="M67.6286 61.3008L71.5316 62.9774L73.8083 53.6475L69.9052 51.9709L67.6286 61.3008Z" fill="#FFD200"/>
<path d="M67.2338 65.7157C67.2338 65.7157 70.89 62.2627 69.9938 60.1034C69.0975 57.944 65.4938 62.8996 65.4938 62.8996L67.2338 65.7157Z" fill="#F4A28C"/>
<path d="M45.4725 90.7971L60.795 88.1353L57.8963 125.451H54.3225C54.3225 125.451 54.5888 106.316 52.4138 100.639C50.2388 94.9616 45.4725 90.7971 45.4725 90.7971Z" fill="#24285B"/>
<path d="M45.4725 90.7971L43.2225 125.441H47.1375C47.1375 125.441 49.8638 99.1858 56.8875 92.4142L45.4725 90.7971Z" fill="#24285B"/>
<path d="M52.9087 26.8124C52.9087 26.8124 52.2412 30.0913 51.255 32.0068C51.1592 32.1921 51.0367 32.3504 50.8947 32.4728C50.7526 32.5951 50.5938 32.679 50.4273 32.7197C50.2607 32.7604 50.0898 32.757 49.9242 32.7098C49.7586 32.6626 49.6017 32.5725 49.4625 32.4447C48.7425 31.773 47.9137 30.5888 48.1125 28.7728L48.1612 25.6382C48.2209 25.0125 48.4254 24.4268 48.7464 23.9617C49.0674 23.4966 49.4892 23.1749 49.9537 23.041C51.6675 22.4041 53.3887 24.8421 52.9087 26.8124Z" fill="#F4A28C"/>
<path d="M52.275 26.6532C51.5223 26.3315 50.8001 25.8957 50.1225 25.3546C50.2174 25.892 50.1916 26.4544 50.0483 26.9725C49.9051 27.4907 49.6506 27.9418 49.3163 28.2702C48.9973 28.597 48.6027 28.7667 48.1998 28.7504C47.797 28.7341 47.4109 28.5327 47.1075 28.1807L48.2775 24.1008C48.4312 23.5117 48.7012 22.988 49.0593 22.5846C49.4175 22.1811 49.8507 21.9126 50.3138 21.8071C50.7158 21.7175 51.1216 21.661 51.5288 21.6379C52.5488 21.5981 53.6363 23.0161 54.6525 22.633C54.7545 22.5922 54.8627 22.5872 54.9665 22.6186C55.0703 22.6499 55.1663 22.7165 55.2449 22.8118C55.3235 22.9071 55.3821 23.0278 55.415 23.1622C55.4479 23.2965 55.454 23.44 55.4325 23.5784C55.2263 24.8919 54.5175 26.7726 53.0588 26.8373C52.7915 26.8361 52.5264 26.7738 52.275 26.6532Z" fill="#24285B"/>
<path d="M49.6013 28.3C49.6013 28.3 49.92 27.0661 49.2 26.8073C48.48 26.5486 48.0075 28.3497 48.9075 28.9717L49.6013 28.3Z" fill="#F4A28C"/>
<path d="M52.4062 28.8474L52.7362 30.3998C52.7546 30.4879 52.756 30.5808 52.7404 30.6699C52.7247 30.759 52.6925 30.8415 52.6466 30.9098C52.6007 30.9781 52.5427 31.03 52.4777 31.0609C52.4128 31.0917 52.3431 31.1005 52.275 31.0864L51.2925 30.8675L52.4062 28.8474Z" fill="#F4A28C"/>
<path d="M42.9338 46.5303C42.7111 45.5844 42.2967 44.7379 41.7358 44.0835C41.1749 43.4291 40.4892 42.9919 39.7536 42.8199C39.0181 42.6478 38.261 42.7474 37.5653 43.1079C36.8695 43.4683 36.2619 44.0757 35.8088 44.8635C34.125 47.7841 32.655 52.1128 33.0525 58.1978C33.915 71.2834 36.96 86.3989 43.9275 84.4933C50.895 82.5877 67.86 66.7109 67.86 66.7109L65.5313 62.8997C65.5313 62.8997 51.3 73.189 45.9675 72.0446C41.625 71.1192 45.375 56.9888 42.9338 46.5303Z" fill="#68E1FD"/>
<path opacity="0.44" d="M42.9338 46.5303C42.7111 45.5844 42.2967 44.7379 41.7358 44.0835C41.1749 43.4291 40.4892 42.9919 39.7536 42.8199C39.0181 42.6478 38.261 42.7474 37.5653 43.1079C36.8695 43.4683 36.2619 44.0757 35.8088 44.8635C34.125 47.7841 32.655 52.1128 33.0525 58.1978C33.915 71.2834 36.96 86.3989 43.9275 84.4933C50.895 82.5877 67.86 66.7109 67.86 66.7109L65.5313 62.8997C65.5313 62.8997 51.3 73.189 45.9675 72.0446C41.625 71.1192 45.375 56.9888 42.9338 46.5303Z" fill="white"/>
<path d="M84.78 25.3247H68.1713V42.4852H84.78V25.3247Z" fill="#E6E6E6"/>
<path d="M104.404 105.161C104.404 105.161 105.791 102.589 108.045 103.699C109.92 104.624 110.689 106.744 112.211 106.624C112.36 106.614 112.509 106.649 112.647 106.725C112.784 106.801 112.907 106.917 113.007 107.064C113.107 107.212 113.18 107.387 113.222 107.576C113.264 107.766 113.274 107.966 113.25 108.162C113.1 109.351 112.553 110.55 110.861 109.968C107.816 108.908 108.964 113.172 106.196 111.51C103.429 109.848 102.799 108.51 104.404 105.161Z" fill="#24285B"/>
<path d="M105.337 105.619L103.256 100.897L106.575 104.38L105.337 105.619Z" fill="#24285B"/>
<path d="M106.361 104.883L105.705 99.4844L107.854 104.316L106.361 104.883Z" fill="#24285B"/>
<path d="M107.794 106.092C108.017 106.092 108.199 105.851 108.199 105.554C108.199 105.258 108.017 105.017 107.794 105.017C107.57 105.017 107.389 105.258 107.389 105.554C107.389 105.851 107.57 106.092 107.794 106.092Z" fill="white"/>
<path d="M103.747 106.808L108.555 111.64L107.404 113.366L102.502 108.575L103.747 106.808Z" fill="#FFD200"/>
<path d="M102.503 108.575C102.503 108.575 98.4375 113.665 93.525 111.898C88.6125 110.132 86.4225 115.958 88.0913 118.735C89.76 121.511 109.466 125.745 107.404 113.366" fill="#24285B"/>
<path d="M90.2475 115.157C90.2475 115.157 83.5237 115.033 83.6812 103.42C83.6812 103.42 78.6337 116.356 90.2475 117.391V115.157Z" fill="#24285B"/>
<path d="M95.385 118.361C95.385 118.361 97.1625 124.183 92.46 124.332C87.7575 124.481 88.905 128.312 88.905 128.312H87.5363C87.5363 128.312 86.7188 123.889 88.7025 122.73C90.6863 121.571 88.0913 118.749 88.0913 118.749C88.0913 118.749 90.9975 111.983 95.385 118.361Z" fill="#24285B"/>
<path d="M107.554 115.157L107.929 117.904C108.223 119.989 109.069 121.866 110.314 123.198L112.402 125.432L111.896 126.248L107.572 123.735C106.995 123.401 106.514 122.828 106.2 122.103L104.164 117.396L107.554 115.157Z" fill="#24285B"/>
<path d="M107.066 116.605L106.106 119.093C105.376 120.979 105.179 123.15 105.551 125.213L106.17 128.696L105.383 128.909L103.133 123.436C102.832 122.703 102.717 121.861 102.803 121.033L103.361 115.655L107.066 116.605Z" fill="#24285B"/>
<path d="M98.22 120.043C98.22 120.043 98.4938 123.576 96.8888 125.516C95.2838 127.457 95.5538 128.914 95.5538 128.914H94.38C94.2351 128.13 94.2351 127.311 94.38 126.526C94.5027 125.78 94.499 125.007 94.3693 124.262C94.2396 123.518 93.9871 122.821 93.63 122.222L92.5463 120.366L98.22 120.043Z" fill="#24285B"/>
<path d="M75.9413 86.7222C75.9413 86.7222 79.965 86.1451 79.8713 88.8119C79.7775 91.4788 75.045 89.5533 75.045 89.5533L75.9413 86.7222Z" fill="#F4A28C"/>
<path d="M78.7687 34.584H78.7162V31.9769C78.7148 31.3514 78.5323 30.7505 78.2063 30.2986C77.8804 29.8466 77.4359 29.5782 76.965 29.5489C77.0307 29.4779 77.0836 29.3883 77.1199 29.2868C77.1563 29.1852 77.1751 29.0742 77.175 28.9617C77.1763 28.8297 77.1523 28.6995 77.1054 28.5831C77.0584 28.4667 76.99 28.368 76.9065 28.2962C76.823 28.2244 76.7271 28.1818 76.6279 28.1725C76.5286 28.1632 76.4292 28.1874 76.3389 28.2428C76.2486 28.2983 76.1704 28.3832 76.1115 28.4897C76.0527 28.5961 76.0151 28.7207 76.0024 28.8516C75.9896 28.9825 76.0021 29.1156 76.0386 29.2384C76.0752 29.3612 76.1345 29.4697 76.2112 29.5538C75.7426 29.5857 75.301 29.8546 74.9774 30.3054C74.6537 30.7561 74.4725 31.3543 74.4712 31.9769V34.584C74.2955 34.5854 74.1273 34.6786 74.003 34.8434C73.8787 35.0083 73.8085 35.2315 73.8075 35.4647V35.7384C73.8085 35.9715 73.8787 36.1948 74.003 36.3596C74.1273 36.5245 74.2955 36.6177 74.4712 36.619H78.7687C78.9448 36.619 79.1136 36.5262 79.2381 36.3611C79.3626 36.1959 79.4325 35.9719 79.4325 35.7384V35.4647C79.4325 35.3491 79.4153 35.2345 79.382 35.1277C79.3486 35.0208 79.2997 34.9238 79.2381 34.842C79.1764 34.7602 79.1033 34.6953 79.0228 34.6511C78.9422 34.6068 78.8559 34.584 78.7687 34.584Z" fill="#C1C1C1"/>
<path d="M75.795 37.1316C75.7561 37.2632 75.7357 37.4032 75.735 37.5446C75.7273 37.6995 75.7436 37.8549 75.783 38.0012C75.8223 38.1474 75.8839 38.2814 75.9639 38.3948C76.0439 38.5082 76.1405 38.5986 76.2479 38.6604C76.3553 38.7222 76.4711 38.7541 76.5882 38.7541C76.7052 38.7541 76.821 38.7222 76.9284 38.6604C77.0358 38.5986 77.1324 38.5082 77.2124 38.3948C77.2924 38.2814 77.354 38.1474 77.3933 38.0012C77.4327 37.8549 77.449 37.6995 77.4413 37.5446C77.4412 37.4026 77.4195 37.2622 77.3775 37.1316H75.795Z" fill="#C1C1C1"/>
<path d="M70.1362 41.2064L71.4975 47.8985L72.7837 41.2064H70.1362Z" fill="#E6E6E6"/>
<path d="M84.5363 45.774C86.0958 45.774 87.36 44.0966 87.36 42.0274C87.36 39.9583 86.0958 38.2809 84.5363 38.2809C82.9768 38.2809 81.7125 39.9583 81.7125 42.0274C81.7125 44.0966 82.9768 45.774 84.5363 45.774Z" fill="#24285B"/>
<path d="M85.0387 40.2959V43.7787H84.4875V40.9925L83.8875 41.49V40.8382L84.5325 40.2959H85.0387Z" fill="white"/>
</svg>
