<svg width="150" height="150" viewBox="0 0 150 150" fill="none" xmlns="http://www.w3.org/2000/svg">
<path d="M61.4475 78.8809H77.3212C81.029 78.8809 84.5848 80.8351 87.2066 84.3137C89.8284 87.7922 91.3012 92.5101 91.3012 97.4295V119.153H47.4637V97.4345C47.4633 94.9978 47.8246 92.5849 48.5272 90.3336C49.2298 88.0823 50.2598 86.0367 51.5584 84.3137C52.857 82.5907 54.3988 81.2241 56.0956 80.2919C57.7924 79.3597 59.611 78.8803 61.4475 78.8809Z" fill="#68E1FD"/>
<path d="M91.3012 119.655H47.4637C47.3643 119.655 47.2689 119.603 47.1986 119.509C47.1283 119.416 47.0887 119.289 47.0887 119.157V97.4345C47.0937 92.3839 48.6081 87.5419 51.2998 83.9706C53.9915 80.3992 57.6408 78.3899 61.4475 78.3834H77.3175C81.1241 78.3899 84.7735 80.3992 87.4652 83.9706C90.1569 87.5419 91.6713 92.3839 91.6762 97.4345V119.157C91.6762 119.289 91.6367 119.416 91.5664 119.509C91.4961 119.603 91.4007 119.655 91.3012 119.655ZM47.8387 118.66H90.9262V97.4345C90.9223 92.6474 89.4872 88.0578 86.9359 84.6728C84.3847 81.2877 80.9255 79.3837 77.3175 79.3785H61.4475C57.8394 79.3837 54.3803 81.2877 51.829 84.6728C49.2778 88.0578 47.8427 92.6474 47.8387 97.4345V118.66Z" fill="#093F68"/>
<path d="M69.375 119.655C69.2755 119.655 69.1802 119.603 69.1098 119.509C69.0395 119.416 69 119.289 69 119.157V104.729C69 104.597 69.0395 104.47 69.1098 104.377C69.1802 104.283 69.2755 104.231 69.375 104.231C69.4745 104.231 69.5698 104.283 69.6402 104.377C69.7105 104.47 69.75 104.597 69.75 104.729V119.157C69.75 119.289 69.7105 119.416 69.6402 119.509C69.5698 119.603 69.4745 119.655 69.375 119.655Z" fill="#093F68"/>
<path d="M77.9775 78.8809L72.1537 101.281L69.3825 111.943L66.6112 101.286L60.7875 78.8809H77.9775Z" fill="white"/>
<path d="M69.375 112.441C69.2937 112.447 69.2131 112.417 69.1454 112.357C69.0778 112.297 69.0267 112.209 69 112.107L60.405 79.0451C60.3852 78.97 60.3793 78.8896 60.3878 78.8109C60.3963 78.7321 60.4189 78.6571 60.4537 78.5923C60.4886 78.5273 60.5347 78.4744 60.5882 78.4381C60.6418 78.4017 60.7011 78.3829 60.7612 78.3834H77.9512C78.0113 78.3829 78.0707 78.4017 78.1242 78.4381C78.1777 78.4744 78.2238 78.5273 78.2587 78.5923C78.2935 78.6571 78.3161 78.7321 78.3246 78.8109C78.3331 78.8896 78.3272 78.97 78.3075 79.0451L69.75 112.107C69.7232 112.209 69.6721 112.297 69.6045 112.357C69.5368 112.417 69.4563 112.447 69.375 112.441ZM61.3125 79.3785L69.375 110.416L77.445 79.3785H61.3125Z" fill="#093F68"/>
<path d="M66.3787 75.204L68.2087 84.9261H70.5599L72.3862 75.204H66.3787Z" fill="#F56132"/>
<path d="M70.5599 85.4486H68.2086C68.1235 85.4521 68.0399 85.4171 67.9718 85.3493C67.9036 85.2815 67.8549 85.1849 67.8336 85.0754L65.9999 75.3284C65.986 75.2539 65.9853 75.1762 65.9978 75.1012C66.0103 75.0263 66.0357 74.9562 66.072 74.8965C66.1083 74.8367 66.1545 74.7889 66.2071 74.7568C66.2596 74.7247 66.3171 74.7092 66.3749 74.7115H72.3749C72.4327 74.7092 72.4901 74.7247 72.5427 74.7568C72.5952 74.7889 72.6415 74.8367 72.6778 74.8965C72.7141 74.9562 72.7395 75.0263 72.752 75.1012C72.7645 75.1762 72.7638 75.2539 72.7499 75.3284L70.9236 85.0505C70.9065 85.1621 70.861 85.2624 70.7948 85.3349C70.7286 85.4073 70.6457 85.4474 70.5599 85.4486ZM68.5011 84.4535H70.2636L71.9061 75.7314H66.8586L68.5011 84.4535Z" fill="#093F68"/>
<path d="M72.1537 101.281L69.3825 111.943L66.6112 101.286L68.2087 84.9311H70.5562L72.1537 101.281Z" fill="#F56132"/>
<path d="M69.375 112.441C69.2937 112.447 69.2131 112.417 69.1455 112.357C69.0778 112.297 69.0267 112.209 69 112.107L66.2325 101.445C66.2113 101.374 66.2048 101.296 66.2137 101.221L67.8112 84.8664C67.8231 84.746 67.8678 84.6354 67.9369 84.5557C68.006 84.476 68.0947 84.4325 68.1862 84.4336H70.5337C70.6253 84.4325 70.714 84.476 70.7831 84.5557C70.8521 84.6354 70.8968 84.746 70.9087 84.8664L72.5062 101.216C72.5136 101.293 72.5071 101.371 72.4875 101.445L69.75 112.107C69.7232 112.209 69.6722 112.297 69.6045 112.357C69.5369 112.417 69.4563 112.447 69.375 112.441ZM66.9862 101.231L69.375 110.416L71.7637 101.226L70.2262 85.4485H68.5387L66.9862 101.231Z" fill="#093F68"/>
<path d="M63.9712 75.204L60.7875 78.8809L62.6812 86.1601L69.33 75.204H63.9712Z" fill="white"/>
<path d="M62.6812 86.6576H62.6137C62.5479 86.642 62.4864 86.6033 62.4356 86.5456C62.3848 86.4878 62.3466 86.4131 62.3249 86.3292L60.4499 79.0501C60.4252 78.9568 60.422 78.8559 60.4407 78.7602C60.4594 78.6645 60.4992 78.5783 60.5549 78.5127L63.7387 74.8408C63.8076 74.7626 63.8955 74.7202 63.9862 74.7214H69.3449C69.4152 74.7218 69.484 74.7485 69.5435 74.7983C69.6029 74.8481 69.6506 74.9191 69.6811 75.0031C69.7116 75.0871 69.7237 75.1809 69.716 75.2736C69.7082 75.3663 69.681 75.4542 69.6374 75.5274L62.9887 86.4735C62.9518 86.5339 62.9048 86.5821 62.8514 86.614C62.798 86.646 62.7397 86.6609 62.6812 86.6576ZM61.2262 79.0351L62.8124 85.145L68.5462 75.6916H64.1249L61.2262 79.0351Z" fill="#093F68"/>
<path d="M74.5837 75.204H69.4349L76.0837 86.1601L77.9774 78.8809L74.5837 75.204Z" fill="white"/>
<path d="M76.0837 86.6576C76.0283 86.6571 75.9737 86.6403 75.9237 86.6085C75.8738 86.5767 75.8298 86.5306 75.7949 86.4735L69.1424 75.5274C69.0988 75.4542 69.0716 75.3663 69.0639 75.2736C69.0562 75.1808 69.0683 75.0871 69.0988 75.0031C69.1293 74.919 69.177 74.8481 69.2364 74.7983C69.2958 74.7484 69.3646 74.7218 69.4349 74.7214H74.5837C74.6695 74.7209 74.7529 74.7595 74.8199 74.8308L78.1949 78.5027C78.2548 78.5667 78.2984 78.6535 78.3198 78.7513C78.3413 78.8492 78.3396 78.9535 78.3149 79.0501L76.4399 86.3292C76.4182 86.4131 76.38 86.4878 76.3293 86.5456C76.2785 86.6033 76.217 86.642 76.1512 86.6576H76.0837ZM70.2187 75.7115L75.9524 85.1649L77.5387 79.065L74.4487 75.7264L70.2187 75.7115Z" fill="#093F68"/>
<path d="M56.1975 119.655C56.0981 119.655 56.0027 119.603 55.9323 119.509C55.862 119.416 55.8225 119.289 55.8225 119.157V87.2546C55.8225 87.1227 55.862 86.9961 55.9323 86.9028C56.0027 86.8095 56.0981 86.7571 56.1975 86.7571C56.297 86.7571 56.3923 86.8095 56.4627 86.9028C56.533 86.9961 56.5725 87.1227 56.5725 87.2546V119.157C56.5725 119.289 56.533 119.416 56.4627 119.509C56.3923 119.603 56.297 119.655 56.1975 119.655Z" fill="#093F68"/>
<path d="M82.125 119.655C82.0255 119.655 81.9302 119.603 81.8598 119.509C81.7895 119.416 81.75 119.289 81.75 119.157V87.2546C81.75 87.1227 81.7895 86.9961 81.8598 86.9028C81.9302 86.8095 82.0255 86.7571 82.125 86.7571C82.2245 86.7571 82.3198 86.8095 82.3902 86.9028C82.4605 86.9961 82.5 87.1227 82.5 87.2546V119.157C82.5 119.289 82.4605 119.416 82.3902 119.509C82.3198 119.603 82.2245 119.655 82.125 119.655Z" fill="#093F68"/>
<path d="M65.79 34.6537H73.1025C76.0086 34.6537 78.7957 36.1855 80.8506 38.9119C82.9055 41.6384 84.06 45.3363 84.06 49.1921V54.3318H54.8287V49.1921C54.8287 47.2825 55.1123 45.3916 55.6632 43.6274C56.2141 41.8632 57.0215 40.2603 58.0394 38.9102C59.0573 37.5601 60.2657 36.4893 61.5956 35.759C62.9254 35.0287 64.3507 34.6531 65.79 34.6537Z" fill="#725858"/>
<path d="M84.06 54.8294H54.8287C54.7293 54.8294 54.6339 54.777 54.5636 54.6837C54.4932 54.5904 54.4537 54.4638 54.4537 54.3319V49.1922C54.4577 45.2052 55.6534 41.383 57.7787 38.5642C59.9039 35.7454 62.785 34.1602 65.79 34.1562H73.0987C76.1037 34.1602 78.9849 35.7454 81.1101 38.5642C83.2353 41.383 84.431 45.2052 84.435 49.1922V54.3319C84.435 54.4638 84.3955 54.5904 84.3251 54.6837C84.2548 54.777 84.1594 54.8294 84.06 54.8294ZM55.2037 53.8343H83.685V49.1922C83.682 45.4687 82.5656 41.8989 80.5808 39.2664C78.5961 36.634 75.9051 35.154 73.0987 35.1513H65.79C62.9836 35.154 60.2927 36.634 58.3079 39.2664C56.3231 41.8989 55.2067 45.4687 55.2037 49.1922V53.8343Z" fill="#093F68"/>
<path d="M57.5624 60.7104C59.8012 60.7104 61.6162 58.3915 61.6162 55.5309C61.6162 52.6704 59.8012 50.3514 57.5624 50.3514C55.3236 50.3514 53.5087 52.6704 53.5087 55.5309C53.5087 58.3915 55.3236 60.7104 57.5624 60.7104Z" fill="#FFC9B0"/>
<path d="M57.5624 61.2079C56.7221 61.1698 55.9088 60.8044 55.2239 60.1571C54.5391 59.5098 54.0131 58.6094 53.7113 57.5681C53.4096 56.5268 53.3456 55.3907 53.5273 54.3014C53.709 53.2122 54.1284 52.218 54.7331 51.4428C55.3378 50.6677 56.1011 50.1459 56.9278 49.9425C57.7545 49.7391 58.6081 49.8631 59.3821 50.299C60.1561 50.7349 60.8162 51.4635 61.2802 52.3939C61.7441 53.3243 61.9914 54.4153 61.9911 55.5309C61.9695 57.0622 61.4911 58.5196 60.661 59.5837C59.8308 60.6478 58.7166 61.2319 57.5624 61.2079ZM57.5624 50.849C56.8705 50.887 56.2023 51.194 55.6409 51.7318C55.0795 52.2696 54.6495 53.0145 54.4046 53.8738C54.1596 54.7332 54.1104 55.6691 54.2631 56.5652C54.4158 57.4614 54.7636 58.2782 55.2633 58.9142C55.763 59.5503 56.3926 59.9774 57.0738 60.1425C57.755 60.3076 58.4578 60.2034 59.0947 59.8429C59.7316 59.4824 60.2747 58.8815 60.6563 58.1149C61.0379 57.3482 61.2413 56.4497 61.2411 55.5309C61.2195 54.2636 60.8202 53.0592 60.1307 52.1817C59.4412 51.3042 58.5177 50.8249 57.5624 50.849Z" fill="#093F68"/>
<path d="M81.2024 60.7104C83.4413 60.7104 85.2562 58.3915 85.2562 55.5309C85.2562 52.6704 83.4413 50.3514 81.2024 50.3514C78.9636 50.3514 77.1487 52.6704 77.1487 55.5309C77.1487 58.3915 78.9636 60.7104 81.2024 60.7104Z" fill="#FFC9B0"/>
<path d="M81.2024 61.2079C80.3621 61.1698 79.5488 60.8044 78.864 60.1571C78.1791 59.5098 77.6531 58.6094 77.3514 57.5681C77.0496 56.5268 76.9857 55.3907 77.1673 54.3014C77.349 53.2122 77.7684 52.218 78.3731 51.4428C78.9778 50.6677 79.7411 50.1459 80.5678 49.9425C81.3946 49.7391 82.2481 49.8631 83.0221 50.299C83.7961 50.7349 84.4562 51.4635 84.9202 52.3939C85.3841 53.3243 85.6314 54.4153 85.6312 55.5309C85.6105 57.0626 85.1324 58.5207 84.3021 59.5852C83.4717 60.6496 82.3569 61.2332 81.2024 61.2079ZM81.2024 50.849C80.5105 50.887 79.8424 51.194 79.2809 51.7318C78.7195 52.2696 78.2896 53.0145 78.0446 53.8738C77.7996 54.7332 77.7504 55.6691 77.9031 56.5652C78.0558 57.4614 78.4036 58.2782 78.9033 58.9142C79.4031 59.5503 80.0326 59.9774 80.7138 60.1425C81.395 60.3076 82.0978 60.2034 82.7347 59.8429C83.3716 59.4824 83.9147 58.8815 84.2963 58.1149C84.6779 57.3482 84.8813 56.4497 84.8812 55.5309C84.8595 54.2636 84.4602 53.0592 83.7707 52.1817C83.0812 51.3042 82.1577 50.8249 81.2024 50.849Z" fill="#093F68"/>
<path d="M69.375 27.902C71.0284 27.9001 72.666 28.3306 74.1939 29.1689C75.7219 30.0072 77.1104 31.2369 78.2799 32.7877C79.4494 34.3385 80.377 36.18 81.0098 38.2068C81.6425 40.2336 81.968 42.406 81.9675 44.5998V62.6807C81.9675 66.9157 80.6998 70.9773 78.4431 73.9724C76.1864 76.9675 73.1256 78.6507 69.9337 78.652H68.8312C65.6393 78.6507 62.5785 76.9675 60.3219 73.9724C58.0652 70.9773 56.7975 66.9157 56.7975 62.6807V44.5998C56.797 42.4077 57.1219 40.2369 57.7537 38.2114C58.3855 36.1859 59.3119 34.3453 60.4798 32.7948C61.6477 31.2442 63.0344 30.0141 64.5606 29.1746C66.0869 28.3351 67.7228 27.9027 69.375 27.902Z" fill="#FFC9B0"/>
<path d="M69.9337 79.1496H68.8312C65.5408 79.1443 62.3863 77.4074 60.06 74.3198C57.7336 71.2323 56.4255 67.0464 56.4225 62.6807V44.5998C56.4225 40.0393 57.7879 35.6656 60.2184 32.4409C62.6488 29.2161 65.9453 27.4045 69.3825 27.4045C72.8197 27.4045 76.1161 29.2161 78.5466 32.4409C80.9771 35.6656 82.3425 40.0393 82.3425 44.5998V62.6807C82.3395 67.0464 81.0313 71.2323 78.705 74.3198C76.3786 77.4074 73.2242 79.1443 69.9337 79.1496ZM69.375 28.3996C66.1389 28.4062 63.0369 30.1154 60.7493 33.1524C58.4618 36.1894 57.1755 40.3062 57.1725 44.5998V62.6807C57.1755 66.7825 58.4046 70.7153 60.5903 73.6162C62.776 76.5171 65.7397 78.1492 68.8312 78.1545H69.9337C73.0253 78.1492 75.989 76.5171 78.1747 73.6162C80.3603 70.7153 81.5895 66.7825 81.5925 62.6807V44.5998C81.5885 40.3031 80.2998 36.1841 78.0092 33.1468C75.7186 30.1095 72.6134 28.4022 69.375 28.3996Z" fill="#093F68"/>
<path d="M81.9675 56.7798V62.6807C81.968 64.7774 81.6572 66.8537 81.0529 68.7911C80.4486 70.7285 79.5626 72.489 78.4455 73.9721C77.3284 75.4551 76.0021 76.6318 74.5423 77.4347C73.0825 78.2377 71.5178 78.6514 69.9375 78.652H68.8312C67.2506 78.652 65.6855 78.2389 64.2253 77.4362C62.765 76.6335 61.4382 75.457 60.3208 73.9738C59.2033 72.4907 58.317 70.73 57.7124 68.7923C57.1079 66.8546 56.797 64.7778 56.7975 62.6807V56.7648C56.7975 56.7648 58.5 69.3677 62.0775 69.3677C65.115 69.3677 64.7325 62.1483 70.0462 62.9892C75.36 63.83 75.195 70.3728 77.13 70.3728C80.3362 70.3728 81.9675 56.7798 81.9675 56.7798Z" fill="#093F68"/>
<path d="M69.9374 79.1496H68.8312C65.5407 79.1443 62.3863 77.4074 60.0599 74.3198C57.7336 71.2323 56.4254 67.0465 56.4224 62.6807V56.7649C56.418 56.6995 56.4233 56.6337 56.438 56.571C56.4528 56.5084 56.4767 56.4503 56.5084 56.3999C56.5724 56.2982 56.6642 56.2344 56.7637 56.2225C56.8631 56.2107 56.9621 56.2517 57.0387 56.3366C57.1154 56.4215 57.1635 56.5433 57.1724 56.6753C57.6337 60.0686 59.4224 68.8702 62.0849 68.8702C63.1687 68.8702 63.7462 67.7756 64.4737 66.3825C65.5087 64.4172 66.8024 61.9692 70.0987 62.4916C73.5524 63.034 74.8087 65.8501 75.7237 67.905C76.2862 69.1588 76.6274 69.8703 77.1337 69.8703C78.2587 69.8703 79.4062 67.5816 80.3962 63.432C80.9062 61.2248 81.3083 58.9762 81.5999 56.7002C81.6036 56.6348 81.617 56.5711 81.6392 56.5126C81.6615 56.4541 81.6922 56.402 81.7296 56.3593C81.7671 56.3166 81.8105 56.284 81.8574 56.2635C81.9043 56.2431 81.9538 56.235 82.003 56.2399C82.0523 56.2448 82.1003 56.2626 82.1444 56.2921C82.1885 56.3216 82.2278 56.3624 82.26 56.4121C82.2922 56.4617 82.3167 56.5193 82.3321 56.5816C82.3476 56.6438 82.3536 56.7095 82.3499 56.7748V62.6757C82.3479 67.0432 81.0397 71.2311 78.7124 74.3198C76.3852 77.4086 73.2291 79.1456 69.9374 79.1496ZM57.1874 60.9293V62.6807C57.1904 66.7825 58.4196 70.7153 60.6052 73.6162C62.7909 76.5171 65.7546 78.1492 68.8462 78.1545H69.9524C73.0436 78.1492 76.0069 76.5169 78.192 73.6159C80.3771 70.7149 81.6054 66.7821 81.6074 62.6807V61.5662C80.8087 65.666 79.3574 70.8903 77.1449 70.8903C76.1849 70.8903 75.6787 69.7509 75.0899 68.4374C74.2049 66.4472 73.1024 63.9893 70.0199 63.5066C67.1624 63.0539 66.1124 65.049 65.0962 66.9895C64.3462 68.4224 63.5662 69.9002 62.0962 69.9002C59.6249 69.8653 58.0199 64.7505 57.1724 60.9293H57.1874Z" fill="#093F68"/>
<path d="M63.2137 55.8444C63.8744 55.8444 64.41 55.1338 64.41 54.2572C64.41 53.3806 63.8744 52.67 63.2137 52.67C62.553 52.67 62.0175 53.3806 62.0175 54.2572C62.0175 55.1338 62.553 55.8444 63.2137 55.8444Z" fill="#093F68"/>
<path d="M75.5474 55.8444C76.2081 55.8444 76.7437 55.1338 76.7437 54.2572C76.7437 53.3806 76.2081 52.67 75.5474 52.67C74.8868 52.67 74.3512 53.3806 74.3512 54.2572C74.3512 55.1338 74.8868 55.8444 75.5474 55.8444Z" fill="#093F68"/>
<path d="M65.25 50.9883C65.1342 50.9871 65.021 50.9422 64.9237 50.8589C64.1865 50.2391 63.3454 49.87 62.475 49.7842C61.6049 49.8722 60.7642 50.2412 60.0262 50.8589C59.894 50.9663 59.7354 51.0011 59.5842 50.956C59.433 50.9108 59.3009 50.7893 59.216 50.6172C59.1312 50.4451 59.1002 50.2359 59.1296 50.0339C59.1591 49.832 59.2466 49.6532 59.3737 49.5355C60.305 48.7478 61.3725 48.2888 62.475 48.202C63.5787 48.2882 64.6475 48.7472 65.58 49.5355C65.6876 49.629 65.7695 49.7662 65.8135 49.9266C65.8575 50.087 65.8613 50.262 65.8241 50.4255C65.787 50.5889 65.711 50.7321 65.6076 50.8335C65.5041 50.9349 65.3786 50.9892 65.25 50.9883Z" fill="#093F68"/>
<path d="M78.3225 50.9883C78.2067 50.9871 78.0936 50.9422 77.9963 50.8589C77.259 50.2391 76.4179 49.87 75.5475 49.7842C74.6784 49.8708 73.8387 50.2399 73.1025 50.8589C72.9702 50.9744 72.8088 51.0154 72.6537 50.973C72.4987 50.9305 72.3627 50.8081 72.2756 50.6326C72.1886 50.457 72.1577 50.2429 72.1897 50.0371C72.2217 49.8314 72.314 49.6509 72.4463 49.5355C73.3775 48.7478 74.445 48.2888 75.5475 48.202C76.6512 48.2882 77.7201 48.7472 78.6525 49.5355C78.7601 49.629 78.8421 49.7662 78.8861 49.9266C78.9301 50.087 78.9338 50.262 78.8967 50.4255C78.8595 50.5889 78.7836 50.7321 78.6801 50.8335C78.5766 50.9349 78.4512 50.9892 78.3225 50.9883Z" fill="#093F68"/>
<path d="M69.375 54.3318C69.375 54.3318 72.5175 62.5912 70.9237 63.2877C70.4629 63.4901 69.9693 63.5225 69.4957 63.3814C69.0221 63.2403 68.5863 62.931 68.235 62.4867" fill="#FFC9B0"/>
<path d="M70.0725 63.9942C69.2882 63.9768 68.5379 63.5662 67.9725 62.8449C67.9382 62.7979 67.9113 62.7423 67.8933 62.6815C67.8752 62.6206 67.8664 62.5557 67.8672 62.4903C67.8681 62.4249 67.8787 62.3604 67.8983 62.3005C67.918 62.2405 67.9464 62.1863 67.9818 62.1409C68.0173 62.0955 68.0591 62.0598 68.105 62.0358C68.1508 62.0119 68.1998 62.0001 68.2491 62.0013C68.2984 62.0024 68.347 62.0165 68.3922 62.0425C68.4374 62.0686 68.4782 62.1063 68.5125 62.1533C68.8129 62.5329 69.1858 62.7966 69.5909 62.9158C69.996 63.0351 70.4179 63.0054 70.8112 62.83C70.8428 62.8144 70.8711 62.7892 70.8939 62.7563C70.9167 62.7234 70.9333 62.6839 70.9425 62.6409C71.3175 61.397 69.9862 57.0236 69.0487 54.5607C69.0246 54.5023 69.0095 54.4382 69.0044 54.3719C68.9992 54.3057 69.0042 54.2388 69.0189 54.1751C69.0337 54.1115 69.0579 54.0524 69.0901 54.0014C69.1224 53.9504 69.162 53.9085 69.2067 53.8782C69.2514 53.8479 69.3002 53.8298 69.3502 53.825C69.4003 53.8202 69.4506 53.8287 69.4981 53.8501C69.5456 53.8716 69.5894 53.9054 69.6268 53.9497C69.6643 53.994 69.6947 54.0478 69.7162 54.1079C69.9825 54.8045 72.2775 60.9492 71.6362 63.019C71.5864 63.1942 71.5082 63.3528 71.4071 63.4835C71.306 63.6141 71.1845 63.7138 71.0512 63.7753C70.736 63.918 70.4055 63.992 70.0725 63.9942Z" fill="#093F68"/>
<path d="M69.3449 71.7211C68.4836 71.7244 67.6283 71.5291 66.8174 71.144C66.7708 71.1222 66.7279 71.0885 66.6911 71.0447C66.6544 71.0009 66.6245 70.9478 66.6032 70.8886C66.582 70.8295 66.5698 70.7653 66.5673 70.6998C66.5647 70.6343 66.572 70.5689 66.5887 70.5071C66.6225 70.3831 66.6921 70.282 66.7821 70.226C66.8721 70.1701 66.9752 70.1638 67.0687 70.2086C68.6749 70.9243 70.419 70.8732 71.9999 70.0643C72.045 70.0375 72.0936 70.0228 72.1429 70.0209C72.1923 70.019 72.2414 70.0301 72.2876 70.0534C72.3337 70.0767 72.3759 70.1119 72.4118 70.1569C72.4477 70.2019 72.4766 70.2558 72.4968 70.3156C72.517 70.3754 72.5281 70.4398 72.5295 70.5053C72.5309 70.5708 72.5226 70.636 72.505 70.6972C72.4874 70.7584 72.4609 70.8145 72.427 70.8621C72.3931 70.9097 72.3525 70.948 72.3074 70.9748C71.3649 71.4724 70.3593 71.7258 69.3449 71.7211Z" fill="white"/>
<path d="M91.3011 119.157L98.6324 103.773L91.4849 95.0164L83.6399 108.117" fill="#68E1FD"/>
<path d="M91.3012 119.655C91.2293 119.655 91.1591 119.627 91.0987 119.575C91.0571 119.54 91.0211 119.495 90.9927 119.442C90.9643 119.388 90.9442 119.328 90.9334 119.264C90.9226 119.2 90.9214 119.134 90.9298 119.07C90.9382 119.006 90.9561 118.944 90.9824 118.889L98.1487 103.858L91.5262 95.7478L83.9362 108.425C83.9055 108.477 83.8675 108.52 83.8242 108.552C83.781 108.584 83.7335 108.604 83.6843 108.611C83.6352 108.619 83.5854 108.613 83.5379 108.595C83.4904 108.577 83.446 108.546 83.4074 108.505C83.3302 108.423 83.2805 108.304 83.2693 108.173C83.258 108.043 83.2861 107.911 83.3474 107.808L91.1887 94.7079C91.2209 94.6537 91.2612 94.609 91.3071 94.5766C91.353 94.5442 91.4034 94.5248 91.4553 94.5197C91.5071 94.5146 91.5592 94.5238 91.6082 94.5467C91.6572 94.5697 91.7021 94.606 91.7399 94.6532L98.8875 103.405C98.9522 103.484 98.994 103.59 99.0056 103.706C99.0173 103.821 98.998 103.938 98.9512 104.037L91.6162 119.421C91.5828 119.492 91.5364 119.551 91.4813 119.592C91.4262 119.633 91.3643 119.654 91.3012 119.655Z" fill="#093F68"/>
<path d="M64.98 89.5633H43.605V121.695H64.98V89.5633Z" fill="white"/>
<path d="M64.98 122.193H43.605C43.5055 122.193 43.4101 122.14 43.3398 122.047C43.2695 121.954 43.23 121.827 43.23 121.695V89.5633C43.23 89.4313 43.2695 89.3048 43.3398 89.2115C43.4101 89.1182 43.5055 89.0657 43.605 89.0657H64.98C65.0794 89.0657 65.1748 89.1182 65.2451 89.2115C65.3155 89.3048 65.355 89.4313 65.355 89.5633V121.695C65.355 121.827 65.3155 121.954 65.2451 122.047C65.1748 122.14 65.0794 122.193 64.98 122.193ZM43.98 121.197H64.605V90.0608H43.98V121.197Z" fill="#093F68"/>
<path d="M48.9938 115.078C46.9969 115.93 44.8825 116.185 42.8025 115.824C42.0317 115.743 41.2936 115.375 40.6725 114.764C39.6788 113.655 39.5475 111.968 39.5475 110.361C39.5165 108.863 39.5855 107.365 39.7538 105.883C39.9 104.589 40.1288 103.291 40.9913 102.505C41.9813 101.604 43.3163 101.42 44.4788 101.355C45.8821 101.283 47.2873 101.407 48.6713 101.723C49.155 101.833 50.1188 102.027 50.1 102.898C50.1 103.544 49.4475 104.161 49.005 104.236L47.2725 104.525C47.9311 104.718 48.5798 104.965 49.215 105.266C49.62 105.46 50.0775 105.763 50.13 106.341C50.134 106.561 50.092 106.778 50.0086 106.969C49.9252 107.16 49.8037 107.316 49.6575 107.42C48.8075 107.992 47.8863 108.355 46.9388 108.49C47.7413 108.52 48.5413 108.586 49.3388 108.689C49.9275 108.769 50.5013 108.953 50.6925 109.828C51.105 111.724 48.54 112.351 47.6438 112.59C48.3555 112.339 49.0989 112.288 49.8263 112.441C50.3775 112.555 51.0825 113.172 50.6063 113.998C50.4362 114.254 50.2211 114.451 49.98 114.57C49.6591 114.765 49.3298 114.934 48.9938 115.078Z" fill="#FFC9B0"/>
<path d="M44.625 116.481C43.9979 116.482 43.3714 116.427 42.75 116.317C41.9099 116.217 41.1067 115.813 40.4287 115.147C39.3037 113.908 39.1912 112.033 39.1537 110.376C39.124 108.85 39.1943 107.323 39.3637 105.813C39.5137 104.495 39.7612 103.012 40.7624 102.097C41.8274 101.101 43.2224 100.927 44.4449 100.868C45.8745 100.788 47.3064 100.912 48.7162 101.236H48.7612C49.3199 101.365 50.4825 101.629 50.4562 102.908C50.4375 103.823 49.6874 104.545 49.1287 104.704L49.32 104.793C49.5862 104.923 50.3962 105.291 50.4824 106.286C50.4945 106.606 50.4382 106.925 50.3202 107.204C50.2021 107.484 50.027 107.714 49.8149 107.868C49.6462 107.983 49.4737 108.092 49.2937 108.192H49.3574C49.7737 108.246 50.7487 108.371 51.0337 109.684C51.0901 109.923 51.1072 110.175 51.0839 110.423C51.0606 110.671 50.9975 110.909 50.8987 111.122C50.7096 111.504 50.4519 111.817 50.1487 112.033C50.344 112.104 50.5256 112.229 50.6814 112.401C50.8373 112.572 50.9638 112.786 51.0525 113.028C51.1123 113.24 51.1282 113.47 51.0985 113.693C51.0688 113.916 50.9946 114.124 50.8837 114.296C50.6821 114.616 50.4246 114.865 50.1337 115.023C49.805 115.223 49.4683 115.399 49.125 115.55C47.671 116.172 46.1525 116.486 44.625 116.481ZM45.2624 101.838C45.0037 101.838 44.7449 101.838 44.4862 101.838C43.3612 101.898 42.1087 102.072 41.1975 102.898C40.4475 103.584 40.2487 104.778 40.1175 105.943C39.9525 107.393 39.8847 108.86 39.915 110.326C39.9487 111.819 40.0537 113.391 40.9237 114.366C41.4895 114.922 42.1638 115.25 42.8662 115.311C44.8895 115.663 46.9463 115.415 48.8887 114.585C49.2055 114.443 49.516 114.276 49.8187 114.087C50.0019 113.997 50.1673 113.852 50.3025 113.665C50.4074 113.48 50.3812 113.396 50.37 113.366C50.2985 113.236 50.2072 113.126 50.1018 113.046C49.9965 112.965 49.8796 112.915 49.7587 112.898C49.2714 112.801 48.776 112.801 48.2887 112.898C48.0975 112.958 47.9137 113.003 47.7824 113.043H47.7112C47.6159 113.068 47.5168 113.043 47.435 112.974C47.3531 112.904 47.2949 112.795 47.2724 112.669C47.2506 112.544 47.2661 112.413 47.3158 112.302C47.3654 112.192 47.4453 112.111 47.5387 112.077C47.7337 112.008 47.9325 111.953 48.135 111.908C48.885 111.684 49.9537 111.271 50.2687 110.575C50.314 110.48 50.3426 110.374 50.3523 110.262C50.362 110.151 50.3527 110.039 50.3249 109.933C50.2199 109.435 49.9499 109.236 49.2937 109.152C48.5024 109.047 47.7037 108.983 46.9237 108.953C46.8242 108.959 46.7269 108.913 46.653 108.825C46.5792 108.736 46.5349 108.612 46.53 108.48C46.525 108.348 46.5597 108.219 46.6265 108.121C46.6933 108.023 46.7867 107.964 46.8862 107.958C47.7878 107.834 48.6654 107.497 49.4775 106.963C49.5555 106.903 49.6212 106.818 49.669 106.717C49.7167 106.615 49.7449 106.5 49.7512 106.38C49.7287 106.147 49.4962 105.913 49.08 105.714C48.4599 105.419 47.8261 105.178 47.1825 104.992C47.0979 104.967 47.0225 104.904 46.9691 104.813C46.9158 104.722 46.8878 104.61 46.89 104.495C46.8936 104.378 46.9284 104.266 46.9881 104.179C47.0478 104.093 47.1286 104.037 47.2162 104.022L48.9487 103.733C49.2524 103.684 49.6987 103.236 49.7175 102.873C49.7362 102.51 48.9675 102.286 48.645 102.211H48.6C47.4937 101.961 46.3734 101.836 45.2512 101.838H45.2624Z" fill="#093F68"/>
<path d="M92.475 96.2255L98.6325 103.773L101.546 96.0613L95.9737 88.7125L92.475 96.2255Z" fill="#FFC9B0"/>
<path d="M98.625 104.271C98.5785 104.272 98.5324 104.26 98.4892 104.237C98.4461 104.214 98.4069 104.18 98.3737 104.136L92.22 96.5936C92.1562 96.5152 92.115 96.4097 92.1033 96.2954C92.0917 96.181 92.1104 96.0648 92.1562 95.9667L95.655 88.4537C95.6844 88.39 95.7243 88.3358 95.7717 88.2953C95.8191 88.2549 95.8728 88.2291 95.9287 88.2199C95.9846 88.211 96.0412 88.2189 96.0944 88.2431C96.1477 88.2672 96.1961 88.3069 96.2362 88.3592L101.812 95.708C101.869 95.7819 101.906 95.8775 101.919 95.9812C101.932 96.0849 101.919 96.1913 101.884 96.2852L98.97 103.997C98.9435 104.066 98.9053 104.126 98.8584 104.171C98.8116 104.217 98.7573 104.248 98.7 104.261L98.625 104.271ZM92.9475 96.1409L98.5162 102.957L101.085 96.1608L96.0375 89.5085L92.9475 96.1409Z" fill="#093F68"/>
<path d="M105.69 71.0993H88.9836C88.735 71.0993 88.4965 70.9682 88.3207 70.7349C88.1449 70.5017 88.0461 70.1853 88.0461 69.8554C88.0461 69.5255 88.1449 69.2091 88.3207 68.9758C88.4965 68.7426 88.735 68.6115 88.9836 68.6115H105.69C105.939 68.6115 106.177 68.7426 106.353 68.9758C106.529 69.2091 106.627 69.5255 106.627 69.8554C106.627 70.1853 106.529 70.5017 106.353 70.7349C106.177 70.9682 105.939 71.0993 105.69 71.0993Z" fill="#093F68"/>
<path d="M97.3387 100.206C97.0901 100.206 96.8516 100.075 96.6758 99.8415C96.5 99.6082 96.4012 99.2919 96.4012 98.962V67.0691C96.4012 66.7392 96.5 66.4228 96.6758 66.1895C96.8516 65.9562 97.0901 65.8252 97.3387 65.8252C97.5874 65.8252 97.8258 65.9562 98.0017 66.1895C98.1775 66.4228 98.2762 66.7392 98.2762 67.0691V98.962C98.2762 99.2919 98.1775 99.6082 98.0017 99.8415C97.8258 100.075 97.5874 100.206 97.3387 100.206Z" fill="#093F68"/>
<path d="M101.325 98.0963H93.3487C92.6301 98.0963 92.0475 98.8681 92.0475 99.8203C92.0475 100.772 92.6301 101.544 93.3487 101.544H101.325C102.044 101.544 102.626 100.772 102.626 99.8203C102.626 98.8681 102.044 98.0963 101.325 98.0963Z" fill="#FFBC0E"/>
<path d="M101.329 102.042H93.3449C92.9145 102.015 92.5086 101.769 92.2112 101.355C91.9138 100.942 91.7479 100.392 91.7479 99.8202C91.7479 99.2486 91.9138 98.6989 92.2112 98.2852C92.5086 97.8716 92.9145 97.6257 93.3449 97.5987H101.329C101.759 97.6257 102.165 97.8716 102.462 98.2852C102.76 98.6989 102.926 99.2486 102.926 99.8202C102.926 100.392 102.76 100.942 102.462 101.355C102.165 101.769 101.759 102.015 101.329 102.042ZM93.3449 98.5938C93.1099 98.6137 92.8895 98.7515 92.7284 98.9793C92.5672 99.2072 92.4776 99.5078 92.4776 99.8202C92.4776 100.133 92.5672 100.433 92.7284 100.661C92.8895 100.889 93.1099 101.027 93.3449 101.047H101.329C101.564 101.027 101.784 100.889 101.945 100.661C102.106 100.433 102.196 100.133 102.196 99.8202C102.196 99.5078 102.106 99.2072 101.945 98.9793C101.784 98.7515 101.564 98.6137 101.329 98.5938H93.3449Z" fill="#093F68"/>
<path d="M93.7687 82.5578C93.7338 84.2115 93.2142 85.7819 92.3203 86.9352C91.4264 88.0885 90.2287 88.7337 88.9818 88.7337C87.735 88.7337 86.5373 88.0885 85.6434 86.9352C84.7495 85.7819 84.2298 84.2115 84.1949 82.5578H93.7687Z" fill="#FFBC0E"/>
<path d="M88.9837 89.429C87.6154 89.4263 86.3037 88.7043 85.3359 87.4211C84.368 86.1379 83.8229 84.3981 83.8199 82.5827C83.8199 82.4507 83.8595 82.3242 83.9298 82.2309C84.0001 82.1376 84.0955 82.0851 84.1949 82.0851H93.7687C93.8682 82.0851 93.9635 82.1376 94.0339 82.2309C94.1042 82.3242 94.1437 82.4507 94.1437 82.5827C94.1417 84.3976 93.5974 86.1375 92.6302 87.4208C91.6629 88.7042 90.3516 89.4263 88.9837 89.429ZM84.5887 83.0802C84.6799 84.5436 85.1825 85.908 85.9966 86.9026C86.8108 87.8971 87.877 88.4492 88.9837 88.4492C90.0904 88.4492 91.1566 87.8971 91.9708 86.9026C92.7849 85.908 93.2875 84.5436 93.3787 83.0802H84.5887Z" fill="#093F68"/>
<path d="M93.7688 83.0553C93.6991 83.0546 93.631 83.0281 93.5721 82.9789C93.5131 82.9297 93.4656 82.8597 93.435 82.7767L88.9838 70.9698L84.5325 82.7767C84.4864 82.8906 84.4088 82.9763 84.3159 83.0156C84.2231 83.0549 84.1223 83.0446 84.0351 82.9871C83.9478 82.9295 83.8809 82.8291 83.8484 82.7072C83.816 82.5853 83.8206 82.4514 83.8613 82.3339L88.6463 69.6314C88.6774 69.5487 88.7252 69.479 88.7845 69.4303C88.8438 69.3816 88.9122 69.3558 88.9819 69.3558C89.0516 69.3558 89.1199 69.3816 89.1792 69.4303C89.2385 69.479 89.2864 69.5487 89.3175 69.6314L94.1025 82.3339C94.147 82.4514 94.1546 82.5875 94.1237 82.7124C94.0928 82.8373 94.0258 82.9409 93.9375 83.0006C93.885 83.0351 93.8274 83.0538 93.7688 83.0553Z" fill="#093F68"/>
<path d="M110.479 82.5578C110.444 84.2115 109.924 85.7819 109.03 86.9352C108.136 88.0885 106.939 88.7337 105.692 88.7337C104.445 88.7337 103.247 88.0885 102.353 86.9352C101.459 85.7819 100.94 84.2115 100.905 82.5578H110.479Z" fill="#FFBC0E"/>
<path d="M105.69 89.429C104.322 89.4263 103.011 88.7042 102.043 87.4208C101.076 86.1375 100.532 84.3976 100.53 82.5827C100.53 82.4507 100.569 82.3242 100.64 82.2309C100.71 82.1376 100.805 82.0851 100.905 82.0851H110.479C110.578 82.0851 110.674 82.1376 110.744 82.2309C110.814 82.3242 110.854 82.4507 110.854 82.5827C110.851 84.3981 110.306 86.1379 109.338 87.4211C108.37 88.7043 107.058 89.4263 105.69 89.429ZM101.295 83.0802C101.386 84.5436 101.889 85.908 102.703 86.9026C103.517 87.8971 104.583 88.4492 105.69 88.4492C106.797 88.4492 107.863 87.8971 108.677 86.9026C109.491 85.908 109.994 84.5436 110.085 83.0802H101.295Z" fill="#093F68"/>
<path d="M110.479 83.0553C110.408 83.0555 110.34 83.0295 110.28 82.9802C110.22 82.931 110.172 82.8604 110.141 82.7767L105.69 70.9698L101.25 82.7767C101.229 82.8372 101.199 82.8916 101.162 82.9365C101.125 82.9814 101.081 83.016 101.034 83.0382C100.987 83.0604 100.936 83.0697 100.886 83.0656C100.836 83.0616 100.787 83.0442 100.742 83.0145C100.697 82.9849 100.657 82.9435 100.625 82.8929C100.592 82.8424 100.567 82.7836 100.552 82.7201C100.537 82.6566 100.531 82.5897 100.536 82.5234C100.54 82.457 100.555 82.3926 100.579 82.3339L105.375 69.6314C105.406 69.5487 105.454 69.479 105.513 69.4303C105.573 69.3816 105.641 69.3558 105.711 69.3558C105.78 69.3558 105.849 69.3816 105.908 69.4303C105.967 69.479 106.015 69.5487 106.046 69.6314L110.831 82.3339C110.86 82.4096 110.874 82.4939 110.871 82.5786C110.868 82.6633 110.849 82.7458 110.816 82.818C110.782 82.8903 110.736 82.9501 110.68 82.9916C110.624 83.0331 110.561 83.0551 110.497 83.0553H110.479Z" fill="#093F68"/>
<path d="M100.676 87.3094H97.0087C96.5282 87.3094 96.1387 87.8262 96.1387 88.4637V88.7971C96.1387 89.4346 96.5282 89.9514 97.0087 89.9514H100.676C101.157 89.9514 101.546 89.4346 101.546 88.7971V88.4637C101.546 87.8262 101.157 87.3094 100.676 87.3094Z" fill="#FFC9B0"/>
<path d="M100.676 90.4489H97.0087C96.6785 90.4489 96.3618 90.2749 96.1283 89.9651C95.8948 89.6553 95.7637 89.2351 95.7637 88.797V88.4637C95.7637 88.0256 95.8948 87.6054 96.1283 87.2956C96.3618 86.9859 96.6785 86.8118 97.0087 86.8118H100.676C101.006 86.8118 101.323 86.9859 101.557 87.2956C101.79 87.6054 101.921 88.0256 101.921 88.4637V88.797C101.921 89.2351 101.79 89.6553 101.557 89.9651C101.323 90.2749 101.006 90.4489 100.676 90.4489ZM97.0087 87.8069C96.8774 87.8069 96.7515 87.8761 96.6587 87.9993C96.5658 88.1225 96.5137 88.2895 96.5137 88.4637V88.797C96.5137 88.9712 96.5658 89.1383 96.6587 89.2614C96.7515 89.3846 96.8774 89.4538 97.0087 89.4538H100.676C100.807 89.4538 100.933 89.3846 101.026 89.2614C101.119 89.1383 101.171 88.9712 101.171 88.797V88.4637C101.171 88.2895 101.119 88.1225 101.026 87.9993C100.933 87.8761 100.807 87.8069 100.676 87.8069H97.0087Z" fill="#093F68"/>
<path d="M100.676 89.8419H97.0087C96.5282 89.8419 96.1387 90.3587 96.1387 90.9962V91.3296C96.1387 91.9671 96.5282 92.4839 97.0087 92.4839H100.676C101.157 92.4839 101.546 91.9671 101.546 91.3296V90.9962C101.546 90.3587 101.157 89.8419 100.676 89.8419Z" fill="#FFC9B0"/>
<path d="M100.676 92.9814H97.0087C96.6785 92.9814 96.3618 92.8074 96.1283 92.4976C95.8948 92.1878 95.7637 91.7677 95.7637 91.3296V90.9962C95.7637 90.5581 95.8948 90.138 96.1283 89.8282C96.3618 89.5184 96.6785 89.3444 97.0087 89.3444H100.676C101.006 89.3444 101.323 89.5184 101.557 89.8282C101.79 90.138 101.921 90.5581 101.921 90.9962V91.3296C101.921 91.7677 101.79 92.1878 101.557 92.4976C101.323 92.8074 101.006 92.9814 100.676 92.9814ZM97.0087 90.3395C96.8774 90.3395 96.7515 90.4086 96.6587 90.5318C96.5658 90.655 96.5137 90.822 96.5137 90.9962V91.3296C96.5137 91.5038 96.5658 91.6708 96.6587 91.794C96.7515 91.9172 96.8774 91.9863 97.0087 91.9863H100.676C100.807 91.9863 100.933 91.9172 101.026 91.794C101.119 91.6708 101.171 91.5038 101.171 91.3296V90.9962C101.171 90.822 101.119 90.655 101.026 90.5318C100.933 90.4086 100.807 90.3395 100.676 90.3395H97.0087Z" fill="#093F68"/>
<path d="M100.676 92.3745H97.0087C96.5282 92.3745 96.1387 92.8913 96.1387 93.5288V93.8621C96.1387 94.4996 96.5282 95.0164 97.0087 95.0164H100.676C101.157 95.0164 101.546 94.4996 101.546 93.8621V93.5288C101.546 92.8913 101.157 92.3745 100.676 92.3745Z" fill="#FFC9B0"/>
<path d="M100.676 95.514H97.0087C96.6785 95.514 96.3618 95.3399 96.1283 95.0302C95.8948 94.7204 95.7637 94.3002 95.7637 93.8621V93.5288C95.7637 93.0907 95.8948 92.6705 96.1283 92.3607C96.3618 92.0509 96.6785 91.8769 97.0087 91.8769H100.676C101.006 91.8769 101.323 92.0509 101.557 92.3607C101.79 92.6705 101.921 93.0907 101.921 93.5288V93.8621C101.921 94.3002 101.79 94.7204 101.557 95.0302C101.323 95.3399 101.006 95.514 100.676 95.514ZM97.0087 92.872C96.8774 92.872 96.7515 92.9412 96.6587 93.0644C96.5658 93.1875 96.5137 93.3546 96.5137 93.5288V93.8621C96.5137 94.0363 96.5658 94.2034 96.6587 94.3265C96.7515 94.4497 96.8774 94.5189 97.0087 94.5189H100.676C100.807 94.5189 100.933 94.4497 101.026 94.3265C101.119 94.2034 101.171 94.0363 101.171 93.8621V93.5288C101.171 93.3546 101.119 93.1875 101.026 93.0644C100.933 92.9412 100.807 92.872 100.676 92.872H97.0087Z" fill="#093F68"/>
<path d="M100.676 94.907H97.0087C96.5282 94.907 96.1387 95.4238 96.1387 96.0613V96.3947C96.1387 97.0322 96.5282 97.549 97.0087 97.549H100.676C101.157 97.549 101.546 97.0322 101.546 96.3947V96.0613C101.546 95.4238 101.157 94.907 100.676 94.907Z" fill="#FFC9B0"/>
<path d="M100.676 98.0465H97.0087C96.6785 98.0465 96.3618 97.8725 96.1283 97.5627C95.8948 97.2529 95.7637 96.8327 95.7637 96.3946V96.0613C95.7637 95.6232 95.8948 95.203 96.1283 94.8932C96.3618 94.5835 96.6785 94.4094 97.0087 94.4094H100.676C101.006 94.4094 101.323 94.5835 101.557 94.8932C101.79 95.203 101.921 95.6232 101.921 96.0613V96.3946C101.921 96.8327 101.79 97.2529 101.557 97.5627C101.323 97.8725 101.006 98.0465 100.676 98.0465ZM97.0087 95.3995C96.8774 95.3995 96.7515 95.4687 96.6587 95.5919C96.5658 95.7151 96.5137 95.8821 96.5137 96.0563V96.3946C96.5137 96.5688 96.5658 96.7359 96.6587 96.859C96.7515 96.9822 96.8774 97.0514 97.0087 97.0514H100.676C100.807 97.0514 100.933 96.9822 101.026 96.859C101.119 96.7359 101.171 96.5688 101.171 96.3946V96.0613C101.171 95.8871 101.119 95.7201 101.026 95.5969C100.933 95.4737 100.807 95.4045 100.676 95.4045L97.0087 95.3995Z" fill="#093F68"/>
<path d="M94.875 87.2546H94.8712C94.2644 87.2546 93.7725 87.9073 93.7725 88.7125V95.4095C93.7725 96.2146 94.2644 96.8673 94.8712 96.8673H94.875C95.4818 96.8673 95.9737 96.2146 95.9737 95.4095V88.7125C95.9737 87.9073 95.4818 87.2546 94.875 87.2546Z" fill="#FFC9B0"/>
<path d="M94.875 97.3897C94.4838 97.3884 94.1089 97.1813 93.8327 96.8138C93.5564 96.4463 93.4012 95.9484 93.4012 95.4294V88.7124C93.4203 88.2103 93.5841 87.737 93.8588 87.3905C94.1334 87.044 94.4979 86.8508 94.8769 86.8508C95.2558 86.8508 95.6203 87.044 95.895 87.3905C96.1696 87.737 96.3334 88.2103 96.3525 88.7124V95.3995C96.3525 95.9222 96.1976 96.4239 95.9211 96.7963C95.6447 97.1687 95.2689 97.3819 94.875 97.3897ZM94.875 87.777C94.7799 87.777 94.6858 87.8019 94.598 87.8501C94.5102 87.8984 94.4304 87.9691 94.3632 88.0583C94.296 88.1475 94.2427 88.2533 94.2063 88.3698C94.17 88.4863 94.1512 88.6112 94.1512 88.7373V95.3995C94.1441 95.5318 94.1575 95.6645 94.1907 95.7896C94.224 95.9147 94.2762 96.0293 94.3443 96.1263C94.4124 96.2234 94.4948 96.3008 94.5864 96.3538C94.6781 96.4067 94.7769 96.434 94.8769 96.434C94.9768 96.434 95.0757 96.4067 95.1673 96.3538C95.2589 96.3008 95.3413 96.2234 95.4094 96.1263C95.4775 96.0293 95.5298 95.9147 95.563 95.7896C95.5962 95.6645 95.6097 95.5318 95.6025 95.3995V88.7124C95.6025 88.5859 95.5836 88.4606 95.547 88.3438C95.5104 88.227 95.4568 88.1209 95.3892 88.0317C95.3216 87.9424 95.2414 87.8718 95.1531 87.8238C95.0649 87.7759 94.9704 87.7515 94.875 87.7522V87.777Z" fill="#093F68"/>
</svg>
