<svg width="150" height="150" viewBox="0 0 150 150" fill="none" xmlns="http://www.w3.org/2000/svg">
<path d="M44.28 129.661H43.8337C43.7201 129.664 43.6073 129.633 43.5039 129.571C43.4006 129.508 43.3093 129.415 43.2371 129.298C43.1648 129.182 43.1135 129.045 43.0869 128.898C43.0604 128.752 43.0593 128.599 43.0837 128.452L46.1775 107.206H47.55L44.28 129.661Z" fill="white"/>
<path d="M44.28 129.91H43.8338C43.6943 129.909 43.5567 129.868 43.4306 129.789C43.3044 129.71 43.1929 129.595 43.1038 129.453C43.0148 129.311 42.9504 129.144 42.9152 128.965C42.8799 128.786 42.8748 128.599 42.9 128.417L45.99 107.172C45.9987 107.114 46.0221 107.062 46.0563 107.025C46.0905 106.988 46.1333 106.968 46.1775 106.968H47.55C47.5777 106.967 47.605 106.976 47.6298 106.992C47.6545 107.009 47.676 107.033 47.6925 107.062C47.7103 107.09 47.7231 107.123 47.7303 107.158C47.7374 107.193 47.7386 107.23 47.7338 107.266L44.4638 129.73C44.4528 129.783 44.4287 129.83 44.3954 129.862C44.362 129.895 44.3214 129.911 44.28 129.91ZM46.3313 107.455L43.2675 128.501C43.2522 128.612 43.2553 128.726 43.2766 128.835C43.2979 128.944 43.3369 129.045 43.3909 129.132C43.4448 129.218 43.5124 129.288 43.5889 129.337C43.6654 129.385 43.749 129.411 43.8338 129.412H44.1263L47.3213 107.455H46.3313Z" fill="#231F20"/>
<path d="M55.2826 129.661H55.7438C55.8555 129.663 55.9663 129.633 56.068 129.572C56.1697 129.51 56.2598 129.42 56.3317 129.306C56.4036 129.193 56.4554 129.059 56.4835 128.916C56.5115 128.772 56.5151 128.622 56.4938 128.477L53.3963 107.206H52.0126L55.2826 129.661Z" fill="white"/>
<path d="M55.7438 129.909H55.2826C55.2392 129.91 55.1969 129.891 55.1633 129.855C55.1296 129.818 55.1068 129.767 55.0988 129.71L51.8288 107.256C51.824 107.22 51.8252 107.183 51.8323 107.148C51.8395 107.113 51.8524 107.08 51.8701 107.052C51.8866 107.023 51.9081 106.999 51.9328 106.982C51.9576 106.966 51.9849 106.957 52.0126 106.958H53.3851C53.429 106.957 53.4717 106.977 53.5055 107.014C53.5392 107.052 53.5617 107.104 53.5688 107.162L56.6663 128.432C56.6935 128.613 56.6901 128.8 56.6563 128.979C56.6225 129.158 56.5593 129.325 56.471 129.467C56.3828 129.61 56.2718 129.725 56.1461 129.804C56.0203 129.883 55.883 129.924 55.7438 129.924V129.909ZM55.4363 129.412H55.7438C55.8267 129.412 55.9086 129.388 55.9837 129.341C56.0588 129.295 56.1254 129.227 56.1788 129.143C56.2317 129.058 56.2698 128.959 56.2906 128.852C56.3113 128.746 56.3141 128.635 56.2988 128.526L53.2501 107.455H52.2601L55.4363 129.412Z" fill="#231F20"/>
<path d="M46.9463 61.5662C46.7213 62.8946 41.4675 118.784 41.4675 118.784H42.4163L49.1663 59.1282L46.9463 61.5662Z" fill="#231F20"/>
<path d="M42.4163 119.018H41.4675C41.4407 119.018 41.4141 119.01 41.3896 118.996C41.3651 118.981 41.3431 118.96 41.325 118.934C41.3079 118.907 41.295 118.876 41.2873 118.843C41.2795 118.809 41.2771 118.774 41.28 118.74C41.4938 116.456 46.53 62.8399 46.7625 61.5214C46.7717 61.4669 46.7941 61.4179 46.8263 61.3821L49.0313 58.9341C49.0603 58.9007 49.0964 58.8799 49.1346 58.8745C49.1728 58.8692 49.2114 58.8796 49.245 58.9043C49.2779 58.9295 49.3043 58.967 49.321 59.0122C49.3377 59.0574 49.3439 59.1082 49.3388 59.158L42.5888 118.814C42.5807 118.868 42.5595 118.918 42.5284 118.955C42.4972 118.991 42.4579 119.014 42.4163 119.018ZM41.6663 118.521H42.24L48.8775 59.7252L47.1038 61.7154C46.7888 64.2728 42.0788 114.306 41.6813 118.521H41.6663Z" fill="#231F20"/>
<path d="M55.9275 76.7563L56.2275 113.271H56.9737L59.52 73.8506L55.9275 76.7563Z" fill="#231F20"/>
<path d="M56.9738 113.52H56.2238C56.1994 113.521 56.1751 113.515 56.1524 113.503C56.1296 113.491 56.1089 113.473 56.0915 113.451C56.074 113.428 56.0601 113.401 56.0507 113.371C56.0412 113.341 56.0363 113.309 56.0363 113.276L55.7363 76.7613C55.7361 76.7184 55.7443 76.6761 55.7601 76.6386C55.7759 76.6011 55.7987 76.5697 55.8263 76.5474L59.4188 73.6417C59.4488 73.6175 59.4832 73.6047 59.5182 73.6047C59.5533 73.6047 59.5876 73.6175 59.6176 73.6417C59.6471 73.6659 59.6709 73.7007 59.6862 73.7421C59.7015 73.7834 59.7076 73.8297 59.7038 73.8755L57.1613 113.311C57.1541 113.37 57.1313 113.424 57.0968 113.462C57.0624 113.5 57.0188 113.521 56.9738 113.52ZM56.4113 113.023H56.7863L59.2876 74.3184L56.1001 76.8957L56.4113 113.023Z" fill="#231F20"/>
<path d="M107.381 44.4754L111.675 122.143H112.481L109.159 37.8132L107.381 44.4754Z" fill="#231F20"/>
<path d="M112.5 122.392H111.675C111.628 122.392 111.583 122.368 111.549 122.326C111.515 122.283 111.494 122.225 111.491 122.163L107.194 44.4903C107.187 44.4578 107.187 44.4233 107.194 44.3908L108.971 37.7286C108.975 37.696 108.983 37.6645 108.996 37.6361C109.008 37.6077 109.025 37.5828 109.045 37.5629C109.065 37.5431 109.087 37.5286 109.111 37.5203C109.135 37.512 109.16 37.5101 109.185 37.5147C109.21 37.5193 109.233 37.5302 109.255 37.547C109.276 37.5637 109.295 37.5858 109.31 37.6122C109.325 37.6385 109.336 37.6685 109.342 37.7004C109.348 37.7324 109.35 37.7656 109.346 37.7983L112.669 122.128C112.67 122.161 112.667 122.195 112.659 122.227C112.65 122.258 112.637 122.287 112.62 122.312C112.588 122.356 112.546 122.385 112.5 122.392ZM111.87 121.894H112.305L109.02 39.077L107.569 44.5102L111.87 121.894Z" fill="#231F20"/>
<path d="M97.8187 82.1697L98.3925 126.765H99.285L99.66 75.2687L97.8187 82.1697Z" fill="#231F20"/>
<path d="M99.2851 127.014H98.3926C98.3438 127.013 98.2972 126.987 98.2623 126.941C98.2275 126.896 98.207 126.835 98.2051 126.77L97.6313 82.1746C97.6278 82.145 97.6278 82.1148 97.6313 82.0851L99.4726 75.1891C99.4768 75.1564 99.4858 75.1251 99.4991 75.0971C99.5124 75.069 99.5297 75.0447 99.55 75.0255C99.5704 75.0064 99.5934 74.9927 99.6178 74.9853C99.6421 74.978 99.6673 74.977 99.692 74.9826C99.7166 74.9881 99.7401 75.0001 99.7613 75.0177C99.7824 75.0353 99.8008 75.0583 99.8152 75.0853C99.8297 75.1124 99.84 75.1429 99.8455 75.1752C99.8511 75.2075 99.8518 75.241 99.8476 75.2736L99.4726 126.77C99.4726 126.802 99.4677 126.835 99.4583 126.864C99.4488 126.894 99.4349 126.921 99.4175 126.944C99.4 126.967 99.3793 126.985 99.3566 126.997C99.3338 127.009 99.3095 127.014 99.2851 127.014ZM98.5801 126.516H99.1013L99.4763 76.7613L98.0213 82.2343L98.5801 126.516Z" fill="#231F20"/>
<path d="M55.1738 14.7369L37.395 75.3732L95.9625 89.1205L112.605 26.7825L55.1738 14.7369Z" fill="white"/>
<path d="M95.9625 89.3692H95.9288L37.3613 75.617C37.3341 75.6108 37.3083 75.5966 37.2859 75.5754C37.2634 75.5542 37.2448 75.5266 37.2315 75.4945C37.2182 75.4625 37.2105 75.4269 37.2089 75.3904C37.2074 75.3539 37.212 75.3174 37.2225 75.2836L55.0013 14.6473C55.0168 14.5946 55.0452 14.5503 55.0819 14.5215C55.1186 14.4926 55.1615 14.4809 55.2038 14.4881L112.635 26.5387C112.662 26.5446 112.688 26.5584 112.711 26.579C112.733 26.5997 112.752 26.6267 112.766 26.6581C112.777 26.691 112.783 26.7266 112.783 26.7626C112.783 26.7987 112.777 26.8343 112.766 26.8671L96.1388 89.205C96.1257 89.2531 96.1017 89.2947 96.0702 89.324C96.0387 89.3534 96.0011 89.3692 95.9625 89.3692ZM37.6538 75.1791L95.8388 88.8418L112.339 26.9816L55.2938 15.0105L37.6538 75.1791Z" fill="#231F20"/>
<path d="M78.1576 65.9496H78.1163L52.9913 58.6505C52.9654 58.6421 52.941 58.6268 52.9197 58.6054C52.8984 58.584 52.8807 58.557 52.8676 58.5261C52.8564 58.4933 52.8506 58.4577 52.8506 58.4217C52.8506 58.3856 52.8564 58.35 52.8676 58.3172L62.2613 25.4789C62.2758 25.4242 62.3045 25.3781 62.3423 25.3489C62.3801 25.3197 62.4245 25.3093 62.4676 25.3197L83.5126 30.0365C83.5399 30.0433 83.5659 30.0579 83.5885 30.0794C83.6112 30.1009 83.6301 30.1287 83.6438 30.1609C83.6566 30.194 83.6633 30.2306 83.6633 30.2678C83.6633 30.3051 83.6566 30.3417 83.6438 30.3748L82.8038 33.1163L86.9288 34.0567L87.9526 30.9669C87.9695 30.9164 87.9985 30.8749 88.0352 30.8488C88.0718 30.8226 88.114 30.8134 88.1551 30.8226L101.22 33.8079C101.247 33.8128 101.274 33.8261 101.296 33.8468C101.319 33.8676 101.338 33.8952 101.351 33.9273C101.362 33.9602 101.368 33.9958 101.368 34.0318C101.368 34.0678 101.362 34.1034 101.351 34.1363L95.8576 53.8442C95.8423 53.8994 95.8129 53.9456 95.7745 53.9747C95.7361 54.0039 95.6911 54.014 95.6476 54.0034L82.4663 50.5206L78.3226 65.7904C78.3096 65.8352 78.2871 65.8741 78.2578 65.9024C78.2285 65.9306 78.1937 65.947 78.1576 65.9496ZM53.2688 58.2177L78.0188 65.4122L82.1438 50.1474C82.1591 50.0913 82.1891 50.0443 82.2284 50.015C82.2676 49.9858 82.3135 49.9763 82.3576 49.9882L95.5388 53.471L100.931 34.201L88.2301 31.3152L87.2101 34.405C87.1925 34.4558 87.1627 34.4975 87.1254 34.5236C87.0881 34.5497 87.0454 34.5587 87.0038 34.5493L82.5038 33.5243C82.4764 33.5175 82.4505 33.5029 82.4278 33.4814C82.4051 33.4599 82.3863 33.4321 82.3726 33.3999C82.3597 33.3668 82.353 33.3302 82.353 33.2929C82.353 33.2557 82.3597 33.2191 82.3726 33.186L83.2126 30.4445L62.5501 25.8123L53.2688 58.2177Z" fill="#D1D3D4"/>
<path d="M93.75 84.2395H93.7163L42.0525 71.7211C42.0251 71.7163 41.999 71.703 41.9762 71.6822C41.9534 71.6615 41.9346 71.6339 41.9213 71.6017C41.9102 71.568 41.9045 71.5316 41.9045 71.4948C41.9045 71.458 41.9102 71.4215 41.9213 71.3878L57.2288 18.777C57.2443 18.7243 57.2727 18.68 57.3094 18.6511C57.3461 18.6223 57.389 18.6105 57.4313 18.6177L108.116 29.0663C108.144 29.0716 108.17 29.0845 108.193 29.1042C108.216 29.124 108.236 29.15 108.251 29.1807C108.262 29.2145 108.268 29.2509 108.268 29.2877C108.268 29.3245 108.262 29.3609 108.251 29.3946L93.9375 84.0753C93.9229 84.125 93.897 84.1674 93.8634 84.1968C93.8298 84.2262 93.7902 84.2411 93.75 84.2395ZM42.3338 71.3032L93.6263 83.7419L107.839 29.5141L57.5213 19.1203L42.3338 71.3032Z" fill="#D1D3D4"/>
<path d="M81.5701 83.7121L80.6138 87.3541L52.1888 80.7567L53.1076 76.9852L81.5701 83.7121Z" fill="white"/>
<path d="M80.625 87.6029H80.5913L52.1663 81.0054C52.14 81.0001 52.1149 80.987 52.0928 80.9672C52.0708 80.9474 52.0523 80.9214 52.0388 80.891C52.0255 80.8604 52.017 80.8266 52.0138 80.7915C52.0106 80.7565 52.0127 80.7209 52.02 80.687L52.9425 76.9156C52.9556 76.858 52.9843 76.8088 53.0231 76.7776C53.0618 76.7464 53.1079 76.7353 53.1525 76.7464L81.6038 83.4584C81.6305 83.4639 81.6559 83.4776 81.678 83.4983C81.7001 83.519 81.7183 83.5462 81.7313 83.5778C81.7431 83.6095 81.7493 83.6444 81.7493 83.6798C81.7493 83.7152 81.7431 83.7501 81.7313 83.7818L80.79 87.4387C80.778 87.4849 80.7559 87.5252 80.7265 87.5545C80.6971 87.5837 80.6617 87.6006 80.625 87.6029ZM52.4438 80.5626L80.5013 87.0706L81.3338 83.9061L53.25 77.2688L52.4438 80.5626Z" fill="#231F20"/>
<path d="M49.095 107.838H50.4675V123.904C50.4675 124.146 50.3952 124.377 50.2665 124.548C50.1378 124.719 49.9632 124.815 49.7812 124.815C49.5992 124.815 49.4247 124.719 49.296 124.548C49.1673 124.377 49.095 124.146 49.095 123.904V107.838Z" fill="white"/>
<path d="M49.7813 125.078C49.5499 125.077 49.3282 124.954 49.1646 124.737C49.001 124.52 48.9086 124.226 48.9076 123.919V107.838C48.9076 107.772 48.9273 107.709 48.9625 107.662C48.9977 107.616 49.0454 107.589 49.0951 107.589H50.4676C50.5173 107.589 50.565 107.616 50.6002 107.662C50.6353 107.709 50.6551 107.772 50.6551 107.838V123.904C50.6566 124.058 50.6351 124.21 50.5918 124.352C50.5486 124.495 50.4845 124.624 50.4032 124.734C50.3219 124.843 50.2251 124.929 50.1183 124.989C50.0116 125.048 49.897 125.078 49.7813 125.078ZM49.2826 108.102V123.919C49.2826 124.095 49.3351 124.263 49.4287 124.387C49.5222 124.511 49.6491 124.581 49.7813 124.581C49.9136 124.581 50.0405 124.511 50.134 124.387C50.2275 124.263 50.2801 124.095 50.2801 123.919V108.102H49.2826Z" fill="#231F20"/>
<path d="M54.6188 101.052C51.4353 100.096 48.1311 100.096 44.9476 101.052H40.4026V105.351C40.4026 108.112 44.6026 110.326 49.7776 110.326C54.9526 110.326 59.1526 108.092 59.1526 105.351V101.072L54.6188 101.052Z" fill="#231F20"/>
<path d="M49.7813 110.575C44.4151 110.575 40.2151 108.271 40.2151 105.331V101.052C40.2151 100.986 40.2348 100.922 40.27 100.876C40.3052 100.829 40.3529 100.803 40.4026 100.803H44.9251C48.1226 99.8484 51.44 99.8484 54.6376 100.803H59.1638C59.2136 100.803 59.2613 100.829 59.2964 100.876C59.3316 100.922 59.3513 100.986 59.3513 101.052V105.35C59.3513 108.271 55.1476 110.575 49.7813 110.575ZM40.5901 101.3V105.35C40.5901 107.928 44.7976 110.097 49.7813 110.097C54.7651 110.097 58.9763 107.928 58.9763 105.35V101.32H54.6188H54.5738C51.4195 100.378 48.1469 100.378 44.9926 101.32H44.9476L40.5901 101.3Z" fill="#231F20"/>
<path d="M49.7813 106.047C54.9631 106.047 59.1638 103.811 59.1638 101.052C59.1638 98.2928 54.9631 96.0563 49.7813 96.0563C44.5995 96.0563 40.3988 98.2928 40.3988 101.052C40.3988 103.811 44.5995 106.047 49.7813 106.047Z" fill="white"/>
<path d="M49.7813 106.296C44.4151 106.296 40.2151 103.992 40.2151 101.052C40.2151 98.1112 44.4151 95.8026 49.7813 95.8026C55.1476 95.8026 59.3513 98.1062 59.3513 101.052C59.3513 103.997 55.1476 106.296 49.7813 106.296ZM49.7813 96.3001C44.7976 96.3001 40.5901 98.4744 40.5901 101.052C40.5901 103.629 44.7976 105.798 49.7813 105.798C54.7651 105.798 58.9763 103.624 58.9763 101.052C58.9763 98.4794 54.7501 96.3001 49.7813 96.3001Z" fill="#231F20"/>
<path d="M59.0513 119.575L56.4938 124.551C56.4938 124.551 61.2 128.467 61.8863 128.7C62.5725 128.934 68.7675 128.84 68.4825 127.999C68.1975 127.158 62.3963 124.203 62.3963 124.203L62.22 122.163L59.0513 119.575Z" fill="#231F20"/>
<path d="M63.7501 129.024C63.109 129.046 62.4676 129.011 61.8301 128.919C61.1363 128.686 56.8726 125.143 56.3888 124.745C56.3669 124.727 56.3481 124.703 56.3339 124.675C56.3196 124.647 56.3102 124.614 56.3063 124.581C56.296 124.516 56.3055 124.448 56.3326 124.392L58.8901 119.416C58.9168 119.364 58.9578 119.327 59.0045 119.313C59.0512 119.299 59.1002 119.309 59.1413 119.342L62.3101 121.909C62.3343 121.929 62.3549 121.956 62.3705 121.988C62.386 122.02 62.3961 122.055 62.4001 122.093L62.5613 123.984C64.0613 124.745 68.3663 127.014 68.6476 127.86C68.6711 127.926 68.6791 128.001 68.6704 128.074C68.6617 128.146 68.6367 128.214 68.5988 128.268C68.2501 128.855 65.6251 129.024 63.7501 129.024ZM56.7526 124.456C58.1626 125.626 61.4063 128.263 61.9238 128.437C62.6138 128.671 67.6313 128.531 68.2688 128.014C67.8938 127.457 65.0026 125.78 62.3213 124.417C62.2896 124.4 62.2618 124.372 62.2407 124.336C62.2196 124.3 62.206 124.258 62.2013 124.213L62.0363 122.292L59.1001 119.909L56.7526 124.456Z" fill="#231F20"/>
<path d="M64.7175 118.919C64.6463 119.063 62.22 122.143 62.22 122.143L59.0513 119.575L61.125 114.903L64.7175 118.919Z" fill="white"/>
<path d="M62.22 122.392C62.1857 122.393 62.1519 122.38 62.1225 122.357L58.9538 119.779C58.9118 119.745 58.8817 119.691 58.8697 119.628C58.8578 119.564 58.8651 119.497 58.89 119.441L60.9675 114.774C60.9808 114.742 60.9996 114.714 61.0224 114.694C61.0452 114.673 61.0714 114.659 61.0988 114.655C61.1253 114.649 61.1524 114.65 61.1784 114.66C61.2043 114.669 61.2283 114.686 61.2488 114.709L64.8375 118.725C64.8732 118.764 64.8967 118.819 64.9036 118.879C64.9105 118.94 64.9004 119.002 64.875 119.053C64.8038 119.197 63.2625 121.158 62.3475 122.317C62.3141 122.363 62.2683 122.39 62.22 122.392ZM59.3063 119.491L62.1938 121.829C62.9925 120.834 64.0688 119.431 64.4438 118.939L61.1775 115.301L59.3063 119.491Z" fill="#231F20"/>
<path d="M73.0651 129.939L73.2751 135.263L85.1701 132.601C85.1701 132.601 82.0388 129.755 76.9726 129.054L73.0651 129.939Z" fill="#231F20"/>
<path d="M73.275 135.512C73.2327 135.511 73.1919 135.492 73.1587 135.457C73.1384 135.435 73.1216 135.408 73.1094 135.377C73.0971 135.346 73.0897 135.313 73.0875 135.278L72.8775 129.954C72.8749 129.894 72.8891 129.834 72.9175 129.786C72.9458 129.739 72.9862 129.706 73.0312 129.696L76.9387 128.81H76.9912C82.0462 129.511 85.2412 132.372 85.2787 132.402C85.3096 132.43 85.3333 132.47 85.3467 132.516C85.3601 132.562 85.3625 132.613 85.3537 132.661C85.3461 132.709 85.3278 132.754 85.3011 132.788C85.2744 132.823 85.2405 132.846 85.2037 132.855L73.305 135.517L73.275 135.512ZM73.275 130.148L73.4662 134.975L84.66 132.487C82.2914 130.755 79.6825 129.678 76.9912 129.322L73.275 130.148Z" fill="#231F20"/>
<path d="M72.8513 125.551C72.8513 125.69 73.0651 129.939 73.0651 129.939L76.9726 129.054L77.1488 124.805L72.8513 125.551Z" fill="white"/>
<path d="M73.0651 130.188C73.0232 130.189 72.9823 130.172 72.9488 130.138C72.9285 130.116 72.9117 130.089 72.8994 130.058C72.8872 130.028 72.8798 129.994 72.8776 129.959C72.8401 129.248 72.6638 125.69 72.6638 125.551C72.6644 125.491 72.6814 125.433 72.7118 125.388C72.7421 125.343 72.7837 125.314 72.8288 125.307L77.1226 124.556C77.1496 124.551 77.1772 124.554 77.2032 124.565C77.2292 124.576 77.2529 124.595 77.2726 124.621C77.2931 124.646 77.3092 124.677 77.3195 124.711C77.3299 124.746 77.3344 124.783 77.3326 124.82L77.1563 129.069C77.1543 129.124 77.1379 129.178 77.11 129.219C77.082 129.261 77.0441 129.288 77.0026 129.298L73.0951 130.188H73.0651ZM73.0651 125.77C73.0913 126.402 73.1813 128.258 73.2526 129.651L76.8076 128.84L76.9613 125.088L73.0651 125.77Z" fill="#231F20"/>
<path d="M57.825 87.5382C57.825 87.5382 75.4238 84.5529 77.1825 89.8767C78.9413 95.2005 64.125 121.063 64.125 121.063L59.3925 116.341L65.7675 98.4694C65.7675 98.4694 50.925 101.37 49.875 96.7877C48.825 92.2052 57.6188 88.3791 57.6188 88.3791L57.825 87.5382Z" fill="#231F20"/>
<path d="M64.1251 121.312C64.0845 121.312 64.0449 121.295 64.0126 121.262L59.2801 116.54C59.245 116.506 59.22 116.456 59.2091 116.4C59.1981 116.344 59.202 116.285 59.2201 116.232L65.4601 98.7779C63.1538 99.1958 50.7038 101.266 49.6913 96.8573C48.6413 92.3047 56.4751 88.6279 57.4651 88.185L57.6488 87.4636C57.659 87.4184 57.679 87.3782 57.7064 87.3481C57.7338 87.318 57.7672 87.2993 57.8026 87.2944C58.5263 87.17 75.5588 84.344 77.3551 89.7822C79.1513 95.2204 64.8751 120.153 64.2751 121.217C64.2567 121.246 64.2338 121.27 64.2079 121.286C64.182 121.303 64.1537 121.311 64.1251 121.312ZM59.6251 116.262L64.0876 120.715C64.7363 119.575 68.0513 113.684 71.1563 107.331C76.8751 95.6334 77.4938 91.4191 77.0101 89.9762C76.3238 87.8965 72.8101 86.8516 66.8476 86.9611C62.7226 87.0357 58.6951 87.6527 57.9638 87.7671L57.7913 88.4587C57.7819 88.4957 57.7662 88.5293 57.7454 88.5569C57.7246 88.5845 57.6992 88.6054 57.6713 88.6179C57.5851 88.6527 49.0463 92.4242 50.0513 96.713C50.8763 100.3 61.6763 99.0167 65.7526 98.2057C65.786 98.2002 65.8198 98.2066 65.8508 98.2241C65.8817 98.2415 65.9086 98.2695 65.9288 98.3052C65.9493 98.3411 65.9619 98.3838 65.9652 98.4286C65.9685 98.4733 65.9624 98.5185 65.9476 98.5589L59.6251 116.262Z" fill="#231F20"/>
<path d="M44.7676 90.8569C44.7676 91.4142 42.8663 98.559 47.6176 102.062C52.3688 105.564 71.6926 104.166 71.6926 104.166L72.0676 126.765L77.3963 126.297C77.3963 126.297 80.4226 104.35 77.9588 98.9321C75.4951 93.5138 52.8976 88.9314 52.8976 88.9314L44.7676 90.8569Z" fill="#231F20"/>
<path d="M72.0638 127.014C72.0393 127.014 72.015 127.009 71.9923 126.997C71.9696 126.985 71.9489 126.967 71.9314 126.944C71.9139 126.921 71.9001 126.894 71.8906 126.864C71.8811 126.835 71.8763 126.802 71.8763 126.77L71.5013 104.425C69.3525 104.574 52.065 105.629 47.52 102.281C44.655 100.171 43.6425 96.4593 44.52 91.2549C44.5454 91.1238 44.5654 90.9909 44.58 90.8569C44.5809 90.7991 44.5966 90.7434 44.6246 90.6991C44.6525 90.6547 44.691 90.6244 44.7338 90.6131L52.875 88.6975H52.9388C53.8613 88.8816 75.6488 93.3496 78.1275 98.8077C80.6063 104.266 77.715 125.442 77.5875 126.342C77.5808 126.396 77.5606 126.446 77.5299 126.483C77.4993 126.52 77.4601 126.542 77.4188 126.546L72.0863 127.014H72.0638ZM71.6888 103.918C71.7359 103.917 71.7814 103.94 71.8163 103.982C71.8532 104.029 71.8747 104.093 71.8763 104.161L72.2513 126.501L77.2388 126.063C77.5275 123.899 80.0775 104.072 77.8013 99.0615C75.45 93.8969 53.8538 89.3891 52.905 89.1951L44.9363 91.0708L44.8913 91.3594C44.0588 96.3349 45.0113 99.8526 47.715 101.848C52.3613 105.271 71.4938 103.927 71.685 103.918H71.6888Z" fill="#231F20"/>
<path d="M62.0775 49.3712C61.4813 49.3712 60.9788 48.5155 60.9525 47.4358C60.9324 46.9478 61.0253 46.4634 61.2188 46.0476C61.2991 45.862 61.4125 45.7054 61.5492 45.5917C61.6859 45.478 61.8416 45.4108 62.0025 45.3958C62.6138 45.366 63.1275 46.2317 63.165 47.3263C63.2025 48.4209 62.7263 49.3165 62.115 49.3712H62.0775ZM62.025 45.8884C61.9239 45.9004 61.8266 45.9458 61.7421 46.0206C61.6576 46.0953 61.5885 46.197 61.5413 46.3163C61.3893 46.6443 61.3172 47.0266 61.335 47.4109C61.3575 48.2219 61.71 48.9036 62.1075 48.8687C62.505 48.8339 62.82 48.1473 62.7975 47.3412C62.76 46.5501 62.415 45.8884 62.025 45.8884Z" fill="#231F20"/>
<path d="M55.2712 56.5061C54.5362 56.7736 53.762 56.789 53.0212 56.5509C52.575 56.4165 52.035 55.9588 52.185 55.3816L52.7625 55.0234C51.4897 53.4148 50.5928 51.3542 50.1787 49.0876C49.9797 47.9555 49.964 46.7803 50.1327 45.6395C50.3014 44.4988 50.6507 43.4186 51.1575 42.4702C51.3901 42.011 51.6923 41.6212 52.0449 41.3256C52.3974 41.0301 52.7925 40.8353 53.205 40.7537L51.8025 40.6044C52.4272 39.7177 53.1928 39.0264 54.0437 38.5806C54.8947 38.1348 55.8097 37.9458 56.7225 38.0271L55.7962 37.2659C56.8106 36.8128 57.9039 36.7725 58.9357 37.1502C59.9674 37.5279 60.8905 38.3063 61.5862 39.3854C61.895 39.8276 62.0974 40.382 62.1675 40.9776C62.2425 41.9727 61.545 42.6195 61.0162 43.1768C61.5825 44.0922 61.8487 44.3112 61.7662 45.4953C61.6423 46.5934 61.3745 47.6543 60.975 48.6299C60.5367 49.6462 60.0415 50.6175 59.4937 51.5356C58.3125 53.7099 57.0375 55.8444 55.2712 56.5061Z" fill="white"/>
<path d="M54.1126 56.9688C53.7337 56.9656 53.3563 56.9055 52.9876 56.7897C52.6146 56.6941 52.284 56.4106 52.0651 55.9986C52.0195 55.8941 51.9915 55.7777 51.9831 55.6574C51.9747 55.5372 51.986 55.4159 52.0163 55.302C52.0245 55.2706 52.0373 55.2416 52.054 55.2168C52.0708 55.192 52.0911 55.1719 52.1138 55.1578L52.4513 54.9488C51.2392 53.3489 50.3862 51.3334 49.9876 49.1275C49.7841 47.9624 49.7691 46.7534 49.9437 45.5802C50.1182 44.4069 50.4782 43.2961 51.0001 42.321C51.3234 41.7402 51.7347 41.2555 52.2076 40.898L51.7763 40.8532C51.7411 40.8486 51.7075 40.8314 51.679 40.8033C51.6506 40.7753 51.6285 40.7375 51.6151 40.694C51.6024 40.6505 51.5993 40.6033 51.6059 40.5575C51.6125 40.5118 51.6287 40.4694 51.6526 40.4353C52.7962 38.822 54.3688 37.8635 56.0363 37.7634L55.6838 37.4749C55.6543 37.4507 55.6305 37.4159 55.6152 37.3745C55.5999 37.3331 55.5938 37.2868 55.5976 37.241C55.6012 37.1942 55.6147 37.1498 55.6367 37.1128C55.6586 37.0758 55.6879 37.0478 55.7213 37.032C56.7726 36.5657 57.9047 36.5254 58.9733 36.9162C60.0419 37.307 60.9986 38.1112 61.7213 39.2262C62.0538 39.7066 62.2706 40.3078 62.3438 40.9527C62.4226 42.0075 61.7888 42.6743 61.2713 43.2166L61.3501 43.341C61.7851 44.0127 62.0213 44.3858 61.9388 45.5153C61.8111 46.6493 61.5357 47.7453 61.1251 48.7543C60.7892 49.5672 60.4042 50.3426 59.9738 51.0729L59.6288 51.6898C58.4401 53.8741 57.1276 56.0633 55.3051 56.7449C54.9174 56.8933 54.516 56.9686 54.1126 56.9688ZM52.3426 55.5558C52.3388 55.6251 52.3506 55.6943 52.3763 55.7548C52.5421 56.0458 52.7845 56.243 53.0551 56.3071C53.7669 56.5414 54.5122 56.5277 55.2188 56.2673C56.9251 55.6255 58.1888 53.5109 59.3438 51.4013L59.6926 50.7743C60.1126 50.0679 60.4889 49.3175 60.8176 48.5304C61.1975 47.5748 61.4512 46.5398 61.5676 45.4705C61.6351 44.545 61.4776 44.3062 61.0651 43.6644L60.8588 43.336C60.8423 43.3111 60.8301 43.2817 60.8229 43.25C60.8158 43.2182 60.814 43.1847 60.8176 43.1519C60.8229 43.0861 60.8471 43.0256 60.8851 42.9827L61.0238 42.8384C61.5188 42.3409 62.0288 41.7936 61.9688 41.0025C61.9024 40.457 61.7158 39.9498 61.4326 39.5447C60.8056 38.5795 59.9898 37.8629 59.0753 37.474C58.1608 37.085 57.1831 37.0388 56.2501 37.3405L56.8276 37.8381C56.8626 37.8682 56.8893 37.9127 56.9036 37.9648C56.9178 38.0169 56.9187 38.0737 56.9063 38.1267C56.8931 38.179 56.8671 38.2241 56.8325 38.2547C56.7979 38.2853 56.7566 38.2998 56.7151 38.2958C55.8958 38.2246 55.0742 38.3758 54.3004 38.7402C53.5267 39.1047 52.8171 39.6747 52.2151 40.4154L53.2163 40.5248C53.2637 40.5287 53.3082 40.5567 53.3403 40.6031C53.3725 40.6495 53.3899 40.7106 53.3888 40.7736C53.3899 40.8353 53.3729 40.8951 53.3414 40.9406C53.31 40.986 53.2665 41.0136 53.2201 41.0174C52.3013 41.1219 51.6263 42.0772 51.3038 42.6394C50.8133 43.5589 50.4754 44.606 50.3125 45.7115C50.1496 46.8171 50.1654 47.956 50.3588 49.0528C50.7619 51.2648 51.6352 53.2767 52.8751 54.8493C52.8967 54.8775 52.9128 54.9122 52.9221 54.9504C52.9314 54.9887 52.9335 55.0294 52.9284 55.069C52.9232 55.1086 52.9109 55.146 52.8925 55.1779C52.874 55.2098 52.8501 55.2354 52.8226 55.2523L52.3426 55.5558Z" fill="#231F20"/>
<path d="M61.7026 49.0329C61.7026 49.0329 63.2026 51.859 62.9213 52.471C62.6401 53.0829 61.6426 52.7197 61.6426 52.7197" fill="white"/>
<path d="M62.2501 53.078C62.0324 53.0749 61.8157 53.0365 61.6051 52.9636C61.5553 52.9464 61.5128 52.9038 61.4868 52.845C61.4607 52.7862 61.4534 52.7161 61.4663 52.6501C61.4792 52.5841 61.5114 52.5277 61.5557 52.4932C61.6 52.4586 61.6528 52.4489 61.7026 52.466C61.9238 52.5456 62.6026 52.6899 62.7751 52.3217C62.8876 52.063 62.3213 50.5853 61.5638 49.1573C61.5455 49.1313 61.5316 49.1004 61.5231 49.0667C61.5145 49.033 61.5116 48.9973 61.5143 48.9619C61.5171 48.9265 61.5255 48.8923 61.5391 48.8616C61.5526 48.831 61.571 48.8045 61.5929 48.784C61.6148 48.7636 61.6398 48.7496 61.6662 48.743C61.6925 48.7364 61.7196 48.7374 61.7456 48.7459C61.7717 48.7544 61.796 48.7702 61.817 48.7923C61.8381 48.8143 61.8553 48.8421 61.8676 48.8737C62.3401 49.7643 63.4088 51.9088 63.0938 52.5854C62.9968 52.7567 62.8683 52.8919 62.7205 52.9782C62.5727 53.0644 62.4107 53.0988 62.2501 53.078Z" fill="#231F20"/>
<path d="M61.125 42.6991C62.0625 43.6544 62.04 48.2916 62.0625 49.6648C62.0975 51.5787 62.0975 53.4959 62.0625 55.4165C62.04 56.6305 59.67 56.7499 59.2425 56.4116L58.7888 61.3274C58.7888 61.3274 58.5938 61.6508 56.655 60.5562C54.7163 59.4616 54.6863 58.8545 54.6863 58.8545L54.7163 53.3118C54.7163 53.3118 56.2838 53.2621 57.1538 50.7495C58.0238 48.2368 57.9038 44.4356 57.9038 44.4356C57.9038 44.4356 60.1988 41.7637 61.125 42.6991Z" fill="white"/>
<path d="M58.6163 61.601C57.9036 61.4778 57.2115 61.1969 56.5688 60.7701C54.6713 59.6904 54.495 59.0336 54.4875 58.8595L54.5175 53.2919C54.5175 53.2273 54.5369 53.1653 54.5714 53.1195C54.6058 53.0738 54.6526 53.0481 54.7013 53.0481C54.7613 53.0481 56.1638 52.9635 56.9738 50.63C57.8138 48.202 57.7013 44.4704 57.7013 44.4306C57.7002 44.3932 57.7054 44.356 57.7164 44.3216C57.7274 44.2872 57.744 44.2565 57.765 44.2316C58.0125 43.948 60.2213 41.4751 61.2263 42.5001C62.055 43.341 62.2013 46.4009 62.2351 49.2817V49.625C62.2688 51.5406 62.2688 53.481 62.2351 55.3916C62.2234 55.598 62.1689 55.7961 62.0776 55.9638C61.9862 56.1316 61.8616 56.2625 61.7175 56.3419C60.9842 56.7662 60.1729 56.8943 59.385 56.7101L58.9575 61.3273C58.954 61.3726 58.9411 61.4157 58.92 61.4517C58.881 61.5052 58.8335 61.5463 58.7809 61.5721C58.7284 61.598 58.6721 61.6078 58.6163 61.601ZM54.8663 58.8048C54.9 58.8943 55.1625 59.4267 56.7225 60.2974C57.9563 60.994 58.4438 61.0935 58.5975 61.0935L59.0363 56.3519C59.0394 56.3108 59.0503 56.2714 59.068 56.2375C59.0858 56.2036 59.1097 56.1761 59.1375 56.1578C59.1649 56.1369 59.196 56.1258 59.2275 56.1258C59.2591 56.1258 59.2902 56.1369 59.3175 56.1578C60.0567 56.3923 60.8332 56.3015 61.53 55.8991C61.74 55.7498 61.8488 55.5707 61.8525 55.3717C61.8863 53.4711 61.8863 51.5406 61.8525 49.6349V49.2618C61.8338 47.7343 61.785 43.6793 60.9938 42.8683C60.3675 42.2364 58.7025 43.8086 58.0725 44.5052C58.0725 45.1918 58.1063 48.4856 57.3225 50.8141C56.5725 52.9536 55.365 53.4014 54.9038 53.4959L54.8663 58.8048Z" fill="#231F20"/>
<path d="M61.9838 53.9785C61.9838 53.9785 61.4213 54.2124 60.0188 52.6202L61.9838 53.9785Z" fill="white"/>
<path d="M61.875 54.2423C61.6013 54.2423 60.9788 54.0532 59.8875 52.8093C59.8497 52.7664 59.8263 52.7054 59.8225 52.6396C59.8186 52.5738 59.8346 52.5087 59.8669 52.4585C59.8992 52.4084 59.9452 52.3773 59.9948 52.3722C60.0444 52.3671 60.0935 52.3883 60.1313 52.4312C61.3913 53.8641 61.92 53.7397 61.9238 53.7348C61.9714 53.7221 62.0208 53.7335 62.0624 53.7666C62.104 53.7997 62.1348 53.8522 62.1488 53.9139C62.1618 53.9746 62.1565 54.0396 62.1342 54.0953C62.1118 54.1509 62.074 54.1929 62.0288 54.2124C61.979 54.2328 61.9271 54.2429 61.875 54.2423Z" fill="#231F20"/>
<path d="M59.25 56.3967C59.25 56.3967 58.0088 55.9389 57.4125 54.8443C57.4125 54.8443 56.7563 58.4963 58.98 59.3222L59.25 56.3967Z" fill="#231F20"/>
<path d="M58.9613 59.576H58.9126C56.5426 58.7103 57.2026 54.8493 57.2101 54.8095C57.2158 54.7551 57.2353 54.7048 57.2652 54.6669C57.2951 54.629 57.3339 54.6056 57.3751 54.6005C57.4099 54.5891 57.4465 54.5921 57.48 54.6089C57.5135 54.6258 57.5423 54.6559 57.5626 54.695C58.025 55.3926 58.6291 55.8988 59.3026 56.1529C59.3458 56.17 59.3831 56.2069 59.4078 56.257C59.4325 56.3071 59.443 56.3671 59.4376 56.4265L59.1676 59.3422C59.1638 59.3772 59.1544 59.4108 59.1402 59.4408C59.126 59.4708 59.1072 59.4965 59.0851 59.5163C59.0514 59.5571 59.0069 59.5786 58.9613 59.576ZM57.5138 55.4215C57.4351 56.3569 57.4426 58.3222 58.8038 58.9988L59.0251 56.5907C58.4648 56.3372 57.9502 55.9323 57.5138 55.4016V55.4215Z" fill="#231F20"/>
<path d="M61.1059 46.9812C61.1093 46.602 61.0215 46.2932 60.9097 46.2914C60.7978 46.2896 60.7044 46.5956 60.7009 46.9747C60.6975 47.3539 60.7854 47.6628 60.8972 47.6646C61.009 47.6663 61.1025 47.3604 61.1059 46.9812Z" fill="#231F20"/>
<path d="M57.4913 49.4111C57.4667 49.4153 57.4417 49.4131 57.4177 49.4045C57.3937 49.3959 57.3712 49.3812 57.3516 49.3611C57.3118 49.3205 57.2859 49.2606 57.2794 49.1946C57.2729 49.1287 57.2865 49.062 57.3171 49.0093C57.3477 48.9565 57.3928 48.9221 57.4425 48.9135L62.925 47.0875C62.9733 47.0726 63.024 47.0835 63.0661 47.118C63.1083 47.1525 63.1385 47.2077 63.15 47.2716C63.1562 47.303 63.1576 47.3357 63.1541 47.3678C63.1506 47.3999 63.1424 47.4307 63.1298 47.4585C63.1172 47.4863 63.1006 47.5105 63.0809 47.5297C63.0612 47.5488 63.0388 47.5626 63.015 47.5702L57.5363 49.3962L57.4913 49.4111Z" fill="#231F20"/>
<path d="M58.9613 50.3713C58.9117 49.8926 58.7609 49.4424 58.5263 49.0727C58.3797 48.7546 58.1976 48.4678 57.9863 48.2219C57.8792 48.0999 57.7529 48.0111 57.6167 47.962C57.4805 47.913 57.3377 47.9049 57.1988 47.9383C57.079 47.9829 56.9678 48.061 56.8727 48.1674C56.7776 48.2739 56.7008 48.4061 56.6475 48.5553C56.5399 48.8534 56.4848 49.18 56.4863 49.5106C56.4769 50.2313 56.6106 50.9426 56.8739 51.5731C57.1371 52.2037 57.5208 52.7312 57.9863 53.1029L57.9038 52.9934" fill="white"/>
<path d="M57.9975 53.3517C57.9644 53.352 57.932 53.3399 57.9038 53.3168C57.4089 52.9226 57.0003 52.3634 56.7187 51.6948C56.4372 51.0262 56.2924 50.2715 56.2988 49.5056C56.2965 49.1371 56.358 48.7728 56.4788 48.4409C56.5452 48.2594 56.6402 48.0989 56.7572 47.9701C56.8743 47.8414 57.0108 47.7474 57.1575 47.6945C57.3232 47.6529 57.4938 47.6613 57.6568 47.719C57.8197 47.7767 57.9708 47.8823 58.0988 48.0279C58.3277 48.2861 58.5251 48.5899 58.6838 48.9284C58.9369 49.3369 59.0981 49.8319 59.1488 50.3564C59.1508 50.4229 59.1331 50.4878 59.0994 50.5371C59.0658 50.5865 59.0189 50.6163 58.9688 50.6201C58.9442 50.6214 58.9196 50.6163 58.8964 50.605C58.8733 50.5938 58.8521 50.5765 58.834 50.5543C58.8159 50.5322 58.8012 50.5055 58.7909 50.4758C58.7806 50.4461 58.7747 50.414 58.7738 50.3813C58.7195 49.9517 58.5811 49.5485 58.3725 49.212C58.235 48.9158 58.0658 48.6476 57.87 48.416C57.7856 48.3171 57.6854 48.2447 57.577 48.2043C57.4686 48.1638 57.3547 48.1562 57.2438 48.1821C57.1488 48.2182 57.061 48.2814 56.9865 48.3674C56.912 48.4533 56.8526 48.5599 56.8125 48.6797C56.7183 48.9457 56.6709 49.2366 56.6738 49.5305C56.6694 50.1619 56.7808 50.7853 56.9983 51.347C57.2159 51.9086 57.533 52.3917 57.9225 52.7546C57.9465 52.7546 57.9703 52.7612 57.9922 52.7741C58.0142 52.7869 58.0339 52.8057 58.05 52.8292L58.1325 52.9387C58.1616 52.9838 58.1775 53.0411 58.1775 53.1004C58.1775 53.1597 58.1616 53.217 58.1325 53.2621C58.1158 53.2884 58.0952 53.3099 58.072 53.3253C58.0488 53.3407 58.0234 53.3497 57.9975 53.3517Z" fill="#231F20"/>
<path d="M82.5263 56.8146C82.0526 56.9059 81.585 57.0456 81.1275 57.2325C80.9438 57.3917 80.6138 57.7052 80.6138 57.7052C80.7605 57.8151 80.9225 57.8845 81.09 57.9092C81.2625 57.9092 82.2488 57.6554 82.2488 57.6554" fill="white"/>
<path d="M81.0713 58.158C80.879 58.1313 80.6928 58.0535 80.5238 57.9291C80.4963 57.9082 80.473 57.8787 80.456 57.8431C80.439 57.8076 80.4288 57.7671 80.4263 57.7251C80.4242 57.6827 80.4304 57.6404 80.4442 57.602C80.458 57.5637 80.4789 57.5307 80.505 57.5062C80.505 57.5062 80.8388 57.1877 81.0263 57.0086C81.5056 56.8033 81.9994 56.6633 82.5 56.5907C82.5492 56.5805 82.5993 56.5961 82.64 56.6342C82.6806 56.6723 82.7084 56.7298 82.7175 56.7947C82.7213 56.827 82.7201 56.86 82.7142 56.8918C82.7083 56.9236 82.6978 56.9535 82.6831 56.9798C82.6685 57.0062 82.6501 57.0284 82.629 57.0453C82.6079 57.0622 82.5844 57.0734 82.56 57.0783C82.1102 57.1583 81.6661 57.2882 81.2325 57.4664C81.1688 57.5211 81.0863 57.5908 81.0075 57.6654H81.0825C81.1988 57.6654 81.8325 57.5062 82.2075 57.4166C82.2322 57.4111 82.2574 57.412 82.2817 57.4194C82.3061 57.4267 82.3291 57.4404 82.3495 57.4596C82.3698 57.4788 82.3871 57.5031 82.4004 57.5311C82.4137 57.5592 82.4227 57.5904 82.4269 57.6231C82.4311 57.6558 82.4304 57.6892 82.4248 57.7215C82.4193 57.7538 82.409 57.7844 82.3945 57.8114C82.3801 57.8384 82.3618 57.8614 82.3406 57.879C82.3195 57.8967 82.2959 57.9086 82.2713 57.9142C82.17 57.939 81.27 58.153 81.0938 58.1679L81.0713 58.158Z" fill="#231F20"/>
<path d="M80.5538 61.8598L81.9338 59.8696C81.9146 59.0828 81.9675 58.2959 82.0913 57.5261C82.2751 56.8246 82.6463 55.9837 82.8413 56.1579C83.0363 56.332 82.8413 57.8396 83.1601 58.0485C83.4788 58.2575 84.0563 57.5958 84.0563 57.138C84.0563 56.6803 83.4751 56.1429 83.5538 55.7747C83.6326 55.4066 83.7676 54.8991 84.4013 55.3518C85.0351 55.8046 85.9013 56.6455 85.8788 57.8943C85.8563 59.1432 83.0438 64.6908 83.0438 64.6908L80.5538 61.8598Z" fill="white"/>
<path d="M83.0325 64.9645C82.9873 64.9642 82.9436 64.9431 82.9088 64.9048L80.43 62.0638C80.4106 62.0425 80.3949 62.0159 80.3839 61.9859C80.3729 61.9558 80.3669 61.923 80.3663 61.8896C80.3648 61.8562 80.3684 61.8227 80.3768 61.7911C80.3851 61.7595 80.3981 61.7304 80.415 61.7055L81.7463 59.8198C81.7257 59.0355 81.7824 58.2511 81.915 57.4863C82.0388 56.9888 82.3613 56.0882 82.6838 55.9489C82.7265 55.9303 82.7719 55.9256 82.8163 55.9351C82.8607 55.9446 82.9027 55.9681 82.9388 56.0036C83.0925 56.1479 83.1038 56.4663 83.1225 56.9539C83.1225 57.2027 83.1488 57.7948 83.2313 57.8744C83.2799 57.8863 83.33 57.884 83.3779 57.8676C83.4258 57.8513 83.4705 57.8214 83.5088 57.7799C83.5949 57.7177 83.6703 57.6326 83.7303 57.5298C83.7903 57.4271 83.8337 57.3089 83.8575 57.1828C83.8152 56.9832 83.7367 56.8004 83.6288 56.6504C83.4675 56.3668 83.2988 56.0683 83.3625 55.7548C83.3783 55.6028 83.4203 55.4577 83.4854 55.3308C83.5505 55.2039 83.6367 55.0987 83.7375 55.0234C83.8628 54.9688 83.9961 54.9544 84.1265 54.9812C84.2568 55.008 84.3805 55.0753 84.4875 55.1777C85.5413 55.9389 86.0888 56.8942 86.0663 57.9441C86.04 59.2228 83.49 64.3027 83.2013 64.8749C83.1864 64.9043 83.167 64.9292 83.1444 64.9481C83.1218 64.9669 83.0965 64.9793 83.07 64.9844L83.0325 64.9645ZM80.8238 61.8399L82.995 64.3276C84.12 62.1085 85.6613 58.7252 85.68 57.8943C85.7025 56.8196 84.93 56.0434 84.3 55.5807C84.0488 55.4016 83.925 55.4165 83.8875 55.4464C83.85 55.4762 83.7638 55.6653 83.7263 55.8494C83.7075 55.929 83.8463 56.1728 83.9288 56.3171C84.0937 56.5445 84.2 56.8354 84.2325 57.148C84.2072 57.3562 84.1464 57.5541 84.0548 57.7265C83.9631 57.899 83.8431 58.0414 83.7038 58.1431C83.6136 58.2345 83.507 58.2931 83.3946 58.3132C83.2821 58.3332 83.1677 58.3141 83.0625 58.2575C82.785 58.0734 82.7663 57.4863 82.7475 56.9141C82.7475 56.7748 82.7475 56.5808 82.7213 56.4514C82.5233 56.7951 82.37 57.1802 82.2675 57.5908C82.1525 58.3336 82.1035 59.0917 82.1213 59.8497C82.1216 59.9146 82.1027 59.9771 82.0688 60.0238L80.8238 61.8399Z" fill="#231F20"/>
<path d="M61.4062 62.9892C61.4812 62.9892 62.5312 58.2774 62.6475 57.8694C62.8407 57.061 63.1158 56.291 63.465 55.5807C63.6226 55.2695 63.8284 55.0066 64.0688 54.8095C64.0913 54.7883 64.1172 54.7742 64.1445 54.7682C64.1718 54.7621 64.1997 54.7644 64.2263 54.7746C64.2445 54.7893 64.2602 54.8088 64.2725 54.8319C64.2848 54.855 64.2933 54.8813 64.2975 54.909C64.325 55.017 64.3358 55.1312 64.3294 55.2449C64.3229 55.3586 64.2993 55.4694 64.26 55.5707C64.4213 55.1727 64.5825 54.4015 65.0475 54.4761C65.5988 54.5657 65.46 55.4115 65.2612 55.8245C65.2612 55.8245 65.7075 54.6005 66.1313 55.0135C66.1883 55.061 66.2374 55.1237 66.2753 55.1976C66.3132 55.2715 66.3391 55.3551 66.3514 55.443C66.3638 55.5309 66.3622 55.6212 66.3469 55.7083C66.3316 55.7954 66.3029 55.8773 66.2625 55.9489C66.2625 55.9489 66.555 55.0035 66.975 55.4513C67.395 55.8991 67.1588 56.5708 66.975 57.0236C66.7913 57.4763 65.34 59.8994 65.34 59.8994C65.34 59.8994 66.6337 58.4615 66.8962 58.8098C67.1587 59.1581 64.9387 62.2926 64.3987 63.8549L61.4062 62.9892Z" fill="white"/>
<path d="M64.3987 64.0788H64.3612L61.3612 63.238C61.3371 63.2314 61.3142 63.2187 61.2938 63.2004C61.2733 63.1821 61.2558 63.1586 61.2423 63.1314C61.2287 63.1041 61.2193 63.0736 61.2146 63.0415C61.2099 63.0094 61.21 62.9764 61.215 62.9444C61.2218 62.9025 61.2359 62.8633 61.2562 62.83C61.3687 62.5215 61.875 60.3422 62.1525 59.1282C62.3062 58.4466 62.43 57.9142 62.4637 57.7898C62.6619 56.96 62.9445 56.1699 63.3037 55.4414C63.4756 55.0979 63.7038 54.8105 63.9712 54.6005C64.0188 54.5585 64.0734 54.5325 64.1302 54.5247C64.187 54.5169 64.2444 54.5276 64.2975 54.5557C64.3387 54.5803 64.3747 54.6179 64.4025 54.6652C64.4703 54.5178 64.5684 54.3992 64.6854 54.3234C64.8023 54.2476 64.9332 54.2177 65.0625 54.2373C65.1659 54.2453 65.2659 54.2895 65.3522 54.3656C65.4385 54.4416 65.5081 54.5468 65.5537 54.6702C65.5726 54.7263 65.5877 54.7846 65.5987 54.8443C65.6656 54.7796 65.7405 54.7308 65.82 54.7C65.8915 54.6779 65.9657 54.6767 66.0376 54.6965C66.1095 54.7162 66.1772 54.7565 66.2362 54.8145C66.3363 54.9113 66.4184 55.0373 66.4762 55.1826C66.5221 55.1465 66.5713 55.1181 66.6225 55.0981C66.7012 55.0699 66.784 55.0674 66.8636 55.0908C66.9433 55.1142 67.0175 55.1627 67.08 55.2324C67.665 55.8145 67.2637 56.7997 67.1325 57.1231C66.8638 57.6705 66.5734 58.1987 66.2625 58.7053C66.585 58.4864 66.8662 58.4068 67.0125 58.6157C67.2562 58.9391 66.9375 59.5262 65.9812 61.1831C65.4441 62.0425 64.9671 62.9651 64.5562 63.9395C64.5416 63.9792 64.5194 64.013 64.4917 64.0375C64.464 64.0619 64.4319 64.0762 64.3987 64.0788ZM61.6687 62.8101L64.2937 63.5464C64.7088 62.6093 65.1777 61.7161 65.6962 60.8746C66.0676 60.2735 66.4048 59.6365 66.705 58.969C66.2503 59.2502 65.8295 59.6191 65.4562 60.0636C65.4222 60.1059 65.3773 60.1295 65.3306 60.1295C65.2839 60.1295 65.239 60.1059 65.205 60.0636C65.1733 60.0192 65.1557 59.9605 65.1557 59.8994C65.1557 59.8383 65.1733 59.7796 65.205 59.7352C65.6062 59.0635 66.675 57.2475 66.8212 56.8992C67.0875 56.2424 67.1025 55.8693 66.8737 55.6404C66.7987 55.5658 66.7575 55.5807 66.7425 55.5857C66.6442 55.6487 66.565 55.7539 66.5175 55.8842C66.4947 55.9645 66.4631 56.0399 66.4237 56.1081C66.3978 56.1579 66.3586 56.1928 66.3141 56.2057C66.2695 56.2186 66.2229 56.2086 66.1837 56.1777C66.1436 56.1491 66.1129 56.1016 66.0977 56.0446C66.0824 55.9876 66.0837 55.9251 66.1012 55.8693C66.1217 55.7985 66.1468 55.7303 66.1762 55.6653C66.1916 55.5811 66.1856 55.4926 66.1592 55.4134C66.1327 55.3342 66.0873 55.2688 66.03 55.2274C66.0167 55.2108 66.0003 55.1992 65.9824 55.194C65.9646 55.1887 65.9461 55.19 65.9287 55.1976C65.7862 55.2423 65.6137 55.5459 65.5087 55.7797C65.4837 55.8494 65.4575 55.914 65.43 55.9737C65.4032 56.0263 65.3625 56.0636 65.316 56.0783C65.2695 56.0931 65.2205 56.0842 65.1787 56.0534C65.1371 56.0228 65.106 55.972 65.0921 55.9117C65.0781 55.8514 65.0823 55.7862 65.1037 55.7299C65.1037 55.7299 65.1375 55.6404 65.175 55.5508C65.2558 55.3493 65.2759 55.1145 65.2312 54.8941C65.2312 54.8393 65.1712 54.7597 65.0362 54.7398C64.8112 54.705 64.6612 55.0085 64.53 55.4463C64.4962 55.5409 64.4662 55.6255 64.4362 55.7001C64.4248 55.7293 64.4091 55.7552 64.39 55.7763C64.3709 55.7975 64.3489 55.8133 64.3252 55.8231C64.3015 55.8328 64.2765 55.8361 64.2518 55.833C64.2271 55.8298 64.2031 55.8201 64.1812 55.8046C64.1381 55.7721 64.1062 55.7186 64.0922 55.6555C64.0782 55.5924 64.0832 55.5245 64.1062 55.4662C64.1548 55.3441 64.1694 55.2032 64.1475 55.0682C63.9405 55.2399 63.7639 55.4691 63.63 55.7399C63.2884 56.4305 63.0209 57.1806 62.835 57.9689C62.8012 58.0933 62.6812 58.6157 62.5275 59.2824C62.0437 61.3174 61.8112 62.3225 61.6687 62.8101Z" fill="#231F20"/>
<path d="M63.135 60.5711C63.135 60.5711 53.3212 54.1726 48.99 61.3174C44.6587 68.4622 42.99 90.7375 44.2387 93.5387C44.2387 93.5387 54.795 94.5686 59.76 86.7223L61.9687 72.3829C61.9687 72.3829 71.0587 82.8613 76.3387 77.4131C79.5496 74.0555 82.119 69.7413 83.8387 64.8202L80.67 61.1781C80.67 61.1781 74.0175 69.5817 71.3775 68.4622C68.7375 67.3428 63.135 60.5711 63.135 60.5711Z" fill="#68E1FD"/>
<path d="M75.4238 96.0065C75.4015 96.0113 75.3787 96.0113 75.3563 96.0065C72.7313 94.7228 58.2526 90.4539 58.1063 90.4091C58.0822 90.402 58.0593 90.3887 58.039 90.3698C58.0187 90.351 58.0015 90.327 57.9882 90.2992C57.975 90.2715 57.966 90.2405 57.9618 90.2081C57.9576 90.1757 57.9583 90.1426 57.9638 90.1105C57.9755 90.0464 58.0055 89.9908 58.0475 89.9555C58.0895 89.9202 58.1402 89.908 58.1888 89.9215C58.7851 90.1006 72.8326 94.2402 75.4876 95.5388C75.5108 95.5504 75.5321 95.568 75.5502 95.5906C75.5683 95.6131 75.5828 95.6403 75.5929 95.6704C75.603 95.7004 75.6085 95.7329 75.6091 95.7658C75.6097 95.7988 75.6054 95.8315 75.5963 95.8622C75.582 95.9066 75.5578 95.9441 75.527 95.9699C75.4962 95.9957 75.4602 96.0084 75.4238 96.0065Z" fill="white"/>
<path d="M62.8575 104.689C62.8078 104.689 62.7601 104.663 62.725 104.616C62.6898 104.569 62.67 104.506 62.67 104.44C62.67 104.374 62.6898 104.311 62.725 104.264C62.7601 104.217 62.8078 104.191 62.8575 104.191L71.6925 103.918C71.7416 103.916 71.7892 103.94 71.825 103.985C71.8607 104.03 71.8818 104.091 71.8838 104.156C71.8848 104.223 71.8661 104.287 71.8318 104.336C71.7974 104.384 71.7501 104.412 71.7 104.415L62.865 104.689H62.8575Z" fill="white"/>
<path d="M87.6862 55.7299C87.015 55.7299 82.9275 56.8196 82.9275 56.8196L82.9612 57.4813C82.9612 57.4813 87.3675 56.5509 87.7537 56.4364C88.14 56.322 88.3612 55.7299 87.6862 55.7299Z" fill="white"/>
<path d="M82.9612 57.7301C82.919 57.7294 82.8781 57.7101 82.845 57.6753C82.8246 57.6534 82.8078 57.6262 82.7956 57.5954C82.7833 57.5646 82.7759 57.5309 82.7737 57.4962L82.7437 56.8345C82.7402 56.7744 82.7536 56.7147 82.7813 56.6669C82.809 56.6191 82.849 56.5866 82.8937 56.5758C83.0587 56.531 87.0187 55.4811 87.6862 55.4811C88.2075 55.4811 88.2937 55.8145 88.305 55.9787C88.3312 56.2921 88.1062 56.6106 87.7912 56.7051C87.4162 56.8196 83.1712 57.7002 82.9912 57.75L82.9612 57.7301ZM83.1262 57.0186V57.1927C83.9962 57.0086 87.375 56.2921 87.705 56.1976C87.7916 56.1757 87.8683 56.1096 87.9187 56.0135C87.8402 55.9883 87.7595 55.9766 87.6787 55.9787C87.1875 55.9787 84.5775 56.6355 83.1262 57.0186Z" fill="#231F20"/>
<path d="M67.275 77.234H67.215C62.9587 75.3731 58.215 68.2184 58.005 67.9149C57.9704 67.8675 57.951 67.8042 57.951 67.7382C57.951 67.6723 57.9704 67.609 58.005 67.5616C58.0233 67.54 58.0447 67.5235 58.0679 67.513C58.0912 67.5025 58.1157 67.4983 58.1402 67.5006C58.1647 67.5029 58.1885 67.5117 58.2104 67.5265C58.2322 67.5412 58.2517 67.5616 58.2675 67.5865C58.3162 67.6611 63.1425 74.9403 67.3162 76.7613C67.3396 76.7714 67.3612 76.7876 67.3797 76.8089C67.3982 76.8302 67.4134 76.8563 67.4242 76.8855C67.4351 76.9147 67.4414 76.9465 67.4428 76.979C67.4442 77.0115 67.4407 77.0441 67.4325 77.0748C67.4208 77.1188 67.3997 77.1574 67.3717 77.1857C67.3437 77.214 67.3101 77.2308 67.275 77.234Z" fill="#231F20"/>
<path d="M98.7413 100.335L110.216 95.7578L110.344 98.0465L98.0813 102.629L98.7413 100.335Z" fill="#231F20"/>
<path d="M98.0813 102.863C98.0552 102.863 98.0294 102.856 98.0055 102.843C97.9815 102.829 97.9601 102.809 97.9425 102.783C97.9204 102.749 97.9053 102.707 97.8987 102.663C97.8922 102.618 97.8943 102.572 97.905 102.529L98.565 100.231C98.5752 100.195 98.5912 100.164 98.612 100.138C98.6328 100.112 98.6578 100.093 98.685 100.081L110.164 95.504C110.191 95.4946 110.219 95.4929 110.247 95.4989C110.275 95.5048 110.301 95.5185 110.325 95.5388C110.348 95.5607 110.367 95.589 110.38 95.6217C110.394 95.6543 110.402 95.6906 110.404 95.7279L110.531 98.0166C110.534 98.0729 110.522 98.1287 110.497 98.1749C110.473 98.221 110.437 98.2546 110.396 98.2703L98.1338 102.863H98.0813ZM98.8838 100.524L98.3888 102.241L110.145 97.8872L110.048 96.111L98.8838 100.524Z" fill="#231F20"/>
<path d="M94.425 55.6852H94.3875L88.6162 54.0482C88.5894 54.0414 88.564 54.0268 88.542 54.0053C88.52 53.9838 88.5019 53.9561 88.4889 53.9242C88.476 53.8923 88.4686 53.8569 88.4673 53.8207C88.4659 53.7845 88.4707 53.7483 88.4812 53.7149L88.9875 52.0332C89.0059 51.9718 89.0419 51.9227 89.0876 51.8965C89.1333 51.8704 89.185 51.8694 89.2312 51.8939C89.2775 51.9183 89.3145 51.9661 89.3342 52.0267C89.3539 52.0874 89.3546 52.1559 89.3362 52.2173L88.9125 53.6054L94.3087 55.1329L94.815 53.4412C94.8241 53.4108 94.8376 53.3831 94.8548 53.3597C94.8719 53.3362 94.8924 53.3175 94.9151 53.3045C94.9377 53.2916 94.9621 53.2847 94.9867 53.2842C95.0114 53.2838 95.0358 53.2898 95.0587 53.3019C95.082 53.3134 95.1032 53.331 95.1212 53.3537C95.1391 53.3764 95.1534 53.4037 95.1632 53.4339C95.1731 53.4641 95.1782 53.4966 95.1782 53.5295C95.1783 53.5624 95.1734 53.595 95.1637 53.6253L94.6012 55.511C94.5889 55.5606 94.5654 55.6039 94.5338 55.6351C94.5023 55.6662 94.4643 55.6837 94.425 55.6852Z" fill="#D1D3D4"/>
<path d="M82.3576 50.4808C82.3365 50.4859 82.3149 50.4859 82.2938 50.4808C82.247 50.4582 82.2087 50.4124 82.187 50.3529C82.1653 50.2934 82.1619 50.2251 82.1776 50.1624L83.6251 44.7938L81.5326 40.2761C81.5062 40.22 81.4978 40.1523 81.509 40.0879C81.5203 40.0235 81.5503 39.9677 81.5926 39.9328C81.6349 39.8978 81.6859 39.8865 81.7344 39.9015C81.7829 39.9164 81.825 39.9563 81.8513 40.0124L84.0001 44.6495C84.0151 44.681 84.0246 44.7166 84.0278 44.7537C84.0311 44.7907 84.028 44.8282 84.0188 44.8635L82.5413 50.3365C82.525 50.3821 82.4988 50.4201 82.4661 50.4458C82.4333 50.4715 82.3956 50.4837 82.3576 50.4808Z" fill="#D1D3D4"/>
<path d="M85.2601 40.3905C85.2364 40.3953 85.2124 40.3953 85.1888 40.3905C85.1432 40.3651 85.1067 40.3172 85.0871 40.2569C85.0676 40.1966 85.0664 40.1285 85.0838 40.0671L86.8613 34.201C86.8819 34.1409 86.919 34.0936 86.965 34.0686C87.011 34.0437 87.0624 34.043 87.1088 34.0666C87.1317 34.0786 87.1526 34.0966 87.1701 34.1195C87.1877 34.1424 87.2016 34.1697 87.211 34.1999C87.2205 34.23 87.2253 34.2624 87.2251 34.2951C87.2249 34.3278 87.2198 34.36 87.21 34.39L85.4326 40.2263C85.4206 40.2744 85.3975 40.3162 85.3665 40.3457C85.3355 40.3752 85.2982 40.3909 85.2601 40.3905Z" fill="#D1D3D4"/>
<path d="M62.2125 34.5543C62.1663 34.5545 62.1217 34.5315 62.0876 34.49C62.0535 34.4485 62.0325 34.3915 62.0287 34.3304L61.5637 28.0314C61.5593 27.9654 61.5747 27.8998 61.6067 27.8489C61.6387 27.7981 61.6846 27.7662 61.7344 27.7602C61.7841 27.7543 61.8336 27.7748 61.8719 27.8173C61.9102 27.8597 61.9343 27.9206 61.9387 27.9866L62.4 34.2806C62.4026 34.3133 62.4003 34.3464 62.3932 34.3779C62.3861 34.4094 62.3743 34.4387 62.3586 34.4641C62.3429 34.4896 62.3236 34.5106 62.3017 34.5261C62.2799 34.5416 62.2559 34.5511 62.2312 34.5543H62.2125Z" fill="#D1D3D4"/>
<path d="M68.205 63.0589C68.1826 63.0636 68.1598 63.0636 68.1375 63.0589C68.0912 63.0344 68.0539 62.9869 68.0336 62.9265C68.0132 62.8661 68.0115 62.7975 68.0287 62.7354L72.7987 46.5751C72.819 46.5183 72.8548 46.4739 72.8987 46.4507C72.9427 46.4275 72.9917 46.4272 73.0358 46.4498C73.0799 46.4725 73.1159 46.5165 73.1367 46.5729C73.1574 46.6293 73.1612 46.6941 73.1475 46.7542L68.3775 62.9146C68.3631 62.9589 68.3389 62.9965 68.3081 63.0222C68.2773 63.048 68.2414 63.0608 68.205 63.0589Z" fill="#D1D3D4"/>
<path d="M93.3751 73.1044H93.3376L84.9451 70.9301C84.8964 70.918 84.8534 70.8809 84.8253 70.8268C84.7972 70.7727 84.7863 70.7061 84.7951 70.6415C84.8051 70.5766 84.8338 70.5194 84.8751 70.4822C84.9165 70.445 84.9672 70.4308 85.0163 70.4425L93.4088 72.6168C93.4331 72.6221 93.4564 72.6339 93.4772 72.6515C93.498 72.669 93.516 72.6919 93.53 72.7189C93.5439 72.7458 93.5537 72.7762 93.5587 72.8082C93.5636 72.8403 93.5637 72.8733 93.5588 72.9054C93.5496 72.9611 93.5264 73.0111 93.493 73.0472C93.4597 73.0833 93.4181 73.1035 93.3751 73.1044Z" fill="#D1D3D4"/>
<path d="M92.5425 75.9951H92.5088L84.1125 73.8208C84.0883 73.8155 84.0651 73.8037 84.0445 73.7861C84.0238 73.7685 84.0061 73.7455 83.9924 73.7184C83.9787 73.6914 83.9693 73.6609 83.9648 73.6289C83.9603 73.5969 83.9608 73.564 83.9663 73.5322C83.9754 73.4677 84.0034 73.4105 84.0441 73.3733C84.0849 73.336 84.1351 73.3216 84.1838 73.3332L92.58 75.4976C92.6042 75.5029 92.6274 75.5147 92.648 75.5323C92.6687 75.5499 92.6864 75.5729 92.7001 75.5999C92.7138 75.627 92.7232 75.6574 92.7277 75.6895C92.7322 75.7215 92.7317 75.7544 92.7263 75.7861C92.7199 75.8446 92.6978 75.898 92.664 75.9364C92.6302 75.9749 92.587 75.9957 92.5425 75.9951Z" fill="#D1D3D4"/>
<path d="M91.3237 78.7266H91.2862L82.8937 76.5573C82.8448 76.5441 82.8017 76.506 82.7737 76.4511C82.7456 76.3962 82.7349 76.329 82.7437 76.2638C82.7487 76.2318 82.7583 76.2013 82.7721 76.1743C82.7859 76.1472 82.8035 76.124 82.8241 76.1059C82.8446 76.0879 82.8676 76.0754 82.8918 76.0692C82.916 76.063 82.9409 76.0632 82.965 76.0697L91.3575 78.239C91.4072 78.245 91.4531 78.2769 91.4851 78.3277C91.5171 78.3786 91.5326 78.4442 91.5281 78.5102C91.5236 78.5762 91.4996 78.6371 91.4613 78.6796C91.4229 78.722 91.3735 78.7425 91.3237 78.7366V78.7266Z" fill="#D1D3D4"/>
<path d="M75.0001 37.4301H74.9701L68.4938 35.9374C68.4664 35.9326 68.4403 35.9192 68.4175 35.8985C68.3947 35.8777 68.3759 35.8502 68.3626 35.818C68.3506 35.7846 68.3444 35.748 68.3444 35.711C68.3444 35.674 68.3506 35.6375 68.3626 35.6041L70.7288 27.3348C70.7465 27.2737 70.7816 27.2243 70.8265 27.1973C70.8714 27.1703 70.9226 27.1678 70.9688 27.1905C70.9919 27.2016 71.0131 27.2186 71.0312 27.2408C71.0492 27.2629 71.0638 27.2896 71.0739 27.3192C71.084 27.3489 71.0896 27.381 71.0902 27.4136C71.0909 27.4462 71.0866 27.4786 71.0776 27.5089L68.7938 35.4996L74.8951 36.8877L77.2613 28.927C77.2805 28.8663 77.3164 28.8176 77.3617 28.7908C77.407 28.764 77.4582 28.7611 77.5051 28.7827C77.528 28.7947 77.5489 28.8127 77.5666 28.8355C77.5843 28.8582 77.5984 28.8854 77.6081 28.9155C77.6179 28.9455 77.6231 28.9778 77.6234 29.0105C77.6237 29.0432 77.6192 29.0757 77.6101 29.1061L75.1913 37.2708C75.1763 37.3209 75.1497 37.3633 75.1153 37.3919C75.0809 37.4205 75.0406 37.4339 75.0001 37.4301Z" fill="#D1D3D4"/>
<path d="M71.6738 25.2152H71.625L63.5063 23.3046C63.4816 23.2988 63.4581 23.2865 63.4371 23.2686C63.416 23.2506 63.3978 23.2274 63.3836 23.2001C63.3693 23.1729 63.3592 23.1421 63.3539 23.1097C63.3485 23.0773 63.3481 23.0438 63.3525 23.0111C63.3569 22.9784 63.3662 22.9472 63.3797 22.9193C63.3932 22.8914 63.4107 22.8672 63.4313 22.8483C63.4518 22.8294 63.475 22.816 63.4994 22.8089C63.5239 22.8018 63.5491 22.8012 63.5737 22.8071L71.7075 24.7475C71.7572 24.7535 71.8031 24.7854 71.8351 24.8362C71.8671 24.8871 71.8826 24.9527 71.8781 25.0187C71.8736 25.0847 71.8496 25.1456 71.8113 25.1881C71.7729 25.2305 71.7235 25.251 71.6738 25.2451V25.2152Z" fill="#D1D3D4"/>
<path d="M93.8888 53.5059C93.8609 53.5063 93.8333 53.4985 93.808 53.483C93.7827 53.4675 93.7603 53.4448 93.7425 53.4163L90.1988 47.6796C90.1677 47.6287 90.153 47.5635 90.1579 47.4983C90.1628 47.4331 90.1869 47.3731 90.225 47.3313C90.2441 47.3101 90.2662 47.2942 90.29 47.2845C90.3138 47.2747 90.3389 47.2714 90.3636 47.2746C90.3884 47.2779 90.4125 47.2876 90.4344 47.3034C90.4563 47.3191 90.4756 47.3404 90.4913 47.3661L94.0313 53.1079C94.0472 53.1332 94.0592 53.1625 94.0666 53.1941C94.0739 53.2257 94.0764 53.2589 94.074 53.2918C94.0715 53.3247 94.0642 53.3566 94.0523 53.3857C94.0405 53.4147 94.0244 53.4404 94.005 53.4611C93.9709 53.4924 93.9301 53.5081 93.8888 53.5059Z" fill="#D1D3D4"/>
</svg>
