<svg width="150" height="150" viewBox="0 0 150 150" fill="none" xmlns="http://www.w3.org/2000/svg">
<path d="M74.745 127.77L10.0575 77.0499C7.99501 75.4976 6.22876 73.0098 8.25001 71.343L73.1588 21.7026C74.1338 20.9015 75.6113 20.3791 76.6013 21.1403L144.506 73.4278C146.565 75.0149 146.936 79.4481 144.881 81.0353L83.2688 127.69C81.9756 128.685 80.5095 129.216 79.0148 129.229C77.5202 129.243 76.0486 128.74 74.745 127.77Z" fill="#16A79E"/>
<path d="M78.5775 47.2119L70.5488 46.187L58.4813 54.0233L66.5775 65.8003C69.9525 62.1782 77.115 56.2922 80.5763 52.8292C80.0052 50.8997 79.3375 49.0231 78.5775 47.2119Z" fill="url(#paint0_linear_429_589)"/>
<path d="M135.896 76.0797L97.3912 107.39L95.8875 106.823L74.7112 83.2742L88.0275 71.6614" fill="url(#paint1_linear_429_589)"/>
<path d="M74.7112 83.2742L56.5537 100.897L49.9799 107.39L24.0337 87.5432L34.4887 78.1495" fill="url(#paint2_linear_429_589)"/>
<path d="M86.1675 59.7949C86.1675 59.7949 92.1413 65.268 92.7375 65.1336C94.8713 64.6361 96.3225 63.0837 98.4825 64.4171C100.358 65.5715 101.591 67.6214 102.983 69.5618C104.374 71.5023 105.709 73.3631 107.059 75.2786C108.345 77.0997 109.628 78.9207 110.88 80.7815C111.484 81.6771 112.38 82.6971 112.755 83.8166C113.273 85.359 114.63 87.6278 113.644 90.0111C112.658 92.3943 108.124 91.9615 108.124 91.9615C108.196 92.2658 108.196 92.5921 108.125 92.8969C108.054 93.2018 107.915 93.4707 107.726 93.6681C107.055 94.4542 103.373 93.9119 102.225 94.2402C101.078 94.5686 99.8813 95.0662 98.9813 93.9765C98.0813 92.8869 92.6063 86.9462 92.3025 85.6127C91.9988 84.2793 90.2213 76.0946 89.4113 76.025C88.6013 75.9553 80.7863 73.3929 80.7863 73.3929C80.7863 73.3929 81.9863 61.2776 86.1675 59.7949Z" fill="#F4A998"/>
<path d="M100.155 87.9363C98.9297 85.4698 97.5269 83.167 95.9662 81.0601C95.715 80.7168 96.135 80.2292 96.3862 80.5626C96.9762 81.362 97.5412 82.1912 98.0812 83.0503C98.3378 82.3721 98.5669 81.6762 98.7675 80.9656C98.895 80.5178 99.4275 80.7517 99.3 81.1995C99.0741 81.9975 98.815 82.7782 98.5237 83.5379C98.5071 83.5802 98.4841 83.6174 98.4562 83.6474C99.2607 84.9547 100.012 86.3183 100.706 87.7323C103.436 86.9909 106.305 89.6677 107.831 92.4441C108.041 92.8272 107.625 93.3247 107.411 92.9416C105.982 90.3544 103.35 87.7969 100.796 88.4637C100.762 88.4976 100.722 88.5222 100.68 88.5358C100.639 88.5495 100.595 88.552 100.552 88.5433C100.489 88.5433 100.421 88.5831 100.357 88.608C100.061 88.7025 99.945 88.1502 100.155 87.9363Z" fill="#B25546"/>
<path d="M111.278 63.7454C111.278 63.7454 109.451 62.1831 108.574 61.9095C107.696 61.6358 102.544 62.6807 102.544 62.6807C102.544 62.6807 101.186 62.815 101.018 64.4718C100.799 66.3481 100.487 68.2031 100.084 70.0245C99.9038 70.6215 99.825 71.6365 100.241 71.9152" fill="#EA9A8B"/>
<path d="M131.471 62.0637C131.471 62.0637 117.907 66.9845 116.846 66.8004C115.785 66.6163 114.221 66.0839 113.614 65.4819C113.006 64.8798 110.989 63.4569 110.306 63.3026C109.624 63.1484 104.306 64.6709 103.342 65.5963C102.379 66.5218 98.415 73.8357 98.16 75.1741C97.905 76.5125 99.0525 78.0102 99.54 78.0997C99.54 78.0997 98.76 80.2491 99.2362 81.3935C99.5094 82.0663 99.894 82.6482 100.361 83.0951C100.361 83.0951 100.027 85.3789 100.882 86.578C101.737 87.7771 103.384 87.3342 103.384 87.3342C103.384 87.3342 103.53 89.0558 104.325 89.9265C105.12 90.7972 106.23 90.5335 106.999 90.2947C107.767 90.0558 108.874 88.8418 109.624 88.5483C110.374 88.2547 115.249 87.2497 116.621 86.3043C117.994 85.359 120.926 83.319 122.07 82.3786C123.214 81.4383 124.931 79.4978 125.677 78.8958C126.424 78.2938 135.885 76.1145 135.885 76.1145C135.885 76.1145 135.844 69.0294 131.471 62.0637Z" fill="#FFC1AE"/>
<path d="M99 81.0054C98.5275 79.6173 98.8125 78.249 99.48 77.0549C100.552 75.1493 101.966 73.5721 103.072 71.6863C103.35 71.1888 103.946 71.7212 103.665 72.1839C102.982 73.3482 102.262 74.4726 101.497 75.5374C100.549 76.8609 98.9325 78.5227 99.6225 80.5726C99.8325 81.1447 99.195 81.5627 99 81.0054Z" fill="#B25546"/>
<path d="M105.169 77.4877C105.521 77.1096 105.994 77.8111 105.638 78.1942C104.351 79.5675 99.555 83.309 101.46 85.951C101.775 86.3889 101.243 87.0108 100.928 86.573C98.4488 83.1449 103.586 79.1893 105.169 77.4877Z" fill="#B25546"/>
<path d="M107.572 82.9608C107.947 82.6523 108.274 83.4981 107.884 83.8066C107.115 84.4136 102.941 87.185 103.984 89.001C104.257 89.4986 103.729 90.1056 103.451 89.623C101.771 86.6924 106.125 84.1002 107.572 82.9608Z" fill="#B25546"/>
<path d="M105.105 69.9399C105.095 69.8584 105.109 69.7748 105.144 69.7064C105.178 69.6379 105.232 69.5897 105.292 69.5718C105.587 69.4495 105.899 69.4188 106.204 69.4822C106.266 69.4898 106.323 69.5285 106.364 69.5905C106.405 69.6525 106.427 69.733 106.425 69.8156C106.423 69.8567 106.415 69.897 106.401 69.9341C106.388 69.9712 106.369 70.0043 106.345 70.0316C106.322 70.0588 106.295 70.0797 106.265 70.093C106.236 70.1063 106.205 70.1118 106.174 70.1091C105.909 70.0528 105.638 70.08 105.382 70.1887C105.352 70.1967 105.321 70.1965 105.29 70.1883C105.26 70.1801 105.231 70.164 105.205 70.1408C105.179 70.1177 105.157 70.0881 105.14 70.0536C105.123 70.0191 105.111 69.9805 105.105 69.9399Z" fill="#B25546"/>
<path d="M106.961 75.6319C106.935 75.5571 106.932 75.4718 106.952 75.3938C106.972 75.3159 107.015 75.2514 107.07 75.214L107.689 74.8906C107.745 74.8571 107.809 74.8533 107.868 74.8801C107.926 74.9069 107.975 74.9622 108.004 75.0349C108.03 75.1096 108.033 75.195 108.013 75.2729C107.993 75.3509 107.95 75.4154 107.895 75.4528L107.276 75.7762C107.22 75.8097 107.156 75.8134 107.097 75.7866C107.039 75.7598 106.99 75.7045 106.961 75.6319Z" fill="#B25546"/>
<path d="M109.264 82.1249C109.253 82.0432 109.266 81.959 109.301 81.8903C109.336 81.8215 109.39 81.7736 109.451 81.7567C109.496 81.736 109.537 81.7025 109.572 81.6587C109.606 81.6149 109.633 81.5618 109.65 81.503C109.762 81.1298 110.212 81.3239 110.1 81.697C110.053 81.859 109.978 82.0041 109.881 82.1207C109.784 82.2374 109.667 82.3223 109.541 82.3687C109.48 82.3849 109.417 82.3683 109.365 82.3227C109.313 82.277 109.276 82.2059 109.264 82.1249Z" fill="#B25546"/>
<path d="M57.6225 81.7268C57.6225 81.7268 58.7475 91.3494 58.7813 92.1405C58.815 92.9316 56.8275 93.27 55.815 91.7674C55.1888 90.832 54.81 87.6327 54.6075 86.7023C54.405 85.7719 53.6475 72.3928 53.6475 72.3928L53.3325 68.1437L56.8275 67.5666L57.6225 81.7268Z" fill="#DD877F"/>
<path d="M60.8175 88.0308C60.8175 88.0308 63.7688 96.9469 63.9563 97.6932C64.1438 98.4395 62.2875 99.4545 61.02 98.345C60.2325 97.6584 59.2463 94.693 58.8713 93.867C58.4963 93.0411 55.1663 80.3685 55.1663 80.3685L54.0413 76.3881L57.3075 74.6368L60.8175 88.0308Z" fill="#EA998C"/>
<path d="M59.655 75.3781C59.655 75.3781 60.195 72.6615 60.075 70.9002C59.955 69.1388 58.3313 57.5211 57.9113 55.8792C57.4913 54.2373 56.8275 51.3664 56.2275 49.9086C55.6275 48.4508 51.0563 40.0123 51.0563 40.0123C51.0563 40.0123 45.945 41.9279 43.1813 47.1124C43.1813 47.1124 47.3925 54.4612 47.8125 55.8543C48.2325 57.2474 50.64 71.3281 50.64 71.3281" fill="#F4A998"/>
<path d="M73.6838 81.4234C73.6838 81.4234 74.7113 78.8908 72.8775 77.3285C71.0438 75.7662 66.9263 75.2836 64.725 75.0846C62.91 74.9254 57.3863 74.2189 55.485 73.9751C54.36 74.0895 53.235 74.1343 52.11 74.1343H51.8063L45.5063 74.6318C45.4925 74.6591 45.4742 74.6819 45.4527 74.6983C45.4312 74.7147 45.4072 74.7243 45.3825 74.7264C44.603 74.8106 43.8207 74.8422 43.0388 74.8209L42.4838 74.8657L42.7425 74.8159C41.0955 74.7364 39.4543 74.5103 37.83 74.1393C35.8613 73.7114 33.8513 73.0944 32.13 71.7212H32.1C30.6 71.8953 24.6 68.8453 24.6 68.8453C22.4475 71.4624 21.39 84.2694 21.39 84.2694C21.39 84.2694 24.6975 84.7669 26.5313 85.0505C28.365 85.3341 38.1563 87.4885 39.315 87.4885C40.4738 87.4885 50.04 87.1949 51.2138 86.9909C52.3875 86.787 53.4188 85.1401 54.8363 85.0406C56.2538 84.941 61.425 84.2594 61.425 84.2594C61.425 84.2594 67.7438 86.5033 68.625 86.4038C69.5063 86.3043 69.5063 83.9659 69.5063 83.9659C69.5063 83.9659 71.415 84.553 72.4463 84.747C73.4775 84.941 74.5763 84.747 74.7225 83.2842C74.8688 81.8214 73.6838 81.4234 73.6838 81.4234Z" fill="#FFC1AE"/>
<path d="M58.3725 73.6069C58.5712 73.8706 59.2275 81.4582 59.7525 83.115C60.2775 84.7719 62.3775 89.7474 62.25 90.5285C62.1225 91.3097 61.5825 92.5933 59.7525 91.8371C57.9225 91.0808 55.4775 84.334 54.8775 82.4135C54.2775 80.4929 52.5037 74.4527 52.5037 74.4527C52.5037 74.4527 52.5037 69.3926 55.2075 68.3876C57.9112 67.3825 58.3725 73.6069 58.3725 73.6069Z" fill="#F4A998"/>
<path d="M44.385 74.8159H44.4188L46.4175 74.4278L47.0025 74.4676C48.2663 74.0198 49.56 74.199 50.8538 74.2288C52.2306 74.2585 53.6076 74.1888 54.9788 74.0198C56.6363 73.2188 58.2563 71.5321 57.4575 69.5917C56.4713 67.1984 46.875 66.8402 45.5588 66.9298C44.2425 67.0193 38.46 67.3676 36.1575 68.1488C34.11 68.8453 32.895 71.4077 31.5825 72.0844C33.2138 73.2785 35.0813 73.8407 36.9113 74.2388C39.3747 74.843 41.8854 75.0369 44.385 74.8159Z" fill="#FFC1AE"/>
<path d="M46.1062 54.9637C46.3135 57.3062 46.8275 59.5827 47.625 61.6906C48.8925 65.1436 48.75 70.746 51.1612 71.3082C53.5725 71.8704 54.2325 68.7707 53.9625 66.9994C53.6925 65.2281 52.8937 62.6608 52.8375 60.6258C52.7812 58.5908 52.9387 56.113 52.32 54.1577C52.0717 53.3612 51.6237 52.7029 51.0518 52.2941C50.4799 51.8852 49.8192 51.7509 49.1812 51.9137C48.1575 52.1128 45.99 53.2074 46.1062 54.9637Z" fill="#F4A998"/>
<path d="M53.7487 64.4619C53.4328 62.9013 53.3062 61.2839 53.3737 59.6705C53.4675 58.4067 53.5612 57.3768 53.22 56.1876C53.085 55.6901 52.5075 55.919 52.6425 56.3966C53.1862 58.3221 52.5937 60.5213 52.8262 62.5413C53.13 65.1784 53.9962 67.8452 52.8262 70.3429C52.6237 70.7808 53.1412 71.1788 53.3437 70.7459C54.2812 68.7657 54.1012 66.6412 53.7487 64.4619Z" fill="#B25546"/>
<path d="M55.4025 73.7561C52.7879 73.7359 50.175 73.9386 47.58 74.3632C44.1205 74.8699 40.6229 74.6753 37.2075 73.786C36.8325 73.6964 36.6675 74.4627 37.05 74.5522C40.395 75.3384 43.6725 75.7812 47.0625 75.2438C49.2225 74.9005 51.3713 74.6716 53.5275 74.587C54.1758 74.4132 54.8056 74.1341 55.4025 73.7561Z" fill="#B25546"/>
<path d="M73.2825 80.6771C68.5325 79.5393 63.7562 78.5741 58.9537 77.7813C58.5787 77.7166 58.5787 78.5127 58.9537 78.5774C63.7037 79.3635 68.4262 80.3188 73.1212 81.4433C73.5 81.5328 73.6612 80.7666 73.2825 80.6771Z" fill="#B25546"/>
<path d="M69.7238 83.7369L60.3488 83.7618C60.2692 83.7618 60.1929 83.8038 60.1366 83.8784C60.0804 83.953 60.0488 84.0543 60.0488 84.1599C60.0488 84.2654 60.0804 84.3667 60.1366 84.4413C60.1929 84.516 60.2692 84.5579 60.3488 84.5579L69.7238 84.533C69.8033 84.533 69.8796 84.4911 69.9359 84.4164C69.9922 84.3418 70.0238 84.2405 70.0238 84.135C70.0238 84.0294 69.9922 83.9282 69.9359 83.8535C69.8796 83.7789 69.8033 83.7369 69.7238 83.7369Z" fill="#B25546"/>
<path d="M50.9138 83.8066C50.4509 83.8995 49.9814 83.9195 49.515 83.8663C49.14 83.8265 49.14 84.6226 49.515 84.6624C50.0359 84.7146 50.5595 84.6845 51.075 84.5729C51.4538 84.4982 51.2925 83.732 50.9138 83.8066Z" fill="#B25546"/>
<path d="M73.5 19.0407C73.5 19.0407 69.9037 20.1303 69.9037 24.6729V48.3264C69.9037 48.3264 70.6537 54.0233 76.6537 54.0233C82.6537 54.0233 83.1937 48.3264 83.1937 48.3264V26.0014C83.1937 26.0014 83.6437 19.0357 78.9487 19.0357L73.5 19.0407Z" fill="#68E1FD"/>
<path d="M73.9537 16.1549V21.9663H79.1887V16.1549" fill="#B0CA6F"/>
<path d="M76.5712 18.1053C78.0168 18.1053 79.1887 17.232 79.1887 16.1549C79.1887 15.0777 78.0168 14.2045 76.5712 14.2045C75.1256 14.2045 73.9537 15.0777 73.9537 16.1549C73.9537 17.232 75.1256 18.1053 76.5712 18.1053Z" fill="#C2DD8C"/>
<path d="M76.5712 23.8818C78.0168 23.8818 79.1887 23.0086 79.1887 21.9314C79.1887 20.8542 78.0168 19.981 76.5712 19.981C75.1256 19.981 73.9537 20.8542 73.9537 21.9314C73.9537 23.0086 75.1256 23.8818 76.5712 23.8818Z" fill="#B0CA6F"/>
<path d="M77.0587 8.36823H76.3612C76.1562 8.36823 75.99 8.58876 75.99 8.8608V16.4335C75.99 16.7055 76.1562 16.9261 76.3612 16.9261H77.0587C77.2638 16.9261 77.43 16.7055 77.43 16.4335V8.8608C77.43 8.58876 77.2638 8.36823 77.0587 8.36823Z" fill="#B3B3B3"/>
<path d="M82.7175 13.2392C82.7182 13.2243 82.7182 13.2093 82.7175 13.1944C82.6828 13.0963 82.6248 13.016 82.5525 12.9656C80.9625 11.244 79.365 9.07473 77.3775 8.22392C76.3687 7.79105 74.0512 7.50745 73.965 9.65686C73.8937 11.4978 76.5 12.667 77.4075 13.1845C78.3937 13.7467 79.6575 14.7368 80.7337 14.8314C81.4837 14.8961 81.975 14.3687 82.6087 13.8363C82.6781 13.7709 82.7274 13.6745 82.7473 13.5648C82.7673 13.455 82.7567 13.3394 82.7175 13.2392Z" fill="#B3B3B3"/>
<path d="M82.7175 12.672C82.7182 12.6571 82.7182 12.6421 82.7175 12.6272C82.6828 12.5291 82.6248 12.4488 82.5525 12.3984C80.9625 10.6768 79.365 8.50753 77.3775 7.65672C76.3687 7.22385 74.0512 6.94025 73.965 9.08966C73.8937 10.9306 76.5 12.0998 77.4075 12.6173C78.3937 13.1795 79.6575 14.1696 80.7337 14.2642C81.4837 14.3289 81.975 13.8015 82.6087 13.2691C82.6781 13.2037 82.7274 13.1073 82.7473 12.9976C82.7673 12.8878 82.7567 12.7722 82.7175 12.672Z" fill="#E6E6E6"/>
<path d="M69.9225 30.2852C69.9225 30.1857 71.82 33.6984 76.71 33.6984C81.6 33.6984 83.2162 30.2803 83.2162 30.2803V38.8729C83.2162 38.8729 80.5687 42.4802 76.71 42.4802C72.8512 42.4802 69.9225 38.7734 69.9225 38.7734V30.2852Z" fill="#FAF9FE"/>
<path d="M61.5338 74.1293C62.9317 74.1293 64.065 72.6256 64.065 70.7708C64.065 68.916 62.9317 67.4124 61.5338 67.4124C60.1358 67.4124 59.0025 68.916 59.0025 70.7708C59.0025 72.6256 60.1358 74.1293 61.5338 74.1293Z" fill="#68E1FD"/>
<path d="M62.5162 68.5319C62.4305 68.4724 62.3308 68.4592 62.2379 68.4949C62.145 68.5307 62.0661 68.6127 62.0177 68.7238C61.9693 68.8349 61.9552 68.9665 61.9782 69.0911C62.0012 69.2158 62.0596 69.3238 62.1412 69.3927C62.2554 69.4787 62.3523 69.6 62.4234 69.7465C62.4946 69.8929 62.538 70.06 62.55 70.2335C62.55 70.3655 62.5895 70.492 62.6598 70.5853C62.7301 70.6786 62.8255 70.7311 62.925 70.7311C63.0244 70.7311 63.1198 70.6786 63.1901 70.5853C63.2605 70.492 63.3 70.3655 63.3 70.2335C63.2849 69.8862 63.2055 69.5492 63.0688 69.2524C62.9321 68.9556 62.7423 68.7081 62.5162 68.5319Z" fill="white"/>
<path d="M62.8275 71.1639C62.7281 71.1639 62.6327 71.2163 62.5623 71.3096C62.492 71.4029 62.4525 71.5295 62.4525 71.6614C62.4525 71.7934 62.492 71.9199 62.5623 72.0132C62.6327 72.1066 62.7281 72.159 62.8275 72.159C62.927 72.159 63.0224 72.1066 63.0927 72.0132C63.163 71.9199 63.2025 71.7934 63.2025 71.6614C63.2025 71.5295 63.163 71.4029 63.0927 71.3096C63.0224 71.2163 62.927 71.1639 62.8275 71.1639Z" fill="white"/>
<path d="M52.515 92.0659C53.913 92.0659 55.0463 90.5623 55.0463 88.7075C55.0463 86.8526 53.913 85.349 52.515 85.349C51.117 85.349 49.9838 86.8526 49.9838 88.7075C49.9838 90.5623 51.117 92.0659 52.515 92.0659Z" fill="#68E1FD"/>
<path d="M53.4938 86.4784C53.4081 86.419 53.3084 86.4057 53.2155 86.4415C53.1226 86.4772 53.0437 86.5592 52.9953 86.6703C52.9469 86.7814 52.9327 86.913 52.9557 87.0377C52.9787 87.1623 53.0371 87.2703 53.1188 87.3392C53.233 87.4252 53.3298 87.5466 53.401 87.693C53.4722 87.8394 53.5156 88.0065 53.5275 88.1801C53.5275 88.312 53.567 88.4386 53.6374 88.5319C53.7077 88.6252 53.8031 88.6776 53.9025 88.6776C54.002 88.6776 54.0974 88.6252 54.1677 88.5319C54.238 88.4386 54.2775 88.312 54.2775 88.1801C54.2624 87.8328 54.183 87.4958 54.0463 87.199C53.9096 86.9021 53.7198 86.6547 53.4938 86.4784Z" fill="white"/>
<path d="M53.8088 89.1005C53.7093 89.1005 53.6139 89.1529 53.5436 89.2463C53.4733 89.3396 53.4338 89.4661 53.4338 89.5981C53.4338 89.73 53.4733 89.8566 53.5436 89.9499C53.6139 90.0432 53.7093 90.0956 53.8088 90.0956C53.9082 90.0956 54.0036 90.0432 54.0739 89.9499C54.1443 89.8566 54.1838 89.73 54.1838 89.5981C54.1838 89.4661 54.1443 89.3396 54.0739 89.2463C54.0036 89.1529 53.9082 89.1005 53.8088 89.1005Z" fill="white"/>
<path d="M65.5575 76.0747C66.3673 76.0747 67.0237 75.2037 67.0237 74.1293C67.0237 73.0548 66.3673 72.1838 65.5575 72.1838C64.7477 72.1838 64.0912 73.0548 64.0912 74.1293C64.0912 75.2037 64.7477 76.0747 65.5575 76.0747Z" fill="#68E1FD"/>
<path d="M66.1237 72.8406C66.0744 72.8096 66.0181 72.8043 65.966 72.8258C65.9139 72.8473 65.8698 72.894 65.8424 72.9566C65.815 73.0192 65.8064 73.0932 65.8182 73.1639C65.83 73.2346 65.8615 73.2968 65.9062 73.3382C65.9735 73.3888 66.0303 73.4608 66.0715 73.5476C66.1127 73.6344 66.1371 73.7334 66.1425 73.8357C66.1435 73.9119 66.1667 73.9845 66.2073 74.0384C66.2478 74.0922 66.3026 74.123 66.36 74.1243C66.4177 74.1243 66.473 74.0939 66.5138 74.0398C66.5546 73.9857 66.5775 73.9123 66.5775 73.8357C66.57 73.633 66.5246 73.4358 66.4454 73.2621C66.3662 73.0884 66.2556 72.9436 66.1237 72.8406Z" fill="white"/>
<path d="M66.3037 74.3582C66.2461 74.3582 66.1907 74.3886 66.1499 74.4427C66.1092 74.4968 66.0862 74.5702 66.0862 74.6467C66.0862 74.7233 66.1092 74.7967 66.1499 74.8508C66.1907 74.9049 66.2461 74.9353 66.3037 74.9353C66.3614 74.9353 66.4168 74.9049 66.4575 74.8508C66.4983 74.7967 66.5212 74.7233 66.5212 74.6467C66.5212 74.5702 66.4983 74.4968 66.4575 74.4427C66.4168 74.3886 66.3614 74.3582 66.3037 74.3582Z" fill="white"/>
<path d="M98.8837 66.7706C100.282 66.7706 101.415 65.2669 101.415 63.4121C101.415 61.5573 100.282 60.0536 98.8837 60.0536C97.4858 60.0536 96.3525 61.5573 96.3525 63.4121C96.3525 65.2669 97.4858 66.7706 98.8837 66.7706Z" fill="#68E1FD"/>
<path d="M99.8625 61.1831C99.7768 61.1236 99.6771 61.1104 99.5842 61.1461C99.4913 61.1819 99.4124 61.2639 99.364 61.375C99.3156 61.4861 99.3014 61.6177 99.3244 61.7423C99.3474 61.867 99.4059 61.975 99.4875 62.0438C99.6017 62.1298 99.6985 62.2512 99.7697 62.3977C99.8409 62.5441 99.8843 62.7112 99.8962 62.8847C99.8962 63.0167 99.9357 63.1432 100.006 63.2365C100.076 63.3298 100.172 63.3822 100.271 63.3822C100.371 63.3822 100.466 63.3298 100.536 63.2365C100.607 63.1432 100.646 63.0167 100.646 62.8847C100.631 62.5374 100.552 62.2004 100.415 61.9036C100.278 61.6068 100.089 61.3593 99.8625 61.1831Z" fill="white"/>
<path d="M100.177 63.8052C100.078 63.8052 99.9826 63.8576 99.9123 63.9509C99.842 64.0442 99.8025 64.1708 99.8025 64.3027C99.8025 64.4347 99.842 64.5612 99.9123 64.6545C99.9826 64.7479 100.078 64.8003 100.177 64.8003C100.277 64.8003 100.372 64.7479 100.443 64.6545C100.513 64.5612 100.552 64.4347 100.552 64.3027C100.552 64.1708 100.513 64.0442 100.443 63.9509C100.372 63.8576 100.277 63.8052 100.177 63.8052Z" fill="white"/>
<path d="M98.1337 74.7462C98.9435 74.7462 99.6 73.8753 99.6 72.8008C99.6 71.7264 98.9435 70.8554 98.1337 70.8554C97.3239 70.8554 96.6675 71.7264 96.6675 72.8008C96.6675 73.8753 97.3239 74.7462 98.1337 74.7462Z" fill="#68E1FD"/>
<path d="M98.7038 71.5172C98.6544 71.4861 98.5982 71.4808 98.546 71.5023C98.4939 71.5238 98.4498 71.5705 98.4224 71.6331C98.395 71.6957 98.3864 71.7698 98.3982 71.8404C98.4101 71.9111 98.4415 71.9733 98.4863 72.0147C98.5535 72.0653 98.6103 72.1373 98.6515 72.2241C98.6927 72.3109 98.7171 72.4099 98.7225 72.5123C98.7235 72.5884 98.7467 72.661 98.7873 72.7149C98.8279 72.7687 98.8826 72.7995 98.94 72.8008C98.9977 72.8008 99.053 72.7704 99.0938 72.7163C99.1346 72.6622 99.1575 72.5888 99.1575 72.5123C99.15 72.3095 99.1046 72.1123 99.0254 71.9386C98.9462 71.7649 98.8357 71.6201 98.7038 71.5172Z" fill="white"/>
<path d="M98.8838 73.0098C98.8261 73.0098 98.7708 73.0402 98.73 73.0943C98.6892 73.1485 98.6663 73.2219 98.6663 73.2984C98.6663 73.3749 98.6892 73.4483 98.73 73.5025C98.7708 73.5566 98.8261 73.587 98.8838 73.587C98.9415 73.587 98.9968 73.5566 99.0376 73.5025C99.0784 73.4483 99.1013 73.3749 99.1013 73.2984C99.1013 73.2219 99.0784 73.1485 99.0376 73.0943C98.9968 73.0402 98.9415 73.0098 98.8838 73.0098Z" fill="white"/>
<path d="M111.791 95.4244C113.189 95.4244 114.323 93.9207 114.323 92.0659C114.323 90.2111 113.189 88.7075 111.791 88.7075C110.393 88.7075 109.26 90.2111 109.26 92.0659C109.26 93.9207 110.393 95.4244 111.791 95.4244Z" fill="#68E1FD"/>
<path d="M112.77 89.8369C112.684 89.7774 112.585 89.7642 112.492 89.7999C112.399 89.8357 112.32 89.9177 112.272 90.0288C112.223 90.1399 112.209 90.2715 112.232 90.3961C112.255 90.5208 112.313 90.6288 112.395 90.6977C112.509 90.7836 112.606 90.905 112.677 91.0515C112.748 91.1979 112.792 91.365 112.804 91.5385C112.804 91.6705 112.843 91.797 112.914 91.8903C112.984 91.9836 113.079 92.0361 113.179 92.0361C113.278 92.0361 113.374 91.9836 113.444 91.8903C113.514 91.797 113.554 91.6705 113.554 91.5385C113.539 91.1912 113.459 90.8542 113.323 90.5574C113.186 90.2606 112.996 90.0131 112.77 89.8369Z" fill="white"/>
<path d="M113.085 92.464C112.986 92.464 112.89 92.5164 112.82 92.6097C112.749 92.703 112.71 92.8296 112.71 92.9615C112.71 93.0935 112.749 93.2201 112.82 93.3134C112.89 93.4067 112.986 93.4591 113.085 93.4591C113.184 93.4591 113.28 93.4067 113.35 93.3134C113.42 93.2201 113.46 93.0935 113.46 92.9615C113.46 92.8296 113.42 92.703 113.35 92.6097C113.28 92.5164 113.184 92.464 113.085 92.464Z" fill="white"/>
<defs>
<linearGradient id="paint0_linear_429_589" x1="63.6825" y1="60.4368" x2="81.4674" y2="48.3265" gradientUnits="userSpaceOnUse">
<stop offset="0.01" stop-color="#16A79E"/>
<stop offset="1" stop-color="#225870"/>
</linearGradient>
<linearGradient id="paint1_linear_429_589" x1="102.184" y1="94.2551" x2="111.236" y2="70.218" gradientUnits="userSpaceOnUse">
<stop offset="0.01" stop-color="#16A79E"/>
<stop offset="1" stop-color="#225870"/>
</linearGradient>
<linearGradient id="paint2_linear_429_589" x1="43.2337" y1="94.2949" x2="70.5583" y2="71.8243" gradientUnits="userSpaceOnUse">
<stop offset="0.01" stop-color="#16A79E"/>
<stop offset="1" stop-color="#225870"/>
</linearGradient>
</defs>
</svg>
