<svg width="150" height="150" viewBox="0 0 150 150" fill="none" xmlns="http://www.w3.org/2000/svg">
<path d="M94.995 100.569V120.386H55.005V100.569C55.005 96.0825 56.3483 91.7797 58.7394 88.6072C61.1305 85.4347 64.3735 83.6524 67.755 83.6524H82.2375C85.619 83.6524 88.862 85.4347 91.2531 88.6072C93.6442 91.7797 94.9875 96.0825 94.9875 100.569H94.995Z" fill="#68E1FD"/>
<path d="M94.995 120.884H55.005C54.9055 120.884 54.8102 120.832 54.7398 120.738C54.6695 120.645 54.63 120.518 54.63 120.386V100.569C54.63 95.9505 56.0128 91.5212 58.4742 88.2554C60.9356 84.9896 64.274 83.1548 67.755 83.1548H82.2375C85.7185 83.1548 89.0569 84.9896 91.5183 88.2554C93.9797 91.5212 95.3625 95.9505 95.3625 100.569V120.386C95.3625 120.517 95.324 120.642 95.2553 120.735C95.1866 120.828 95.0932 120.881 94.995 120.884ZM55.38 119.889H94.62V100.569C94.62 96.2144 93.3162 92.0382 90.9955 88.959C88.6747 85.8798 85.5271 84.1499 82.245 84.1499H67.7588C65.7715 84.1406 63.8124 84.7742 62.0513 85.9959C60.039 87.3825 58.3526 89.4759 57.1761 92.0477C55.9997 94.6194 55.3783 97.5706 55.38 100.579V119.889Z" fill="#093F68"/>
<path d="M77.9588 75.7911H72.0413V83.6425H77.9588V75.7911Z" fill="#FFC9B0"/>
<path d="M77.9588 84.14H72.0413C71.9418 84.14 71.8464 84.0876 71.7761 83.9943C71.7058 83.901 71.6663 83.7744 71.6663 83.6425V75.7911C71.6663 75.6592 71.7058 75.5326 71.7761 75.4393C71.8464 75.346 71.9418 75.2936 72.0413 75.2936H77.9588C78.0582 75.2936 78.1536 75.346 78.2239 75.4393C78.2943 75.5326 78.3338 75.6592 78.3338 75.7911V83.6425C78.3338 83.7744 78.2943 83.901 78.2239 83.9943C78.1536 84.0876 78.0582 84.14 77.9588 84.14ZM72.4163 83.1449H77.5838V76.2887H72.4163V83.1449Z" fill="#093F68"/>
<path d="M62.805 68.6314C65.1163 68.6314 66.99 65.2231 66.99 61.0189C66.99 56.8146 65.1163 53.4064 62.805 53.4064C60.4937 53.4064 58.62 56.8146 58.62 61.0189C58.62 65.2231 60.4937 68.6314 62.805 68.6314Z" fill="#FFC9B0"/>
<path d="M62.805 69.1289C60.2925 69.1289 58.2487 65.4919 58.2487 61.0189C58.2487 56.5459 60.2925 52.9039 62.805 52.9039C65.3175 52.9039 67.365 56.5459 67.365 61.0189C67.365 65.4919 65.3212 69.1289 62.805 69.1289ZM62.805 53.899C60.705 53.899 58.9987 57.0932 58.9987 61.0189C58.9987 64.9446 60.705 68.1338 62.805 68.1338C64.905 68.1338 66.615 64.9446 66.615 61.0189C66.615 57.0932 64.905 53.899 62.805 53.899Z" fill="#093F68"/>
<path d="M87.195 68.6314C89.5063 68.6314 91.38 65.2231 91.38 61.0189C91.38 56.8146 89.5063 53.4064 87.195 53.4064C84.8837 53.4064 83.01 56.8146 83.01 61.0189C83.01 65.2231 84.8837 68.6314 87.195 68.6314Z" fill="#FFC9B0"/>
<path d="M87.195 69.1289C84.6825 69.1289 82.635 65.4919 82.635 61.0189C82.635 56.5459 84.6825 52.9039 87.195 52.9039C89.7075 52.9039 91.755 56.5459 91.755 61.0189C91.755 65.4919 89.7075 69.1289 87.195 69.1289ZM87.195 53.899C85.095 53.899 83.385 57.0932 83.385 61.0189C83.385 64.9446 85.095 68.1338 87.195 68.1338C89.295 68.1338 91.005 64.9446 91.005 61.0189C91.005 57.0932 89.295 53.899 87.195 53.899Z" fill="#093F68"/>
<path d="M83.2162 40.3607C83.8428 40.36 84.4633 40.5233 85.0422 40.8411C85.6212 41.1589 86.1472 41.6251 86.5902 42.2129C87.0333 42.8007 87.3846 43.4986 87.6242 44.2668C87.8637 45.0349 87.9867 45.8582 87.9862 46.6895V63.8002C87.9867 65.9633 87.666 68.1054 87.0425 70.1041C86.4189 72.1028 85.5047 73.9189 84.352 75.4487C83.1994 76.9785 81.8309 78.192 80.3247 79.0199C78.8185 79.8479 77.2041 80.274 75.5737 80.274H74.4487C72.8179 80.2747 71.2029 79.8491 69.6961 79.0215C68.1893 78.1939 66.8201 76.9805 65.6667 75.4507C64.5134 73.9209 63.5984 72.1046 62.9742 70.1056C62.35 68.1066 62.0287 65.964 62.0287 63.8002V46.6895C62.0287 45.011 62.5313 43.4012 63.4258 42.2143C64.3204 41.0274 65.5337 40.3607 66.7987 40.3607H83.2162Z" fill="#FFC9B0"/>
<path d="M75.5737 80.7716H74.4487C71.0572 80.7663 67.8056 78.9767 65.407 75.7953C63.0085 72.6138 61.6587 68.3001 61.6537 63.8002V46.6895C61.6557 44.8798 62.1984 43.145 63.1629 41.8654C64.1273 40.5858 65.4348 39.8657 66.7987 39.8631H83.2312C84.5929 39.8697 85.8971 40.5916 86.8585 41.871C87.8199 43.1503 88.3603 44.8828 88.3612 46.6895V63.8002C88.3583 68.2992 87.0102 72.6129 84.6128 75.7947C82.2154 78.9764 78.9646 80.7663 75.5737 80.7716ZM66.7837 40.8582C65.6187 40.8608 64.502 41.476 63.6782 42.569C62.8544 43.6621 62.3907 45.1437 62.3887 46.6895V63.8002C62.3927 68.0366 63.6631 72.0979 65.9213 75.0931C68.1794 78.0882 71.2408 79.7725 74.4337 79.7765H75.5587C78.7507 79.7712 81.8108 78.0861 84.0675 75.091C86.3242 72.0959 87.5933 68.0353 87.5962 63.8002V46.6895C87.5943 45.1437 87.1306 43.6621 86.3068 42.569C85.483 41.476 84.3663 40.8608 83.2012 40.8582H66.7837Z" fill="#093F68"/>
<path d="M84.1875 68.7409C82.8375 66.0939 79.2337 64.1982 75 64.1982C70.7662 64.1982 67.1625 66.0939 65.8125 68.7409C64.6095 67.2065 63.6528 65.3651 63 63.3276C62.3472 61.29 62.0117 59.0983 62.0137 56.8843V63.8002C62.0137 65.964 62.335 68.1066 62.9592 70.1056C63.5834 72.1047 64.4984 73.9209 65.6517 75.4507C66.8051 76.9805 68.1743 78.1939 69.6811 79.0215C71.1879 79.8491 72.8029 80.2747 74.4337 80.2741H75.5587C77.1891 80.2741 78.8035 79.8479 80.3097 79.02C81.8159 78.192 83.1844 76.9785 84.337 75.4487C85.4897 73.9189 86.4039 72.1028 87.0275 70.1041C87.651 68.1054 87.9717 65.9634 87.9712 63.8002V56.8843C87.9752 59.0969 87.6421 61.2877 86.9919 63.3252C86.3416 65.3627 85.3878 67.2048 84.1875 68.7409ZM75 75.4976C71.73 75.4976 69.045 73.7512 68.7225 71.5172C68.6999 71.3681 68.6886 71.2165 68.6887 71.0644C68.6887 68.6115 71.5125 66.6263 75 66.6263C78.4875 66.6263 81.3112 68.6165 81.3112 71.0644C81.3112 71.2197 81.2999 71.3747 81.2775 71.5271C80.9475 73.7562 78.2662 75.4976 75 75.4976Z" fill="#725858"/>
<path d="M75.5737 80.7716H74.4487C71.0572 80.7663 67.8056 78.9767 65.407 75.7953C63.0085 72.6138 61.6587 68.3001 61.6537 63.8002V56.8843C61.6537 56.7523 61.6933 56.6258 61.7636 56.5325C61.8339 56.4391 61.9293 56.3867 62.0287 56.3867C62.1282 56.3867 62.2236 56.4391 62.2939 56.5325C62.3642 56.6258 62.4037 56.7523 62.4037 56.8843C62.391 61.0277 63.6026 65.0127 65.7787 67.9846C67.3987 65.4023 71.0287 63.7007 75.0075 63.7007C78.9862 63.7007 82.6162 65.4023 84.2362 67.9846C86.4124 65.0127 87.624 61.0277 87.6112 56.8843C87.6112 56.7523 87.6508 56.6258 87.7211 56.5325C87.7914 56.4391 87.8868 56.3867 87.9862 56.3867C88.0857 56.3867 88.1811 56.4391 88.2514 56.5325C88.3217 56.6258 88.3612 56.7523 88.3612 56.8843V63.8002C88.3583 68.2992 87.0102 72.6129 84.6128 75.7947C82.2154 78.9764 78.9646 80.7663 75.5737 80.7716ZM62.3887 62.6459V63.8002C62.3937 68.0362 63.6644 72.0968 65.9224 75.0916C68.1803 78.0865 71.2411 79.7712 74.4337 79.7765H75.5587C78.7507 79.7712 81.8108 78.0862 84.0675 75.091C86.3242 72.0959 87.5933 68.0353 87.5962 63.8002V62.6459C86.9306 65.0965 85.8475 67.31 84.4312 69.114C84.3921 69.1634 84.3453 69.201 84.2942 69.2242C84.2431 69.2474 84.1888 69.2556 84.135 69.2484C84.0803 69.2415 84.0275 69.2187 83.9802 69.1818C83.9329 69.1448 83.8923 69.0945 83.8612 69.0344C82.5412 66.4472 78.9862 64.7107 74.985 64.7107C70.9837 64.7107 67.4287 66.4472 66.1087 69.0344C66.0777 69.0945 66.0371 69.1448 65.9898 69.1818C65.9425 69.2187 65.8896 69.2415 65.835 69.2484C65.7812 69.2556 65.7269 69.2474 65.6758 69.2242C65.6247 69.201 65.5779 69.1634 65.5387 69.114C64.1267 67.3093 63.0485 65.0955 62.3887 62.6459ZM75 75.9951C71.5725 75.9951 68.715 74.1094 68.355 71.6117C68.3283 71.4314 68.3145 71.2482 68.3137 71.0644C68.3137 68.298 71.25 66.1287 75 66.1287C78.75 66.1287 81.6862 68.298 81.6862 71.0644C81.6853 71.2514 81.6715 71.438 81.645 71.6217C81.2775 74.1144 78.42 75.9951 75 75.9951ZM75 67.1238C71.7825 67.1238 69.0637 68.925 69.0637 71.0644C69.0632 71.1831 69.072 71.3015 69.09 71.4177C69.3787 73.4079 71.9775 75 75 75C78.0225 75 80.625 73.4328 80.91 71.4326C80.9278 71.3113 80.9366 71.188 80.9362 71.0644C80.9362 68.925 78.2175 67.1238 75 67.1238Z" fill="#093F68"/>
<path d="M75.1388 72.9153C73.7065 72.9196 72.2984 72.4255 71.055 71.4823C70.9716 71.4109 70.9129 71.2986 70.8918 71.1699C70.8707 71.0412 70.8889 70.9066 70.9425 70.7957C70.9689 70.7405 71.0031 70.6927 71.0434 70.6551C71.0837 70.6174 71.1291 70.5907 71.1772 70.5764C71.2252 70.562 71.275 70.5604 71.3235 70.5716C71.372 70.5828 71.4184 70.6065 71.46 70.6415C72.5827 71.4843 73.8507 71.9273 75.1406 71.9273C76.4306 71.9273 77.6986 71.4843 78.8213 70.6415C78.8644 70.6088 78.9119 70.5877 78.9611 70.5794C79.0103 70.5711 79.0603 70.5758 79.1082 70.5931C79.1561 70.6104 79.2009 70.6401 79.2402 70.6804C79.2794 70.7207 79.3123 70.7709 79.3369 70.8281C79.3615 70.8852 79.3774 70.9483 79.3837 71.0136C79.3899 71.0789 79.3864 71.1452 79.3734 71.2088C79.3603 71.2723 79.3379 71.3318 79.3076 71.3838C79.2772 71.4359 79.2394 71.4795 79.1963 71.5122C77.9568 72.4338 76.5596 72.917 75.1388 72.9153Z" fill="#093F68"/>
<path d="M75.1313 24.4739C79.1036 24.4739 82.9131 26.5676 85.722 30.2943C88.5308 34.0211 90.1088 39.0756 90.1088 44.346V45.4008H60.15V44.346C60.15 41.736 60.5376 39.1515 61.2905 36.7402C62.0434 34.3289 63.147 32.1379 64.5382 30.2926C65.9293 28.4472 67.5809 26.9836 69.3985 25.9852C71.2161 24.9868 73.1641 24.4733 75.1313 24.4739Z" fill="#68E1FD"/>
<path d="M90.1088 45.8984H60.15C60.0506 45.8984 59.9552 45.846 59.8849 45.7527C59.8145 45.6594 59.775 45.5328 59.775 45.4008V44.346C59.838 38.9982 61.4834 33.8976 64.3561 30.1453C67.2287 26.3929 71.0982 24.2898 75.1294 24.2898C79.1606 24.2898 83.0301 26.3929 85.9027 30.1453C88.7754 33.8976 90.4208 38.9982 90.4838 44.346V45.4008C90.4838 45.4662 90.4741 45.5309 90.4552 45.5913C90.4364 45.6516 90.4088 45.7065 90.3739 45.7527C90.3391 45.7989 90.2978 45.8355 90.2523 45.8605C90.2068 45.8855 90.158 45.8984 90.1088 45.8984ZM60.525 44.9033H89.7338V44.346C89.6724 39.2607 88.1067 34.4112 85.3745 30.8438C82.6423 27.2764 78.9627 25.277 75.1294 25.277C71.2961 25.277 67.6165 27.2764 64.8843 30.8438C62.1521 34.4112 60.5864 39.2607 60.525 44.346V44.9033Z" fill="#093F68"/>
<path d="M90.4837 45.4008H59.775C58.1865 45.4008 56.8987 47.1083 56.8987 49.2145C56.8987 51.3208 58.1865 53.0282 59.775 53.0282H90.4837C92.0723 53.0282 93.36 51.3208 93.36 49.2145C93.36 47.1083 92.0723 45.4008 90.4837 45.4008Z" fill="#68E1FD"/>
<path d="M90.4875 53.5258H59.775C59.339 53.5455 58.9045 53.4485 58.4973 53.2407C58.0901 53.0329 57.7186 52.7185 57.405 52.3162C57.0913 51.9139 56.8419 51.432 56.6715 50.8991C56.5011 50.3663 56.4133 49.7934 56.4133 49.2146C56.4133 48.6357 56.5011 48.0628 56.6715 47.53C56.8419 46.9971 57.0913 46.5152 57.405 46.1129C57.7186 45.7106 58.0901 45.3962 58.4973 45.1884C58.9045 44.9806 59.339 44.8837 59.775 44.9033H90.4875C91.3302 44.9413 92.1288 45.4122 92.7148 46.2165C93.3008 47.0209 93.6283 48.0959 93.6283 49.2146C93.6283 50.3333 93.3008 51.4082 92.7148 52.2126C92.1288 53.017 91.3302 53.4878 90.4875 53.5258ZM59.775 45.8984C59.4386 45.8811 59.1031 45.9541 58.7885 46.1129C58.4739 46.2718 58.1867 46.5133 57.9441 46.8229C57.7015 47.1326 57.5085 47.504 57.3767 47.915C57.2448 48.3259 57.1769 48.7679 57.1769 49.2146C57.1769 49.6612 57.2448 50.1032 57.3767 50.5142C57.5085 50.9251 57.7015 51.2966 57.9441 51.6062C58.1867 51.9158 58.4739 52.1573 58.7885 52.3162C59.1031 52.475 59.4386 52.548 59.775 52.5307H90.4875C91.1336 52.4975 91.7449 52.1336 92.1932 51.5153C92.6415 50.8971 92.8919 50.0725 92.8919 49.2146C92.8919 48.3567 92.6415 47.5321 92.1932 46.9138C91.7449 46.2955 91.1336 45.9316 90.4875 45.8984H59.775Z" fill="#093F68"/>
<path d="M73.1887 22.9216H77.07C77.3922 22.9211 77.711 23.0089 78.0065 23.1793C78.302 23.3496 78.5678 23.599 78.7874 23.9119C79.007 24.2247 79.1756 24.5943 79.2828 24.9974C79.3899 25.4006 79.4332 25.8288 79.41 26.2551L78.3525 45.4008H71.9062L70.8525 26.2402C70.8304 25.8153 70.8744 25.3889 70.9818 24.9875C71.0892 24.5861 71.2577 24.2183 71.4769 23.907C71.696 23.5958 71.961 23.3476 72.2555 23.1781C72.5501 23.0086 72.8677 22.9212 73.1887 22.9216Z" fill="#68E1FD"/>
<path d="M78.3525 45.8984H71.9063C71.8118 45.8988 71.7207 45.8519 71.6512 45.767C71.5816 45.6821 71.5388 45.5656 71.5313 45.4406L70.4737 26.2949C70.4459 25.8002 70.4953 25.3032 70.619 24.835C70.7426 24.3668 70.9378 23.9375 71.1924 23.5741C71.4469 23.2106 71.7553 22.9209 72.0982 22.723C72.4411 22.5251 72.8111 22.4233 73.185 22.424H77.0662C77.4402 22.4233 77.8102 22.5251 78.1531 22.723C78.4959 22.9209 78.8043 23.2106 79.0589 23.5741C79.3134 23.9375 79.5086 24.3668 79.6323 24.835C79.756 25.3032 79.8054 25.8002 79.7775 26.2949L78.72 45.4406C78.7126 45.5639 78.6708 45.679 78.6029 45.7636C78.5349 45.8483 78.4457 45.8963 78.3525 45.8984ZM72.255 44.9033H78L79.035 26.2402C79.0552 25.8819 79.0193 25.5219 78.9296 25.1828C78.8399 24.8438 78.6984 24.5329 78.5138 24.2699C78.3293 24.0069 78.1058 23.7973 77.8574 23.6543C77.6089 23.5113 77.3408 23.438 77.07 23.439H73.1888C72.9179 23.438 72.6499 23.5113 72.4014 23.6543C72.1529 23.7973 71.9294 24.0069 71.7449 24.2699C71.5604 24.5329 71.4189 24.8438 71.3292 25.1828C71.2395 25.5219 71.2036 25.8819 71.2237 26.2402L72.255 44.9033Z" fill="#093F68"/>
<path d="M74.1263 120.386H61.875V85.558C63.69 84.3011 65.7077 83.6472 67.755 83.6524H68.4412C73.3987 98.6535 74.1263 120.386 74.1263 120.386Z" fill="#F56132"/>
<path d="M74.1263 120.884H61.875C61.7755 120.884 61.6802 120.832 61.6098 120.738C61.5395 120.645 61.5 120.518 61.5 120.386V85.558C61.4999 85.4667 61.5187 85.377 61.5544 85.2989C61.5901 85.2208 61.6414 85.1572 61.7025 85.1152C63.57 83.8191 65.6474 83.1462 67.755 83.1549H68.4412C68.5144 83.1545 68.5861 83.1826 68.6474 83.2357C68.7087 83.2887 68.757 83.3644 68.7862 83.4534C73.71 98.3799 74.49 120.158 74.4975 120.372C74.4998 120.439 74.4917 120.507 74.4736 120.57C74.4556 120.633 74.428 120.691 74.3925 120.74C74.3575 120.786 74.3159 120.822 74.2702 120.847C74.2245 120.872 74.1756 120.884 74.1263 120.884ZM62.2537 119.889H73.7288C73.5788 116.525 72.5625 97.5937 68.1975 84.14H67.7588C65.8469 84.1312 63.9601 84.7174 62.25 85.8516L62.2537 119.889Z" fill="#093F68"/>
<path d="M88.125 85.5431V120.372H75.8738C75.8738 120.372 76.6013 98.6386 81.555 83.6275H82.2413C84.2903 83.627 86.3089 84.2842 88.125 85.5431Z" fill="#F56132"/>
<path d="M88.125 120.884H75.8737C75.8232 120.884 75.7733 120.87 75.7269 120.843C75.6805 120.817 75.6386 120.778 75.6037 120.73C75.5683 120.681 75.5407 120.623 75.5226 120.56C75.5046 120.497 75.4964 120.429 75.4987 120.362C75.4987 120.148 76.2862 98.3649 81.21 83.4434C81.2393 83.3544 81.2875 83.2787 81.3488 83.2257C81.4101 83.1726 81.4818 83.1445 81.555 83.1449H82.2412C84.3485 83.1351 86.4258 83.8062 88.2937 85.1003C88.3549 85.1423 88.4061 85.2058 88.4418 85.2839C88.4776 85.3621 88.4964 85.4517 88.4962 85.5431V120.372C88.4977 120.438 88.4893 120.504 88.4713 120.565C88.4534 120.627 88.4263 120.684 88.3918 120.731C88.3572 120.779 88.3158 120.817 88.27 120.843C88.2242 120.87 88.1749 120.883 88.125 120.884ZM76.275 119.889H87.75V85.8466C86.0406 84.7152 84.1552 84.1307 82.245 84.14H81.8062C77.4375 97.5987 76.4212 116.525 76.2712 119.889H76.275Z" fill="#093F68"/>
<path d="M71.8537 98.6883H62.0137C61.9143 98.6883 61.8189 98.6359 61.7486 98.5426C61.6782 98.4493 61.6387 98.3227 61.6387 98.1908C61.6387 98.0588 61.6782 97.9323 61.7486 97.839C61.8189 97.7457 61.9143 97.6932 62.0137 97.6932H71.8537C71.9532 97.6932 72.0486 97.7457 72.1189 97.839C72.1892 97.9323 72.2287 98.0588 72.2287 98.1908C72.2287 98.3227 72.1892 98.4493 72.1189 98.5426C72.0486 98.6359 71.9532 98.6883 71.8537 98.6883Z" fill="#093F68"/>
<path d="M72.5962 103.639H62.0137C61.9143 103.639 61.8189 103.587 61.7486 103.493C61.6782 103.4 61.6387 103.273 61.6387 103.141C61.6387 103.009 61.6782 102.883 61.7486 102.79C61.8189 102.696 61.9143 102.644 62.0137 102.644H72.5962C72.6957 102.644 72.7911 102.696 72.8614 102.79C72.9317 102.883 72.9712 103.009 72.9712 103.141C72.9712 103.273 72.9317 103.4 72.8614 103.493C72.7911 103.587 72.6957 103.639 72.5962 103.639Z" fill="#093F68"/>
<path d="M87.8475 98.6883H78.3038C78.2043 98.6883 78.1089 98.6359 78.0386 98.5426C77.9683 98.4493 77.9288 98.3227 77.9288 98.1908C77.9288 98.0588 77.9683 97.9323 78.0386 97.839C78.1089 97.7457 78.2043 97.6932 78.3038 97.6932H87.8475C87.947 97.6932 88.0424 97.7457 88.1127 97.839C88.183 97.9323 88.2225 98.0588 88.2225 98.1908C88.2225 98.3227 88.183 98.4493 88.1127 98.5426C88.0424 98.6359 87.947 98.6883 87.8475 98.6883Z" fill="#093F68"/>
<path d="M87.8475 103.639H77.5837C77.4843 103.639 77.3889 103.587 77.3186 103.493C77.2482 103.4 77.2087 103.273 77.2087 103.141C77.2087 103.009 77.2482 102.883 77.3186 102.79C77.3889 102.696 77.4843 102.644 77.5837 102.644H87.8475C87.9469 102.644 88.0423 102.696 88.1127 102.79C88.183 102.883 88.2225 103.009 88.2225 103.141C88.2225 103.273 88.183 103.4 88.1127 103.493C88.0423 103.587 87.9469 103.639 87.8475 103.639Z" fill="#093F68"/>
<path d="M68.445 83.6425C68.4975 83.6425 71.7225 88.1552 71.7225 88.1552L75 83.6425H68.445Z" fill="#68E1FD"/>
<path d="M71.7225 88.6528C71.6717 88.6519 71.6216 88.6373 71.5752 88.6099C71.5288 88.5826 71.487 88.543 71.4525 88.4935C70.3275 86.9064 68.4525 84.3241 68.2275 84.0455C68.1635 83.984 68.1157 83.8972 68.0911 83.7976C68.0664 83.6979 68.0662 83.5905 68.0903 83.4906C68.1144 83.3907 68.1617 83.3035 68.2254 83.2414C68.2891 83.1794 68.366 83.1456 68.445 83.1449H75C75.0736 83.145 75.1456 83.1738 75.2069 83.2278C75.2683 83.2817 75.3163 83.3585 75.345 83.4484C75.3734 83.5379 75.3814 83.6365 75.3681 83.732C75.3547 83.8274 75.3206 83.9157 75.27 83.9858L72 88.4985C71.9643 88.5483 71.9212 88.5876 71.8734 88.6142C71.8256 88.6407 71.7743 88.6539 71.7225 88.6528ZM69.375 84.14C69.8362 84.7619 70.56 85.7819 71.745 87.4338L74.1375 84.14H69.375Z" fill="#093F68"/>
<path d="M81.2363 83.6425C81.1838 83.6425 77.9588 88.1552 77.9588 88.1552L74.6813 83.6425H81.2363Z" fill="#68E1FD"/>
<path d="M77.9587 88.6528C77.9082 88.6525 77.8583 88.6387 77.8119 88.6122C77.7655 88.5857 77.7236 88.547 77.6887 88.4985L74.4112 83.9858C74.3606 83.9157 74.3265 83.8274 74.3132 83.732C74.2998 83.6365 74.3078 83.5379 74.3362 83.4484C74.3649 83.3585 74.413 83.2817 74.4743 83.2278C74.5357 83.1738 74.6076 83.145 74.6812 83.1449H81.2362C81.3357 83.1449 81.4311 83.1973 81.5014 83.2906C81.5717 83.3839 81.6112 83.5105 81.6112 83.6424C81.611 83.7214 81.5965 83.7991 81.5691 83.8692C81.5418 83.9393 81.5022 83.9997 81.4537 84.0455C81.225 84.3241 79.3687 86.9064 78.2325 88.4935C78.1979 88.543 78.1562 88.5826 78.1098 88.6099C78.0634 88.6373 78.0133 88.6519 77.9625 88.6528H77.9587ZM75.5625 84.14L77.9587 87.4338C79.14 85.7819 79.8675 84.7619 80.325 84.14H75.5625Z" fill="#093F68"/>
<path d="M75.6938 64.0938C75.2553 64.0922 74.8177 64.044 74.385 63.9495C74.2856 63.9264 74.1971 63.8518 74.1391 63.7422C74.0811 63.6325 74.0582 63.4968 74.0756 63.3648C74.0931 63.2329 74.1492 63.1155 74.2319 63.0385C74.3145 62.9616 74.4168 62.9313 74.5163 62.9544C75.1941 63.1036 75.8859 63.1036 76.5638 62.9544C76.6875 62.4917 76.1888 60.5164 75.4388 58.6356C75.3926 58.5189 75.3832 58.3825 75.4127 58.2565C75.4422 58.1306 75.5083 58.0253 75.5963 57.964C75.6843 57.9026 75.7871 57.8902 75.882 57.9294C75.9769 57.9686 76.0563 58.0562 76.1025 58.1729C76.4775 59.1083 77.6363 62.2379 77.2463 63.3922C77.204 63.5162 77.1407 63.6256 77.0613 63.7119C76.982 63.7982 76.8887 63.8591 76.7888 63.8898C76.4313 64.0162 76.0636 64.0847 75.6938 64.0938Z" fill="#093F68"/>
<path d="M69.2625 61.9394C69.9584 61.9394 70.5225 61.1909 70.5225 60.2676C70.5225 59.3443 69.9584 58.5958 69.2625 58.5958C68.5666 58.5958 68.0025 59.3443 68.0025 60.2676C68.0025 61.1909 68.5666 61.9394 69.2625 61.9394Z" fill="#093F68"/>
<path d="M71.3438 55.9339H65.2988C65.0999 55.9339 64.9091 55.8291 64.7684 55.6425C64.6278 55.4558 64.5488 55.2027 64.5488 54.9388C64.5488 54.6749 64.6278 54.4218 64.7684 54.2352C64.9091 54.0486 65.0999 53.9437 65.2988 53.9437H71.3438C71.5427 53.9437 71.7334 54.0486 71.8741 54.2352C72.0147 54.4218 72.0938 54.6749 72.0938 54.9388C72.0938 55.2027 72.0147 55.4558 71.8741 55.6425C71.7334 55.8291 71.5427 55.9339 71.3438 55.9339Z" fill="#093F68"/>
<path d="M81.12 61.9394C81.8159 61.9394 82.38 61.1909 82.38 60.2676C82.38 59.3443 81.8159 58.5958 81.12 58.5958C80.4241 58.5958 79.86 59.3443 79.86 60.2676C79.86 61.1909 80.4241 61.9394 81.12 61.9394Z" fill="#093F68"/>
<path d="M85.0875 55.9339H79.0388C78.8398 55.9339 78.6491 55.8291 78.5084 55.6425C78.3678 55.4558 78.2888 55.2027 78.2888 54.9388C78.2888 54.6749 78.3678 54.4218 78.5084 54.2352C78.6491 54.0486 78.8398 53.9437 79.0388 53.9437H85.0875C85.2864 53.9437 85.4772 54.0486 85.6178 54.2352C85.7585 54.4218 85.8375 54.6749 85.8375 54.9388C85.8375 55.2027 85.7585 55.4558 85.6178 55.6425C85.4772 55.8291 85.2864 55.9339 85.0875 55.9339Z" fill="#093F68"/>
<path d="M105.188 108.684C106.009 108.424 106.842 108.228 107.681 108.097C107.886 108.039 108.099 108.058 108.296 108.152C108.462 108.284 108.586 108.492 108.645 108.736C108.703 108.981 108.693 109.245 108.615 109.48C108.444 109.942 108.17 110.324 107.831 110.575C106.715 111.595 105.353 112.028 104.01 111.789C103.752 111.754 103.507 111.625 103.301 111.416C102.926 110.998 102.619 109.291 103.08 108.848C103.286 108.649 103.575 108.903 103.796 108.908C104.265 108.915 104.733 108.84 105.188 108.684Z" fill="#FFC9B0"/>
<path d="M104.756 112.366C104.485 112.365 104.214 112.337 103.946 112.281C103.619 112.231 103.31 112.058 103.054 111.784C102.655 111.164 102.449 110.364 102.48 109.55C102.473 109.339 102.504 109.129 102.569 108.936C102.634 108.744 102.732 108.574 102.855 108.44C102.973 108.345 103.106 108.288 103.243 108.274C103.381 108.261 103.519 108.29 103.646 108.361C103.695 108.381 103.745 108.396 103.796 108.405C104.235 108.409 104.672 108.339 105.098 108.197C105.934 107.931 106.782 107.73 107.636 107.594C107.908 107.526 108.188 107.559 108.446 107.689C108.701 107.872 108.895 108.176 108.99 108.539C109.085 108.903 109.075 109.301 108.96 109.654C108.762 110.216 108.437 110.682 108.03 110.988C107.062 111.858 105.925 112.337 104.756 112.366ZM103.256 109.271C103.256 109.271 103.226 109.366 103.215 109.6C103.204 110.114 103.317 110.619 103.538 111.042C103.692 111.186 103.871 111.276 104.059 111.301C105.309 111.511 106.574 111.106 107.614 110.162C107.886 109.962 108.109 109.661 108.255 109.296C108.295 109.179 108.305 109.047 108.283 108.922C108.26 108.797 108.207 108.685 108.131 108.604C107.994 108.56 107.852 108.56 107.715 108.604C106.891 108.734 106.073 108.928 105.266 109.187C104.776 109.351 104.272 109.43 103.766 109.42C103.649 109.414 103.533 109.385 103.421 109.336C103.364 109.313 103.305 109.297 103.245 109.286L103.256 109.271Z" fill="#093F68"/>
<path d="M98.9362 97.0563C99.7336 97.0563 100.38 96.1987 100.38 95.1408C100.38 94.0828 99.7336 93.2252 98.9362 93.2252C98.1389 93.2252 97.4925 94.0828 97.4925 95.1408C97.4925 96.1987 98.1389 97.0563 98.9362 97.0563Z" fill="#093F68"/>
<path d="M98.94 97.5589C98.7987 97.557 98.6579 97.5354 98.52 97.4942C98.2882 97.4213 98.0695 97.2884 97.8764 97.1031C97.6834 96.9178 97.5198 96.6838 97.395 96.4145C97.2676 96.1464 97.182 95.8471 97.1433 95.5343C97.1047 95.2215 97.1137 94.9016 97.17 94.5935C97.2381 94.2068 97.377 93.8483 97.5745 93.5498C97.772 93.2514 98.022 93.0223 98.3023 92.8828C98.5825 92.7433 98.8844 92.6977 99.1812 92.7501C99.4779 92.8025 99.7603 92.9513 100.003 93.1832C100.246 93.4152 100.442 93.7231 100.574 94.0797C100.706 94.4363 100.769 94.8305 100.759 95.2274C100.748 95.6244 100.664 96.0117 100.513 96.355C100.363 96.6984 100.151 96.9871 99.8963 97.1957C99.6095 97.4335 99.2781 97.5594 98.94 97.5589ZM97.8937 94.8174C97.8613 94.9995 97.8565 95.1883 97.8797 95.3728C97.9029 95.5573 97.9536 95.7339 98.0288 95.8921C98.1781 96.2112 98.4168 96.4385 98.6924 96.5244C98.968 96.6102 99.258 96.5474 99.4987 96.3499C99.6788 96.2023 99.8217 95.9871 99.9095 95.7316C99.9973 95.4761 100.026 95.1918 99.9918 94.9147C99.9577 94.6376 99.8623 94.3802 99.7178 94.1751C99.5732 93.97 99.3861 93.8264 99.18 93.7626C98.9041 93.6774 98.6139 93.7405 98.3729 93.9381C98.1319 94.1357 97.9597 94.4518 97.8937 94.8174Z" fill="#093F68"/>
<path d="M94.3876 97.9614L102.062 100.346L102.769 96.3446L95.0938 93.9599L94.3876 97.9614Z" fill="#093F68"/>
<path d="M102.067 100.833C102.039 100.838 102.01 100.838 101.981 100.833L94.305 98.4445C94.2088 98.415 94.1253 98.3363 94.0725 98.2256C94.0466 98.1696 94.0292 98.1074 94.0215 98.0425C94.0138 97.9776 94.0158 97.9113 94.0275 97.8474L94.7325 93.8671C94.7436 93.8033 94.764 93.7431 94.7926 93.6899C94.8212 93.6366 94.8574 93.5914 94.8992 93.5567C94.941 93.522 94.9875 93.4987 95.0361 93.4879C95.0848 93.4771 95.1345 93.4791 95.1825 93.4939L102.859 95.8821C102.907 95.8968 102.952 95.9239 102.992 95.9618C103.032 95.9998 103.067 96.0479 103.093 96.1033C103.119 96.1588 103.136 96.2205 103.145 96.285C103.153 96.3495 103.151 96.4155 103.14 96.4792L102.431 100.46C102.41 100.567 102.363 100.661 102.298 100.729C102.232 100.796 102.151 100.833 102.067 100.833ZM94.8413 97.5788L101.786 99.7381L102.322 96.7081L95.3775 94.5487L94.8413 97.5788Z" fill="#093F68"/>
<path d="M86.6503 121.546L101.095 126.034C101.685 126.218 102.276 125.731 102.415 124.947L106.703 100.652C106.841 99.8682 106.474 99.0839 105.884 98.9003L91.4394 94.4123C90.8485 94.2288 90.2574 94.7154 90.119 95.4994L85.831 119.794C85.6926 120.578 86.0594 121.362 86.6503 121.546Z" fill="white"/>
<path d="M101.355 126.561C101.241 126.562 101.128 126.545 101.017 126.511L86.5687 122.033C86.1892 121.915 85.8605 121.602 85.6546 121.163C85.4486 120.724 85.3823 120.194 85.47 119.69L89.7637 95.3996C89.8529 94.896 90.0889 94.4599 90.4199 94.1867C90.751 93.9134 91.1501 93.8254 91.53 93.9417L105.979 98.4197C106.358 98.538 106.687 98.8511 106.893 99.2903C107.099 99.7295 107.165 100.259 107.077 100.763L102.787 125.053C102.71 125.48 102.526 125.859 102.266 126.13C102.007 126.4 101.685 126.547 101.355 126.546V126.561ZM86.73 121.048L101.179 125.526C101.365 125.583 101.56 125.54 101.722 125.407C101.884 125.274 102 125.061 102.045 124.815L106.335 100.514C106.378 100.267 106.346 100.007 106.245 99.7912C106.145 99.5752 105.985 99.4203 105.799 99.3601L91.35 94.8821C91.1635 94.8238 90.9672 94.8659 90.8042 94.9993C90.6411 95.1327 90.5245 95.3464 90.48 95.5936L86.19 119.894C86.1683 120.016 86.1651 120.143 86.1805 120.268C86.196 120.392 86.2298 120.511 86.2799 120.617C86.3301 120.724 86.3957 120.817 86.4729 120.89C86.5502 120.963 86.6375 121.015 86.73 121.043V121.048Z" fill="#093F68"/>
<path d="M102.602 110.74L106.396 113.342C106.799 113.619 107.294 113.409 107.503 112.875L107.504 112.87C107.713 112.336 107.555 111.678 107.152 111.402L103.358 108.799C102.955 108.523 102.46 108.732 102.251 109.267L102.25 109.271C102.041 109.806 102.199 110.463 102.602 110.74Z" fill="#FFC9B0"/>
<path d="M106.762 113.963C106.572 113.965 106.384 113.905 106.215 113.789L102.424 111.187C102.158 110.981 101.963 110.648 101.877 110.256C101.791 109.865 101.822 109.445 101.963 109.082C102.103 108.72 102.344 108.443 102.634 108.309C102.924 108.174 103.242 108.193 103.522 108.361L107.314 110.963C107.547 111.129 107.733 111.394 107.841 111.716C107.948 112.037 107.973 112.397 107.91 112.739C107.846 113.081 107.7 113.385 107.492 113.604C107.284 113.823 107.028 113.944 106.762 113.948V113.963ZM102.975 109.182C102.928 109.182 102.882 109.191 102.836 109.207C102.724 109.256 102.63 109.361 102.574 109.5C102.52 109.641 102.511 109.803 102.547 109.953C102.564 110.028 102.592 110.099 102.63 110.159C102.668 110.219 102.715 110.267 102.769 110.301L106.556 112.903C106.662 112.975 106.784 112.989 106.897 112.941C107.01 112.894 107.105 112.789 107.16 112.65C107.188 112.58 107.205 112.505 107.21 112.427C107.216 112.349 107.209 112.27 107.192 112.196C107.174 112.121 107.145 112.052 107.107 111.992C107.068 111.933 107.021 111.884 106.969 111.848L103.177 109.246C103.115 109.203 103.045 109.181 102.975 109.182Z" fill="#093F68"/>
<path d="M101.843 112.679L105.637 115.282C106.04 115.559 106.536 115.349 106.744 114.815L106.746 114.81C106.954 114.276 106.796 113.618 106.393 113.342L102.599 110.739C102.196 110.463 101.701 110.672 101.493 111.207L101.491 111.211C101.283 111.746 101.44 112.403 101.843 112.679Z" fill="#FFC9B0"/>
<path d="M106.005 115.904C105.814 115.903 105.626 115.842 105.458 115.724L101.666 113.127C101.52 113.036 101.39 112.906 101.283 112.747C101.176 112.587 101.094 112.4 101.042 112.197C100.99 111.995 100.97 111.78 100.982 111.567C100.994 111.354 101.039 111.146 101.113 110.956C101.187 110.766 101.289 110.597 101.414 110.461C101.538 110.325 101.682 110.223 101.836 110.162C101.991 110.101 102.153 110.082 102.313 110.105C102.473 110.129 102.628 110.196 102.769 110.301L106.556 112.903C106.766 113.048 106.938 113.272 107.052 113.547C107.166 113.822 107.217 114.135 107.197 114.447C107.177 114.76 107.089 115.057 106.942 115.303C106.795 115.549 106.597 115.732 106.373 115.829C106.254 115.878 106.13 115.904 106.005 115.904ZM102 112.242L105.791 114.844C105.844 114.879 105.901 114.9 105.959 114.906C106.018 114.912 106.077 114.903 106.133 114.879C106.189 114.856 106.241 114.818 106.286 114.767C106.331 114.717 106.368 114.655 106.395 114.585C106.448 114.445 106.459 114.283 106.425 114.132C106.388 113.984 106.309 113.86 106.204 113.789L102.413 111.187C102.307 111.114 102.184 111.1 102.071 111.148C101.958 111.195 101.863 111.301 101.809 111.441C101.754 111.58 101.743 111.743 101.779 111.894C101.815 112.044 101.895 112.169 102 112.242Z" fill="#093F68"/>
<path d="M101.091 114.617L104.886 117.219C105.288 117.496 105.784 117.286 105.992 116.752L105.994 116.747C106.202 116.213 106.045 115.555 105.642 115.279L101.848 112.676C101.445 112.4 100.949 112.609 100.741 113.144L100.739 113.148C100.531 113.683 100.689 114.34 101.091 114.617Z" fill="#FFC9B0"/>
<path d="M105.251 117.844C105.061 117.844 104.873 117.782 104.704 117.665L100.912 115.068C100.647 114.862 100.451 114.529 100.366 114.137C100.28 113.746 100.31 113.325 100.451 112.963C100.592 112.601 100.833 112.324 101.123 112.189C101.413 112.055 101.731 112.074 102.011 112.242L105.803 114.844C106.036 115.01 106.221 115.275 106.329 115.596C106.437 115.918 106.461 116.278 106.398 116.62C106.335 116.961 106.188 117.266 105.981 117.485C105.773 117.703 105.516 117.825 105.251 117.829V117.844ZM101.25 114.182L105.045 116.794C105.097 116.831 105.154 116.854 105.213 116.861C105.272 116.868 105.331 116.86 105.387 116.836C105.443 116.812 105.496 116.774 105.54 116.723C105.585 116.672 105.622 116.61 105.649 116.54C105.677 116.472 105.694 116.396 105.699 116.318C105.704 116.24 105.697 116.162 105.679 116.088C105.641 115.938 105.562 115.814 105.457 115.739L101.666 113.142C101.614 113.106 101.557 113.084 101.498 113.077C101.44 113.07 101.381 113.079 101.325 113.102C101.268 113.126 101.216 113.164 101.171 113.214C101.126 113.265 101.089 113.326 101.062 113.396C101.008 113.536 100.998 113.699 101.034 113.849C101.07 113.999 101.149 114.124 101.254 114.197L101.25 114.182Z" fill="#093F68"/>
<path d="M100.333 116.556L104.127 119.159C104.53 119.435 105.025 119.226 105.233 118.692L105.235 118.687C105.444 118.153 105.286 117.495 104.883 117.219L101.089 114.616C100.686 114.34 100.19 114.549 99.9821 115.084L99.9803 115.088C99.772 115.623 99.9298 116.28 100.333 116.556Z" fill="#FFC9B0"/>
<path d="M104.494 119.779C104.303 119.778 104.115 119.717 103.946 119.6L100.155 117.003C100.007 116.914 99.8732 116.786 99.7632 116.627C99.6533 116.467 99.5689 116.28 99.5153 116.076C99.4617 115.872 99.4399 115.655 99.4514 115.44C99.4629 115.224 99.5073 115.014 99.582 114.822C99.6566 114.63 99.76 114.46 99.8857 114.323C100.012 114.185 100.157 114.083 100.313 114.023C100.47 113.963 100.634 113.945 100.796 113.972C100.957 113.998 101.113 114.068 101.254 114.177L105.045 116.794C105.276 116.963 105.458 117.228 105.564 117.549C105.67 117.869 105.693 118.227 105.63 118.567C105.567 118.906 105.422 119.209 105.217 119.428C105.011 119.648 104.757 119.771 104.494 119.779ZM100.706 114.993C100.66 114.993 100.615 115.003 100.571 115.023C100.515 115.046 100.463 115.084 100.418 115.134C100.373 115.185 100.336 115.247 100.309 115.316C100.281 115.385 100.264 115.461 100.259 115.539C100.254 115.617 100.26 115.695 100.279 115.769C100.316 115.918 100.395 116.043 100.5 116.117L104.291 118.715C104.343 118.751 104.4 118.773 104.459 118.78C104.518 118.787 104.577 118.778 104.633 118.755C104.689 118.731 104.741 118.693 104.786 118.642C104.831 118.592 104.868 118.53 104.895 118.461C104.949 118.321 104.959 118.158 104.924 118.008C104.888 117.858 104.809 117.733 104.704 117.66L100.912 115.063C100.849 115.02 100.778 114.998 100.706 114.998V114.993Z" fill="#093F68"/>
<path d="M57.5219 123.014L56.6283 123.519C56.374 123.663 56.087 123.667 55.8305 123.53C55.574 123.393 55.369 123.126 55.2607 122.789L45.9311 93.7255C45.845 93.4572 45.8427 93.1545 45.9248 92.884C46.0069 92.6134 46.1666 92.3973 46.3688 92.283L47.6523 91.5577C47.7524 91.5011 47.8599 91.4713 47.9688 91.4698C48.0776 91.4684 48.1856 91.4954 48.2865 91.5493C48.3875 91.6033 48.4795 91.683 48.5572 91.7841C48.6349 91.8852 48.6968 92.0056 48.7395 92.1385L58.0735 121.215C58.1818 121.553 58.1847 121.934 58.0814 122.274C57.9782 122.614 57.7772 122.886 57.5229 123.03L57.5219 123.014Z" fill="#093F68"/>
<path d="M56.2238 124.123C55.9456 124.123 55.6736 124.015 55.4415 123.811C55.2095 123.608 55.0277 123.318 54.9188 122.979L45.5888 93.9069C45.4648 93.5161 45.4622 93.0762 45.5816 92.6829C45.701 92.2896 45.9327 91.9749 46.2263 91.8073L47.5088 91.0808C47.8033 90.9163 48.1349 90.9129 48.4313 91.0714C48.7277 91.2298 48.9649 91.5372 49.0913 91.9267L58.4175 120.993C58.5637 121.452 58.5669 121.969 58.4263 122.431C58.2857 122.892 58.0128 123.261 57.6675 123.456L56.7713 123.954C56.599 124.058 56.4129 124.115 56.2238 124.123ZM48 91.9615C47.9385 91.9619 47.8775 91.9771 47.82 92.0063L46.5375 92.7327C46.4826 92.7636 46.4327 92.8087 46.3909 92.8652C46.3491 92.9217 46.316 92.9887 46.2938 93.0622C46.2715 93.1356 46.2603 93.2143 46.261 93.2935C46.2616 93.3727 46.274 93.451 46.2975 93.5238L55.6275 122.591C55.6969 122.806 55.8278 122.976 55.9916 123.064C56.1554 123.152 56.3386 123.15 56.5013 123.058L57.3938 122.561C57.4745 122.516 57.5477 122.45 57.6092 122.367C57.6707 122.284 57.7192 122.186 57.7519 122.078C57.7847 121.971 57.8011 121.855 57.8001 121.739C57.7991 121.623 57.7808 121.508 57.7463 121.401L48.42 92.3396C48.3856 92.229 48.3274 92.1342 48.2527 92.067C48.1781 91.9998 48.0902 91.9631 48 91.9615Z" fill="#093F68"/>
<path d="M41.73 96.0911L43.2525 100.828C43.3384 101.095 43.5007 101.307 43.7038 101.416C43.9069 101.525 44.1343 101.523 44.3362 101.41L44.5725 101.276C44.6727 101.219 44.7636 101.137 44.8399 101.034C44.9163 100.931 44.9765 100.809 45.0173 100.675C45.058 100.541 45.0785 100.397 45.0774 100.253C45.0764 100.108 45.0539 99.9656 45.0112 99.8327C46.0837 99.3799 47.3737 100.29 47.3737 100.29L51.285 98.0813C51.285 98.0813 51.1912 95.5936 51.5587 94.9368C51.9262 94.28 54.2325 95.2204 54.4012 94.4741C54.57 93.7278 52.4062 92.3396 50.445 91.9863C48.795 91.6828 44.7675 94.3795 43.5337 95.2403L43.4925 95.1109C43.45 94.9779 43.3881 94.8574 43.3103 94.7563C43.2325 94.6552 43.1404 94.5755 43.0393 94.5219C42.9382 94.4682 42.8301 94.4417 42.7213 94.4437C42.6124 94.4457 42.5049 94.4764 42.405 94.5338L42.1725 94.6681C41.973 94.7813 41.815 94.9937 41.7323 95.2598C41.6495 95.5258 41.6487 95.8243 41.73 96.0911Z" fill="#68E1FD"/>
<path d="M44.0138 101.992C43.7746 101.998 43.5396 101.909 43.3391 101.736C43.1385 101.563 42.9817 101.314 42.8888 101.022L41.3662 96.2851C41.3059 96.0919 41.2748 95.8848 41.2748 95.6756C41.2748 95.4665 41.3059 95.2594 41.3662 95.0662C41.4242 94.871 41.5112 94.6933 41.622 94.5437C41.7328 94.3941 41.8652 94.2757 42.0112 94.1954L42.2437 94.0611C42.4896 93.9208 42.7638 93.8935 43.0227 93.9836C43.2815 94.0738 43.5103 94.2762 43.6725 94.5587C45.4012 93.3745 48.8737 91.1753 50.4825 91.4788C52.2412 91.8072 54.1875 92.9118 54.645 93.8521C54.7034 93.9611 54.7428 94.0859 54.7603 94.2176C54.7778 94.3493 54.773 94.4845 54.7463 94.6134C54.5738 95.3796 53.7863 95.305 52.9538 95.2303C52.58 95.1593 52.2 95.1693 51.8288 95.2602C51.6788 95.5338 51.6075 96.932 51.6487 98.0564C51.6552 98.1602 51.6369 98.264 51.5966 98.3532C51.5562 98.4425 51.4958 98.5127 51.4238 98.554L47.5125 100.763C47.4621 100.795 47.407 100.811 47.3512 100.811C47.2955 100.811 47.2404 100.795 47.19 100.763C46.65 100.404 46.0499 100.232 45.4462 100.266C45.4531 100.472 45.4289 100.678 45.375 100.873C45.2554 101.265 45.0234 101.578 44.73 101.743L44.4937 101.878C44.3413 101.959 44.178 101.998 44.0138 101.992ZM42.7275 94.9268C42.6667 94.926 42.6065 94.943 42.5512 94.9766L42.315 95.1109C42.2597 95.1408 42.2095 95.1853 42.1676 95.2418C42.1257 95.2982 42.0929 95.3654 42.0712 95.4393C42.0262 95.5861 42.0262 95.7503 42.0712 95.8971L43.5712 100.634C43.6204 100.781 43.7104 100.896 43.8225 100.957C43.9331 101.017 44.0569 101.017 44.1675 100.957L44.4 100.823C44.4556 100.793 44.5062 100.749 44.5487 100.692C44.5912 100.636 44.6248 100.569 44.6475 100.495C44.6702 100.422 44.6816 100.343 44.6809 100.263C44.6803 100.183 44.6677 100.105 44.6438 100.032C44.6223 99.9678 44.6112 99.8985 44.6113 99.8286C44.6113 99.7586 44.6225 99.6894 44.6441 99.6255C44.6657 99.5616 44.6972 99.5045 44.7366 99.4579C44.7759 99.4113 44.8222 99.3763 44.8725 99.355C45.8513 98.9421 46.9462 99.4993 47.3587 99.7481L50.8725 97.7579C50.8725 96.9071 50.8725 95.2701 51.2475 94.6383C51.5475 94.1109 52.2262 94.1755 53.01 94.2452C53.3217 94.2828 53.6349 94.2911 53.9475 94.2701C53.5725 93.7476 51.9975 92.7774 50.3813 92.4689C49.1513 92.2401 46.125 93.9616 43.6987 95.6732C43.6527 95.7045 43.6023 95.7229 43.5507 95.7272C43.4991 95.7315 43.4473 95.7216 43.3988 95.698C43.3496 95.6753 43.3045 95.6392 43.2664 95.5921C43.2283 95.545 43.198 95.4879 43.1775 95.4244L43.1362 95.3C43.1013 95.1916 43.0433 95.0991 42.9694 95.0337C42.8955 94.9684 42.8088 94.9329 42.72 94.9318L42.7275 94.9268Z" fill="#093F68"/>
<path d="M49.3248 111.891L53.6335 110.101C54.2284 109.854 54.5596 109.013 54.3733 108.224L54.2489 107.697C54.0626 106.908 53.4293 106.468 52.8344 106.715L48.5257 108.506C47.9308 108.753 47.5996 109.593 47.7859 110.383L47.9103 110.91C48.0966 111.699 48.7299 112.138 49.3248 111.891Z" fill="#FFC9B0"/>
<path d="M48.9937 112.451C48.6731 112.452 48.3607 112.317 48.1022 112.065C47.8438 111.813 47.6528 111.459 47.5575 111.052L47.43 110.525C47.3127 110.022 47.3506 109.477 47.5355 109.011C47.7204 108.544 48.0371 108.194 48.4162 108.037L52.725 106.246C53.1044 106.09 53.5149 106.141 53.8664 106.386C54.2179 106.631 54.4817 107.052 54.6 107.555L54.7275 108.082C54.8448 108.585 54.8068 109.13 54.622 109.596C54.4371 110.063 54.1203 110.413 53.7412 110.57L49.4325 112.361C49.2902 112.419 49.1425 112.449 48.9937 112.451ZM53.1712 107.137C53.0959 107.137 53.0211 107.153 52.95 107.186L48.6412 108.973C48.5464 109.011 48.4582 109.074 48.3818 109.158C48.3055 109.242 48.2424 109.346 48.1964 109.462C48.1504 109.579 48.1222 109.707 48.1136 109.838C48.105 109.969 48.1161 110.101 48.1462 110.226L48.2737 110.754C48.3028 110.879 48.3503 110.996 48.4134 111.097C48.4765 111.198 48.554 111.281 48.6414 111.342C48.7289 111.403 48.8246 111.44 48.923 111.452C49.0215 111.464 49.1207 111.45 49.215 111.411L53.5237 109.619C53.6187 109.58 53.7067 109.515 53.7827 109.43C53.8587 109.344 53.9211 109.24 53.9662 109.122C54.0124 109.006 54.0408 108.879 54.0498 108.748C54.0588 108.618 54.0482 108.486 54.0187 108.361L53.8912 107.828C53.8425 107.626 53.7463 107.45 53.6168 107.326C53.4872 107.201 53.3311 107.135 53.1712 107.137Z" fill="#093F68"/>
<path d="M50.0916 115.139L54.4002 113.349C54.9951 113.102 55.3263 112.261 55.14 111.472L55.0156 110.945C54.8293 110.156 54.196 109.716 53.6011 109.963L49.2925 111.754C48.6976 112.001 48.3663 112.841 48.5527 113.631L48.6771 114.158C48.8634 114.947 49.4967 115.386 50.0916 115.139Z" fill="#FFC9B0"/>
<path d="M49.7587 115.7C49.4382 115.701 49.1257 115.566 48.8673 115.314C48.6088 115.062 48.4179 114.708 48.3225 114.301L48.1987 113.769C48.0813 113.266 48.1187 112.722 48.3028 112.256C48.487 111.79 48.8028 111.439 49.1812 111.281L53.49 109.49C53.8694 109.334 54.2799 109.385 54.6314 109.63C54.9829 109.875 55.2467 110.296 55.365 110.799L55.5 111.321C55.6173 111.825 55.5794 112.369 55.3945 112.835C55.2096 113.302 54.8929 113.652 54.5137 113.809L50.205 115.595C50.0614 115.661 49.9107 115.697 49.7587 115.7ZM53.94 110.386C53.8637 110.386 53.7879 110.401 53.715 110.43L49.4062 112.222C49.3117 112.261 49.2239 112.324 49.148 112.409C49.072 112.493 49.0094 112.596 48.9637 112.713C48.9181 112.829 48.8903 112.957 48.8819 113.088C48.8735 113.219 48.8848 113.35 48.915 113.475L49.0387 114.003C49.0678 114.129 49.1154 114.246 49.1787 114.347C49.2421 114.448 49.32 114.532 49.4079 114.593C49.4958 114.654 49.5919 114.692 49.6908 114.703C49.7896 114.714 49.8892 114.7 49.9837 114.66L54.2887 112.868C54.3836 112.83 54.4718 112.767 54.5481 112.683C54.6245 112.599 54.6875 112.495 54.7336 112.379C54.7796 112.262 54.8077 112.134 54.8164 112.003C54.825 111.872 54.8139 111.74 54.7837 111.615L54.66 111.087C54.6125 110.883 54.5169 110.705 54.3873 110.579C54.2577 110.452 54.1008 110.385 53.94 110.386Z" fill="#093F68"/>
<path d="M50.8536 118.384L55.1622 116.593C55.7571 116.346 56.0883 115.506 55.902 114.717L55.7776 114.189C55.5913 113.4 54.958 112.961 54.3631 113.208L50.0545 114.998C49.4596 115.246 49.1284 116.086 49.3147 116.875L49.4391 117.402C49.6254 118.191 50.2587 118.631 50.8536 118.384Z" fill="#FFC9B0"/>
<path d="M50.5237 118.944C50.2031 118.945 49.8907 118.81 49.6322 118.558C49.3738 118.306 49.1828 117.952 49.0875 117.545L48.9637 117.018C48.8464 116.515 48.8844 115.97 49.0692 115.504C49.2541 115.037 49.5709 114.687 49.95 114.53L54.255 112.744C54.6344 112.588 55.0449 112.639 55.3964 112.884C55.7479 113.129 56.0117 113.55 56.13 114.053L56.2537 114.58C56.371 115.083 56.3331 115.628 56.1482 116.094C55.9633 116.561 55.6466 116.911 55.2675 117.068L50.9625 118.859C50.82 118.915 50.6723 118.943 50.5237 118.944ZM54.7087 113.63C54.6309 113.629 54.5535 113.646 54.48 113.679L50.175 115.466C50.0794 115.504 49.9909 115.568 49.9147 115.653C49.8386 115.739 49.7766 115.844 49.7325 115.963C49.6863 116.079 49.6579 116.206 49.6489 116.337C49.6399 116.468 49.6505 116.599 49.68 116.724L49.8037 117.252C49.8328 117.378 49.8804 117.495 49.9437 117.596C50.0071 117.697 50.085 117.781 50.1729 117.842C50.2608 117.903 50.3569 117.94 50.4558 117.952C50.5546 117.963 50.6542 117.949 50.7487 117.909L55.0575 116.117C55.1524 116.078 55.2405 116.013 55.3164 115.928C55.3924 115.842 55.4548 115.738 55.5 115.62C55.5906 115.383 55.608 115.108 55.5487 114.854L55.425 114.326C55.3777 114.123 55.2827 113.946 55.1538 113.819C55.0249 113.693 54.8689 113.625 54.7087 113.625V113.63Z" fill="#093F68"/>
<path d="M51.6203 121.632L55.9289 119.841C56.5238 119.594 56.8551 118.754 56.6687 117.964L56.5443 117.437C56.358 116.648 55.7247 116.209 55.1298 116.456L50.8212 118.246C50.2263 118.493 49.8951 119.334 50.0814 120.123L50.2058 120.65C50.3921 121.439 51.0254 121.879 51.6203 121.632Z" fill="#FFC9B0"/>
<path d="M51.2887 122.193C51.0458 122.191 50.8066 122.113 50.5912 121.964C50.4137 121.844 50.256 121.678 50.1272 121.477C49.9984 121.275 49.9012 121.041 49.8412 120.789L49.7137 120.262C49.5964 119.759 49.6344 119.214 49.8192 118.748C50.0041 118.281 50.3209 117.931 50.7 117.774L55.0087 115.983C55.3882 115.827 55.7986 115.878 56.1501 116.123C56.5016 116.368 56.7654 116.789 56.8837 117.292L57.0075 117.819C57.125 118.322 57.0875 118.866 56.9034 119.332C56.7193 119.798 56.4034 120.149 56.025 120.307L51.75 122.098C51.6011 122.162 51.4453 122.194 51.2887 122.193ZM55.47 116.879C55.3938 116.879 55.318 116.894 55.245 116.923L50.94 118.715C50.8455 118.753 50.7577 118.816 50.6817 118.9C50.6056 118.984 50.5428 119.086 50.4968 119.203C50.4508 119.319 50.4225 119.446 50.4137 119.576C50.4048 119.707 50.4154 119.838 50.445 119.963L50.5687 120.496C50.5982 120.621 50.646 120.738 50.7096 120.839C50.7731 120.939 50.851 121.022 50.9389 121.083C51.0267 121.144 51.1228 121.18 51.2214 121.192C51.3201 121.203 51.4194 121.188 51.5137 121.148L55.8225 119.361C55.9174 119.323 56.0055 119.26 56.0819 119.176C56.1582 119.092 56.2213 118.988 56.2673 118.872C56.3133 118.755 56.3415 118.627 56.3501 118.496C56.3587 118.365 56.3476 118.233 56.3175 118.108L56.19 117.58C56.1425 117.376 56.0469 117.198 55.9173 117.072C55.7876 116.945 55.6308 116.878 55.47 116.879Z" fill="#093F68"/>
<path d="M58.3113 117.889L58.3149 117.888C59.0402 117.587 59.4441 116.562 59.2169 115.6L57.1323 106.768C56.9051 105.806 56.1329 105.27 55.4076 105.571L55.404 105.573C54.6787 105.874 54.2748 106.899 54.502 107.861L56.5866 116.693C56.8138 117.655 57.586 118.191 58.3113 117.889Z" fill="#FFC9B0"/>
<path d="M57.9075 118.466C57.5341 118.465 57.1706 118.307 56.8698 118.013C56.5691 117.72 56.3467 117.307 56.235 116.834L54.15 108.002C54.0112 107.414 54.0544 106.776 54.2699 106.23C54.4855 105.684 54.8558 105.273 55.2993 105.089C55.7429 104.905 56.2234 104.962 56.6352 105.248C57.047 105.534 57.3562 106.026 57.495 106.614L59.58 115.446C59.7173 116.034 59.6733 116.671 59.4575 117.217C59.2418 117.762 58.8718 118.172 58.4287 118.356C58.2604 118.429 58.0845 118.466 57.9075 118.466ZM55.8225 105.977C55.7208 105.978 55.6197 105.998 55.5225 106.037C55.2693 106.144 55.0582 106.379 54.9352 106.691C54.8122 107.003 54.7874 107.367 54.8662 107.704L56.9512 116.535C56.9901 116.702 57.0535 116.858 57.1378 116.992C57.2222 117.126 57.3257 117.237 57.4425 117.318C57.5593 117.399 57.6871 117.449 57.8184 117.464C57.9497 117.479 58.0819 117.459 58.2075 117.406C58.3331 117.354 58.4498 117.27 58.5508 117.157C58.6518 117.045 58.7352 116.908 58.7961 116.753C58.8571 116.598 58.8944 116.429 58.906 116.255C58.9176 116.081 58.9033 115.906 58.8637 115.739L56.7787 106.908C56.7148 106.638 56.5876 106.402 56.4156 106.235C56.2436 106.067 56.0358 105.977 55.8225 105.977Z" fill="#093F68"/>
</svg>
