<svg width="150" height="150" viewBox="0 0 150 150" fill="none" xmlns="http://www.w3.org/2000/svg">
<path opacity="0.3" d="M106.226 35.7335C117.57 40.5995 126.371 54.2821 128.659 71.3978C130.582 85.8267 127.387 103.549 108.742 111.779C89.7112 120.182 36.495 124.218 26.6175 100.833C16.74 77.448 18.795 47.4607 39.0825 36.8231C53.3062 29.3698 84.0637 26.2402 106.226 35.7335Z" fill="#E6E6E6"/>
<path opacity="0.45" d="M75.0001 133.437C103.289 133.437 126.221 131.33 126.221 128.73C126.221 126.131 103.289 124.024 75.0001 124.024C46.7113 124.024 23.7788 126.131 23.7788 128.73C23.7788 131.33 46.7113 133.437 75.0001 133.437Z" fill="#E6E6E6"/>
<path d="M118.399 119.68H91.0312V128.596H118.399V119.68Z" fill="#C9C9C9"/>
<path d="M120.409 110.764H95.7488V119.68H120.409V110.764Z" fill="#E6E6E6"/>
<path d="M117.019 110.833L118.837 97.1907H105.937L104.816 108.818L98.9025 108.928V110.833H117.019Z" fill="#24285B"/>
<path d="M111.881 105.445C112.594 105.445 113.171 104.679 113.171 103.733C113.171 102.788 112.594 102.022 111.881 102.022C111.169 102.022 110.591 102.788 110.591 103.733C110.591 104.679 111.169 105.445 111.881 105.445Z" fill="white"/>
<path d="M75.1762 65.3774C75.2811 66.4243 75.2811 67.485 75.1762 68.5318C75.1357 68.7794 75.0232 68.9957 74.863 69.1336C74.7029 69.2715 74.5081 69.3199 74.3212 69.2682C74.0208 69.2089 73.7394 69.0368 73.5102 68.7724C73.281 68.5079 73.1135 68.1621 73.0275 67.7756L72.5475 66.1436C72.4759 65.8041 72.4859 65.4434 72.5759 65.1117C72.666 64.78 72.8317 64.4937 73.05 64.2927C73.8187 63.4568 75.105 64.2231 75.1762 65.3774Z" fill="#F4A28C"/>
<path d="M72.6225 66.4222L72.09 72.6018L74.6812 72.7461L74.0287 68.1935L72.6225 66.4222Z" fill="#F4A28C"/>
<path d="M75.2475 66.5715L75.6675 67.2781C75.6939 67.3178 75.712 67.366 75.72 67.4179C75.728 67.4698 75.7257 67.5236 75.7132 67.5739C75.7006 67.6242 75.6784 67.6693 75.6487 67.7047C75.619 67.7401 75.5828 67.7645 75.5437 67.7756L75 67.9448L75.2475 66.5715Z" fill="#F4A28C"/>
<path opacity="0.31" d="M74.2013 69.1786C73.8761 69.0903 73.5776 68.8776 73.3425 68.5667C73.4717 69.4514 73.8481 70.2387 74.3963 70.7708L74.2013 69.1786Z" fill="#CE8172"/>
<path d="M74.8988 65.457C74.7934 65.5035 74.6856 65.54 74.5763 65.5665C74.4218 65.6133 74.2711 65.6799 74.1263 65.7655L74.0101 65.8352C73.9276 65.8824 73.8576 65.9611 73.8089 66.0612C73.7601 66.1612 73.7349 66.2783 73.7363 66.3974C73.7541 66.6295 73.7351 66.8639 73.6805 67.0857C73.6259 67.3074 73.5369 67.5115 73.4193 67.6849C73.3017 67.8583 73.158 67.9971 72.9976 68.0924C72.8371 68.1878 72.6634 68.2374 72.4876 68.2383C72.4876 68.2383 71.3626 66.0093 72.2626 64.2928C72.526 63.8235 72.8643 63.437 73.2532 63.161C73.6421 62.8849 74.0721 62.726 74.5126 62.6956C74.7669 62.6885 75.0149 62.8015 75.2122 63.0146C75.4095 63.2276 75.5433 63.5268 75.5897 63.8587C75.6361 64.1905 75.5921 64.5335 75.4656 64.8262C75.339 65.119 75.1381 65.3426 74.8988 65.457Z" fill="#24285B"/>
<path d="M73.71 67.4522C73.7513 67.3829 73.7779 67.3003 73.7871 67.2128C73.7963 67.1254 73.7878 67.0363 73.7625 66.9546C73.68 66.7009 73.5225 66.3625 73.2638 66.4173C73.005 66.472 72.945 67.0342 73.1288 67.4124C73.1639 67.4696 73.2083 67.5157 73.2585 67.5474C73.3088 67.5791 73.3638 67.5955 73.4194 67.5955C73.475 67.5955 73.53 67.5791 73.5803 67.5474C73.6305 67.5157 73.6749 67.4696 73.71 67.4124V67.4522Z" fill="#F4A28C"/>
<path d="M83.3175 126.705C83.3175 126.705 83.8725 127.994 84.8175 127.88C85.7625 127.765 86.175 128.924 85.3763 129.437C84.5775 129.949 82.2075 129.024 82.2075 129.024L81.9825 126.725L83.3175 126.705Z" fill="#68E1FD"/>
<path d="M65.8951 126.705C65.8951 126.705 66.4501 127.994 67.3951 127.88C68.3401 127.765 68.7526 128.924 67.9538 129.437C67.1551 129.949 64.7888 129.024 64.7888 129.024L64.5601 126.725L65.8951 126.705Z" fill="#68E1FD"/>
<path d="M75.3225 72.0843L77.91 72.2286C77.91 72.2286 86.5763 73.6765 89.5613 69.1786C92.5463 64.6808 91.65 56.7996 91.65 56.7996H93.9C93.9 56.7996 98.7338 76.3035 84.6788 81.677C83.4437 82.1572 82.3222 83.0497 81.4214 84.2693C80.5206 85.4889 79.8706 86.9947 79.5338 88.6427L78.375 94.1357H64.1813L63.8963 85.1798C63.8567 83.7713 63.567 82.395 63.051 81.163C62.5349 79.931 61.8069 78.8781 60.9263 78.0897C57.5513 75.1044 52.7138 68.4721 56.2913 56.7847H58.8263C58.8263 56.7847 56.625 73.8108 75.3225 72.0843Z" fill="#68E1FD"/>
<path opacity="0.08" d="M74.3962 74.6368C74.3962 74.6368 89.5725 81.5328 91.0312 65.7854C91.0312 65.7854 89.7225 74.1691 78.3525 72.2884L75.3225 72.0844L74.3962 74.6368Z" fill="black"/>
<path d="M64.1813 94.1357H78.375L84.21 127.034H81.585L73.8563 102.549C73.815 102.421 73.7422 102.316 73.6497 102.25C73.5573 102.185 73.4507 102.163 73.3477 102.188C73.2446 102.214 73.1512 102.285 73.0828 102.391C73.0143 102.496 72.975 102.629 72.9713 102.768L72.885 107.122C72.6332 112.752 71.2377 118.186 68.8463 122.849L66.7013 127.034H63.9263L65.88 122.058C68.2013 116.028 67.755 109.306 66.255 102.843L64.1813 94.1357Z" fill="#24285B"/>
<path opacity="0.08" d="M57.255 56.8395C57.255 56.8395 54.165 68.3229 61.5225 75.4677C65.43 79.264 67.0875 81.9359 67.785 83.6325C68.7739 86.085 69.9541 88.393 71.3062 90.5186L73.65 94.1358H64.1812L63.915 85.8267C63.9717 84.3031 63.7241 82.7866 63.1973 81.4307C62.6705 80.0747 61.8832 78.9274 60.915 78.1047C60.915 78.1047 51.6637 71.4127 56.28 56.7997L57.255 56.8395Z" fill="black"/>
<path d="M70.7175 72.1143C70.7175 72.1143 73.605 68.3578 76.5825 72.1143C76.5825 72.1143 74.31 77.9853 70.7175 72.1143Z" fill="#68E1FD"/>
<path opacity="0.46" d="M76.5825 72.1143C76.5825 72.1143 74.31 78.0003 70.7175 72.1143C70.7175 72.1143 73.605 68.3578 76.5825 72.1143Z" fill="white"/>
<path d="M56.6775 56.8146L56.2275 54.7249H58.395V56.8146H56.6775Z" fill="#F4A28C"/>
<path d="M91.7663 56.8146L91.3163 54.7249H93.4838V56.8146H91.7663Z" fill="#F4A28C"/>
<path d="M59.2772 56.0234C61.6579 55.0673 62.7337 50.5483 61.6802 45.93C60.6266 41.3116 57.8426 38.3427 55.4619 39.2988C53.0812 40.2549 52.0053 44.7738 53.0589 49.3922C54.1125 54.0106 56.8965 56.9795 59.2772 56.0234Z" fill="#C9C9C9"/>
<path d="M89.0288 57.3469C80.4863 60.775 65.655 56.7051 63.0675 45.3709C60.48 34.0367 71.1263 19.7372 79.665 16.2892C81.6959 15.4724 83.8282 15.1944 85.94 15.471C88.0519 15.7476 90.102 16.5734 91.9734 17.9013C93.8447 19.2291 95.5006 21.033 96.8465 23.2099C98.1924 25.3868 99.2019 27.8941 99.8175 30.5887C100.433 33.2833 100.643 36.1124 100.434 38.9144C100.226 41.7164 99.6033 44.4365 98.6025 46.9194C97.6017 49.4023 96.2421 51.5993 94.6014 53.385C92.9607 55.1708 91.0709 56.5103 89.04 57.327L89.0288 57.3469Z" fill="#FFD200"/>
<path d="M68.197 53.41L63.9786 34.9187L54.1658 38.8595L58.3842 57.3508L68.197 53.41Z" fill="#24285B"/>
<path d="M66.8212 48.2418C66.8191 48.2237 66.8191 48.2053 66.8212 48.1871C66.8192 48.154 66.8222 48.1207 66.83 48.0892C66.8378 48.0577 66.8503 48.0285 66.8667 48.0035C66.8831 47.9785 66.9031 47.958 66.9256 47.9434C66.9481 47.9288 66.9725 47.9203 66.9975 47.9184L83.5387 46.4258L79.6575 29.4444C75.6675 32.7084 66 40.709 65.52 41.2065C65.4962 41.2426 65.4649 41.2685 65.43 41.2811C65.4061 41.291 65.381 41.2945 65.3561 41.2913C65.3312 41.2881 65.307 41.2784 65.285 41.2626C65.263 41.2469 65.2436 41.2254 65.2279 41.1995C65.2122 41.1737 65.2006 41.1439 65.1937 41.112C65.1337 40.8532 65.1337 40.8532 72.4612 34.7881C76.0612 31.8028 79.665 28.8175 79.665 28.8175C79.6913 28.8004 79.7201 28.7915 79.7494 28.7915C79.7786 28.7915 79.8075 28.8004 79.8337 28.8175C79.8605 28.8321 79.8845 28.8544 79.9039 28.8828C79.9234 28.9112 79.9378 28.945 79.9462 28.9817L83.9625 46.59C83.9719 46.6262 83.9748 46.6648 83.9709 46.7028C83.967 46.7408 83.9564 46.777 83.9399 46.8085C83.9235 46.84 83.9017 46.8659 83.8763 46.8841C83.8509 46.9023 83.8226 46.9124 83.7937 46.9134L67.0162 48.406C66.9746 48.4115 66.9328 48.3983 66.8974 48.3685C66.8621 48.3387 66.8353 48.2942 66.8212 48.2418Z" fill="#24285B"/>
<path opacity="0.58" d="M37.6012 122.71C37.6012 122.71 34.3687 121.541 33.6637 117.545C33.6637 117.545 38.6737 116.202 38.8162 123.063L37.6012 122.71Z" fill="#68E1FD"/>
<path opacity="0.73" d="M37.9988 122.267C37.9988 122.267 35.7488 117.525 37.7251 113.097C37.7251 113.097 41.5351 116.306 39.8438 122.277L37.9988 122.267Z" fill="#68E1FD"/>
<path d="M38.58 122.267C38.58 122.267 39.7725 117.292 43.38 116.297C43.38 116.297 44.055 119.546 41.0437 122.267H38.58Z" fill="#68E1FD"/>
<path d="M36.2362 122.178L36.8887 128.123L41.0175 128.148L41.625 122.207L36.2362 122.178Z" fill="#24285B"/>
</svg>
